<svg width="443" height="452" viewBox="0 0 443 452" fill="none" xmlns="http://www.w3.org/2000/svg">
<g filter="url(#filter0_d_28_20)">
<path d="M409 20H34V404H409V20Z" fill="white"/>
<path fill-rule="evenodd" clip-rule="evenodd" d="M307.835 256.987C302.382 259.171 296.073 262.448 295.488 268.415C302.896 262.578 312.047 259.095 321.38 258.56C314.932 266.878 306.791 273.813 297.631 278.791C289.404 283.261 278.988 288.029 278.283 297.538C287.118 286.765 300.702 280.242 314.441 280.177C305.651 293.36 291.557 302.711 276.216 305.537C276.742 309.588 293.752 318.265 298.707 319.934C302.235 335.457 303.764 355.586 307.292 371.109C308.16 374.929 308.925 379.318 306.641 382.466C304.375 385.589 300.095 386.126 296.305 386.402C281.368 387.489 260.932 388.577 245.995 389.664C244.206 381.367 242.418 373.071 240.63 364.774C215.434 367.169 107.421 392.515 87.5985 379.219C11.0791 327.889 108.655 310.403 110.752 247.909C111.233 233.58 69.1595 208.532 69.8275 193.89C70.2637 184.328 71.7091 174.989 76.3286 166.779C80.9482 158.57 88.2685 152.246 96.2245 147.408C85.2705 144.525 76.9739 133.344 77.1959 121.765C77.4179 110.186 86.137 99.3472 97.1925 96.9071C91.98 90.546 83.7723 87.6306 77.777 82.0396C70.793 75.5264 67.2835 65.0202 69.8275 55.7046C72.3715 46.389 81.3286 39.0597 90.7665 39.4727C98.5185 39.8119 105.341 44.8327 110.752 50.5272C119.144 59.3586 125.386 70.3172 128.76 82.1456C131.009 90.0294 139.252 94.0399 146.214 98.12C153.175 102.2 160.404 109.307 158.443 117.271C155.85 106.373 194.389 119.354 229.341 122.532C233.982 122.954 238.976 123.567 242.406 126.796C247.336 131.434 254.738 133.126 261.126 131.075C263.158 136.234 264.654 142.03 262.926 147.304C261.198 152.579 255.078 156.605 250.186 154.185C251.463 160.912 252.74 167.64 254.017 174.367C266.525 174.521 279.032 174.783 291.536 175.152C298.163 175.347 305.089 175.656 310.849 179.018C316.609 182.38 324.318 177.617 330.009 165.38C326.326 185.348 330.69 193.326 338.216 195.496C338.231 195.345 338.816 195.417 338.833 195.266C341.074 175.533 354.15 158.013 372.348 151.082C370.738 154.879 359.224 162.38 351.229 171.958C343.419 181.313 339.681 193.838 339.294 196.088C351.694 192.758 355.829 202.218 376.868 193.89C367.254 205.725 348.728 208.64 336.088 200.304C330.125 207.115 330.458 214.655 326.234 222.715C333.41 213.582 342.938 221.679 335.379 227.598C339.391 227.993 343.729 228.534 346.639 231.389C349.549 234.245 349.622 240.255 345.868 241.758C333.191 246.834 320.513 251.911 307.835 256.987Z" fill="#7BF5D9"/>
<path fill-rule="evenodd" clip-rule="evenodd" d="M287.256 211.985C287.715 211.091 288.213 210.154 289.058 209.633C289.902 209.113 291.198 209.22 291.653 210.116C292.136 211.069 291.416 212.218 290.571 212.854C289.726 213.491 288.686 213.939 288.137 214.854C291.106 216.857 294.074 218.861 297.043 220.864C299.368 222.432 301.998 224.673 301.522 227.482C301.243 229.129 299.88 230.41 298.362 231.024C296.843 231.639 295.174 231.703 293.542 231.751C282.575 232.075 271.596 232.018 260.632 231.58C259.872 231.55 259.023 231.477 258.516 230.896C258.124 230.445 258.043 229.802 257.979 229.202C257.348 223.226 256.717 217.251 256.086 211.275C256.063 211.054 256.041 210.824 256.118 210.616C256.442 209.744 257.717 210.281 258.43 210.864C263.477 214.989 271.546 214.504 276.087 209.803C277.184 208.667 279.053 208.814 280.462 209.499C281.872 210.184 283.052 211.298 284.466 211.973C284.315 211.136 285.036 210.252 285.867 210.256C286.699 210.259 287.413 211.148 287.256 211.985Z" fill="white"/>
<path fill-rule="evenodd" clip-rule="evenodd" d="M110.638 146.031C110.638 146.031 109.413 131.004 112.497 126.174C115.581 121.343 127.328 119.889 127.328 119.889C127.328 119.889 159.523 119.458 176.918 120.139C194.313 120.82 229.103 123.873 229.103 123.873C229.103 123.873 233.624 124.882 235.656 126.174C237.688 127.465 240.522 131.13 240.522 131.13C240.522 131.13 246.69 132.051 249.759 132.176C252.827 132.301 255.638 131.747 255.638 131.747C255.638 131.747 259.548 143.424 256.784 148.991C254.019 154.557 244.738 153.694 244.738 153.694L248.023 174.525C248.023 174.525 244.117 176.415 241.982 178.785C239.847 181.156 238.99 184.554 238.99 184.554L245.335 247.909C245.335 247.909 247.202 251.202 251.211 252.453C255.221 253.704 264.254 253.81 264.254 253.81C264.254 253.81 263.932 260.198 264.254 262.948C264.576 265.697 264.863 267.203 264.863 267.203L271.664 317.06C271.664 317.06 265.054 318.292 258.513 319.917C251.972 321.542 238.99 325.178 238.99 325.178C238.99 325.178 234.414 327.314 233.821 330.764C233.228 334.213 235.656 344.58 235.656 344.58L162.777 350.269C162.777 350.269 155.685 350.405 153.245 348.832C150.806 347.258 150.137 342.114 150.137 342.114L140.28 251.325C140.28 251.325 124.528 251.72 119.927 249.031C115.326 246.34 114.77 236.411 114.77 236.411C114.77 236.411 115.534 230.782 114.77 226.876C114.515 225.573 111.183 211.445 110.064 198.003C109.431 190.396 118.172 184.554 118.172 184.554L110.638 146.031Z" fill="white"/>
<path fill-rule="evenodd" clip-rule="evenodd" d="M162.062 125.131C161.495 125.949 161.97 127.169 162.789 127.72C163.608 128.27 164.639 128.332 165.618 128.377C176.25 128.867 186.882 129.357 197.513 129.847C198.549 129.895 199.697 129.905 200.482 129.211C201.266 128.517 201.163 126.862 200.139 126.696C188.316 124.771 176.319 123.971 164.353 124.311C163.513 124.335 162.548 124.429 162.062 125.131Z" fill="#E7EAEE"/>
<path fill-rule="evenodd" clip-rule="evenodd" d="M209.366 203.163L206.603 189.886C206.603 189.886 206.474 192.624 205.011 193.737C203.548 194.851 200.656 194.413 200.656 194.413C200.656 194.413 200.198 185.142 202.234 182.319C204.27 179.496 206.275 182.162 210.142 181.259C214.006 180.357 213.205 177.385 217.695 178.708C222.184 180.032 225.501 189.87 225.501 189.87C225.501 189.87 221.981 191.078 220.483 190.768C218.986 190.459 219.351 188.598 219.351 188.598C219.351 188.598 218.289 188.136 218.56 191.398C218.691 192.982 219.863 195.365 220.483 198.483C220.715 199.643 220.483 202.252 220.483 202.252C220.483 202.252 216.489 202.669 213.037 203.426C209.585 204.183 209.366 203.163 209.366 203.163Z" fill="#E7EAEE"/>
<path fill-rule="evenodd" clip-rule="evenodd" d="M111.277 170.138C109.948 169.405 108.866 168.286 107.807 167.185C105.073 164.344 102.305 161.456 100.408 157.972C100.227 157.64 100.05 157.259 100.154 156.894C100.258 156.53 100.801 156.323 101.005 156.641C104.302 161.795 108.466 166.366 113.258 170.093C112.827 170.687 111.913 170.489 111.277 170.138Z" fill="#00160A"/>
<path fill-rule="evenodd" clip-rule="evenodd" d="M115.261 104.9C116.046 104.071 116.465 102.957 116.827 101.863C117.955 98.4518 118.723 94.9164 119.115 91.3375C119.186 90.6929 119.301 89.9505 119.847 89.6218C120.462 92.6908 119.701 95.8534 118.944 98.8885C118.279 101.557 117.543 104.358 115.657 106.321C115.466 106.52 115.222 106.722 114.954 106.677C114.592 106.615 114.447 106.122 114.576 105.77C114.705 105.419 115.005 105.17 115.261 104.9Z" fill="#00160A"/>
<path fill-rule="evenodd" clip-rule="evenodd" d="M304.861 131.666C305.235 131.563 305.616 131.865 305.779 132.225C305.942 132.584 305.954 132.992 306.026 133.382C306.31 134.903 307.649 136.151 309.154 136.297C309.342 136.744 308.927 137.191 308.599 137.543C307.852 138.343 307.38 139.408 307.284 140.51C307.222 141.226 307.075 142.221 306.374 142.212C305.81 142.204 305.562 141.506 305.359 140.968C304.863 139.652 303.745 138.6 302.423 138.206C302.145 138.123 302.028 137.76 302.105 137.474C302.181 137.189 302.393 136.966 302.594 136.754C303.463 135.841 304.345 134.761 304.335 133.486C304.33 132.797 304.211 131.844 304.861 131.666Z" fill="#FFB61D"/>
<path fill-rule="evenodd" clip-rule="evenodd" d="M331.189 251.373C330.023 252.601 329.61 254.522 330.165 256.137C329.55 256.419 329.091 255.551 328.786 254.936C328.33 254.013 327.467 253.31 326.486 253.063C327.907 252.145 328.792 250.417 328.721 248.698C329.292 248.317 329.932 249.111 330.096 249.79C330.26 250.468 330.507 251.349 331.189 251.373Z" fill="#E7EAEE"/>
<path fill-rule="evenodd" clip-rule="evenodd" d="M321.237 253.675C321.913 254.774 322.875 255.686 323.996 256.294C324.399 256.512 324.033 257.12 323.701 257.439C322.862 258.241 322.332 259.372 322.244 260.543C321.51 259.791 320.777 259.039 320.044 258.286C319.752 257.985 319.442 257.519 319.694 257.183C320.463 256.156 320.996 254.945 321.237 253.675Z" fill="#E7EAEE"/>
<path fill-rule="evenodd" clip-rule="evenodd" d="M272.262 121.346C272.929 116.995 274.542 112.719 277.375 109.405C280.208 106.092 284.345 103.83 288.646 103.833C292.947 103.837 297.291 106.331 299.078 110.337C300.003 112.41 300.23 114.743 300.167 117.022C300.047 121.354 298.911 125.654 296.88 129.456C295.049 132.885 292.416 135.97 288.999 137.709C285.581 139.449 281.321 139.682 277.999 137.759C275.368 136.237 273.527 133.504 272.65 130.542C271.773 127.581 271.793 124.403 272.262 121.346ZM298.55 118.054C298.627 115.356 298.193 112.57 296.807 110.274C295.965 108.879 294.785 107.698 293.403 106.867C288.946 104.191 282.879 105.629 279.176 109.32C275.474 113.012 273.869 118.467 273.704 123.756C273.616 126.577 273.912 129.47 275.083 132.025C276.255 134.58 278.398 136.766 281.068 137.468C284.561 138.386 288.247 136.657 290.986 134.254C295.556 130.245 298.373 124.213 298.55 118.054Z" fill="#FFB61D"/>
<path fill-rule="evenodd" clip-rule="evenodd" d="M316.276 118.325C315.565 119.277 314.821 120.528 315.367 121.588C315.562 121.968 315.057 122.409 314.655 122.29C314.252 122.17 314.024 121.735 313.917 121.32C313.81 120.905 313.775 120.461 313.56 120.093C313.345 119.725 312.857 119.469 312.502 119.696C311.996 119.634 311.944 118.854 312.238 118.428C312.532 118.002 313.015 117.709 313.196 117.222C313.339 116.835 313.262 116.402 313.33 115.995C313.398 115.588 313.736 115.153 314.126 115.257C314.113 115.973 314.194 116.715 314.549 117.332C314.903 117.949 315.582 118.41 316.276 118.325Z" fill="#FFB61D"/>
<path fill-rule="evenodd" clip-rule="evenodd" d="M252.652 116.915C253.208 116.253 253.906 115.687 254.726 115.445C255.545 115.204 256.496 115.332 257.136 115.909C257.833 116.537 258.051 117.586 257.903 118.524C257.755 119.462 257.293 120.314 256.807 121.123C256.176 122.173 255.491 123.189 254.756 124.166C254.526 124.47 254.274 124.785 253.922 124.921C253.458 125.1 252.94 124.926 252.481 124.73C250.871 124.04 249.374 123.073 248.074 121.882C246.883 120.791 245.784 119.192 246.267 117.632C246.574 116.637 247.513 115.919 248.52 115.765C249.527 115.611 250.571 115.975 251.372 116.619C251.755 116.927 252.334 117.294 252.652 116.915ZM247.565 117.493C246.804 118.564 247.63 120.065 248.588 120.955C249.784 122.065 251.203 122.884 252.61 123.695C252.79 123.799 252.992 123.907 253.195 123.862C253.376 123.822 253.51 123.671 253.629 123.526C254.581 122.37 255.435 121.128 256.176 119.819C256.746 118.813 257.164 117.334 256.246 116.649C255.519 116.107 254.46 116.544 253.844 117.214C253.228 117.885 252.841 118.76 252.167 119.37C251.642 118.522 251.083 117.64 250.23 117.142C249.378 116.645 248.142 116.68 247.565 117.493Z" fill="#FFB61D"/>
<path fill-rule="evenodd" clip-rule="evenodd" d="M241.761 87.6361C243.505 86.2445 245.443 85.1089 247.499 84.2753C248.759 83.7644 250.197 83.3712 251.442 83.9185C253.438 84.795 253.827 87.7298 252.777 89.6759C251.727 91.6225 249.735 92.8027 247.839 93.8871C244.121 96.0135 240.403 98.1398 236.686 100.266C237.418 98.7701 236.592 97.0134 235.915 95.4897C234.391 92.0583 233.594 88.291 233.594 84.5216C233.593 83.3307 233.68 82.1045 234.19 81.0344C234.701 79.9643 235.718 79.0765 236.881 79.0488C238.741 79.0038 239.978 80.9878 240.606 82.7813C241.155 84.3521 241.543 85.9824 241.761 87.6361ZM249.641 84.9082C246.634 85.5338 243.832 87.1538 241.756 89.467C241.552 89.6949 241.154 89.5945 240.967 89.3513C240.781 89.1081 240.745 88.7815 240.709 88.4743C240.475 86.4396 239.955 84.4392 239.171 82.5535C238.734 81.5029 238.002 80.3422 236.886 80.3237C236.06 80.3099 235.34 80.9878 235.035 81.7747C234.73 82.5617 234.756 83.4377 234.815 84.2825C235.141 88.9924 236.351 93.6373 238.36 97.8874C241.649 96.0001 244.938 94.1129 248.227 92.2257C249.253 91.6364 250.298 91.0332 251.095 90.148C251.893 89.2627 252.418 88.0329 252.186 86.8522C251.955 85.6711 250.794 84.6686 249.641 84.9082Z" fill="#FFB61D"/>
<path fill-rule="evenodd" clip-rule="evenodd" d="M218.747 320.936C228.346 319.816 238.008 319.252 247.67 319.248C249.442 319.248 250.984 317.838 251.704 316.179C252.424 314.521 252.482 312.651 252.483 310.835C252.486 304.092 251.867 297.367 251.248 290.653C250.997 287.931 250.747 285.209 250.496 282.486C250.343 280.834 250.182 279.145 249.503 277.639C248.324 275.025 245.713 273.325 242.994 272.593C240.274 271.86 237.416 271.96 234.606 272.066C225.276 272.416 215.946 272.766 206.615 273.115C211.994 271.096 217.851 271.001 223.58 270.929C227.971 270.874 232.363 270.82 236.754 270.764C241.243 270.708 246.372 270.939 249.235 274.479C251.085 276.766 251.493 279.898 251.803 282.851C252.776 292.147 253.489 301.474 253.941 310.812C254.091 313.907 253.97 317.544 251.509 319.347C250.132 320.356 248.347 320.507 246.658 320.624C236.376 321.338 226.094 322.05 215.812 322.764C213.398 322.931 210.854 323.074 208.682 321.982C207.928 321.602 207.153 320.744 207.558 319.99C210.9 321.853 214.965 321.378 218.747 320.936Z" fill="#00160A"/>
<path fill-rule="evenodd" clip-rule="evenodd" d="M178.083 171.8C178.275 172.095 178.32 172.462 178.358 172.815C178.448 173.635 178.538 174.456 178.628 175.276C178.735 176.25 178.757 177.427 177.969 177.983C177.549 178.279 177.006 178.303 176.497 178.317C165.771 178.614 155.046 178.91 144.32 179.207C143.63 179.226 142.832 179.196 142.409 178.637C142.143 178.287 142.102 177.815 142.078 177.372C141.999 175.981 141.978 174.587 142.012 173.193C142.018 172.981 142.03 172.753 142.158 172.587C142.312 172.387 142.584 172.338 142.83 172.304C153.912 170.767 165.144 170.361 176.304 171.094C176.963 171.138 177.716 171.238 178.083 171.8ZM177.643 177.138C176.553 176.535 177.651 174.769 177.255 173.568C176.914 172.536 175.621 172.292 174.559 172.23C164.446 171.64 154.28 172.008 144.233 173.327C143.863 173.376 143.452 173.448 143.228 173.754C143.006 174.055 143.046 174.473 143.096 174.847C143.175 175.426 143.253 176.004 143.331 176.583C143.393 177.039 143.487 177.551 143.861 177.806C144.132 177.991 144.481 177.989 144.807 177.981C155.752 177.7 166.698 177.419 177.643 177.138Z" fill="#00160A"/>
<path fill-rule="evenodd" clip-rule="evenodd" d="M198.259 191.244C198.31 190.026 198.361 188.806 198.412 187.587C198.511 185.21 198.633 182.744 199.712 180.638C200.791 178.53 203.12 176.893 205.381 177.44C206.795 177.783 208.099 178.921 209.522 178.616C210.761 178.349 211.52 177.096 212.567 176.366C215.061 174.629 218.538 176.243 220.601 178.497C222.824 180.927 224.269 184.091 224.665 187.396C224.698 187.677 224.715 187.992 224.539 188.209C224.393 188.389 224.153 188.452 223.931 188.504C223.072 188.706 222.213 188.907 221.355 189.108C220.624 189.28 219.865 189.452 219.13 189.296C218.396 189.14 217.69 188.56 217.631 187.795C217.412 192.074 220.541 196.162 219.669 200.353C219.345 200.172 219.021 199.99 218.697 199.809C219.462 195.606 215.804 191.537 216.568 187.334C216.669 186.777 216.887 186.186 217.372 185.915C217.858 185.645 218.626 185.952 218.607 186.518C218.576 187.424 219.531 188.1 220.416 188.093C221.302 188.085 222.107 187.599 222.863 187.128C223.132 186.96 223.059 186.545 222.946 186.243C222.109 183.995 221.009 181.85 219.677 179.868C218.776 178.529 217.691 177.205 216.194 176.661C214.697 176.117 212.721 176.672 212.17 178.197C211.525 179.982 209.088 180.102 207.299 179.588C205.509 179.073 203.5 178.27 201.904 179.244C200.569 180.059 200.122 181.796 199.872 183.366C199.443 186.062 199.244 188.795 199.28 191.526C199.353 191.942 199.872 192.077 200.285 192.066C202.462 192.008 204.483 190.25 204.891 188.059C205.477 188.75 205.687 189.686 205.876 190.581C206.533 193.679 207.191 196.777 207.848 199.875C208.05 200.829 207.814 202.295 206.876 202.121C206.451 198.742 205.821 195.39 204.992 192.091C203.424 192.456 201.857 192.821 200.289 193.186C199.808 193.298 199.269 193.401 198.849 193.138C198.268 192.774 198.23 191.941 198.259 191.244Z" fill="#00160A"/>
<path fill-rule="evenodd" clip-rule="evenodd" d="M244.123 275.387C244.923 276.275 243.68 277.913 244.413 278.86C244.793 279.351 244.522 280.13 244.018 280.486C243.515 280.842 242.869 280.89 242.258 280.927C231.755 281.551 221.251 282.176 210.748 282.802C210.034 282.844 209.181 282.819 208.791 282.206C208.62 281.937 208.579 281.607 208.542 281.29C208.446 280.463 208.35 279.636 208.254 278.81C208.224 278.55 208.197 278.272 208.317 278.041C208.513 277.661 209.001 277.578 209.42 277.54C220.459 276.542 231.51 275.699 242.572 275.01C243.121 274.976 243.75 274.973 244.123 275.387ZM242.918 276.783C242.884 276.579 242.839 276.356 242.679 276.228C242.521 276.101 242.299 276.111 242.098 276.126C232.304 276.857 222.51 277.588 212.716 278.319C211.924 278.378 211.103 278.446 210.412 278.845C209.72 279.244 209.199 280.077 209.407 280.861C209.471 281.104 209.608 281.335 209.818 281.465C210.076 281.625 210.398 281.614 210.699 281.597C221.039 281.022 231.379 280.448 241.72 279.874C242.949 279.805 243.126 278.026 242.918 276.783Z" fill="#00160A"/>
<path fill-rule="evenodd" clip-rule="evenodd" d="M252.41 265.756C254.269 270.765 254.862 276.158 255.44 281.485C256.782 293.859 258.123 306.233 259.465 318.608C258.467 318.692 258.007 317.379 257.882 316.361C255.85 299.712 255.195 282.847 251.758 266.441C251.975 266.213 252.193 265.984 252.41 265.756Z" fill="#00160A"/>
<path fill-rule="evenodd" clip-rule="evenodd" d="M192.442 179.559C192.152 179.432 192.158 178.97 192.38 178.741C192.602 178.514 192.938 178.458 193.25 178.418C195.585 178.114 197.94 177.966 200.294 177.975C200.169 179.004 198.872 179.304 197.861 179.352C196.162 179.432 194.463 179.513 192.764 179.593C192.655 179.598 192.542 179.603 192.442 179.559Z" fill="#00160A"/>
<path fill-rule="evenodd" clip-rule="evenodd" d="M205.618 305.399C205.424 301.716 205.23 298.033 205.036 294.35C204.514 284.437 203.976 274.422 201.281 264.886C200.937 263.668 200.544 262.432 199.781 261.434C197.873 258.934 194.341 258.646 191.243 258.646C179.296 258.647 167.349 259.81 155.616 262.116C154.424 262.35 153.185 262.619 152.233 263.391C150.722 264.618 150.323 266.775 150.183 268.745C149.926 272.342 150.18 275.976 150.934 279.499C150.502 279.425 150.071 279.352 149.64 279.278C148.059 275.906 147.339 272.116 147.57 268.383C147.67 266.763 147.961 265.112 148.777 263.719C150.806 260.254 155.271 259.423 159.194 258.993C169.146 257.901 179.136 257.166 189.138 256.789C193.165 256.637 197.714 256.753 200.477 259.755C201.867 261.266 202.571 263.295 203.123 265.292C205.043 272.228 205.572 279.475 206.092 286.664C206.6 293.689 207.108 300.714 207.616 307.738C207.736 309.389 207.854 311.066 207.528 312.687C206.465 317.971 200.97 321.185 195.739 321.824C190.508 322.462 185.242 321.238 179.974 321.149C172.891 321.028 165.765 322.957 158.779 321.752C156.767 321.405 154.628 320.675 153.522 318.919C152.754 317.701 152.616 316.191 152.499 314.747C151.67 304.558 150.841 294.37 150.013 284.181C149.957 283.499 150.453 282.482 150.965 282.923C151.878 292.736 152.792 302.55 153.705 312.364C153.829 313.692 153.963 315.059 154.566 316.243C155.442 317.96 157.208 319.052 159.039 319.538C160.871 320.024 162.79 319.985 164.682 319.959C172.686 319.852 180.693 320.057 188.682 320.571C191.354 320.743 194.054 320.948 196.693 320.49C199.332 320.03 201.95 318.827 203.589 316.658C205.922 313.571 205.824 309.297 205.618 305.399Z" fill="#00160A"/>
<path fill-rule="evenodd" clip-rule="evenodd" d="M192.035 175.575C192.78 174.98 192.154 173.761 192.301 172.805C192.508 171.454 194.151 170.989 195.479 170.832C204.007 169.823 212.595 169.346 221.179 169.404C221.893 169.409 222.738 169.49 223.097 170.122C223.529 170.881 223.127 172.205 223.944 172.471C224.328 172.595 224.82 172.365 225.111 172.65C225.592 173.121 224.696 173.759 224.033 173.82C213.987 174.743 203.92 175.418 193.842 175.846C193.225 175.872 192.572 175.888 192.035 175.575ZM222.043 171.315C221.809 170.711 221.023 170.623 220.389 170.632C212.295 170.759 204.206 171.168 196.14 171.861C195.194 171.942 194.078 172.144 193.684 173.028C193.494 173.53 193.855 174.108 194.332 174.336C194.809 174.565 195.36 174.535 195.885 174.501C203.942 173.978 212 173.454 220.057 172.931C220.553 172.899 221.07 172.86 221.498 172.601C221.925 172.341 222.227 171.788 222.043 171.315Z" fill="#00160A"/>
<path fill-rule="evenodd" clip-rule="evenodd" d="M232.905 292.39C234.148 293.401 233.616 295.616 234.697 296.807C235.2 297.36 235.953 297.576 236.661 297.788C237.116 297.924 237.679 298.267 237.535 298.729C237.386 299.203 236.712 299.126 236.26 298.945C234.783 298.353 233.118 297.368 233.037 295.746C232.977 294.562 232.634 293.394 232.045 292.374C232.21 292.086 232.65 292.183 232.905 292.39Z" fill="#00160A"/>
<path fill-rule="evenodd" clip-rule="evenodd" d="M238.781 309.163C238.376 303.826 237.972 298.488 237.567 293.15C237.507 292.366 237.44 291.552 237.06 290.868C236.681 290.184 235.895 289.668 235.153 289.873C231.795 290.795 228.308 291.222 224.833 291.138C221.794 291.065 218.684 290.61 215.761 291.462C215.815 292.945 215.87 294.427 215.924 295.909C215.94 296.342 215.964 296.802 216.204 297.158C216.878 298.157 218.552 297.395 218.932 296.245C219.313 295.095 218.969 293.837 219.035 292.624C219.046 292.41 219.088 292.165 219.267 292.052C219.646 291.81 220.01 292.387 220.108 292.833C220.386 294.112 220.665 295.451 220.336 296.718C220.007 297.984 218.859 299.132 217.59 298.964C216.275 298.791 215.736 300.631 215.705 301.989C215.641 304.699 215.577 307.408 215.514 310.117C215.494 310.97 215.794 312.148 216.621 312.052C218.758 311.804 220.895 311.556 223.032 311.308C223.548 311.248 224.104 311.195 224.558 311.454C225.012 311.712 225.252 312.417 224.88 312.788C222.37 313.013 219.86 313.239 217.351 313.464C216.618 313.53 215.857 313.592 215.165 313.335C214.474 313.077 213.872 312.404 213.934 311.653C214.552 304.282 214.69 296.87 214.348 289.48C214.275 287.909 216.145 287.11 217.655 286.821C222.45 285.9 227.34 285.501 232.216 285.632C233.851 285.676 235.633 285.842 236.819 286.995C238.026 288.17 238.263 290.02 238.429 291.716C239.053 298.075 239.677 304.433 240.301 310.791C240.334 311.134 240.342 311.541 240.075 311.75C239.915 311.875 239.7 311.888 239.5 311.897C237.418 311.985 235.337 312.074 233.256 312.163C232.153 312.21 230.967 312.234 230.049 311.607C229.419 311.176 229.003 310.493 228.637 309.815C227.76 308.186 227.059 306.459 226.551 304.674C225.755 306.715 225.251 308.874 225.06 311.063C224.054 311.175 223.867 309.63 224.101 308.622C224.584 306.542 225.066 304.463 225.549 302.383C225.622 302.066 225.739 301.699 226.042 301.602C226.488 301.458 226.831 302.004 226.994 302.453C227.674 304.324 228.353 306.194 229.033 308.064C229.618 309.674 231.305 310.642 232.972 310.84C234.638 311.039 236.307 310.609 237.932 310.183C238.254 310.099 238.619 309.977 238.744 309.662C238.806 309.506 238.794 309.331 238.781 309.163ZM216.14 289.62C217.647 289.64 219.154 289.66 220.661 289.68C221.794 289.695 222.926 289.71 224.058 289.688C228.146 289.609 232.224 289.048 236.186 288.019C235.302 287.09 233.884 287.038 232.618 287.061C228.085 287.144 223.556 287.414 219.045 287.87C217.837 287.992 216.337 288.394 216.14 289.62Z" fill="#00160A"/>
<path fill-rule="evenodd" clip-rule="evenodd" d="M209.395 285.624C209.308 285.141 209.92 284.878 210.393 284.802C215.861 283.935 221.402 283.551 226.934 283.658C227.013 283.659 227.095 283.661 227.168 283.692C227.428 283.803 227.416 284.222 227.209 284.418C227.003 284.614 226.7 284.647 226.42 284.669C221.152 285.073 215.807 284.865 210.646 286.019C210.166 286.126 209.483 286.118 209.395 285.624Z" fill="#00160A"/>
<path fill-rule="evenodd" clip-rule="evenodd" d="M331.671 274.031C331.973 273.302 332.306 272.532 332.947 272.088C333.488 271.714 334.165 271.632 334.814 271.559C336.739 271.345 338.664 271.131 340.589 270.917C341.541 270.811 342.77 270.401 342.734 269.421C342.617 266.256 342.856 262.611 345.311 260.686C347.557 258.924 350.92 259.407 353.224 261.088C355.529 262.768 356.989 265.386 358.248 267.981C358.805 269.13 360.332 269.339 361.567 269.117C362.801 268.896 364.052 268.399 365.269 268.702C367.144 269.167 368.091 271.264 368.735 273.126C371.968 282.47 374.163 292.211 378.184 301.228C379.688 304.601 379.212 308.81 376.995 311.741C376.721 309.413 377.102 307.009 378.08 304.889C378.541 303.89 377.007 303.233 375.928 303.236C364.936 303.265 353.896 303.297 343.025 304.967C342.693 305.018 342.34 305.081 342.092 305.313C341.852 305.538 341.758 305.88 341.675 306.203C341.338 307.515 341.001 308.825 340.664 310.137C340.452 310.958 340.585 312.233 341.41 312.148C352.169 311.032 362.986 310.5 373.8 310.554C374.938 310.56 376.49 311.022 376.343 312.177C364.823 312.316 353.26 312.459 341.865 314.195C340.05 314.472 338.797 312.171 339.003 310.304C339.209 308.437 340.254 306.763 340.549 304.909C340.803 303.311 340.485 301.681 340.143 300.1C339.6 297.587 338.992 295.088 338.322 292.608C337.668 290.187 336.954 287.783 336.24 285.38C335.161 281.745 334.081 278.11 333.001 274.475C331.516 276.702 330.855 279.489 331.176 282.165C331.4 284.028 332.075 285.798 332.58 287.603C333.303 290.182 333.682 292.847 334.059 295.503C334.802 300.733 335.546 305.964 336.289 311.195C336.398 311.964 336.182 313.099 335.431 312.985C332.09 302.401 333.007 290.7 329.064 280.336C329.933 278.234 330.802 276.133 331.671 274.031ZM356.555 275.951C357.643 275.331 358.207 273.883 357.834 272.666C357.461 271.449 356.19 270.591 354.95 270.72C351.911 271.035 348.871 271.351 345.832 271.666C345.551 271.695 345.237 271.743 345.068 271.974C344.935 272.157 344.933 272.404 344.945 272.631C345.026 274.053 345.508 275.45 346.318 276.608C346.948 277.508 347.818 278.585 347.327 279.571C346.713 280.803 344.694 280.112 344.194 278.828C343.693 277.543 344.049 276.093 343.956 274.713C343.863 273.333 342.895 271.745 341.562 271.974C339.378 272.351 337.193 272.727 335.008 273.104C334.695 273.158 334.285 273.357 334.377 273.668C337.038 282.685 339.698 291.702 342.358 300.719C342.69 301.843 343.437 303.234 344.553 302.967C354.8 300.517 365.604 302.834 376.009 301.224C372.892 291.216 369.667 281.244 366.335 271.31C366.237 271.017 366.125 270.705 365.881 270.522C365.61 270.319 365.246 270.326 364.912 270.34C363.351 270.408 361.79 270.476 360.23 270.543C359.612 270.57 358.77 270.871 358.906 271.489C359.33 273.425 359.754 275.361 360.178 277.297C360.251 277.63 360.323 277.987 360.201 278.305C359.871 279.17 358.627 278.952 357.797 278.577C357.252 278.332 356.679 278.062 356.343 277.56C356.006 277.057 356.034 276.247 356.555 275.951ZM352.532 261.905C351.335 261.006 349.761 260.357 348.38 260.914C347.899 261.108 347.481 261.434 347.07 261.756C346.338 262.33 345.584 262.93 345.152 263.764C344.751 264.539 344.668 265.441 344.593 266.316C344.527 267.081 344.462 267.845 344.396 268.609C344.355 269.083 344.339 269.628 344.674 269.957C344.996 270.273 345.502 270.25 345.946 270.207C349.125 269.898 352.304 269.588 355.483 269.278C355.936 269.234 356.49 269.108 356.609 268.658C356.656 268.481 356.618 268.292 356.576 268.113C355.99 265.646 354.531 263.406 352.532 261.905ZM351.342 269.992C351.022 270.085 351.377 270.699 351.61 270.456C351.908 270.331 351.578 269.759 351.327 269.965L351.342 269.992Z" fill="#FFB61D"/>
<path fill-rule="evenodd" clip-rule="evenodd" d="M250.548 196.809C250.492 196.619 250.603 196.42 250.733 196.272C251.374 195.55 252.446 195.497 253.399 195.494C259.175 195.481 264.952 195.467 270.729 195.453C271.135 195.452 271.571 195.46 271.903 195.701C272.234 195.941 272.364 196.508 272.045 196.767C271.876 196.904 271.642 196.913 271.426 196.915C264.715 196.992 258.004 197.068 251.293 197.144C251.001 197.147 250.631 197.097 250.548 196.809Z" fill="#00160A"/>
<path fill-rule="evenodd" clip-rule="evenodd" d="M252.689 202.917C252.341 202.711 252.389 202.137 252.682 201.855C252.975 201.574 253.401 201.508 253.8 201.458C256.191 201.163 258.596 201.001 260.999 200.839C262.323 200.75 263.647 200.66 264.971 200.571C266.693 200.455 268.414 200.339 270.136 200.222C270.683 200.186 271.293 200.17 271.705 200.54C272.117 200.91 272.016 201.801 271.469 201.835C265.394 202.221 259.318 202.606 253.242 202.992C253.054 203.004 252.853 203.013 252.689 202.917Z" fill="#00160A"/>
<path fill-rule="evenodd" clip-rule="evenodd" d="M285.256 210.961C285.715 210.067 286.213 209.13 287.058 208.61C287.902 208.089 289.198 208.196 289.653 209.092C290.136 210.045 289.416 211.194 288.571 211.831C287.726 212.467 286.686 212.915 286.137 213.83C289.106 215.833 292.074 217.837 295.043 219.84C297.368 221.409 299.998 223.649 299.522 226.458C299.243 228.105 297.88 229.386 296.362 230C294.843 230.615 293.174 230.679 291.542 230.727C280.575 231.051 269.596 230.994 258.632 230.556C257.872 230.526 257.023 230.454 256.516 229.872C256.124 229.421 256.043 228.778 255.979 228.178C255.348 222.203 254.717 216.227 254.086 210.251C254.063 210.03 254.041 209.8 254.118 209.592C254.442 208.72 255.717 209.257 256.43 209.84C261.477 213.965 269.546 213.48 274.087 208.779C275.184 207.643 277.053 207.79 278.462 208.475C279.872 209.16 281.052 210.274 282.466 210.949C282.315 210.112 283.036 209.228 283.867 209.232C284.699 209.235 285.413 210.125 285.256 210.961ZM285.877 214.81C285.516 213.454 283.559 213.17 282.479 214.038C281.4 214.906 281.05 216.418 280.956 217.819C280.921 218.343 280.081 218.395 279.793 217.961C279.506 217.528 279.622 216.943 279.782 216.445C280.204 215.131 280.853 213.893 281.69 212.807C282.105 212.27 281.497 211.543 280.95 211.149C279.019 209.759 276.284 208.387 274.513 209.985C269.659 214.363 261.916 214.946 256.489 211.343C256.554 215.828 256.877 220.31 257.455 224.757C257.513 225.205 257.588 225.683 257.89 226.013C258.29 226.449 258.945 226.479 259.529 226.48C268.958 226.492 278.386 226.504 287.815 226.517C288.732 226.518 289.979 226.182 289.908 225.246C289.741 223.066 290.684 220.828 292.346 219.456C291.039 218.484 289.731 217.511 288.423 216.538C288.024 216.241 287.607 215.937 287.121 215.851C285.654 215.594 284.674 217.316 284.155 218.745C283.36 217.289 284.286 215.171 285.877 214.81ZM261.235 229.694C271.053 229.773 280.872 229.756 290.69 229.644C293.477 229.612 296.732 229.322 298.243 226.924C284.685 227.534 271.108 227.685 257.541 227.376C257.372 229.044 259.597 229.681 261.235 229.694ZM294.836 220.733C294.544 220.543 294.242 220.349 293.901 220.289C292.873 220.109 292.062 221.16 291.615 222.125C291.357 222.683 291.132 223.258 290.944 223.845C290.8 224.292 290.675 224.767 290.766 225.228C290.856 225.689 291.226 226.126 291.685 226.131C293.355 226.151 295.024 226.133 296.693 226.077C297.087 226.064 297.515 226.035 297.81 225.768C298.157 225.453 298.199 224.91 298.112 224.444C297.798 222.756 296.253 221.652 294.836 220.733ZM288.938 209.818C288.92 209.298 288.241 209.033 287.772 209.234C287.302 209.435 287.014 209.913 286.756 210.362C286.444 210.905 286.133 211.448 285.821 211.991C285.658 212.275 285.569 212.76 285.884 212.831C286.713 212.125 287.542 211.42 288.371 210.714C288.648 210.478 288.951 210.188 288.938 209.818ZM283.566 210.667C283.426 211.369 283.777 212.145 284.392 212.487C284.605 211.764 284.48 210.945 284.062 210.323C284.036 210.147 283.803 210.045 283.661 210.148C283.552 210.29 283.513 210.486 283.559 210.66L283.566 210.667Z" fill="#00160A"/>
<path fill-rule="evenodd" clip-rule="evenodd" d="M249.809 189.963C249.56 188.729 249.311 187.493 249.061 186.258C248.965 185.778 248.876 185.245 249.121 184.824C249.457 184.251 250.224 184.174 250.876 184.163C266.902 183.877 282.934 183.94 298.958 184.35C300.051 184.378 300.949 185.345 301.281 186.411C301.614 187.478 301.504 188.63 301.392 189.743C301.331 190.345 301.234 191.017 300.765 191.385C300.381 191.686 299.857 191.694 299.373 191.689C283.279 191.509 267.185 191.329 251.09 191.149C250.825 191.146 250.545 191.139 250.321 190.994C249.993 190.783 249.887 190.352 249.809 189.963ZM252.022 185.246C250.838 185.237 249.998 186.678 250.294 187.853C250.59 189.028 251.698 189.836 252.849 190.122C254.001 190.407 255.206 190.27 256.386 190.157C270.92 188.765 285.617 191.424 300.141 189.924C300.217 189.019 300.289 188.083 300.005 187.223C299.72 186.363 298.979 185.593 298.092 185.586C282.735 185.473 267.379 185.36 252.022 185.246Z" fill="#00160A"/>
<path fill-rule="evenodd" clip-rule="evenodd" d="M153.175 225.743C152.638 226.784 151.899 227.842 150.79 228.151C148.677 228.741 146.931 226.34 146.354 224.177C145.454 220.801 145.682 217.12 146.991 213.887C147.691 212.157 147.107 210.112 146.009 208.615C143.939 205.79 140.077 204.553 136.758 205.514C133.44 206.475 130.821 209.498 130.127 212.957C130.018 213.499 130.095 214.259 130.629 214.336C133.297 214.719 134.521 217.924 134.927 220.65C135.237 222.732 135.372 224.913 134.682 226.897C133.993 228.881 132.305 230.623 130.255 230.783C128.415 229.514 127.029 227.569 126.411 225.387C125.262 221.33 126.755 217.028 128.296 213.109C129.237 210.718 130.247 208.268 132.034 206.452C135.854 202.569 142.987 203.03 146.299 207.374C147.574 209.045 148.305 211.121 149.717 212.671C150.782 213.84 152.189 214.658 153.16 215.909C155.27 218.626 154.757 222.673 153.175 225.743ZM127.58 218.242C126.613 220.971 126.882 224.132 128.297 226.648C128.529 227.062 128.805 227.473 129.211 227.707C129.617 227.941 130.183 227.945 130.504 227.599C131.466 226.563 131.586 224.997 131.583 223.568C131.579 221.878 131.478 220.188 131.279 218.51C131.197 217.823 131.058 217.064 130.516 216.651C129.973 216.239 128.955 216.584 129.04 217.27C129.288 219.268 129.536 221.265 129.784 223.262C129.84 223.716 129.89 224.208 129.668 224.605C129.445 225.002 128.831 225.187 128.55 224.831C127.82 223.307 127.6 221.533 127.935 219.871C128.055 219.273 128.138 218.455 127.58 218.242ZM149.907 226.161C150.153 225.964 150.268 225.644 150.36 225.339C151.083 222.934 151.091 220.31 150.382 217.901C150.113 216.985 149.382 215.914 148.498 216.22C147.986 216.397 147.727 216.971 147.565 217.498C146.825 219.892 146.923 222.549 147.838 224.879C148.013 225.325 148.23 225.777 148.601 226.072C148.972 226.367 149.536 226.457 149.907 226.161ZM132.547 217.52C133.192 220.864 133.055 224.364 132.151 227.645C132.068 227.947 132.402 228.182 132.682 228.309C134.038 224.942 134.21 221.088 133.159 217.608C132.985 217.481 132.749 217.447 132.547 217.52ZM151.359 216.617C151.159 216.944 150.959 217.271 150.758 217.599C151.418 217.484 151.721 218.407 151.756 219.092C151.838 220.675 151.919 222.257 152.001 223.84C152.616 223.604 152.727 222.778 152.739 222.105C152.765 220.59 152.79 219.076 152.816 217.562C152.595 217.535 152.373 217.509 152.152 217.482C152.129 217.053 151.776 216.667 151.359 216.617Z" fill="#00160A"/>
<path fill-rule="evenodd" clip-rule="evenodd" d="M223.859 219.489C219.453 219.274 215.028 219.47 210.656 220.073C210.269 220.127 209.836 220.172 209.526 219.93C209.215 219.688 209.249 219.047 209.637 219.003C214.008 218.511 218.399 218.195 222.795 218.055C223.273 218.04 223.809 218.048 224.149 218.392C224.49 218.736 224.337 219.513 223.859 219.489Z" fill="#00160A"/>
<path fill-rule="evenodd" clip-rule="evenodd" d="M121.51 201.474C122.761 201.353 124.012 201.233 125.263 201.113C125.893 201.052 126.523 200.992 127.153 200.931C131.161 200.546 135.169 200.16 139.181 199.817C139.338 199.804 139.503 199.791 139.649 199.853C140.083 200.038 140.016 200.756 139.638 201.042C139.26 201.327 138.748 201.311 138.278 201.295C132.37 201.094 126.482 202.912 120.602 202.297C120.22 202.257 119.72 202.055 119.787 201.668C120.359 201.584 120.935 201.529 121.51 201.474Z" fill="#00160A"/>
<path fill-rule="evenodd" clip-rule="evenodd" d="M256.233 334.419C256.037 332.657 255.896 330.74 254.739 329.421C253.851 328.408 254.31 326.526 255.559 326.06C256.807 325.594 258.341 326.732 258.298 328.092C258.283 328.559 258.117 329.005 257.988 329.453C257.106 332.513 257.925 335.805 259.004 338.798C260.096 341.829 261.769 345.056 264.77 346.052C268.242 347.205 272.085 344.654 273.624 341.265C275.163 337.875 274.929 333.94 274.391 330.243C274.337 329.872 274.24 329.444 273.908 329.287C272.557 328.648 272.352 326.405 273.564 325.521C274.775 324.637 276.779 325.568 276.928 327.084C276.978 327.598 276.85 328.11 276.754 328.617C276.091 332.138 276.968 335.829 276.241 339.336C275.786 341.533 274.694 343.587 273.14 345.171C271.493 346.85 269.268 348.008 266.943 348.049C263.813 348.103 260.886 346.115 259.117 343.47C257.348 340.826 256.589 337.604 256.233 334.419Z" fill="#00160A"/>
<path fill-rule="evenodd" clip-rule="evenodd" d="M164.957 189.771C165.044 190.978 165.127 192.221 164.76 193.372C164.393 194.522 163.46 195.57 162.282 195.673C156.213 196.208 150.142 196.742 144.061 197.111C135.769 197.613 127.462 197.807 119.158 198C118.861 198.007 118.544 198.009 118.297 197.841C117.926 197.59 117.857 197.072 117.822 196.618C117.733 195.429 117.643 194.24 117.553 193.052C117.526 192.69 117.505 192.3 117.695 191.994C117.974 191.546 118.57 191.469 119.088 191.437C134.362 190.51 149.658 189.955 164.957 189.771ZM162.402 193.941C163.378 193.875 163.575 192.302 162.86 191.619C162.144 190.937 161.058 190.921 160.08 190.947C147.51 191.267 134.935 191.587 122.39 192.46C121.486 192.523 120.546 192.6 119.765 193.069C118.984 193.539 118.421 194.525 118.719 195.401C119.143 196.645 120.781 196.781 122.065 196.694C135.511 195.776 148.956 194.859 162.402 193.941Z" fill="#00160A"/>
<path fill-rule="evenodd" clip-rule="evenodd" d="M149.35 219.81C149.362 220.138 149.374 220.464 149.386 220.791C149.411 221.472 149.436 222.157 149.34 222.831C148.507 222.74 148.248 221.642 148.2 220.786C148.177 220.378 148.169 219.923 148.435 219.619C148.702 219.316 149.335 219.402 149.35 219.81Z" fill="#00160A"/>
<path fill-rule="evenodd" clip-rule="evenodd" d="M209.367 222.597C210.185 221.824 211.428 221.848 212.541 221.881C216.06 221.983 219.59 221.704 223.053 221.051C223.461 220.974 223.681 221.625 223.426 221.96C223.172 222.296 222.712 222.366 222.3 222.409C218.397 222.816 214.478 223.057 210.556 223.131C210.089 223.14 209.496 223.058 209.367 222.597Z" fill="#00160A"/>
<path fill-rule="evenodd" clip-rule="evenodd" d="M340.754 236.109C340.368 237.445 339.086 238.272 337.863 238.884C331.743 241.95 324.549 242.7 317.951 240.961C315.735 240.377 313.21 239.027 313.116 236.685C313.046 234.964 314.387 233.522 315.808 232.599C317.987 231.185 320.528 230.47 323.061 229.966C327.948 228.994 333.246 228.793 337.669 231.131C339.522 232.111 341.345 234.061 340.754 236.109ZM314.626 236.425C314.63 238.316 316.69 239.423 318.476 239.903C324.679 241.569 331.463 240.85 337.201 237.919C338.122 237.448 339.094 236.828 339.386 235.818C339.779 234.461 338.753 233.094 337.613 232.293C334.185 229.88 329.65 230.21 325.513 230.664C322.184 231.029 318.637 231.505 316.1 233.741C315.316 234.432 314.624 235.366 314.626 236.425Z" fill="#00160A"/>
<path fill-rule="evenodd" clip-rule="evenodd" d="M160.687 125.356C160.478 124.141 161.297 122.933 162.352 122.336C163.406 121.739 164.65 121.624 165.853 121.551C176.58 120.905 187.29 122.669 198.021 123.249C199.402 123.324 200.858 123.402 202.02 124.17C203.182 124.938 203.864 126.663 203.06 127.815C202.671 128.372 202.029 128.682 201.391 128.889C199.551 129.484 197.577 129.405 195.65 129.32C185.618 128.878 175.586 128.436 165.554 127.995C163.563 127.908 161.032 127.367 160.687 125.356ZM162.064 123.595C161.497 124.413 161.971 125.633 162.79 126.184C163.609 126.734 164.641 126.796 165.619 126.841C176.251 127.331 186.883 127.821 197.515 128.311C198.551 128.359 199.698 128.369 200.483 127.675C201.268 126.981 201.164 125.326 200.14 125.159C188.318 123.235 176.321 122.435 164.354 122.775C163.514 122.799 162.55 122.893 162.064 123.595Z" fill="#00160A"/>
<path fill-rule="evenodd" clip-rule="evenodd" d="M278.317 114.808C279.949 111.326 282.595 107.737 286.356 107.44C288.861 107.242 291.518 107.691 293.501 109.271C297.096 112.138 297.347 117.695 296.062 122.172C294.547 127.449 291.168 132.336 286.319 134.702C285.163 135.267 283.905 135.689 282.625 135.637C279.224 135.501 276.747 132.079 276.014 128.675C275.011 124.009 276.299 119.115 278.317 114.808ZM282.547 134.363C285.062 134.714 287.431 133.074 289.205 131.216C292.529 127.733 294.761 123.173 295.496 118.361C295.708 116.975 295.796 115.536 295.428 114.184C294.703 111.525 292.242 109.604 289.601 109.051C287.061 108.519 284.269 109.154 282.311 110.893C281.37 111.73 280.64 112.786 280.001 113.882C277.92 117.457 276.737 121.616 276.882 125.775C276.947 127.654 277.295 129.564 278.224 131.186C279.153 132.808 280.728 134.11 282.547 134.363Z" fill="#FFB61D"/>
<path fill-rule="evenodd" clip-rule="evenodd" d="M195.863 262.579C196.198 262.561 196.556 262.549 196.839 262.732C197.189 262.959 197.317 263.409 197.418 263.82C197.638 264.72 197.86 265.656 197.683 266.566C197.505 267.475 196.804 268.349 195.899 268.39C193.59 268.493 191.282 268.596 188.973 268.699C188.068 268.74 187.007 268.872 186.557 269.678C186.252 270.224 186.343 270.901 186.443 271.522C186.726 273.281 187.526 275.504 189.266 275.439C190.423 275.396 191.454 276.296 191.952 277.366C192.45 278.437 192.525 279.655 192.591 280.838C192.653 281.952 192.375 283.475 191.286 283.503C190.407 283.525 190.165 284.741 190.193 285.641C190.387 291.898 190.581 298.155 190.775 304.411C190.806 305.419 189.545 305.843 188.565 305.945C180.352 306.794 172.054 306.771 163.845 305.878C163.551 305.846 163.175 305.728 163.169 305.425C163.017 298.355 162.865 291.286 162.713 284.216C162.704 283.804 162.507 283.234 162.118 283.343C160.895 283.685 159.665 282.523 159.412 281.25C159.159 279.978 159.593 278.679 160.021 277.457C160.219 276.892 160.441 276.293 160.915 275.938C161.926 275.183 163.794 275.721 164.247 274.526C164.322 274.328 164.337 274.112 164.329 273.9C164.266 272.053 162.587 270.597 160.819 270.232C159.05 269.867 157.227 270.347 155.505 270.897C155.11 269.372 155.009 267.767 155.209 266.203C155.256 265.834 155.329 265.446 155.572 265.169C155.917 264.772 156.493 264.717 157.01 264.689C169.961 263.986 182.912 263.283 195.863 262.579ZM161.333 276.903C161.084 277.199 161.029 277.612 160.984 278C160.867 279.012 160.75 280.023 160.634 281.034C160.609 281.247 160.586 281.472 160.67 281.668C160.849 282.089 161.391 282.161 161.839 282.173C164.217 282.233 166.594 282.293 168.972 282.354C169.373 282.364 169.793 282.37 170.149 282.181C170.722 281.877 170.957 281.051 170.634 280.48C170.925 280.449 171.216 280.419 171.507 280.388C171.379 281.27 172.256 282.009 173.118 282.139C173.98 282.268 174.846 281.999 175.714 281.928C177.534 281.781 179.352 282.513 181.165 282.293C181.356 282.27 181.56 282.229 181.693 282.088C181.868 281.903 181.865 281.613 181.85 281.356C181.782 280.124 181.713 278.891 181.644 277.658C181.623 277.27 181.59 276.852 181.347 276.554C180.999 276.128 180.375 276.115 179.834 276.137C177.216 276.241 174.599 276.344 171.981 276.448C171.799 276.455 171.596 276.471 171.47 276.606C171.328 276.757 171.338 276.995 171.357 277.204C171.445 278.163 171.533 279.123 171.621 280.082C171.273 280.116 170.933 280.22 170.624 280.386C170.546 279.631 170.469 278.875 170.392 278.119C170.321 277.429 170.058 276.547 169.381 276.538C167.221 276.508 165.061 276.479 162.9 276.449C162.339 276.441 161.7 276.467 161.333 276.903ZM173.78 284.339C173.744 283.83 173.528 283.157 173.033 283.211C169.952 283.55 166.834 283.531 163.758 283.154C163.834 290.017 163.959 296.881 164.133 303.743C164.155 304.626 165.244 304.98 166.102 305.07C168.652 305.338 171.219 305.429 173.78 305.343C173.99 305.336 174.218 305.321 174.378 305.182C174.588 304.999 174.602 304.677 174.599 304.394C174.525 297.703 174.252 291.014 173.78 284.339ZM189.185 283.961C189.101 283.813 188.909 283.782 188.742 283.768C186.092 283.538 183.428 283.474 180.771 283.575C180.53 283.584 180.272 283.601 180.081 283.752C179.792 283.981 179.774 284.414 179.782 284.789C179.928 291.64 180.075 298.491 180.221 305.342C183.147 305.631 186.126 305.348 188.95 304.512C189.126 304.46 189.312 304.399 189.426 304.252C189.548 304.093 189.556 303.875 189.559 303.674C189.614 299.266 189.503 294.858 189.392 290.452C189.34 288.375 189.287 286.299 189.235 284.224C189.233 284.134 189.229 284.039 189.185 283.961ZM156.326 266.594C155.818 267.412 156.364 268.567 157.199 269.024C158.034 269.481 159.035 269.437 159.98 269.381C165.699 269.041 171.417 268.702 177.136 268.363C182.59 268.039 188.044 267.715 193.488 267.262C194.286 267.195 195.124 267.112 195.783 266.647C196.442 266.182 196.824 265.2 196.382 264.517C195.939 263.832 194.986 263.8 194.184 263.842C182.302 264.47 170.419 265.098 158.536 265.725C157.716 265.769 156.767 265.884 156.326 266.594ZM179.183 305.182C178.781 298.494 178.702 291.786 178.945 285.091C178.959 284.706 178.971 284.306 178.821 283.953C178.384 282.923 176.976 282.926 175.891 283.097C175.395 283.176 174.762 283.419 174.799 283.931C175.264 290.336 175.729 296.751 175.625 303.172C175.611 304.022 176.087 304.862 176.814 305.273C177.541 305.684 178.488 305.647 179.183 305.182ZM191.456 280.493C191.314 279.61 191.167 278.706 190.746 277.921C190.325 277.137 189.571 276.479 188.698 276.435C187.039 276.35 185.379 276.265 183.72 276.181C183.288 276.159 182.691 276.292 182.712 276.734C182.775 278.079 182.839 279.424 182.902 280.768C182.929 281.355 183.036 282.064 183.567 282.286C183.739 282.358 183.928 282.364 184.113 282.368C186.277 282.418 188.44 282.469 190.604 282.52C191.017 282.529 191.363 282.158 191.475 281.751C191.588 281.344 191.522 280.911 191.456 280.493ZM180.981 273.867C180.764 272.934 180.538 271.978 180.02 271.178C179.502 270.379 178.622 269.754 177.688 269.825C176.247 269.933 174.807 270.041 173.366 270.15C172.469 270.217 171.452 270.35 170.926 271.097C170.29 272.001 170.726 273.263 170.555 274.364C170.494 274.75 170.789 275.12 171.142 275.27C171.495 275.421 171.892 275.403 172.274 275.383C174.853 275.247 177.431 275.111 180.01 274.975C180.388 274.955 180.843 274.885 180.994 274.528C181.081 274.323 181.032 274.086 180.981 273.867ZM185.5 272.176C185.009 271.488 185.021 270.468 185.528 269.792C184.624 269.217 183.358 269.324 182.558 270.042C181.758 270.76 181.488 272.031 181.926 273.024C182.08 273.374 181.991 273.789 182.1 274.156C182.254 274.678 182.788 275.007 183.317 275.074C183.845 275.141 184.376 274.998 184.891 274.858C185.566 274.673 186.388 274.303 186.381 273.587C186.376 273.017 185.828 272.637 185.5 272.176ZM169.385 274.626C169.685 273.623 169.282 272.479 168.513 271.786C167.744 271.093 166.667 270.823 165.647 270.917C165.237 270.955 164.809 271.059 164.513 271.351C164.216 271.643 164.11 272.169 164.377 272.489C164.575 272.726 164.913 272.795 165.12 273.024C165.435 273.372 165.329 273.929 165.473 274.38C165.8 275.4 167.152 275.497 168.196 275.399C168.553 275.366 168.947 275.314 169.183 275.036C169.281 274.92 169.341 274.774 169.385 274.626ZM169.554 271.252C169.796 271.012 169.84 270.591 169.653 270.304C169.236 270.177 168.77 270.431 168.551 270.815C168.714 271.197 169.172 271.418 169.563 271.303M181.446 270.187C181.507 270.019 181.471 269.819 181.357 269.684C180.961 269.556 180.5 269.671 180.207 269.971C180.509 270.322 181.059 270.417 181.457 270.186L181.446 270.187Z" fill="#00160A"/>
<path fill-rule="evenodd" clip-rule="evenodd" d="M340.868 241.758C328.191 246.834 315.512 251.911 302.835 256.987C297.381 259.171 291.072 262.448 290.487 268.415C297.896 262.578 307.047 259.095 316.379 258.56C309.932 266.878 301.791 273.813 292.63 278.791C284.403 283.261 273.988 288.029 273.282 297.538C282.118 286.765 295.702 280.242 309.44 280.177C300.651 293.36 286.557 302.711 271.215 305.537C271.742 309.588 272.268 313.639 272.795 317.69C278.007 317.501 283.252 318.265 288.206 319.934C291.735 335.457 295.263 350.978 298.792 366.501C299.66 370.321 300.424 374.71 298.14 377.858C295.874 380.981 291.595 381.518 287.805 381.794C272.868 382.881 257.931 383.969 242.994 385.056C241.206 376.759 239.418 368.463 237.629 360.166C212.434 362.561 187.239 364.957 162.044 367.353C156.738 367.857 151.126 368.31 146.325 365.943C128.911 357.357 107.795 373.975 89.4015 367.895C105.562 367.584 121.672 364.697 136.976 359.372C142.526 357.44 149.172 352.15 146.272 346.934C132.08 357.074 113.87 361.122 96.849 357.921C97.848 340.994 97.2055 323.967 94.933 307.17C107.044 305.395 118.98 302.367 130.499 298.147C133.703 296.973 136.999 295.622 139.281 293.036C141.563 290.451 142.485 286.274 140.48 283.458C122.96 293.018 102.731 297.297 82.9456 295.627C83.978 318.551 85.0105 341.476 86.043 364.4C83.1183 341.493 81.5674 318.401 81.4016 295.298C91.5865 294.374 101.771 293.449 111.955 292.524C110.318 285.08 108.67 277.465 109.511 269.883C110.352 262.301 114.163 254.623 120.862 251.279C115.794 240.211 108.135 230.398 98.71 222.897C87.6605 214.103 73.4547 207.472 68.4089 194.106C65.0726 185.269 66.7091 174.989 71.3286 166.779C75.9482 158.57 83.2683 152.246 91.2245 147.408C80.2708 144.525 71.9739 133.344 72.1959 121.765C72.4179 110.186 81.1369 99.3472 92.1925 96.9071C86.98 90.546 78.7723 87.6306 72.7771 82.0396C65.793 75.5264 62.2835 65.0202 64.8275 55.7046C67.3715 46.389 76.3286 39.0597 85.7665 39.4727C93.5185 39.8119 100.34 44.8327 105.752 50.5272C114.144 59.3586 120.385 70.3172 123.76 82.1456C126.009 90.0294 134.252 94.0399 141.213 98.12C148.175 102.2 155.404 109.307 153.442 117.271C150.849 106.373 142.142 97.2383 131.566 94.3194C126.055 92.7988 124.046 86.0834 122.273 80.5277C118.824 69.7165 112.935 59.73 105.198 51.5701C99.383 45.4378 91.781 40.0867 83.4459 40.5474C74.8656 41.0216 67.3018 48.1688 65.3402 56.7354C63.3785 65.3021 66.6675 74.6888 72.9283 80.7156C79.3052 86.8544 88.428 89.8614 93.5695 97.1144C82.4189 99.4348 73.6034 110.423 73.5448 122.074C73.4862 133.726 82.1908 144.807 93.3175 147.244C85.4765 151.944 78.1392 157.915 73.3015 165.79C68.4638 173.666 66.39 183.661 69.2846 192.48C75.9797 212.878 103.885 217.746 113.733 236.756C116.4 227.786 112.491 218.354 110.481 209.205C108.472 200.057 109.607 188.308 117.937 184.412C115.503 172.397 113.068 160.383 110.634 148.368C108.82 139.415 107.91 128.072 115.431 123.143C110.132 121.461 105.428 117.875 102.333 113.16C105.676 118.4 112.114 121.372 118.162 120.469C110.519 103.505 102.045 86.9323 92.7825 70.8366C102.763 86.2472 111.596 102.437 119.18 119.219C154.257 118.247 189.388 119.354 224.341 122.532C228.981 122.954 233.976 123.567 237.406 126.796C242.336 131.434 249.737 133.126 256.125 131.075C258.158 136.234 259.653 142.03 257.925 147.304C256.198 152.579 250.078 156.605 245.186 154.185C246.463 160.912 247.74 167.64 249.017 174.367C261.525 174.521 274.031 174.783 286.535 175.152C293.162 175.347 300.089 175.656 305.849 179.018C311.608 182.38 315.673 189.827 313.107 196.088C314.744 190.914 316.38 185.741 318.016 180.567C323.784 189.942 326.617 201.179 326.001 212.241C327.999 209.128 329.997 206.015 331.995 202.902C324.896 191.462 323.993 176.256 329.684 164.019C335.266 173.485 338.41 184.443 338.716 195.496C340.797 175.575 354.58 157.415 372.917 150.431C369.735 157.937 366.554 165.444 363.373 172.951C360.649 179.378 357.189 186.507 350.644 188.548C346.327 189.895 340.075 189.814 339.292 194.365C351.692 191.035 364.891 190.87 377.367 193.89C367.754 205.725 349.227 208.64 336.587 200.304C330.624 207.115 325.458 214.655 321.233 222.715C328.409 213.582 339.577 207.871 351.017 207.483C344.871 214.922 337.938 221.679 330.379 227.598C334.391 227.993 338.729 228.534 341.639 231.389C344.55 234.245 344.622 240.255 340.868 241.758ZM173.522 166.791C176.847 166.752 180.571 166.873 182.893 169.312C184.663 171.172 185.138 173.915 185.524 176.483C187.289 188.224 188.942 199.982 190.482 211.756C190.868 214.71 188.45 217.435 185.688 218.371C182.925 219.308 179.922 218.897 177.041 218.476C179.443 216.353 183.498 217.875 186.083 215.991C188.402 214.302 188.388 210.833 188.111 207.933C187.07 197.061 185.653 186.226 183.862 175.457C183.546 173.553 183.158 171.527 181.841 170.146C180.088 168.305 177.285 168.182 174.774 168.179C164.466 168.166 154.157 168.153 143.849 168.14C142.072 168.138 140.203 168.159 138.66 169.062C134.222 171.66 135.858 178.521 138.064 183.244C144.315 181.946 150.702 181.337 157.079 181.433C162.729 181.517 169.774 183.395 170.727 189.098C172.82 201.627 174.912 214.156 177.005 226.684C178.103 233.254 178.708 241.235 173.581 245.34C171.019 247.392 167.619 247.881 164.393 248.299C156.46 249.326 148.526 250.353 140.593 251.38C143.897 281.005 147.201 310.63 150.506 340.255C150.874 343.559 151.549 347.358 154.386 348.976C156.065 349.934 158.101 349.856 160.019 349.749C185.297 348.337 210.55 346.468 235.763 344.142C234.754 341.788 234.734 339.011 235.709 336.643C238.263 351.952 240.816 367.261 243.37 382.571C247.841 379.415 247.154 372.564 245.967 367.138C242.961 353.4 239.956 339.661 236.951 325.923C235.734 328.208 234.517 330.494 233.301 332.779C232.703 329.926 234.375 326.973 236.695 325.277C239.014 323.58 241.872 322.884 244.659 322.273C253.227 320.391 261.888 318.955 270.598 317.97C268.067 299.686 265.536 281.403 263.004 263.12C247.443 267.496 230.964 266.119 214.886 264.707C210.124 264.29 204.072 262.648 203.617 257.776C202.476 245.528 201.334 233.28 200.193 221.032C200.044 219.435 199.14 217.284 197.653 217.787C193.998 219.023 191.824 213.691 191.525 209.761C190.586 197.435 189.648 185.109 188.709 172.783C188.586 171.167 188.554 169.301 189.731 168.217C190.556 167.458 191.743 167.318 192.847 167.215C200.723 166.478 208.599 165.74 216.475 165.003C220.973 164.582 226.081 164.364 229.354 167.551C231.664 169.8 232.439 173.211 232.927 176.437C233.825 182.382 234.123 188.422 233.813 194.43C233.189 188.558 232.565 182.685 231.941 176.813C231.66 174.171 231.317 171.369 229.687 169.301C226.905 165.771 221.729 165.83 217.314 166.202C209.427 166.867 201.54 167.531 193.653 168.196C192.591 168.285 191.44 168.414 190.668 169.166C189.664 170.145 189.692 171.765 189.793 173.181C190.638 185.093 191.483 197.005 192.328 208.917C192.487 211.165 192.704 213.568 194.092 215.318C195.48 217.068 198.492 217.617 199.789 215.795C198.012 211.796 200.47 206.898 204.108 204.567C207.746 202.236 212.21 201.826 216.488 201.476C223.866 200.873 231.243 200.271 238.621 199.668C238.116 184.031 236.469 168.433 233.699 153.047C231.147 152.317 228.824 150.772 227.133 148.683C225.868 152.02 222.099 154.141 218.67 153.446C215.24 152.751 212.545 149.319 212.617 145.74C212.21 149.859 208.706 153.432 204.682 153.83C200.658 154.229 196.55 151.41 195.38 147.447C193.453 149.648 190.952 151.544 188.077 151.812C185.203 152.08 182.023 150.221 181.555 147.304C177.78 152.32 169.005 151.811 165.807 146.391C162.517 151.95 153.152 151.813 150.018 146.16C148.611 151.387 140.756 151.805 136.986 147.999C133.216 144.193 132.482 138.331 131.957 132.936C125.734 139.077 124.611 148.941 125.792 157.708C126.973 166.475 130.051 174.919 130.798 183.736C132.503 184.175 134.373 183.898 135.887 182.982C134.252 177.923 133.177 171.126 137.615 168.343C139.395 167.227 141.598 167.17 143.685 167.145C153.631 167.027 163.576 166.91 173.522 166.791ZM272.048 251.93C285.095 251.266 298.553 253.008 310.952 248.797C312.87 248.146 314.836 247.287 316.072 245.649C312.905 244.159 309.541 241.589 309.619 238.02C309.67 235.677 311.256 233.651 313.042 232.186C314.918 230.648 317.101 229.505 319.418 228.85C319.605 228.263 318.597 228.136 318.098 228.483C317.599 228.83 316.841 229.259 316.509 228.743C316.419 228.605 316.401 228.432 316.385 228.267C315.141 215.299 313.297 202.392 310.861 189.603C310.129 185.757 309.041 181.474 305.731 179.509C303.944 178.448 301.802 178.269 299.741 178.124C284.227 177.024 268.684 176.352 253.135 176.105C249.46 176.047 245.349 176.187 242.773 178.871C240.819 180.907 240.259 183.931 240.052 186.778C239.411 195.594 241.255 204.369 242.454 213.123C243.891 223.611 244.408 234.203 245.356 244.749C245.482 246.152 245.635 247.614 246.376 248.802C247.647 250.837 250.227 251.475 252.563 251.811C256.015 252.306 259.505 252.516 262.99 252.437C266.013 252.368 269.028 252.083 272.048 251.93ZM164.977 183.906C160.56 181.917 155.502 182.45 150.709 183.02C143.46 183.882 136.211 184.743 128.962 185.605C125.478 186.019 121.991 186.434 118.544 187.099C117.713 187.26 116.879 187.437 116.095 187.761C113.023 189.033 111.191 192.425 110.765 195.79C110.339 199.155 111.069 202.547 111.77 205.864C113.946 216.172 115.876 226.576 116.399 237.108C116.503 239.193 116.555 241.305 117.115 243.313C117.674 245.32 118.817 247.252 120.604 248.257C121.978 249.031 123.593 249.191 125.158 249.297C139.502 250.262 153.838 247.893 168.027 245.532C170.046 245.197 172.17 244.813 173.744 243.476C176.174 241.41 176.538 237.775 176.52 234.54C176.488 228.567 175.782 222.597 174.42 216.788C172.827 209.995 170.326 203.311 170.26 196.325C170.231 193.243 170.626 189.923 169.056 187.294C168.128 185.741 166.605 184.638 164.977 183.906ZM96.72 313.275C98.648 327.462 99.296 341.831 98.6525 356.14C98.6185 356.895 99.5135 357.279 100.238 357.421C109.513 359.236 119.066 356.91 128.067 353.983C133.184 352.32 138.304 350.424 142.73 347.311C144.754 345.888 146.802 343.742 146.424 341.258C143.992 325.294 142.654 309.157 142.424 293.003C134.234 299.556 123.841 302.336 113.769 304.96C108.994 306.204 104.156 307.456 99.23 307.414C98.039 307.404 97.0505 308.475 96.7175 309.646C96.385 310.817 96.556 312.067 96.72 313.275ZM284.973 320.446C269.631 318.916 253.982 320.713 239.352 325.683C240.23 332.526 241.431 339.325 242.947 346.049C243.554 348.742 244.212 351.422 244.87 354.103C246.151 359.322 247.432 364.542 248.713 369.762C248.892 370.488 249.115 371.282 249.727 371.693C250.272 372.06 250.979 372.018 251.63 371.963C266.778 370.669 281.918 369.268 297.047 367.758C293.74 352.661 290.432 337.564 287.125 322.467C286.998 321.887 286.845 321.261 286.394 320.887C286.004 320.562 285.473 320.496 284.973 320.446ZM262.358 254.173C259.02 254.347 255.632 254.517 252.372 253.759C249.113 253 245.941 251.181 244.267 248.218C243.306 249.351 241.396 249.436 240.343 248.393C239.29 247.35 239.309 245.393 240.382 244.371C236.142 244.411 231.901 244.45 227.66 244.489C229.598 245.658 229.439 249.105 227.436 250.152C225.432 251.199 222.659 249.43 222.613 247.127C222.592 246.094 223.211 244.933 224.217 244.841C223.8 244.109 222.717 244.542 221.894 244.462C220.653 244.342 219.975 242.958 219.539 241.762C217.774 236.911 216.167 232.001 214.561 227.093C215.686 228.978 218.219 229.826 220.214 228.986C220.918 228.689 220.94 227.651 220.64 226.934C220.116 225.681 218.922 224.716 217.595 224.609C216.269 224.503 214.888 225.333 214.44 226.615C213.775 226.106 214.058 224.929 214.756 224.468C215.453 224.007 216.347 224.047 217.175 224.099C224.997 224.582 232.847 224.575 240.668 224.076C241.024 224.053 241.416 224.012 241.659 223.745C241.933 223.442 241.907 222.975 241.863 222.565C241.564 219.748 241.265 216.931 240.966 214.114C240.933 213.801 240.886 213.46 240.658 213.249C240.407 213.017 240.029 213.028 239.692 213.053C229.888 213.768 220.11 214.849 210.384 216.292C209.348 216.445 208.385 215.555 208.058 214.537C207.732 213.52 207.883 212.414 208.037 211.354C208.091 210.983 208.16 210.58 208.429 210.324C208.677 210.089 209.036 210.033 209.371 209.989C219.491 208.667 229.676 207.873 239.875 207.613C239.627 208.644 238.313 208.867 237.276 208.886C227.811 209.058 218.356 209.835 208.985 211.211C208.237 212.521 209.263 214.286 210.644 214.837C212.025 215.387 213.572 215.093 215.029 214.812C223.058 213.265 231.203 212.353 239.369 212.088C240.535 212.05 240.674 210.332 240.429 209.164C239.86 206.452 239.291 203.74 238.722 201.028C233.067 202.125 227.291 202.562 221.54 202.33C218.137 202.192 214.753 202.801 211.399 203.408C208.549 203.923 205.511 204.534 203.452 206.616C201.044 209.05 200.613 212.856 200.759 216.317C200.999 221.995 202.406 227.549 203.1 233.188C203.949 240.078 203.731 247.061 204.382 253.973C204.558 255.835 204.808 257.732 205.624 259.407C206.439 261.081 207.921 262.518 209.728 262.794C224.577 265.061 239.717 265.319 254.631 263.558C256.009 263.395 257.399 263.212 258.699 262.719C260.752 261.942 262.512 260.382 263.559 258.415C263.979 257.625 264.293 256.722 264.14 255.836C263.987 254.95 263.235 254.127 262.358 254.173ZM143.648 293.016C145.202 310.523 146.756 328.03 148.31 345.537C148.589 348.684 148.858 351.934 147.898 354.937C146.937 357.939 144.411 360.654 141.327 360.757C143.137 363.469 146.262 365.019 149.422 365.587C152.581 366.155 155.821 365.854 159.015 365.552C185.336 363.062 211.657 360.572 237.977 358.082C237.412 354.713 236.847 351.345 236.282 347.978C236.156 347.222 235.793 346.263 235.046 346.32C216.949 347.701 198.852 349.082 180.755 350.463C173.324 351.03 165.856 351.597 158.429 350.975C154.671 350.66 150.029 349.131 149.659 345.288C146.692 314.544 143.257 283.847 139.356 253.213C139.296 252.742 139.222 252.238 138.907 251.888C138.487 251.422 137.792 251.387 137.172 251.384C133.472 251.364 129.771 251.345 126.071 251.325C127.151 257.603 128.554 263.823 130.272 269.951C130.589 271.083 131.117 272.405 132.25 272.609C136.319 273.341 139.531 276.768 141.205 280.636C142.879 284.503 143.274 288.804 143.648 293.016ZM129.43 184.044C126.254 167.547 123.567 150.952 121.373 134.289C121.249 133.346 121.129 132.369 121.4 131.459C121.958 129.584 123.96 128.602 125.823 128.15C129.464 127.266 133.266 127.56 136.998 127.842C171.118 130.418 205.35 131.449 239.559 130.931C238.198 128.105 235.462 126.178 232.552 125.156C229.641 124.134 226.531 123.906 223.462 123.689C193.349 121.558 163.19 119.562 133.007 119.934C129.315 119.979 125.579 120.066 122.013 121.051C118.448 122.035 115.017 124.018 112.96 127.159C109.718 132.108 110.502 138.646 111.506 144.515C113.855 158.262 116.714 171.917 120.073 185.441C123.192 184.975 126.311 184.51 129.43 184.044ZM202.897 151.802C204.528 151.819 206.222 151.725 207.665 150.948C210.206 149.578 211.334 146.422 211.502 143.487C211.67 140.551 211.104 137.609 211.286 134.674C211.328 134.006 211.693 133.119 212.327 133.287C212.786 136.665 213.244 140.044 213.703 143.422C213.957 145.287 214.22 147.187 215.018 148.884C215.816 150.58 217.251 152.071 219.057 152.427C220.094 152.631 221.177 152.448 222.166 152.067C224.533 151.156 226.516 148.837 226.426 146.249C226.302 142.676 226.178 139.103 226.054 135.53C226.005 134.117 225.491 132.234 224.112 132.308C214.916 132.801 205.692 132.757 196.501 132.177C195.831 132.135 195.654 133.107 195.725 133.791C196.093 137.335 196.461 140.879 196.829 144.422C197.107 147.098 197.7 150.243 200.097 151.344C200.966 151.743 201.945 151.791 202.897 151.802ZM250.063 374.173C249.622 374.489 249.331 374.976 249.063 375.453C247.668 377.94 246.548 380.587 245.729 383.329C261.826 382.177 277.911 380.839 293.979 379.314C294.583 379.257 295.238 379.176 295.671 378.742C295.952 378.459 296.097 378.068 296.233 377.689C296.834 376.016 297.435 374.343 298.037 372.67C298.33 371.856 298.59 370.843 298.017 370.203C297.542 369.672 296.733 369.689 296.032 369.746C281.341 370.951 266.657 372.249 251.982 373.64C251.314 373.703 250.612 373.779 250.063 374.173ZM278.439 272.616C278.004 267.415 277.117 261.578 272.973 258.54C271.355 263.1 269.723 267.73 269.353 272.567C268.983 277.404 270.027 282.56 273.195 286.167C273.641 286.674 274.136 287.166 274.372 287.804C274.608 288.441 274.488 289.283 273.91 289.621C269.603 285.783 267.82 279.629 267.921 273.783C268.022 267.938 269.771 262.27 271.505 256.7C271.886 255.477 270.796 254.189 269.573 253.904C268.35 253.618 267.087 254.037 265.9 254.45C265.669 254.531 265.567 254.801 265.494 255.04C264.672 257.719 263.844 260.56 264.48 263.292C267.22 275.062 266.866 287.415 269.656 299.173C269.759 299.607 269.87 300.051 270.117 300.419C271.967 296.715 273.817 293.011 275.667 289.306C276.537 287.566 277.411 285.813 277.954 283.939C279.009 280.294 278.756 276.403 278.439 272.616ZM343.884 187.18C344.242 187.482 344.721 187.578 345.181 187.63C350.413 188.229 355.35 184.583 358.247 180.082C361.144 175.581 362.512 170.264 364.412 165.237C366.194 160.518 368.474 155.997 371.199 151.777C365.744 157.018 359.028 160.689 353.333 165.657C347.639 170.626 342.793 177.594 343.194 185.243C343.232 185.95 343.351 186.73 343.884 187.18ZM134.358 136.489C135.101 139.827 134.794 143.536 136.6 146.418C138.351 149.211 142.044 150.542 145.118 149.488C148.191 148.434 150.356 145.092 150.11 141.783C150.054 141.031 149.889 140.292 149.723 139.557C149.076 136.677 148.428 133.797 147.781 130.917C147.716 130.63 147.644 130.329 147.446 130.116C147.161 129.812 146.706 129.776 146.294 129.76C142.338 129.605 138.382 129.45 134.426 129.295C134.045 129.28 133.628 129.277 133.332 129.522C132.957 129.834 132.936 130.405 132.985 130.896C133.174 132.811 133.94 134.612 134.358 136.489ZM241.448 139.602C241.543 144.213 244.476 148.223 247.57 151.574C247.872 151.901 248.182 152.23 248.56 152.462C249.17 152.835 249.913 152.923 250.622 152.861C253.012 152.651 255.056 150.8 256.065 148.571C257.074 146.343 257.188 143.793 256.97 141.347C256.753 138.901 256.224 136.491 256.011 134.045C255.968 133.554 255.792 132.913 255.311 132.915C251.082 132.932 246.852 132.948 242.623 132.965C242.082 132.967 241.508 132.978 241.051 133.275C240.594 133.571 240.339 134.264 240.678 134.696C241.714 136.015 241.413 137.91 241.448 139.602ZM305.766 282.233C294.178 282.024 283.555 289.058 275.45 297.541C274.084 298.971 272.75 300.471 271.841 302.242C271.68 302.555 271.553 302.991 271.817 303.22C271.957 303.342 272.158 303.349 272.342 303.349C279.083 303.324 285.567 300.408 291.044 296.383C296.522 292.358 301.137 287.251 305.766 282.233ZM162.38 148.651C164.036 147.675 165.101 145.732 165.053 143.777C165.028 142.785 164.742 141.823 164.512 140.859C163.92 138.38 163.69 135.81 163.831 133.262C163.862 132.719 163.907 132.161 163.748 131.643C163.588 131.124 163.166 130.647 162.635 130.618C158.257 130.373 153.878 130.128 149.499 129.883C149.341 129.874 149.169 129.87 149.042 129.965C148.845 130.113 148.856 130.413 148.893 130.661C149.431 134.31 151.156 137.747 151.266 141.436C151.307 142.792 151.13 144.184 151.501 145.487C151.976 147.157 153.334 148.475 154.91 149.124C156.485 149.774 158.252 149.81 159.924 149.502C160.779 149.344 161.627 149.094 162.38 148.651ZM337.598 198.606C340.769 199.522 343.573 201.437 346.65 202.646C353.47 205.325 361.589 204.206 367.475 199.777C370.003 197.875 372.531 195.973 375.059 194.071C371.978 194.818 368.79 195.104 365.629 194.917C360.347 194.605 355.131 192.985 349.856 193.391C345.368 193.736 341.003 195.593 337.598 198.606ZM247.036 173.615C246.413 170.08 245.79 166.544 245.166 163.008C244.331 158.269 243.495 153.53 242.66 148.791C242.601 148.455 242.529 148.094 242.286 147.86C242.042 147.626 241.568 147.626 241.435 147.939C240.601 149.911 238.892 151.474 236.885 152.103C235.667 152.484 235.563 154.185 235.705 155.481C236.703 164.624 237.886 173.746 239.25 182.84C239.647 179.12 242.76 175.891 246.386 175.435C247.092 175.346 247.163 174.332 247.036 173.615ZM180.409 144.856C180.021 141.044 179.533 137.243 178.943 133.458C178.822 132.678 178.497 131.705 177.726 131.67C173.741 131.491 169.755 131.312 165.769 131.133C165.627 131.127 165.477 131.122 165.351 131.191C165.03 131.365 165.082 131.845 165.177 132.205C166.096 135.7 166.584 139.313 166.625 142.932C166.635 143.823 166.625 144.747 166.989 145.556C167.525 146.747 168.745 147.43 169.904 147.986C171.923 148.954 174.132 149.806 176.336 149.455C178.54 149.103 180.64 147.128 180.409 144.856ZM182.132 144.877C182.534 146.872 183.271 149.191 185.179 149.765C186.79 150.249 188.531 150.382 190.146 149.916C191.761 149.45 193.234 148.339 193.957 146.788C194.472 145.684 194.588 144.434 194.655 143.213C194.838 139.868 194.712 136.504 194.278 133.183C194.255 133.005 194.229 132.822 194.141 132.667C193.909 132.255 193.361 132.197 192.896 132.186C188.837 132.096 184.779 132.005 180.72 131.915C180.389 131.907 179.926 132.26 180.206 132.441C180.66 136.614 181.303 140.765 182.132 144.877ZM318.505 186.152C315.334 193.492 314.401 201.825 315.865 209.709C316.45 212.859 317.601 216.202 320.263 217.889C321.047 218.385 322.353 218.532 322.643 217.636C326.011 207.231 324.439 195.275 318.505 186.152ZM113.008 278.306C114.353 279.251 115.869 279.94 117.456 280.327C119.461 280.816 121.543 280.822 123.604 280.873C128.419 280.992 133.228 281.369 138.005 282.004C138.671 282.092 139.222 281.354 139.204 280.666C139.187 279.978 138.778 279.371 138.354 278.837C135.807 275.623 132.087 273.408 128.099 272.731C125.274 272.251 122.386 272.52 119.524 272.436C116.662 272.352 113.674 271.855 111.392 270.085C111.271 271.768 111.261 273.46 111.363 275.145C111.404 275.827 111.471 276.535 111.811 277.123C112.095 277.616 112.547 277.982 113.008 278.306ZM228.854 147.531C229.303 148.366 230.025 149.009 230.764 149.589C231.564 150.217 232.429 150.805 233.413 151.036C235.834 151.603 238.31 149.766 239.33 147.448C240.351 145.128 240.247 142.47 240.011 139.938C239.832 138.024 239.589 136.115 239.282 134.218C239.231 133.902 239.171 133.571 238.977 133.319C238.636 132.878 238.013 132.827 237.463 132.812C234.512 132.732 231.56 132.651 228.608 132.571C227.954 132.554 227.026 132.874 227.22 133.512C228.089 136.375 228.468 139.392 228.334 142.385C228.256 144.133 228.03 145.999 228.854 147.531ZM333.319 200.669C336.453 195.49 337.391 188.969 335.849 183.085C334.485 177.883 331.315 173.274 330.31 167.986C327.968 175.264 325.61 183.098 327.728 190.447C328.814 194.213 331.008 197.535 333.319 200.669ZM281.399 282.147C290.72 279.688 299.324 274.447 305.882 267.233C307.844 265.074 309.853 262.96 311.906 260.892C306.876 261.598 301.966 263.191 297.457 265.579C290.577 269.223 284.541 274.897 281.399 282.147ZM338.188 218.793C341.616 215.494 345.044 212.195 348.473 208.896C336.879 210.409 326.052 217.269 319.555 227.217C321.23 228.538 323.633 227.76 325.586 226.933C328.303 225.783 331.042 224.619 333.461 222.908C335.164 221.703 336.679 220.245 338.188 218.793ZM112.712 290.897C112.741 291.202 112.776 291.524 112.956 291.769C113.351 292.304 114.156 292.172 114.784 291.984C121.978 289.832 129.071 287.325 136.03 284.476C136.532 284.271 137.117 283.946 137.127 283.393C131.789 283.013 126.45 282.635 121.111 282.255C119.805 282.162 118.494 282.069 117.214 281.789C115.288 281.368 113.452 280.523 111.866 279.328C111.982 283.194 112.347 287.047 112.712 290.897ZM281.366 253.907C280.935 254.225 280.761 254.787 280.613 255.31C280.105 257.103 279.594 259.006 280.066 260.809C280.307 261.729 280.789 262.558 281.266 263.375C282.586 265.634 283.906 267.893 285.225 270.151C285.348 270.361 285.481 270.582 285.693 270.696C286.323 271.035 286.945 270.239 287.238 269.574C289.137 265.261 291.079 260.699 290.649 255.989C290.582 255.264 290.39 254.442 289.758 254.11C289.468 253.957 289.131 253.938 288.805 253.921C286.848 253.822 284.892 253.722 282.936 253.623C282.394 253.595 281.805 253.581 281.366 253.907ZM311.268 237.937C311.218 240.973 313.805 243.512 316.642 244.395C319.479 245.279 322.523 244.899 325.472 244.574C330.656 244.005 336.139 243.535 340.401 240.459C341.347 239.776 342.241 238.934 342.663 237.831C343.322 236.11 342.659 234.078 341.421 232.734C340.182 231.389 338.465 230.621 336.746 230.057C330.603 228.044 323.782 228.276 317.784 230.702C314.619 231.982 311.326 234.453 311.268 237.937ZM112.224 268.95C112.782 269.484 113.914 269.62 114.132 268.87C114.878 266.302 116.555 264.1 118.531 262.343C120.507 260.586 122.784 259.229 125.047 257.883C125.658 257.52 125.619 256.619 125.501 255.907C125.273 254.526 125.044 253.146 124.816 251.766C124.758 251.416 124.644 250.999 124.309 250.905C124.036 250.829 123.766 251.018 123.542 251.197C121.919 252.495 120.296 253.793 118.672 255.091C115.42 257.692 111.934 260.676 111.229 264.839C110.983 266.29 111.173 267.946 112.224 268.95ZM124.886 259.659C121.241 261.99 117.382 264.571 115.725 268.632C115.622 268.885 115.527 269.15 115.535 269.424C115.551 269.965 115.976 270.42 116.464 270.628C116.951 270.835 117.494 270.845 118.022 270.851C121.143 270.889 124.264 270.926 127.384 270.964C127.536 270.966 127.701 270.963 127.821 270.868C128.01 270.717 127.991 270.423 127.953 270.18C127.455 266.959 126.957 263.737 126.46 260.515C126.389 260.057 126.244 259.509 125.808 259.384C125.49 259.293 125.166 259.479 124.886 259.659ZM279.939 254.104C277.641 253.498 275.163 253.63 272.939 254.478C273.37 255.926 274.133 257.267 275.149 258.365C278.575 262.063 279.588 267.433 279.977 272.515C280.185 275.229 280.258 277.955 280.196 280.677C281.701 278.3 283.206 275.923 284.711 273.545C284.86 273.309 285.015 273.059 285.031 272.778C285.047 272.496 284.923 272.229 284.796 271.978C283.311 269.042 281.129 266.51 279.751 263.52C278.374 260.529 277.951 256.71 279.939 254.104ZM125.991 129.672C124.723 129.878 123.278 130.208 122.676 131.368C122.26 132.171 122.383 133.141 122.516 134.039C123.067 137.738 123.618 141.437 124.169 145.136C126.988 139.945 129.627 134.655 132.266 129.367C131.777 128.801 130.912 128.873 130.184 128.991C128.786 129.218 127.388 129.445 125.991 129.672ZM299.49 255.262C299.881 255.792 300.899 255.205 300.66 254.588C304.424 255.695 308.528 254.907 312.084 253.226C315.64 251.544 318.745 249.024 321.801 246.515C320.518 246.331 319.234 246.148 317.951 245.964C317.689 245.927 317.349 245.932 317.249 246.182C316.558 247.914 315.071 249.212 313.428 250.031C311.785 250.85 309.978 251.247 308.191 251.637C306.951 251.907 305.71 252.178 304.47 252.449C302.549 252.867 300.383 253.471 299.49 255.262ZM231.383 228.44C231.624 228.378 231.883 228.304 232.037 228.103C232.276 227.794 232.156 227.348 232.094 226.958C232.031 226.567 232.127 226.048 232.508 225.981C232.854 226.051 233.014 226.473 233.023 226.834C233.031 227.196 232.953 227.574 233.081 227.911C233.366 228.663 234.379 228.692 235.159 228.59C235.621 228.53 236.083 228.47 236.545 228.41C236.69 228.391 236.844 228.367 236.952 228.266C237.294 227.946 236.818 227.422 236.712 226.961C236.631 226.603 236.794 226.217 236.687 225.868C236.505 225.272 235.731 225.18 235.121 225.201C230.458 225.359 225.796 225.518 221.133 225.676C221.213 226.58 221.454 227.468 221.842 228.284C221.925 228.46 222.023 228.641 222.189 228.738C222.357 228.837 222.563 228.83 222.756 228.821C223.915 228.766 225.074 228.711 226.233 228.656C226.332 228.651 226.436 228.645 226.518 228.589C226.73 228.446 226.656 228.116 226.559 227.876C226.392 227.463 226.224 227.05 226.057 226.638C225.911 226.278 226.546 226.066 226.814 226.342C227.081 226.618 227.091 227.051 227.217 227.418C227.478 228.179 228.269 228.644 229.051 228.741C229.833 228.839 230.619 228.639 231.383 228.44ZM299.099 253.716C299.353 253.439 298.793 253.149 298.425 253.196C296.325 253.459 294.225 253.723 292.126 253.987C291.845 254.022 291.474 254.18 291.541 254.461C292.231 257.353 291.972 260.475 290.816 263.207C290.596 263.728 290.451 264.523 290.978 264.697C293.168 260.673 295.91 256.964 299.099 253.716ZM227.56 230.622C227.494 230.389 227.42 230.143 227.247 229.978C227.049 229.789 226.764 229.742 226.496 229.712C225.121 229.558 223.719 229.654 222.375 229.996C222.796 231.392 223.216 232.787 223.636 234.182C223.716 234.447 223.823 234.744 224.073 234.847C224.202 234.9 224.345 234.891 224.483 234.881C225.841 234.784 227.2 234.686 228.558 234.588C228.263 233.257 227.93 231.934 227.56 230.622ZM218.717 235.502C218.868 235.586 219.053 235.561 219.222 235.532C220.452 235.327 221.682 235.122 222.911 234.917C222.468 233.461 222.024 232.004 221.58 230.548C221.515 230.335 221.434 230.1 221.242 229.994C221.09 229.91 220.905 229.928 220.733 229.948C219.637 230.079 218.541 230.209 217.444 230.34C217.238 230.364 216.994 230.417 216.918 230.615C216.866 230.749 216.915 230.899 216.964 231.035C217.447 232.369 217.93 233.704 218.413 235.039C218.477 235.217 218.554 235.411 218.717 235.502ZM232.533 229.685C232.273 229.454 231.888 229.469 231.545 229.499C230.462 229.59 229.379 229.681 228.296 229.772C228.62 231.193 229.027 232.594 229.516 233.965C229.58 234.145 229.652 234.334 229.801 234.449C229.987 234.593 230.242 234.585 230.475 234.571C231.214 234.525 231.954 234.479 232.693 234.434C233.033 234.413 233.447 234.338 233.562 234.009C233.616 233.851 233.581 233.677 233.545 233.513C233.32 232.487 233.095 231.462 232.871 230.437C232.81 230.163 232.74 229.869 232.533 229.685ZM226.072 239.894C225.965 239.911 225.851 239.932 225.773 240.009C225.621 240.159 225.691 240.417 225.771 240.617C226.055 241.33 226.34 242.043 226.624 242.756C226.73 243.021 226.849 243.302 227.084 243.455C227.302 243.596 227.576 243.599 227.834 243.598C228.817 243.591 229.799 243.585 230.782 243.58C230.926 243.579 231.082 243.574 231.193 243.479C231.394 243.309 231.319 242.983 231.226 242.733C230.848 241.713 230.47 240.693 230.092 239.672C229.971 239.344 229.526 239.34 229.188 239.394C228.149 239.56 227.111 239.727 226.072 239.894ZM234.34 229.483C234.133 229.484 233.901 229.496 233.762 229.652C233.594 229.841 233.647 230.136 233.711 230.382C233.99 231.464 234.27 232.546 234.549 233.627C234.598 233.817 234.655 234.02 234.804 234.145C235.002 234.31 235.288 234.279 235.541 234.239C236.472 234.094 237.404 233.948 238.335 233.803C238.235 232.695 238.064 231.595 237.822 230.511C237.746 230.172 237.642 229.803 237.355 229.616C237.141 229.477 236.871 229.474 236.617 229.475C235.858 229.478 235.099 229.48 234.34 229.483ZM236.236 243.452C235.934 242.33 235.632 241.207 235.33 240.084C235.215 239.656 235.052 239.17 234.647 239.008C234.447 238.929 234.225 238.946 234.012 238.965C233.018 239.054 232.024 239.142 231.03 239.231C231.292 240.236 231.602 241.229 231.959 242.203C232.139 242.693 232.412 243.249 232.917 243.333C234.013 243.515 235.131 243.555 236.236 243.452ZM237.966 243.374C238.867 243.45 239.856 243.501 240.585 242.952C240.269 241.695 239.953 240.438 239.637 239.18C239.566 238.897 239.471 238.582 239.218 238.447C239.032 238.348 238.808 238.375 238.601 238.404C237.708 238.532 236.815 238.659 235.922 238.786C236.135 240.118 236.495 241.424 236.994 242.672C237.07 242.864 237.157 243.063 237.317 243.189C237.498 243.331 237.739 243.355 237.966 243.374ZM318.26 225.473C318.948 224.026 319.637 222.58 320.325 221.134C320.398 220.982 320.471 220.817 320.445 220.65C320.419 220.488 320.304 220.358 320.194 220.238C319.214 219.178 318.234 218.117 317.254 217.056C316.847 217.625 316.894 218.4 316.959 219.102C317.172 221.408 317.386 223.714 317.599 226.02C317.899 226.088 318.126 225.755 318.26 225.473ZM238.956 229.316C238.828 229.307 238.681 229.304 238.591 229.399C238.491 229.505 238.513 229.677 238.542 229.822C238.736 230.779 238.93 231.737 239.124 232.694C239.196 233.049 239.281 233.428 239.542 233.672C240.388 234.462 242.018 233.104 242.805 233.956C242.943 232.596 242.844 231.212 242.513 229.888C242.489 229.795 242.462 229.696 242.392 229.632C242.312 229.558 242.195 229.547 242.087 229.539C241.043 229.465 240 229.391 238.956 229.316ZM219.49 236.417C219.377 236.433 219.26 236.45 219.167 236.518C218.961 236.667 218.969 236.977 218.999 237.234C219.077 237.918 219.164 238.628 219.514 239.217C219.864 239.806 220.555 240.242 221.205 240.064C222.137 239.808 223.069 239.552 224.001 239.296C223.96 238.384 223.78 237.479 223.468 236.623C223.391 236.41 223.293 236.185 223.101 236.069C222.902 235.949 222.654 235.978 222.425 236.009C221.447 236.145 220.468 236.281 219.49 236.417ZM241.224 228.415C241.505 228.371 241.804 228.319 242.012 228.122C242.633 227.535 241.923 226.341 242.426 225.646C242.623 225.374 242.142 225.132 241.812 225.146C240.34 225.21 238.868 225.274 237.396 225.337C237.453 225.961 237.559 226.58 237.712 227.186C237.883 227.862 238.527 228.324 239.193 228.474C239.858 228.624 240.55 228.52 241.224 228.415ZM229.327 236.534C229.138 235.601 227.919 235.383 227.004 235.558C226.09 235.732 225.069 236.07 224.292 235.547C224.341 236.531 224.566 237.506 224.951 238.409C225.032 238.599 225.13 238.797 225.306 238.899C225.505 239.014 225.75 238.977 225.975 238.937C226.876 238.778 227.778 238.619 228.679 238.459C229.126 238.38 229.715 238.018 229.48 237.621C229.292 237.305 229.401 236.896 229.327 236.534ZM223.759 240.361C223.023 240.489 222.286 240.617 221.55 240.744C221.151 240.813 220.66 240.977 220.617 241.389C220.51 242.43 221.523 243.269 222.525 243.477C223.527 243.684 224.567 243.481 225.584 243.584C225.542 242.7 225.361 241.821 225.051 240.995C224.977 240.798 224.889 240.595 224.726 240.466C224.461 240.257 224.088 240.304 223.759 240.361ZM243.167 238.341C242.19 238.235 241.196 238.289 240.235 238.498C240.766 239.793 241.143 241.155 241.356 242.543C241.453 243.179 242.34 243.192 242.95 243.033C243.177 242.973 243.425 242.899 243.555 242.7C243.667 242.527 243.662 242.304 243.652 242.097C243.6 240.955 243.548 239.811 243.495 238.669C243.492 238.596 243.487 238.52 243.447 238.461C243.387 238.373 243.271 238.353 243.167 238.341ZM227.209 248.582C228.131 247.64 227.658 245.739 226.409 245.362C225.16 244.986 223.758 246.322 224.034 247.625C224.32 248.972 226.256 249.555 227.209 248.582ZM234.452 237.541C235.038 236.758 234.161 235.601 233.211 235.431C232.262 235.26 231.3 235.633 230.336 235.619C229.981 235.613 229.966 236.16 230.081 236.504C230.231 236.949 230.38 237.394 230.529 237.839C230.59 238.021 230.701 238.239 230.888 238.227C231.576 238.183 232.263 238.139 232.95 238.095C233.499 238.06 234.118 237.988 234.452 237.541ZM243.952 245.105C243.881 244.909 243.776 244.717 243.61 244.593C243.462 244.482 243.276 244.435 243.094 244.413C241.651 244.235 240.251 245.708 240.464 247.18C241.078 247.927 242.234 248.133 243.059 247.643C243.883 247.152 244.281 246.022 243.952 245.105ZM235.048 236.208C235.016 236.856 235.572 237.408 236.181 237.583C236.791 237.757 237.439 237.645 238.062 237.531C238.381 237.473 238.739 237.389 238.906 237.104C239.262 236.498 238.555 235.386 239.207 235.154C238.769 235.092 238.332 235.03 237.894 234.969C237.315 234.887 236.717 234.808 236.156 234.971C235.595 235.135 235.077 235.611 235.048 236.208ZM240.282 237.037C240.946 237.627 242.056 237.546 242.673 236.904C243.289 236.262 243.37 235.175 242.905 234.41C241.743 234.631 240.582 234.852 239.421 235.072C239.567 235.788 239.743 236.557 240.282 237.037ZM330.009 225.671C329.105 226.014 328.2 226.358 327.296 226.701C326.847 226.871 326.392 227.045 326.003 227.331C327.482 227.922 329.347 227.15 330.009 225.671ZM245.963 152.185C245.94 151.776 245.517 151.441 245.125 151.521C245.15 151.937 245.555 152.287 245.96 152.242L245.963 152.185Z" fill="#00160A"/>
</g>
<defs>
<filter id="filter0_d_28_20" x="0" y="0" width="443" height="452" filterUnits="userSpaceOnUse" color-interpolation-filters="sRGB">
<feFlood flood-opacity="0" result="BackgroundImageFix"/>
<feColorMatrix in="SourceAlpha" type="matrix" values="0 0 0 0 0 0 0 0 0 0 0 0 0 0 0 0 0 0 127 0" result="hardAlpha"/>
<feOffset dy="14"/>
<feGaussianBlur stdDeviation="17"/>
<feComposite in2="hardAlpha" operator="out"/>
<feColorMatrix type="matrix" values="0 0 0 0 0 0 0 0 0 0 0 0 0 0 0 0 0 0 0.25 0"/>
<feBlend mode="normal" in2="BackgroundImageFix" result="effect1_dropShadow_28_20"/>
<feBlend mode="normal" in="SourceGraphic" in2="effect1_dropShadow_28_20" result="shape"/>
</filter>
</defs>
</svg>
