<svg width="467" height="477" viewBox="0 0 467 477" fill="none" xmlns="http://www.w3.org/2000/svg">
<g filter="url(#filter0_d_30_19)">
<path d="M421 32H46V417H421V32Z" fill="white"/>
<path fill-rule="evenodd" clip-rule="evenodd" d="M119.236 310.626C74.3567 278.661 128.106 236.305 114.976 185.657C101.847 135.009 70.0417 59.4909 195.515 86.3995C322.645 113.664 403.275 148.771 384.22 257.516C365.165 366.261 164.115 342.59 119.236 310.626Z" fill="#7BF5D9"/>
<path fill-rule="evenodd" clip-rule="evenodd" d="M314.027 354.41C311.213 351.53 309.88 347.503 308.637 343.628C305.378 348.472 298.104 348.628 293.109 345.737C288.114 342.847 284.743 337.8 281.156 333.207C274.734 324.983 247.225 304.675 246.773 298.548C246.533 295.299 255.738 289.383 255.738 289.383L239.198 279.392C239.198 279.392 230.619 286.148 225.687 286.951C211.967 289.185 202.262 287.855 202.25 290.391C202.208 299.564 256.267 346.102 239.028 345.737C213.157 345.19 165.904 293.491 150.598 289.383C144.188 287.663 100.223 290.391 100.223 279.465C100.223 264.791 139.493 254.695 139.493 254.695C139.493 254.695 129.258 219.261 141.645 190.286C144.482 183.649 147.995 175.939 148.337 169.419C148.431 167.63 197.956 119.469 204.318 117.063C219.153 111.453 234.933 108.488 250.741 108.341C252.848 108.321 312.935 117.063 339.955 162.852C344.839 171.127 367.021 232.58 344.499 271.13C340.946 277.212 341.382 284.76 343.838 291.455C346.295 298.15 349.315 305.598 346.531 312.157C345.011 301.648 342.341 291.315 338.588 281.415C333.355 285.321 336.005 293.726 339.125 299.546C343.056 306.88 346.988 314.214 350.92 321.548C352.556 324.598 354.246 327.959 353.658 331.388C352.985 335.309 349.582 338.021 346.43 340.34C339.234 345.634 332.037 350.929 324.841 356.223C321.611 358.6 316.841 357.291 314.027 354.41Z" fill="white"/>
<path fill-rule="evenodd" clip-rule="evenodd" d="M216.817 192.13C217.368 190.598 219.352 189.965 220.816 190.604C222.28 191.242 223.189 192.839 223.418 194.454C223.648 196.07 223.299 197.712 222.851 199.279C222.443 200.707 221.95 202.111 221.376 203.478C221.323 203.605 221.251 203.747 221.12 203.778C220.98 203.81 220.85 203.698 220.75 203.593C218.262 201.006 216.763 197.443 216.632 193.81C216.612 193.243 216.626 192.662 216.817 192.13ZM221.117 192.504C220.709 192.144 220.182 191.909 219.645 191.926C218.39 191.965 217.515 193.37 217.543 194.658C217.571 195.946 218.239 197.116 218.888 198.218C219.353 199.008 219.817 199.798 220.282 200.588C220.44 200.857 220.752 201.165 220.998 200.978C221.098 200.903 221.136 200.771 221.168 200.649C221.359 199.931 221.549 199.214 221.739 198.496C222.011 197.47 222.285 196.427 222.268 195.364C222.251 194.301 221.904 193.196 221.117 192.504Z" fill="#FFB61D"/>
<path fill-rule="evenodd" clip-rule="evenodd" d="M220.296 196.627C219.99 196.715 219.656 196.699 219.361 196.58C218.787 196.351 218.39 195.72 218.424 195.088C218.457 194.456 218.917 193.873 219.512 193.708C220.413 193.458 221.428 194.31 221.368 195.267C221.329 195.887 220.879 196.459 220.296 196.627Z" fill="#FFB61D"/>
<path fill-rule="evenodd" clip-rule="evenodd" d="M236.718 346.771C237.748 346.91 237.368 348.55 236.7 349.366C230.323 357.16 221.997 363.259 212.744 366.914C210.669 367.733 208.523 368.438 206.305 368.595C202.191 368.886 198.094 367.236 194.841 364.635C191.588 362.034 189.109 358.537 187.09 354.847C181.566 344.755 179.25 332.847 180.576 321.351C180.701 320.27 181.419 318.834 182.39 319.274C182.109 323.117 182.065 326.979 182.26 330.828C182.451 334.608 182.876 338.399 183.933 342.026C184.912 345.384 186.419 348.552 187.989 351.664C189.604 354.863 191.314 358.052 193.646 360.745C195.977 363.438 199.003 365.627 202.446 366.325C206.761 367.2 211.191 365.673 215.17 363.747C223.422 359.753 230.825 353.921 236.718 346.771Z" fill="#00160A"/>
<path fill-rule="evenodd" clip-rule="evenodd" d="M266.575 302.967C274.069 295.397 281.564 287.827 289.058 280.257C289.478 279.833 290.099 279.381 290.595 279.706C291.257 280.139 290.727 281.182 290.169 281.749C282.103 289.939 274.037 298.13 265.971 306.32C265.39 306.017 265.22 305.201 265.425 304.566C265.63 303.93 266.11 303.436 266.575 302.967Z" fill="#00160A"/>
<path fill-rule="evenodd" clip-rule="evenodd" d="M209.202 259.43C208.745 259.511 208.288 259.592 207.831 259.673C206.944 258.307 206.037 256.889 205.759 255.272C205.48 253.655 206.001 251.774 207.399 250.976C208.981 250.073 209.458 247.854 208.954 246.069C208.45 244.285 207.202 242.839 205.979 241.47C204.737 240.079 202.746 238.602 201.271 239.729C200.31 240.463 198.872 240.048 198.012 239.192C197.152 238.335 196.697 237.152 196.14 236.063C195.088 234.002 193.553 232.143 191.546 231.062C189.538 229.981 187.026 229.767 185.005 230.822C183.001 231.868 181.736 233.95 180.028 235.451C178.319 236.951 175.498 237.748 173.958 236.066C173.567 235.638 173.304 235.003 173.527 234.462C173.749 233.922 174.613 233.736 174.889 234.25C175.591 235.56 177.533 235.541 178.747 234.715C179.962 233.888 180.722 232.536 181.718 231.445C183.666 229.31 186.628 228.198 189.459 228.54C192.289 228.881 194.919 230.667 196.333 233.208C197.014 234.432 197.434 235.824 198.323 236.899C199.212 237.973 200.828 238.631 201.969 237.846C203.257 236.96 204.938 238.061 206.069 239.152C207.599 240.627 209.09 242.222 209.952 244.187C210.814 246.152 210.95 248.57 209.824 250.389C208.887 251.903 207.093 253.129 207.248 254.917C207.393 256.583 209.261 257.758 209.202 259.43Z" fill="#00160A"/>
<path fill-rule="evenodd" clip-rule="evenodd" d="M228.984 184.397C231.728 185.716 234.169 187.825 235.58 190.578C236.99 193.33 237.277 196.749 236.013 199.576C233.397 205.422 225.078 207.698 224.161 214.063C223.927 215.684 224.245 217.37 223.855 218.959C223.585 220.057 222.995 221.037 222.522 222.061C221.508 224.257 221.03 226.71 221.141 229.137C220.084 229.724 218.841 228.473 218.706 227.246C218.571 226.02 219.049 224.802 219.023 223.568C218.975 221.248 217.227 219.402 215.737 217.658C213.5 215.043 211.557 211.964 211.194 208.503C211.077 207.388 211.126 206.251 210.882 205.159C210.619 203.983 210.031 202.917 209.511 201.836C208.109 198.919 207.16 195.554 208.023 192.424C208.886 189.294 212.105 186.706 215.16 187.567C216.027 187.811 216.876 188.311 217.767 188.175C219.33 187.936 219.96 186.021 221.05 184.845C223.003 182.739 226.418 183.164 228.984 184.397ZM215.699 214.808C217.431 217.147 219.163 219.488 220.896 221.827C222.883 219.68 222.061 216.205 222.665 213.308C223.488 209.362 226.926 206.684 229.904 204.051C232.883 201.418 235.841 197.816 235.172 193.839C234.634 190.644 231.918 188.374 229.314 186.538C227.846 185.504 226.152 184.464 224.401 184.796C222.63 185.132 221.417 186.744 220.142 188.049C218.866 189.353 216.943 190.486 215.346 189.631C213.1 188.428 210.24 190.481 209.606 192.999C208.972 195.518 209.883 198.153 210.884 200.543C211.885 202.933 213.013 205.41 212.823 208.003C212.638 210.527 214.207 212.793 215.699 214.808Z" fill="#00160A"/>
<path fill-rule="evenodd" clip-rule="evenodd" d="M77.5153 161.061C77.4029 160.749 77.9371 160.66 78.2236 160.818C78.2112 161.143 77.7241 161.308 77.5261 161.053L77.5153 161.061Z" fill="#00160A"/>
<path fill-rule="evenodd" clip-rule="evenodd" d="M285.296 289.208C285.884 289.292 286.197 290.035 286.063 290.629C285.93 291.223 285.494 291.689 285.077 292.122C281.7 295.625 278.324 299.129 274.948 302.633C274.698 302.892 274.406 303.169 274.051 303.158C273.575 303.142 273.263 302.576 273.321 302.091C273.379 301.605 273.69 301.197 273.992 300.818C277.097 296.917 280.466 293.24 284.067 289.82C284.413 289.491 284.829 289.141 285.296 289.208Z" fill="#00160A"/>
<path fill-rule="evenodd" clip-rule="evenodd" d="M186.023 238.538C187.883 238.711 189.314 240.506 189.633 242.395C189.952 244.285 189.379 246.217 188.6 247.96C188.172 248.92 187.679 249.851 187.127 250.742C186.729 251.384 186.223 252.058 185.493 252.183C184.273 252.39 183.417 251.012 182.946 249.838C182.284 248.186 181.676 246.511 181.125 244.817C180.854 243.986 180.593 243.11 180.732 242.244C180.943 240.922 182.038 239.932 183.186 239.292C184.057 238.806 185.036 238.447 186.023 238.538ZM184.275 248.267C184.418 248.496 184.57 248.73 184.794 248.875C184.977 248.994 185.202 249.044 185.417 249.013C185.97 248.934 186.326 248.387 186.608 247.893C187.348 246.598 188.107 245.24 188.19 243.741C188.273 242.243 187.444 240.576 186.013 240.267C184.34 239.906 182.78 241.627 182.638 243.377C182.497 245.127 183.352 246.79 184.275 248.267Z" fill="#FFB61D"/>
<path fill-rule="evenodd" clip-rule="evenodd" d="M185.943 242.089C186.403 242.241 186.798 242.586 187.02 243.026C187.218 243.417 187.278 243.88 187.185 244.311C186.973 245.305 185.878 245.999 184.917 245.749C183.955 245.499 183.315 244.353 183.589 243.375C183.864 242.397 185 241.776 185.943 242.089ZM185.731 244.153C186.081 243.964 185.768 243.276 185.402 243.429C185.118 243.468 184.93 243.834 185.06 244.096C185.189 244.358 185.588 244.419 185.786 244.206L185.731 244.153Z" fill="#FFB61D"/>
<path fill-rule="evenodd" clip-rule="evenodd" d="M284.394 260.914C283.357 259.764 282.425 258.515 281.614 257.187C281.355 256.763 281.893 256.21 282.376 256.276C282.86 256.343 283.215 256.759 283.523 257.148C284.598 258.5 285.672 259.853 286.747 261.206C286.624 261.689 286.03 261.908 285.56 261.779C285.09 261.652 284.725 261.28 284.394 260.914Z" fill="#00160A"/>
<path fill-rule="evenodd" clip-rule="evenodd" d="M319.799 323.606C319.81 323.764 319.754 323.918 319.695 324.064C319.105 325.539 318.227 326.892 317.127 328.019C315.379 329.811 313.009 331.139 312.072 333.487C311.851 334.043 311.023 334.124 310.593 333.716C310.163 333.309 310.104 332.609 310.295 332.041C310.485 331.473 310.879 331.004 311.263 330.552C312.517 329.076 313.77 327.6 315.024 326.125C315.984 324.994 316.987 323.83 318.318 323.21C318.865 322.955 319.752 322.991 319.799 323.606Z" fill="#00160A"/>
<path fill-rule="evenodd" clip-rule="evenodd" d="M285.671 254.77C286.908 256.262 288.145 257.755 289.383 259.247C289.59 259.497 289.81 259.783 289.796 260.111C289.774 260.623 289.163 260.928 288.678 260.808C288.193 260.689 287.827 260.292 287.501 259.904C286.453 258.656 285.514 257.311 284.7 255.89C284.382 255.337 284.259 254.368 284.879 254.286C285.198 254.243 285.463 254.519 285.671 254.77Z" fill="#00160A"/>
<path fill-rule="evenodd" clip-rule="evenodd" d="M271.423 263.088C271.234 262.817 271.04 262.463 271.199 262.173C271.462 261.694 272.174 262.066 272.53 262.477C273.787 263.933 274.857 265.558 275.703 267.299C274.897 267.717 274.04 266.865 273.516 266.109C272.818 265.102 272.12 264.095 271.423 263.088Z" fill="#00160A"/>
<path fill-rule="evenodd" clip-rule="evenodd" d="M272.537 267.374C273.041 267.912 273.55 268.795 273.026 269.311C272.492 269.836 271.639 269.244 271.168 268.66C270.028 267.246 269.037 265.707 268.217 264.077C268.743 263.613 269.522 264.153 270.003 264.666C270.848 265.568 271.692 266.471 272.537 267.374Z" fill="#00160A"/>
<path fill-rule="evenodd" clip-rule="evenodd" d="M273.908 262.083C273.68 261.739 273.467 261.267 273.713 260.937C274.066 260.466 274.782 260.898 275.177 261.333C276.322 262.592 277.466 263.852 278.611 265.111C278.56 265.567 278.04 265.839 277.599 265.772C277.157 265.705 276.789 265.399 276.458 265.091C275.496 264.197 274.638 263.185 273.908 262.083Z" fill="#00160A"/>
<path fill-rule="evenodd" clip-rule="evenodd" d="M281.125 259.29C281.838 260.224 282.551 261.157 283.264 262.09C283.546 262.461 283.845 262.936 283.66 263.367C283.483 263.782 282.921 263.891 282.515 263.713C282.109 263.535 281.825 263.157 281.56 262.794C280.816 261.775 280.079 260.75 279.349 259.719C279.187 259.492 279.019 259.237 279.043 258.957C279.084 258.489 279.666 258.247 280.101 258.39C280.536 258.533 280.844 258.921 281.125 259.29Z" fill="#00160A"/>
<path fill-rule="evenodd" clip-rule="evenodd" d="M280.588 263.595C280.736 263.761 280.894 263.953 280.878 264.177C280.856 264.475 280.516 264.661 280.227 264.616C279.939 264.572 279.701 264.37 279.484 264.169C278.062 262.856 276.862 261.288 275.957 259.558C276.135 259.082 276.836 259.405 277.172 259.78C278.31 261.052 279.449 262.323 280.588 263.595Z" fill="#00160A"/>
<path fill-rule="evenodd" clip-rule="evenodd" d="M294.405 255.175C294.516 255.306 294.633 255.456 294.626 255.63C294.616 255.891 294.313 256.056 294.061 256.012C293.809 255.967 293.606 255.783 293.418 255.605C292.079 254.334 290.797 252.999 289.58 251.605C290.011 251.011 290.92 251.488 291.442 251.997C292.478 253.008 293.467 254.069 294.405 255.175Z" fill="#00160A"/>
<path fill-rule="evenodd" clip-rule="evenodd" d="M290.161 256.444C289.412 255.391 288.663 254.338 287.914 253.285C287.777 253.092 287.632 252.857 287.706 252.63C287.851 252.184 288.511 252.382 288.866 252.68C289.992 253.624 290.949 254.781 291.672 256.076C291.812 256.327 291.947 256.624 291.848 256.895C291.721 257.24 291.261 257.342 290.931 257.197C290.6 257.053 290.373 256.742 290.161 256.444Z" fill="#00160A"/>
<path fill-rule="evenodd" clip-rule="evenodd" d="M296.136 252.574C295.396 251.757 294.657 250.94 293.917 250.124C293.653 249.832 293.972 249.316 294.357 249.273C294.742 249.231 295.094 249.481 295.399 249.726C295.96 250.176 296.502 250.652 297.021 251.153C297.308 251.43 297.6 251.733 297.708 252.121C297.816 252.511 297.667 253.004 297.295 253.137C296.866 253.288 296.445 252.915 296.136 252.574Z" fill="#00160A"/>
<path fill-rule="evenodd" clip-rule="evenodd" d="M294.701 254.192C293.677 253.113 292.696 251.992 291.761 250.831C291.599 250.629 291.427 250.38 291.496 250.127C291.575 249.842 291.938 249.731 292.211 249.826C292.484 249.921 292.684 250.158 292.87 250.383C293.726 251.423 294.582 252.463 295.438 253.503C295.67 253.785 295.897 254.227 295.635 254.478C295.37 254.73 294.953 254.458 294.701 254.192Z" fill="#00160A"/>
<path fill-rule="evenodd" clip-rule="evenodd" d="M343.42 320.846C344.576 320.48 347.502 319.665 348.658 319.299C349.176 319.135 349.946 319.114 350.044 319.662C350.124 320.112 349.619 320.419 349.196 320.565C348.029 320.968 345.05 321.696 343.828 321.848C343.393 321.902 342.76 321.735 342.848 321.295C342.899 321.041 343.179 320.923 343.42 320.846Z" fill="#00160A"/>
<path fill-rule="evenodd" clip-rule="evenodd" d="M214.262 271.216C216.092 271.244 218.255 271.681 218.985 273.404C219.671 275.022 218.593 276.968 217.081 277.808C215.569 278.648 213.767 278.669 212.048 278.667C188.593 278.636 165.139 278.055 141.71 276.924C140.25 276.853 140.112 274.69 140.446 273.229C140.645 272.357 140.869 271.438 141.481 270.801C142.363 269.883 143.761 269.821 145.016 269.817C161.859 269.761 178.732 269.706 195.504 271.298C198.16 271.55 200.82 271.843 203.488 271.817C207.085 271.781 210.664 271.163 214.262 271.216ZM216.888 275.588C217.281 274.8 216.702 273.799 215.916 273.437C215.13 273.075 214.225 273.169 213.367 273.256C202.372 274.366 191.302 273.085 180.273 272.423C172.257 271.942 164.225 271.788 156.197 271.635C152.85 271.572 149.503 271.508 146.156 271.444C145.088 271.424 143.919 271.438 143.099 272.14C142.278 272.842 142.251 274.497 143.269 274.828C143.453 274.888 143.648 274.898 143.841 274.907C167.405 276.083 191 276.612 214.591 276.49C215.456 276.486 216.493 276.378 216.888 275.588Z" fill="#00160A"/>
<path fill-rule="evenodd" clip-rule="evenodd" d="M199.287 290.681C201.379 295.381 205.885 298.861 210.864 299.621C213.206 299.979 214.805 302.166 216.139 304.175C217.526 306.263 218.543 309.802 216.251 310.724C225.146 320.795 234.042 330.866 242.937 340.937C243.971 342.107 244.975 344.059 243.776 345.05C243.331 345.418 242.722 345.476 242.151 345.495C234.822 345.747 227.907 342.226 221.564 338.447C212.431 333.006 203.707 326.84 195.498 320.021C189.5 315.039 180.884 313.614 173.666 316.41C169.921 317.86 165.227 314.903 164.79 310.819C164.353 306.735 168.31 302.802 172.272 303.383C166.315 294.309 155.662 288.701 145.009 289.032C132.15 289.431 119.241 288.046 106.74 284.926C105.642 284.652 104.464 284.31 103.775 283.39C102.402 281.557 103.842 278.949 105.352 277.232C116.472 264.58 133.583 257.753 150.106 259.378C150.81 259.447 151.193 258.569 151.358 257.864C155.559 239.891 159.759 221.919 163.96 203.947C164.466 201.78 167.679 201.48 169.271 202.995C170.863 204.51 171.213 206.926 171.396 209.147C172.764 225.701 170.375 243.523 178.391 257.955C178.764 258.627 179.186 259.316 179.842 259.697C180.488 260.074 181.266 260.097 182.009 260.11C196.85 260.38 211.691 260.65 226.532 260.92C228.381 260.953 230.651 260.728 231.398 258.991C233.313 254.54 235.227 250.089 237.141 245.638C237.75 244.222 238.59 242.616 240.08 242.383C242.215 242.048 243.566 244.801 243.497 247.017C243.428 249.233 242.702 251.587 243.652 253.578C247.139 249.773 250.685 245.919 255.045 243.226C259.404 240.532 264.76 239.101 269.649 240.549C265.326 247.604 261.004 254.66 256.682 261.715C260.292 264.167 260.577 270.37 257.207 273.16C255.768 274.351 256.91 276.702 258.102 278.153C261.836 282.696 265.569 287.24 269.303 291.784C266.116 293.301 262.404 291.74 259.271 290.109C253.67 287.196 248.204 284.012 242.895 280.572C240.318 278.903 237.479 282.032 235.14 284.037C231.428 287.221 226.303 287.854 221.491 288.358C214.09 289.132 206.689 289.906 199.287 290.681ZM212.197 280.804C216.745 281.06 221.378 281.383 225.79 280.226C230.308 279.041 234.419 276.282 237.29 272.51C237.987 271.594 239.208 271.335 240.324 271.137C244.176 270.457 248.234 269.791 251.914 271.145C253.574 271.755 255.6 271.056 256.564 269.54C257.529 268.025 257.338 265.839 256.126 264.524C254.815 264.487 254.576 266.397 253.88 267.539C252.967 269.039 250.973 269.284 249.252 269.373C242.937 269.699 236.621 270.024 230.306 270.35C228.773 270.43 226.661 269.972 226.707 268.396C226.727 267.703 227.22 267.13 227.704 266.646C229.399 264.947 231.335 263.5 233.431 262.365C207.788 262.565 182.142 262.269 156.511 261.477C143.907 261.088 130.466 260.794 119.726 267.577C118.724 268.211 117.94 270.078 119.103 270.263C122.529 270.805 125.955 271.348 129.381 271.891C129.789 271.955 130.226 272.034 130.521 272.33C131.406 273.218 130.166 274.646 129.025 275.139C124.319 277.173 118.711 276.863 114.246 274.321C113.233 273.745 112.033 273.044 111.002 273.583C109.756 274.235 109.927 276.291 110.984 277.231C112.04 278.171 113.545 278.303 114.941 278.391C127.475 279.185 140.01 279.98 152.545 280.774C156.069 280.996 159.603 281.22 163.126 280.994C179.461 279.949 195.855 279.886 212.197 280.804ZM230.495 330.693C226.108 324.496 221.111 318.755 215.604 313.584C213.801 311.892 212.213 309.976 210.63 308.065C203.709 299.711 196.787 291.357 189.866 283.004C189.175 282.169 187.98 282.06 186.915 282.025C177.824 281.73 168.703 282.423 159.755 284.09C159.093 284.214 158.379 284.373 157.942 284.898C156.929 286.115 158.195 287.893 159.383 288.931C171.265 299.318 183.583 309.178 196.293 318.475C198.632 320.186 201.006 321.891 203.648 323.049C208.631 325.234 213.614 327.419 218.598 329.604C222.41 331.275 226.956 332.91 230.495 330.693ZM170.985 238.461C170.802 236.02 170.801 233.537 170.148 231.183C168.971 226.942 165.833 223.612 162.709 220.586C162.467 220.352 162.147 220.099 161.834 220.216C161.549 220.324 161.446 220.674 161.381 220.978C159.053 231.862 156.725 242.746 154.397 253.631C153.958 255.685 153.516 257.768 153.611 259.869C161.773 259.974 169.934 260.08 178.096 260.185C174.03 253.694 171.562 246.156 170.985 238.461ZM266.881 242.075C261.812 241.63 256.59 243.543 252.94 247.183C246.254 253.849 239.115 260.036 231.591 265.682C230.561 266.455 229.458 267.312 229.108 268.572C235.412 268.28 241.715 267.988 248.018 267.696C249.681 267.619 251.638 267.363 252.433 265.862C256.782 257.648 261.61 249.7 266.881 242.075ZM105.088 280.61C104.916 280.988 104.764 281.408 104.86 281.813C105.028 282.528 105.842 282.825 106.539 283C120.633 286.51 135.254 286.962 149.751 287.398C151.193 287.441 152.69 287.475 154.014 286.886C155.339 286.298 156.439 284.9 156.224 283.435C146.801 282.094 137.29 281.407 127.777 281.38C122.078 281.364 116.217 281.558 110.874 279.522C109.586 279.03 108.127 278.045 108.291 276.644C106.919 277.658 105.805 279.038 105.088 280.61ZM239.48 277.998C238.974 276.871 237.549 276.455 236.368 276.715C235.187 276.975 234.184 277.743 233.193 278.453C230.907 280.092 228.434 281.538 225.721 282.198C223.355 282.774 220.894 282.733 218.463 282.688C209.589 282.527 200.715 282.366 191.842 282.204C193.818 285.231 196.526 288.632 200.055 288.234C206.957 287.456 213.949 287.642 220.819 286.602C227.688 285.561 234.649 283.119 239.48 277.998ZM260.011 285.791C260.334 285.746 260.711 285.635 260.812 285.318C260.897 285.051 260.741 284.772 260.59 284.538C258.034 280.589 254.886 277.088 251.753 273.607C251.275 273.075 250.776 272.529 250.127 272.248C249.455 271.958 248.697 271.986 247.97 272.042C244.998 272.27 242.054 272.892 239.236 273.888C239.005 273.969 238.738 274.1 238.712 274.349C238.692 274.542 238.832 274.71 238.965 274.848C241.927 277.939 245.631 280.147 249.287 282.317C252.595 284.281 256.224 286.315 260.011 285.791ZM175.742 305.646C175.465 305.427 175.171 305.199 174.825 305.153C174.544 305.115 174.263 305.203 173.992 305.289C173.366 305.489 172.74 305.688 172.113 305.888C171.5 306.083 170.733 306.663 171.087 307.213C172.191 308.931 172.64 311.08 172.317 313.111C172.212 313.769 173.136 314.005 173.784 313.958C177.137 313.715 180.49 313.472 183.842 313.229C184.192 313.204 184.664 313.022 184.582 312.672C181.635 310.33 178.689 307.988 175.742 305.646ZM233.191 259.094C232.955 259.726 233.583 260.413 234.239 260.483C234.895 260.552 235.519 260.212 236.095 259.883C238.173 258.696 240.413 257.317 241.198 255.013C241.454 254.262 241.533 253.462 241.61 252.67C241.742 251.312 241.874 249.954 242.007 248.596C242.036 248.295 242.06 247.968 241.905 247.71C241.749 247.453 241.336 247.349 241.164 247.594C240.467 248.588 239.444 249.337 238.301 249.688C237.807 249.84 237.276 249.927 236.859 250.24C236.363 250.612 236.119 251.234 235.9 251.824C234.997 254.247 234.094 256.67 233.191 259.094ZM212.532 302.615C211.627 300.881 209.133 300.299 207.587 301.46C209.58 303.059 210.704 305.527 212.396 307.458C212.979 308.122 213.736 308.765 214.605 308.706C215.474 308.648 216.192 307.456 215.576 306.823C214.368 305.583 213.339 304.16 212.532 302.615ZM168.21 307.342C166.864 308.691 167.323 310.975 167.878 312.82C168.065 313.442 168.662 314.215 169.157 313.809C169.326 313.671 169.386 313.44 169.436 313.225C169.684 312.165 169.934 311.08 169.823 309.996C169.712 308.912 169.169 307.81 168.21 307.342Z" fill="#00160A"/>
<path fill-rule="evenodd" clip-rule="evenodd" d="M317.029 356.977C314.215 354.097 312.882 350.069 311.638 346.194C308.38 351.039 304.154 354.477 299.158 351.587C294.163 348.696 287.744 340.366 284.157 335.773C277.735 327.55 270.106 320.321 261.607 314.408C266.146 319.52 268.86 326.304 269.133 333.215C272.576 333.179 276.019 333.142 279.462 333.105C267.887 337.155 255.485 338.698 243.303 337.605C249.923 331.89 255.1 324.427 258.195 316.137C257.505 313.893 254.221 314.413 252.304 315.701C250.387 316.99 247.906 318.626 246.059 317.233C243.785 315.518 243.941 310.147 241.242 310.987C234.232 313.167 225.923 308.835 223.501 301.739C221.848 302.8 220.195 303.861 218.541 304.922C217.745 302.293 221.431 300.261 223.915 301.298C226.4 302.335 227.855 304.915 229.579 307.025C231.301 309.135 234.065 310.998 236.523 309.898C241.105 307.849 247.132 311.549 247.54 316.663C251.093 313.736 255.966 312.575 260.411 313.598C257.576 309.381 254.411 305.397 250.958 301.697C253.583 298.105 256.829 294.993 260.499 292.55C258.698 296.046 256.201 299.162 253.208 301.651C268.562 317.106 283.916 332.561 299.27 348.015C300.237 348.988 301.345 350.025 302.698 350.044C304.181 350.065 305.377 348.866 306.388 347.752C313.594 339.812 320.8 331.873 328.007 323.934C329.884 321.865 331.86 319.585 332.142 316.772C332.496 313.24 330.093 310.108 327.8 307.449C318.573 296.755 308.756 286.597 298.41 277.041C293.872 272.849 287.891 268.491 282.183 270.71C275.295 273.388 273.656 284.03 266.581 286.132C268.697 283.147 270.812 280.162 272.928 277.177C268.734 274.062 263.487 267.111 263.214 261.804C266.581 258.655 270.732 256.271 274.174 254.443C270.732 246.12 271.141 244.39 275.745 243.254C280.349 242.117 284.337 240.991 288.569 239.538C300.3 235.51 305.899 216.412 296.052 208.479C290.635 204.115 250.036 161.278 232.605 145.485C233.925 151.53 226.169 157.229 221.021 153.996C222.008 157.481 219.635 161.698 216.128 162.157C212.622 162.617 209.201 158.625 210.428 155.222C211.485 152.293 214.865 151.081 216.827 148.694C218.79 146.307 217.078 141.062 214.411 142.564C213.002 148.385 204.71 150.865 200.477 146.732C198.987 145.277 197.034 144.919 195.038 145.263C192.592 145.684 188.362 146.659 186.553 148.459C183.719 151.28 183.079 155.4 179.705 157.314C179.167 157.619 178.603 157.881 178.008 158.089C173.676 159.605 167.611 155.204 169.86 151.112C157.536 162.779 149.075 178.674 146.166 195.624C152.599 197.507 153.82 206.18 153.802 213.047C146.545 214.938 153.373 229.159 147.096 233.35C139.942 238.127 141.931 249.236 144.764 257.502C137.511 241.477 136.638 222.523 142.386 205.868C141.818 216.434 141.251 227.001 140.683 237.567C145.549 236.836 147.514 230.748 147.917 225.716C148.319 220.683 148.625 214.762 152.746 212.006C151.208 207.98 150.576 203.591 150.916 199.28C149.125 198.686 147.334 198.093 145.543 197.5C144.467 205.279 136.05 209.106 129.109 212.419C121.616 215.995 114.568 220.549 108.186 225.937C101.34 231.717 94.8212 239.663 95.5794 248.728C96.3085 257.445 103.625 264.111 111.306 267.9C103.08 267.881 96.021 260.369 94.6949 252.034C93.369 243.7 96.906 235.126 102.436 228.875C107.966 222.624 115.298 218.374 122.734 214.764C132.472 210.036 144.283 203.904 144.646 192.852C144.95 183.639 154.792 174.609 150.077 166.764C143.454 155.744 139.759 142.889 139.495 129.943C139.365 123.557 140.5 116.327 145.6 112.667C148.139 110.844 151.298 110.208 154.375 109.845C165.788 108.5 177.547 110.377 188.023 115.218C194.205 118.075 200.957 122.036 207.32 119.63C222.154 114.019 237.934 111.055 253.742 110.907C255.85 110.887 257.598 109.299 259.066 107.746C264.839 101.635 269.658 94.563 275.941 89.0066C282.224 83.4503 290.583 79.4502 298.704 81.1698C307.207 82.97 313.555 90.7438 316.332 99.1881C319.109 107.633 318.952 116.756 318.764 125.666C318.429 141.625 337.925 150.316 342.957 165.418C345.923 174.323 355.711 178.449 364.513 181.077C373.315 183.703 383.176 186.614 387.712 194.792C391.938 202.409 389.848 212.387 384.86 219.501C379.871 226.615 372.485 231.489 365.28 236.192C353.615 243.806 356.889 263.28 347.5 273.696C342.767 278.947 344.383 287.326 346.84 294.021C349.296 300.717 352.316 308.164 349.533 314.723C348.012 304.214 345.343 293.882 341.59 283.981C336.356 287.887 339.006 296.293 342.126 302.112C346.058 309.446 349.99 316.78 353.922 324.114C355.557 327.164 357.247 330.525 356.659 333.954C355.987 337.875 352.583 340.587 349.431 342.906C342.235 348.201 335.038 353.495 327.842 358.79C324.613 361.166 319.842 359.857 317.029 356.977ZM332.387 289.381C331.756 288.652 330.601 289.008 329.738 289.417C328.874 289.827 328.009 290.236 327.145 290.647C326.955 290.736 326.747 290.828 326.546 290.772C326.166 290.666 326.102 290.089 326.341 289.768C326.579 289.447 326.982 289.319 327.356 289.194C328.152 288.928 328.93 288.602 329.68 288.219C330.108 288 330.568 287.711 330.685 287.234C330.801 286.758 330.268 286.178 329.874 286.457C328.714 287.278 327.408 287.882 326.041 288.231C325.631 288.335 324.992 288.204 325.088 287.782C325.125 287.62 325.272 287.514 325.409 287.425C326.629 286.637 327.961 286.032 329.349 285.634C329.848 285.491 329.724 284.627 329.247 284.415C328.771 284.203 328.227 284.418 327.751 284.631C326.601 285.146 325.45 285.661 324.3 286.175C324.052 286.286 323.776 286.431 323.71 286.7C323.65 286.94 323.786 287.181 323.916 287.39C324.752 288.734 325.589 290.078 326.425 291.423C326.552 291.628 326.697 291.847 326.922 291.922C327.167 292.003 327.428 291.89 327.661 291.778C329.253 291.016 330.829 290.216 332.387 289.381ZM253.779 143.152C251.072 143.2 249.038 140.039 249.542 137.307C250.046 134.574 252.438 132.53 255.029 131.72C258.55 130.619 262.755 131.263 265.561 128.818C266.822 127.72 267.591 126.143 268.739 124.921C271.242 122.259 275.595 121.696 278.663 123.638C279.352 121.782 277.314 119.988 275.406 119.657C273.499 119.327 271.443 119.721 269.686 118.891C266.599 117.432 262.965 119.306 260.495 121.701C258.024 124.097 255.999 127.114 252.954 128.663C249.91 130.212 245.303 129.348 244.466 125.967C244.205 124.914 244.173 123.518 243.173 123.163C241.594 122.602 240.773 120.711 240.867 118.999C240.96 117.287 241.76 115.711 242.542 114.196C239.449 114.036 236.343 114.135 233.265 114.491C232.527 114.576 231.589 114.896 231.59 115.658C231.593 117.235 230.168 118.366 228.887 119.235C226.176 121.075 223.465 122.914 220.754 124.754C220.84 126.591 223.478 127.031 225.023 126.101C226.57 125.17 227.658 123.506 229.324 122.83C230.214 122.469 231.192 122.425 232.148 122.385C233.781 122.316 235.415 122.248 237.048 122.18C239.141 122.093 241.964 122.638 242.075 124.785C242.166 126.547 240.261 127.575 239.042 128.818C236.266 131.646 236.277 137.119 232.633 138.579C231.339 139.097 230.991 140.938 231.559 142.24C232.127 143.542 233.311 144.427 234.431 145.271C253.985 160.001 288.049 197.978 288.794 198.079C289.54 198.18 290.415 197.631 290.372 196.861C290.265 194.868 290.16 192.839 290.635 190.903C291.11 188.968 292.263 187.105 294.04 186.296C295.677 185.55 298.06 185.381 298.415 183.578C299.208 179.545 303.141 176.426 307.142 176.656C309.109 176.77 311.278 177.54 312.914 176.415C311.595 175.13 309.645 174.865 308.009 174.049C306.373 173.233 304.934 171.168 305.911 169.593C307.355 167.268 305.252 164.227 305.685 161.505C305.868 160.35 306.503 159.327 307.175 158.382C309.452 155.177 312.329 152.422 315.603 150.313C316.363 149.823 316.555 148.79 316.674 147.876C316.964 145.669 317.253 143.462 317.543 141.254C317.744 139.714 317.881 137.947 316.852 136.808C313.502 133.101 307.926 132.98 303.004 133.145C298.081 133.31 292.519 133.245 289.109 129.596C288.051 128.464 286.117 128.849 284.969 129.885C283.822 130.922 283.187 132.414 282.333 133.715C279.663 137.78 274.495 139.935 269.821 138.931C267.318 138.394 264.794 137.039 262.335 137.765C259.058 138.732 257.188 143.092 253.779 143.152ZM347.854 243.208C348.005 243.769 348.225 244.41 348.76 244.599C349.19 244.75 349.654 244.544 350.064 244.341C351.423 243.668 352.784 242.996 354.143 242.324C354.841 241.978 355.625 241.521 355.75 240.736C358.267 224.815 357.538 208.361 353.622 192.741C352.696 189.047 351.591 185.391 350.12 181.889C348.24 177.415 345.776 173.228 343.247 169.105C339.607 163.17 335.814 157.334 331.874 151.605C331.143 152.776 330.925 154.194 330.553 155.531C330.182 156.868 329.558 158.254 328.362 158.906C327.165 159.558 325.327 159.005 325.115 157.632C324.656 154.662 321.553 152.417 318.676 152.973C318.057 153.093 317.852 153.883 317.775 154.524C317.074 160.356 316.374 166.189 315.673 172.021C315.622 172.445 315.602 172.949 315.927 173.216C316.197 173.439 316.583 173.389 316.928 173.384C318.887 173.354 320.596 175.454 320.217 177.427C319.839 179.401 317.482 180.679 315.681 179.889C314.904 179.548 314.295 180.63 314.1 181.474C312.924 186.573 311.747 191.671 310.571 196.77C310.224 198.274 311.488 199.693 312.849 200.354C314.21 201.014 315.764 201.254 317.013 202.117C320.14 204.279 320.005 209.197 322.534 212.068C324.594 214.407 328.406 214.832 330.908 213.002C333.146 211.365 334.118 208.375 334.12 205.554C334.121 203.63 335.285 201.757 336.983 200.945C338.682 200.134 340.827 200.426 342.262 201.664C343.659 202.87 344.291 204.744 344.863 206.524C345.116 207.308 345.368 208.165 345.098 208.943C344.655 210.215 343.131 210.592 341.886 211.029C339.598 211.832 337.593 213.457 336.302 215.555C335.672 216.579 335.245 218.016 336.025 218.924C337.931 221.145 339.837 223.365 341.743 225.586C342.74 226.747 343.767 227.964 344.168 229.457C345.397 234.041 346.626 238.624 347.854 243.208ZM153.668 170.208C156.655 164.484 159.672 158.714 163.729 153.733C167.284 149.371 171.565 145.702 175.839 142.085C181.471 137.319 187.137 132.596 192.837 127.916C195.21 125.968 197.619 124.007 200.385 122.717C192.093 118.966 183.747 115.195 174.943 112.992C166.139 110.788 156.761 110.213 148.075 112.862C147.238 113.117 146.397 113.407 145.675 113.91C144.455 114.76 143.684 116.136 143.106 117.529C140.834 123.001 140.962 129.202 141.701 135.102C143.252 147.488 147.358 159.531 153.668 170.208ZM340.898 340.088C340.82 340.919 339.947 341.701 339.214 341.34C338.867 341.169 338.656 340.807 338.465 340.465C335.54 335.223 332.615 329.98 329.69 324.738C327.803 325.467 326.896 327.803 327.108 329.862C327.32 331.92 328.389 333.767 329.434 335.538C331.03 338.247 332.626 340.956 334.223 343.666C333.383 344.553 332.032 343.374 331.41 342.314C329.195 338.538 326.98 334.762 324.764 330.986C320.533 335.454 316.301 339.922 312.07 344.39C314.826 348.813 317.582 353.235 320.337 357.657C320.987 358.699 322.377 359.032 323.555 358.77C324.732 358.508 325.75 357.774 326.732 357.057C334.117 351.665 341.501 346.273 348.886 340.881C349.447 340.471 350.049 340.003 350.214 339.316C350.386 338.598 350.028 337.87 349.681 337.221C332.976 306.022 315.147 275.456 296.243 245.609C295.687 244.73 294.983 243.76 293.965 243.69C293.286 243.644 292.656 244.024 292.077 244.39C284.579 249.127 277.082 253.864 269.585 258.6C268.197 259.477 266.809 260.354 265.42 261.231C265.059 261.459 264.67 261.724 264.549 262.141C264.406 262.634 264.689 263.142 264.963 263.573C267.694 267.881 270.577 272.086 273.605 276.18C277.183 272.226 281.439 267.968 286.694 268.102C291.231 268.217 294.974 271.605 298.279 274.799C300.211 276.667 302.144 278.535 304.077 280.403C301.022 274.527 297.41 268.957 293.309 263.796C293.132 262.927 294.622 263.165 295.197 263.828C300.92 270.438 304.07 279.125 310.098 285.444C316.257 291.901 322.417 298.358 328.576 304.816C331.191 307.559 333.968 310.658 334.174 314.49C334.363 317.991 332.341 321.175 330.309 323.993C333.891 328.334 337.169 332.942 340.105 337.768C340.536 338.476 340.977 339.257 340.898 340.088ZM275.669 114.917C278.263 115.444 280.86 115.973 283.404 116.71C289.958 118.611 296.052 121.861 302.092 125.091C307.365 127.909 312.665 130.746 317.397 134.439C317.911 121.238 317.401 108.129 313.123 95.6687C311.889 92.0753 308.909 88.2007 306.01 85.8219C302.606 83.0291 297.882 82.5376 293.568 83.1711C286.033 84.2778 279.171 88.4209 273.518 93.6544C267.866 98.8878 263.283 105.202 258.739 111.472C264.382 112.62 270.026 113.768 275.669 114.917ZM351.362 178.995C358.643 198.064 361.02 219.081 358.19 239.356C367.43 233.92 375.688 226.732 382.422 218.264C385.779 214.044 388.889 209.078 388.671 203.634C388.491 199.161 386.012 195.032 382.74 192.073C379.466 189.114 375.447 187.18 371.408 185.494C364.91 182.781 358.199 180.606 351.362 178.995ZM337.085 211.6C338.795 210.311 340.627 209.19 342.544 208.258C342.539 207.001 342.525 205.704 342.034 204.553C341.543 203.403 340.442 202.429 339.221 202.515C337.938 202.606 336.97 203.81 336.563 205.062C336.155 206.315 336.148 207.665 335.866 208.953C335.087 212.516 332.012 215.425 328.49 215.93C324.967 216.435 321.233 214.503 319.532 211.295C318.162 208.711 317.957 205.366 315.773 203.459C314.564 202.402 312.954 201.997 311.408 201.624C311.049 201.538 310.668 201.451 310.319 201.574C309.758 201.771 309.494 202.414 309.297 202.988C307.973 206.83 306.65 210.672 305.326 214.514C304.836 215.935 304.434 217.752 305.528 218.757C315.632 228.04 319.744 242.805 330.02 251.888C330.324 252.157 330.699 252.438 331.09 252.342C335.991 251.148 340.743 249.308 345.192 246.882C345.546 246.689 345.915 246.475 346.119 246.121C346.325 245.761 346.324 245.318 346.302 244.901C346.156 242.03 345.325 239.199 343.901 236.723C343.228 235.552 342.403 234.396 342.275 233.043C342.165 231.887 342.583 230.703 342.315 229.575C342.097 228.654 341.454 227.911 340.833 227.209C339.079 225.226 337.325 223.244 335.57 221.261C334.702 220.28 333.801 219.235 333.535 217.938C333.017 215.412 335.057 213.127 337.085 211.6ZM227.118 153.229C229.188 151.951 230.442 149.401 230.215 146.932C229.885 143.329 226.863 140.703 224.074 138.491C219.503 134.868 209.05 126.063 204.454 124.17C199.858 122.278 179.525 140.899 172.46 148.038C172.103 148.399 171.73 148.792 171.631 149.296C171.531 149.8 169.372 155.221 173.719 156.539C178.067 157.856 178.533 156.841 180.309 155.221C182.085 153.601 183.119 151.303 183.953 149.019C184.666 147.069 186.821 146.135 188.809 145.72C190.797 145.304 192.939 145.149 194.584 143.929C196.297 142.658 198.689 142.732 200.641 143.563C202.593 144.393 204.205 145.871 205.776 147.322C207.089 148.534 209.211 147.179 210.02 145.568C210.829 143.957 211.169 141.969 212.584 140.886C214.607 139.336 217.712 140.723 218.958 142.977C220.73 146.182 219.478 150.759 216.339 152.548C214.52 153.584 211.858 154.28 211.786 156.414C211.75 157.475 212.471 158.408 213.275 159.077C214.718 160.274 217.067 160.843 218.296 159.416C220.047 157.382 218.091 153.084 220.517 152.004C222.66 151.05 225.117 154.465 227.118 153.229ZM282.43 130.477C283.155 129.322 283.882 128.056 285.092 127.467C286.639 126.714 288.497 127.312 289.964 128.217C291.432 129.122 292.742 130.334 294.352 130.932C295.99 131.541 297.785 131.459 299.525 131.369C302.419 131.219 305.313 131.069 308.207 130.919C290.713 120.512 271.035 113.214 250.817 113.009C249.113 112.992 247.369 113.032 245.77 113.637C244.171 114.243 242.719 115.517 242.309 117.215C241.685 119.802 243.977 122.566 246.57 122.648C245.215 123.667 245.424 126.032 246.715 127.135C248.007 128.238 249.938 128.229 251.488 127.566C253.038 126.901 254.294 125.69 255.512 124.504C257.781 122.297 260.05 120.09 262.319 117.883C263.745 116.496 265.965 116.437 267.892 116.828C269.82 117.22 271.705 117.978 273.669 117.928C277.793 117.826 281.446 122.172 280.742 126.345C278.891 124.553 276.199 123.722 273.693 124.17C271.187 124.618 268.926 126.334 267.774 128.663C266.84 130.55 264.755 131.548 262.727 131.936C260.7 132.325 258.605 132.244 256.585 132.672C254.565 133.1 252.507 134.192 251.68 136.132C250.854 138.073 251.934 140.839 253.987 141.035C256.379 141.263 257.775 138.379 259.788 137.032C261.703 135.749 264.202 135.917 266.436 136.416C268.67 136.914 270.905 137.7 273.182 137.498C277.141 137.147 280.277 133.906 282.43 130.477ZM346.495 248.737C341.911 250.552 337.327 252.366 332.743 254.181C332.106 254.433 331.329 255.078 331.712 255.659C336.085 262.284 339.451 269.609 341.651 277.286C341.865 278.033 342.969 277.474 343.401 276.833C347.41 270.882 350.607 264.355 352.868 257.502C353.277 256.262 353.659 254.922 353.307 253.663C352.756 251.685 350.685 250.687 349.159 249.353C348.737 248.984 348.311 248.558 347.763 248.476C347.331 248.412 346.902 248.576 346.495 248.737ZM293.613 189.889C291.508 192.185 293.277 196.074 292.195 199.025C291.956 199.679 291.568 200.369 291.789 201.03C291.899 201.36 292.146 201.618 292.385 201.865C293.134 202.635 293.883 203.405 294.632 204.176C295.219 204.78 296.174 205.407 296.786 204.828C299.304 202.451 302.354 200.67 305.633 199.666C306.577 199.377 307.599 199.116 308.258 198.364C308.839 197.7 309.027 196.778 309.191 195.902C310.117 190.999 311.037 186.094 311.95 181.189C312.021 180.806 312.089 180.395 311.938 180.039C311.777 179.66 311.404 179.428 311.04 179.25C307.353 177.446 302.393 179.294 300.691 183.107C300.113 184.4 299.846 185.899 298.875 186.915C297.461 188.397 294.999 188.38 293.613 189.889ZM220.081 127.17C219.368 126.506 218.631 125.672 218.701 124.686C218.776 123.636 219.724 122.911 220.583 122.334C223.626 120.291 226.669 118.247 229.712 116.204C229.638 115.597 228.809 115.533 228.223 115.642C220.343 117.114 212.623 119.485 205.251 122.699C213.473 127.902 221.36 133.661 228.845 139.928C229.753 137.811 232.091 136.769 233.475 134.943C235.224 132.637 235.355 129.213 237.505 127.298C238.56 126.358 240.127 125.707 240.339 124.29C238.493 124.303 236.646 124.316 234.801 124.329C232.555 124.346 230.164 124.405 228.298 125.688C226.67 126.807 225.419 128.844 223.46 128.901C222.169 128.939 221.037 128.062 220.081 127.17ZM312.111 253.251C313.544 255.888 314.977 258.525 316.409 261.163C313.785 252.589 310.655 244.178 307.043 235.992C306.914 235.701 306.767 235.39 306.492 235.241C306.153 235.057 305.741 235.178 305.377 235.303C295.2 238.797 285.023 242.29 274.845 245.784C274.536 245.89 274.201 246.016 274.035 246.305C273.836 246.651 273.955 247.091 274.088 247.469C274.684 249.158 275.465 250.779 276.411 252.291C282.794 248.479 289.176 244.666 295.559 240.853C296.542 240.266 297.576 239.663 298.712 239.619C299.652 239.582 300.565 239.936 301.405 240.371C306.391 242.953 309.39 248.243 312.111 253.251ZM265.904 324.6C264.62 321.787 262.419 319.484 259.892 317.777C256.788 323.695 253.227 329.362 249.253 334.704C248.949 335.112 248.837 335.948 249.336 335.912C254.182 335.563 259.029 335.213 263.876 334.863C264.849 334.793 266.018 334.583 266.375 333.651C267.484 330.761 267.187 327.413 265.904 324.6ZM339.077 283.1C339.469 282.482 339.869 281.848 340.028 281.129C340.239 280.179 340.006 279.189 339.756 278.249C337.834 271.017 334.81 264.114 331.035 257.697C330.596 256.95 330.123 256.184 329.408 255.713C328.692 255.242 327.663 255.156 327.039 255.748C326.205 256.539 326.521 257.936 326.901 259.035C329.91 267.739 332.919 276.443 335.928 285.146C336.108 285.665 336.517 286.303 337.017 286.104C337.211 286.026 337.338 285.836 337.452 285.657C337.994 284.804 338.535 283.952 339.077 283.1ZM308.877 172.399C309.748 173.154 310.904 173.439 312.014 173.702C312.905 173.912 313.432 172.721 313.586 171.796C314.615 165.62 315.276 159.387 315.936 153.158C315.431 152.938 314.895 153.362 314.501 153.754C313.086 155.164 311.67 156.574 310.254 157.984C309.269 158.966 308.239 160.026 307.927 161.399C307.332 164.011 309.5 166.989 308.129 169.273C307.531 170.269 308.006 171.645 308.877 172.399ZM305.793 221.801C305.454 221.409 305.086 221.004 304.6 220.842C304.114 220.681 303.479 220.864 303.31 221.359C301.803 225.786 300.296 230.212 298.789 234.639C298.646 235.059 298.742 235.768 299.158 235.641C301.7 234.871 304.045 233.508 306.598 232.776C309.15 232.045 312.136 232.054 314.176 233.791C311.797 229.511 308.982 225.485 305.793 221.801ZM327.566 157.075C328.331 154.945 329.095 152.816 329.86 150.687C330.008 150.274 329.714 149.844 329.439 149.508C326.709 146.169 323.957 142.808 320.652 140.072C320.511 139.955 320.352 139.834 320.172 139.844C319.828 139.863 319.691 140.301 319.642 140.651C319.231 143.62 318.819 146.589 318.408 149.558C318.288 150.423 319.065 151.175 319.879 151.431C320.693 151.687 321.568 151.615 322.405 151.775C323.948 152.07 325.315 153.204 325.919 154.692C326.303 155.635 326.587 156.89 327.566 157.075ZM303.163 214.425C304.608 210.631 305.934 206.788 307.137 202.905C307.218 202.644 307.298 202.36 307.212 202.1C306.983 201.407 305.983 201.586 305.345 201.914C302.839 203.203 300.429 204.689 298.143 206.355C297.86 206.561 297.55 206.822 297.539 207.179C297.531 207.45 297.701 207.687 297.863 207.9C299.56 210.133 301.328 212.31 303.163 214.425ZM324.364 276.972C324.093 276.669 323.648 276.622 323.247 276.629C322.341 276.644 321.438 276.834 320.599 277.185C320.186 277.358 319.776 277.572 319.331 277.596C318.885 277.619 318.386 277.381 318.276 276.937C319.453 276.074 320.881 275.574 322.327 275.52C322.97 275.495 322.989 274.375 322.424 274.057C321.86 273.74 321.163 273.972 320.562 274.209C319.57 274.601 318.576 274.992 317.583 275.384C317.294 275.498 316.997 275.139 317.039 274.825C317.081 274.509 317.33 274.27 317.576 274.077C318.469 273.376 319.535 272.91 320.646 272.734C321.175 272.651 321.26 271.807 320.874 271.427C320.487 271.046 319.892 271.022 319.357 271.05C317.801 271.134 316.259 271.48 314.811 272.071C316.046 274.345 317.307 276.604 318.592 278.847C318.925 279.428 319.287 280.035 319.864 280.356C320.9 279.013 322.476 278.122 324.135 277.942C324.534 277.898 324.635 277.276 324.364 276.972ZM345.625 317.998C344.673 318.247 343.731 318.532 342.799 318.851C342.544 318.938 342.25 319.074 342.207 319.346C342.181 319.509 342.257 319.667 342.331 319.813C342.878 320.893 343.426 321.972 343.973 323.051C344.195 323.489 344.641 324.003 345.056 323.753C346.42 322.93 347.945 322.385 349.513 322.163C349.944 322.102 350.226 321.627 350.236 321.18C350.246 320.732 350.053 320.311 349.865 319.907C349.542 319.216 349.187 318.488 348.552 318.085C347.697 317.543 346.598 317.743 345.625 317.998ZM349.297 329.862C348.924 329.931 348.495 330.046 348.349 330.405C348.23 330.697 348.355 331.028 348.479 331.317C348.954 332.423 349.429 333.528 349.904 334.634C350.051 334.98 350.248 335.367 350.607 335.449C350.862 335.507 351.121 335.389 351.357 335.272C352.088 334.913 352.819 334.553 353.551 334.193C353.962 333.991 354.399 333.765 354.625 333.358C354.851 332.951 354.73 332.313 354.29 332.189C354.056 332.122 353.808 332.217 353.589 332.327C352.934 332.653 352.343 333.128 351.644 333.337C350.945 333.546 350.054 333.386 349.723 332.72C351.445 332.092 353.092 331.245 354.615 330.203C354.478 329.227 353.145 329.14 352.199 329.317C351.232 329.499 350.264 329.68 349.297 329.862ZM335.219 304.478C335.499 304.165 335.906 304.012 336.296 303.87C337.369 303.478 338.442 303.087 339.516 302.695C340.074 302.491 339.937 301.539 339.41 301.261C338.884 300.982 338.248 301.156 337.682 301.335C336.455 301.723 335.227 302.111 334 302.499C333.84 302.55 333.671 302.606 333.559 302.733C333.302 303.026 333.475 303.486 333.657 303.831C334.144 304.754 334.63 305.676 335.116 306.599C335.173 306.707 335.237 306.821 335.345 306.873C335.475 306.936 335.628 306.888 335.764 306.84C337.258 306.31 338.752 305.78 340.246 305.25C340.602 305.123 341.03 304.892 341 304.505C340.959 303.979 340.208 303.975 339.717 304.135C338.181 304.635 336.644 305.136 335.108 305.637C334.837 305.316 334.939 304.791 335.219 304.478ZM354.315 244.298C352.992 245.066 351.67 245.833 350.348 246.6C350.189 246.692 350.021 246.793 349.934 246.958C349.703 247.394 350.16 247.867 350.561 248.144C351.384 248.709 352.206 249.275 353.029 249.841C353.191 249.953 353.366 250.068 353.56 250.07C354.003 250.074 354.232 249.539 354.345 249.099C354.71 247.688 355.075 246.277 355.44 244.865C355.486 244.688 355.531 244.494 355.457 244.327C355.278 243.924 354.69 244.081 354.315 244.298ZM336.901 307.639C336.582 307.724 336.218 307.846 336.099 308.162C336.01 308.397 336.09 308.662 336.194 308.89C336.462 309.478 336.886 309.989 337.408 310.354C338.795 309.811 340.184 309.267 341.571 308.723C342.168 308.489 342.873 308.096 342.848 307.441C342.83 306.972 342.399 306.609 341.951 306.518C341.503 306.428 341.042 306.545 340.599 306.663C339.367 306.988 338.134 307.313 336.901 307.639ZM316.796 256.389C317.281 257.361 318.482 257.643 319.533 257.818C321.209 258.097 322.885 258.376 324.561 258.655C324.591 257.678 323.609 257.029 322.737 256.637C321.139 255.918 319.472 255.363 317.767 254.983C317.583 254.942 317.391 254.903 317.208 254.948C316.662 255.083 316.54 255.875 316.796 256.389ZM310.581 255.652C310.712 255.601 310.845 255.549 310.958 255.464C311.459 255.086 311.306 254.2 310.796 253.837C310.286 253.474 309.595 253.523 309.003 253.714C308.411 253.905 307.858 254.221 307.253 254.362C306.435 254.551 305.364 254.543 305.051 255.342C304.783 256.023 305.397 256.796 306.096 256.954C306.796 257.111 307.512 256.847 308.182 256.586C308.982 256.275 309.781 255.964 310.581 255.652ZM313.799 261.804C314.475 261.351 314.162 260.16 313.444 259.783C312.725 259.407 311.862 259.583 311.076 259.767C310.246 259.962 309.361 260.19 308.797 260.843C308.232 261.496 308.232 262.72 309.003 263.089C310.05 263.592 311.033 262.173 312.176 261.997C312.722 261.914 313.337 262.113 313.799 261.804ZM337.512 299.979C337.738 299.901 337.979 299.814 338.124 299.62C338.286 299.403 338.292 299.095 338.201 298.839C337.986 298.239 337.312 297.92 336.69 297.932C336.067 297.943 335.481 298.215 334.915 298.482C334.195 298.821 333.474 299.16 332.754 299.499C332.358 299.686 331.911 299.94 331.845 300.382C331.779 300.832 332.18 301.24 332.613 301.335C333.047 301.431 333.493 301.297 333.917 301.163C335.119 300.783 336.318 300.388 337.512 299.979ZM340.758 315.638C342.309 314.968 343.861 314.299 345.411 313.629C345.559 313.566 345.71 313.499 345.816 313.378C346.132 313.02 345.844 312.395 345.405 312.223C344.966 312.051 344.476 312.184 344.025 312.318C342.976 312.63 341.927 312.942 340.879 313.253C340.299 313.426 339.651 313.658 339.406 314.224C339.073 315 339.997 315.967 340.758 315.638ZM351.229 324.923C351.849 324.677 351.623 323.605 351.008 323.348C350.393 323.091 349.702 323.355 349.078 323.591C347.857 324.053 346.598 324.41 345.319 324.658C344.873 325.274 345.416 326.219 346.136 326.428C346.855 326.637 347.614 326.357 348.311 326.08C349.285 325.694 350.257 325.309 351.229 324.923ZM318.204 253.549C319.454 253.886 320.704 254.222 321.954 254.559C322.43 254.686 323.164 254.615 323.129 254.111C320.971 252.579 318.486 251.532 315.901 251.065C315.765 251.041 315.62 251.018 315.49 251.067C315.041 251.234 315.212 251.947 315.55 252.293C316.248 253.009 317.25 253.293 318.204 253.549ZM322.927 248.592C323.37 249.683 323.812 250.774 324.254 251.866C324.52 252.523 324.819 253.221 325.406 253.6C325.994 253.978 326.95 253.817 327.142 253.134C327.288 252.613 326.946 252.092 326.62 251.665C325.375 250.036 324.093 248.436 322.776 246.868C322.484 247.387 322.703 248.039 322.927 248.592ZM320.787 250.642C321.021 250.726 321.307 250.801 321.496 250.636C321.718 250.443 321.638 250.071 321.487 249.816C320.94 248.89 319.831 248.524 318.816 248.228C317.452 247.83 316.087 247.432 314.723 247.034C314.299 246.91 313.979 247.546 314.177 247.95C314.376 248.354 314.833 248.535 315.25 248.683C317.095 249.336 318.941 249.99 320.787 250.642ZM339.033 310.812C338.649 310.931 338.232 311.076 338.022 311.427C337.649 312.05 338.195 312.864 338.836 313.184C340.283 311.974 342.127 311.276 343.992 311.23C344.627 311.214 344.683 310.122 344.144 309.776C343.606 309.43 342.908 309.609 342.3 309.797C341.211 310.136 340.122 310.474 339.033 310.812ZM332.972 293.756C332.092 293.994 331.212 294.233 330.332 294.472C329.525 294.691 328.514 295.233 328.707 296.067C328.872 296.776 329.837 296.937 330.486 296.639C331.134 296.34 331.628 295.76 332.273 295.455C333.328 294.955 334.812 295.137 335.404 294.112C334.9 293.377 333.817 293.526 332.972 293.756ZM299.995 245.987C299.826 246.061 299.652 246.147 299.541 246.298C299.253 246.686 299.567 247.289 300.012 247.46C300.458 247.63 300.951 247.508 301.413 247.394C302.966 247.013 304.545 246.748 306.136 246.604C306.29 245.709 305.15 245.207 304.265 245.171C302.807 245.111 301.335 245.393 299.995 245.987ZM325.725 280.714C326.181 280.218 325.924 279.113 325.272 279.243C323.543 279.59 321.876 280.261 320.379 281.214C320.029 281.946 320.997 282.704 321.781 282.577C322.565 282.45 323.195 281.86 323.93 281.551C324.544 281.293 325.27 281.21 325.725 280.714ZM326.672 264.675C326.467 264.41 326.14 264.284 325.829 264.17C324.318 263.615 322.808 263.061 321.297 262.506C320.883 262.354 320.419 262.203 320.017 262.384C319.615 262.565 319.455 263.249 319.849 263.449C321.785 264.432 323.842 265.16 325.957 265.612C326.177 265.659 326.422 265.699 326.612 265.575C326.89 265.393 326.877 264.941 326.672 264.675ZM319.559 246.424C319.774 246.556 320.057 246.308 320.063 246.051C320.068 245.794 319.9 245.57 319.731 245.38C318.107 243.562 315.725 242.713 313.447 241.931C312.869 241.733 312.024 241.666 311.855 242.267C314.49 243.518 317.062 244.906 319.559 246.424ZM353.165 327.083C353.029 326.596 352.528 326.292 352.036 326.242C351.545 326.191 351.057 326.341 350.585 326.489C349.761 326.748 348.936 327.006 348.112 327.265C347.542 327.444 346.851 327.795 346.898 328.405C346.937 328.901 347.5 329.198 347.983 329.15C348.465 329.102 348.89 328.823 349.327 328.608C350.281 328.139 351.369 327.964 352.417 328.11C352.906 328.178 353.301 327.571 353.165 327.083ZM301.468 249.694C301.461 250.153 301.81 250.589 302.249 250.672C302.532 250.726 302.822 250.646 303.1 250.566C304.705 250.107 306.309 249.648 307.914 249.189C307.939 248.726 307.549 248.326 307.116 248.191C306.684 248.057 306.22 248.126 305.773 248.196C304.609 248.378 303.443 248.56 302.277 248.742C301.837 248.811 301.475 249.236 301.468 249.694ZM327.97 282.645C328.034 282.215 327.622 281.835 327.202 281.78C326.781 281.726 326.368 281.902 325.979 282.075C324.741 282.624 323.503 283.173 322.264 283.722C321.896 284.202 322.349 284.963 322.93 285.098C323.51 285.233 324.099 284.96 324.635 284.695C325.481 284.276 326.327 283.858 327.173 283.439C327.521 283.267 327.912 283.037 327.97 282.645ZM310.262 238.625C310.404 238.887 310.688 239.025 310.954 239.147C313.16 240.162 315.367 241.177 317.573 242.192C317.965 242.372 318.536 242.495 318.729 242.101C318.937 241.679 318.425 241.276 318.001 241.09C315.628 240.055 313.254 239.02 310.88 237.985C310.761 237.933 310.634 237.879 310.506 237.902C310.219 237.951 310.119 238.365 310.262 238.625ZM321.688 267.848C321.614 267.816 321.535 267.783 321.456 267.799C321.374 267.816 321.306 267.889 321.294 267.974C321.487 269.33 322.968 269.998 324.237 270.421C325.896 270.974 327.556 271.526 329.215 272.079C329.613 271.626 328.962 270.999 328.414 270.762C326.172 269.791 323.93 268.82 321.688 267.848ZM309.421 251.961C309.606 251.603 309.327 251.155 308.977 250.97C308.363 250.646 307.623 250.827 306.957 251.014C306.2 251.228 305.443 251.441 304.685 251.654C304.139 251.808 303.481 252.099 303.461 252.68C303.446 253.114 303.845 253.47 304.262 253.549C304.678 253.629 305.103 253.503 305.509 253.379C306.59 253.048 307.67 252.717 308.75 252.385C309.009 252.306 309.294 252.206 309.421 251.961ZM346.982 315.035C346.531 314.768 345.965 314.925 345.469 315.087C343.892 315.605 342.315 316.122 340.738 316.64C340.39 317.214 341.024 317.976 341.681 318.016C342.338 318.056 342.934 317.663 343.514 317.343C344.57 316.763 345.733 316.389 346.923 316.249C347.44 316.188 347.432 315.303 346.982 315.035ZM316.866 265.887C316.361 265.748 315.826 265.845 315.311 265.942C314.675 266.063 314.039 266.183 313.403 266.304C312.682 266.44 311.766 266.824 311.843 267.573C311.888 268.015 312.313 268.334 312.741 268.398C313.169 268.462 313.6 268.331 314.014 268.202C315.285 267.805 316.554 267.408 317.823 267.011C317.836 266.474 317.371 266.026 316.866 265.887ZM312.535 257.105C312.182 256.735 311.6 256.709 311.115 256.853C310.63 256.996 310.196 257.279 309.722 257.458C309.163 257.668 308.559 257.731 308.003 257.947C307.446 258.163 306.908 258.595 306.812 259.197C307.021 259.699 307.723 259.643 308.236 259.501C309.596 259.125 310.956 258.749 312.315 258.373C312.803 258.238 312.888 257.475 312.535 257.105ZM310.642 263.937C310.076 264.106 310.173 265.067 310.69 265.36C311.207 265.652 311.845 265.491 312.411 265.322C313.6 264.97 314.789 264.617 315.978 264.265C316.065 263.655 315.522 263.103 314.935 262.971C314.349 262.838 313.743 263.011 313.167 263.183C312.325 263.435 311.484 263.686 310.642 263.937ZM317.388 178.067C318.144 177.508 318.027 176.355 318.049 175.399C317.064 175.275 315.985 175.173 315.155 175.73C314.324 176.288 314.101 177.794 314.991 178.246C315.296 178.402 315.652 178.397 315.993 178.39C316.477 178.379 316.995 178.357 317.388 178.067ZM319.293 259.363C318.816 259.313 318.123 259.529 318.259 260C318.324 260.226 318.566 260.337 318.782 260.418C320.854 261.187 323.016 261.696 325.207 261.93C325.479 261.866 325.559 261.472 325.417 261.226C325.275 260.98 325.002 260.853 324.743 260.746C323.001 260.027 321.16 259.56 319.293 259.363ZM309.651 235.751C311.443 236.697 313.269 237.574 315.125 238.379C315.486 238.535 315.895 238.691 316.257 238.538C316.619 238.385 316.757 237.762 316.398 237.601C314.288 236.654 312.179 235.705 310.069 234.757C309.734 234.607 309.256 234.499 309.075 234.826C308.877 235.183 309.294 235.563 309.651 235.751ZM327.388 267.461C327.082 267.177 326.671 267.05 326.276 266.93C324.611 266.428 322.947 265.926 321.283 265.424C321.052 265.355 320.795 265.287 320.58 265.396C320.365 265.504 320.287 265.877 320.503 265.985C322.78 267.131 325.184 268.012 327.654 268.604C327.858 268.236 327.693 267.746 327.388 267.461ZM328.693 293.836C329.88 293.405 331.067 292.974 332.254 292.543C332.777 292.353 333.336 292.134 333.636 291.655C333.559 291.226 333.107 290.956 332.682 290.947C332.257 290.939 331.855 291.128 331.47 291.312C330.43 291.811 329.389 292.31 328.349 292.809C327.973 292.989 327.541 293.255 327.534 293.68C327.729 294.071 328.29 293.983 328.693 293.836ZM319.262 269.463C319.538 269.147 319.289 268.596 318.904 268.438C318.518 268.281 318.084 268.389 317.684 268.499C316.321 268.873 314.958 269.248 313.596 269.622C313.349 269.916 313.571 270.413 313.918 270.566C314.266 270.72 314.665 270.638 315.034 270.554C316.264 270.274 317.492 269.994 318.721 269.714C318.917 269.669 319.127 269.617 319.262 269.463ZM335.908 295.676C335.627 295.612 335.34 295.726 335.074 295.838C333.622 296.447 332.17 297.057 330.717 297.666C330.297 297.842 330.466 298.575 330.893 298.736C331.32 298.896 331.786 298.688 332.195 298.485C333.443 297.865 334.692 297.245 335.94 296.624C336.081 296.554 336.232 296.474 336.302 296.329C336.429 296.064 336.189 295.739 335.908 295.676ZM325.245 271.997C324.686 271.784 323.88 271.673 323.656 272.24C325.624 273.281 327.712 274.083 329.862 274.625C330.301 274.353 329.753 273.71 329.272 273.527C327.93 273.017 326.587 272.507 325.245 271.997ZM298.169 244.072C297.793 244.51 298.163 245.341 298.732 245.337C300.032 244.465 301.55 243.94 303.099 243.825C302.608 243.195 301.757 242.956 300.973 243.019C300.19 243.082 299.451 243.402 298.727 243.719C298.524 243.808 298.314 243.902 298.169 244.072ZM329.975 276.816C330.401 276.922 331.072 276.799 330.966 276.363C329.188 275.539 327.314 274.933 325.397 274.563C325.185 274.856 325.312 275.299 325.577 275.542C325.841 275.786 326.202 275.879 326.548 275.965C327.691 276.249 328.833 276.533 329.975 276.816ZM328.63 279.103C329.626 279.419 330.657 279.619 331.697 279.696C331.905 279.413 331.786 278.982 331.531 278.742C331.277 278.503 330.927 278.408 330.593 278.321C329.532 278.044 328.472 277.767 327.412 277.49C327.027 278.17 327.898 278.871 328.63 279.103ZM351.301 337.138C351.064 337.737 351.372 338.574 351.996 338.657C352.774 337.891 353.441 337.008 353.971 336.044C353.669 335.71 353.138 335.791 352.721 335.948C352.131 336.171 351.538 336.54 351.301 337.138ZM334.697 287.423C334.191 286.939 333.566 286.587 332.897 286.409C332.789 287.383 333.334 288.398 334.193 288.825C334.398 288.927 334.643 288.997 334.853 288.905C335.384 288.673 335.12 287.827 334.697 287.423ZM332.208 281.304C331.861 281.047 331.41 280.997 330.983 280.956C330.457 280.906 329.931 280.856 329.405 280.805C329.15 281.436 329.872 282.049 330.53 282.148C331.187 282.247 331.907 282.112 332.482 282.455C332.742 282.105 332.556 281.562 332.208 281.304ZM336.286 293.178C336.493 293.358 336.746 293.52 337.016 293.489C337.111 292.163 336.239 290.93 335.152 290.206C335.025 291.306 335.465 292.459 336.286 293.178ZM332.915 284.241C332.306 283.896 331.589 283.755 330.898 283.843C331.149 284.534 331.745 285.081 332.441 285.261C332.814 285.357 333.28 285.314 333.483 284.979C333.686 284.644 333.285 284.09 332.97 284.317M298.792 241.287C298.215 241.393 297.673 241.694 297.271 242.133C297.99 242.34 298.807 242.131 299.346 241.602C299.213 241.418 299.007 241.293 298.786 241.262" fill="#00160A"/>
<path fill-rule="evenodd" clip-rule="evenodd" d="M286.401 300.265C292.293 294.455 300.563 295.274 306.347 301.65C311.378 307.197 310.182 314.525 304.47 320.671C302.314 322.967 297.988 324.489 294.857 324.116C292.207 323.846 288.08 321.841 285.629 319.992C284.494 319.136 283.457 317.372 282.478 314.692L282.333 314.291C280.595 309.341 281.769 304.109 285.708 300.826L285.893 300.676L285.934 300.617C285.968 300.573 286.008 300.532 286.053 300.494L286.124 300.437L286.204 300.384L286.372 300.298L286.401 300.265ZM296.644 320.224L294.862 322.181L295.058 322.198C296.885 322.334 298.672 322.04 300.297 321.332L300.388 321.29L300.262 321.283C299.139 321.201 297.952 320.849 296.719 320.261L296.644 320.224ZM291.444 316.549L291.278 316.392L291.102 316.568C290.411 317.259 289.709 317.967 288.991 318.697L288.177 319.526C288.408 319.698 288.647 319.866 288.897 320.03C290.024 320.784 291.241 321.356 292.5 321.728L292.771 321.804L294.073 320.396L295.048 319.337L294.984 319.298C293.759 318.525 292.555 317.577 291.444 316.549ZM299.945 316.598L297.821 318.932L297.928 318.979C299.58 319.69 301.05 319.825 302.315 319.301L302.448 319.243L302.32 319.094C301.681 318.36 300.994 317.632 300.242 316.889L299.945 316.598ZM287.147 311.674L286.77 312.055C286.227 312.597 285.679 313.136 285.127 313.671L284.257 314.505L284.33 314.684C284.919 316.077 285.739 317.289 286.807 318.349L286.846 318.387L286.967 318.26C287.74 317.454 288.54 316.638 289.372 315.802L290.02 315.154L289.844 314.972C288.875 313.961 288.046 312.97 287.349 311.97L287.147 311.674ZM303.414 312.787L301.096 315.333L301.119 315.356C302.009 316.227 302.822 317.082 303.576 317.945L303.806 318.21L303.812 318.202C304.604 317.099 304.468 315.301 303.517 313.028L303.414 312.787ZM295.304 312.442L295.132 312.607C294.339 313.371 293.535 314.155 292.716 314.963L292.485 315.192L292.7 315.387C293.834 316.404 294.919 317.258 296.004 317.946L296.21 318.073L297.665 316.488L298.666 315.392L298.335 315.09C297.734 314.546 297.085 313.975 296.269 313.272L295.304 312.442ZM307.688 308.093L304.481 311.615L304.585 311.822C304.762 312.179 304.935 312.542 305.105 312.91L305.358 313.467L305.593 314.004C305.832 314.523 305.997 315.04 306.086 315.549L306.099 315.635L306.195 315.459C307.493 313.016 308.024 310.501 307.699 308.166L307.688 308.093ZM300.633 308.054L300.469 307.83L299.883 308.334L298.254 309.718L297.962 309.969C297.662 310.229 297.393 310.467 297.145 310.693L296.856 310.96L296.558 311.243L297.23 311.818C297.979 312.464 298.632 313.038 299.243 313.591L299.823 314.123L301.687 312.073L302.574 311.093L302.567 311.08C302.01 310.071 301.347 309.04 300.633 308.054ZM290.705 308.261L290.565 308.12L290.521 308.169C289.976 308.754 289.426 309.336 288.871 309.913L288.318 310.484L288.434 310.665C289.107 311.702 289.941 312.714 290.913 313.695L291.159 313.94L291.204 313.983L291.28 313.909C291.842 313.358 292.418 312.798 293.013 312.223L293.973 311.301L293.841 311.187C292.761 310.243 291.718 309.27 290.705 308.261ZM284.777 304.524L284.724 304.614C283.404 306.892 282.997 309.723 283.61 312.42L283.665 312.651L283.693 312.761L283.969 312.496C284.548 311.937 285.122 311.372 285.691 310.803L286.271 310.217L286.216 310.114C285.267 308.3 284.77 306.458 284.777 304.566L284.777 304.524ZM295.258 302.819L294.57 303.63C293.789 304.543 292.997 305.446 292.194 306.339L291.721 306.861L291.839 306.978C292.774 307.906 293.743 308.81 294.755 309.699L295.225 310.108L295.674 309.684C295.963 309.415 296.272 309.137 296.621 308.833L297.194 308.34L298.541 307.201C298.784 306.994 299.001 306.809 299.203 306.634L299.4 306.462L299.305 306.347C298.843 305.797 298.407 305.324 298.046 304.977L297.94 304.876C297.206 304.197 296.404 303.574 295.51 302.983L295.258 302.819ZM304.981 302.72L304.909 302.85C304.166 304.144 303.141 305.356 301.747 306.675L301.631 306.784L301.672 306.843C302.281 307.722 302.859 308.64 303.406 309.599L303.604 309.953L305.163 308.224L307.136 306.025L307.09 305.91C306.637 304.804 305.963 303.765 305.067 302.809L304.981 302.72ZM286.524 303.704L286.516 303.779C286.356 305.524 286.689 307.241 287.469 308.929L287.489 308.971L287.697 308.757C288.157 308.279 288.614 307.797 289.068 307.312L289.415 306.939L289.274 306.791C288.475 305.946 287.691 305.073 286.916 304.168L286.524 303.704ZM287.299 301.774L287.18 301.833L287.211 301.871C288.266 303.163 289.341 304.387 290.454 305.561L290.568 305.681L291.032 305.17C291.847 304.263 292.651 303.346 293.443 302.419L293.829 301.964L293.788 301.94C293.591 301.831 293.391 301.722 293.185 301.612L292.871 301.447C291.035 300.522 289.678 300.624 287.484 301.683L287.299 301.774ZM298.785 298.472L298.108 299.334C297.651 299.91 297.19 300.484 296.725 301.053L296.399 301.449L296.482 301.503C297.712 302.318 298.761 303.202 299.622 304.182L299.818 304.41C300.009 304.637 300.197 304.868 300.382 305.102L300.596 305.375L300.625 305.347C301.997 304.034 302.967 302.837 303.632 301.551L303.651 301.512L303.475 301.37C301.696 299.934 300.392 299.081 299.013 298.556L298.785 298.472ZM296.064 297.978C294.32 297.966 292.733 298.285 291.268 298.943L291.185 298.981L291.33 299C291.651 299.049 291.966 299.132 292.276 299.252L292.43 299.315C293.26 299.69 294.024 300.066 294.739 300.457L294.979 300.59L295.447 300.022C295.925 299.438 296.398 298.851 296.867 298.259L297.035 298.045L296.83 298.021C296.661 298.004 296.491 297.991 296.32 297.984L296.064 297.978Z" fill="#FFB61D"/>
<path fill-rule="evenodd" clip-rule="evenodd" d="M325.692 175.452C326.243 173.921 328.227 173.288 329.691 173.927C331.155 174.565 332.064 176.161 332.293 177.777C332.523 179.393 332.174 181.035 331.726 182.602C331.318 184.03 330.825 185.434 330.251 186.801C330.198 186.928 330.126 187.07 329.995 187.1C329.855 187.133 329.725 187.021 329.625 186.916C327.137 184.328 325.638 180.765 325.507 177.133C325.487 176.566 325.501 175.985 325.692 175.452ZM329.992 175.826C329.584 175.467 329.057 175.232 328.52 175.249C327.265 175.288 326.39 176.693 326.418 177.981C326.446 179.269 327.114 180.438 327.763 181.541C328.228 182.331 328.692 183.121 329.157 183.911C329.315 184.18 329.627 184.487 329.873 184.301C329.973 184.226 330.011 184.094 330.043 183.972C330.234 183.254 330.424 182.536 330.614 181.819C330.886 180.793 331.16 179.75 331.143 178.687C331.126 177.624 330.779 176.518 329.992 175.826Z" fill="#FFB61D"/>
<path fill-rule="evenodd" clip-rule="evenodd" d="M329.171 179.95C328.865 180.038 328.531 180.021 328.236 179.903C327.662 179.673 327.265 179.042 327.299 178.41C327.332 177.779 327.792 177.195 328.387 177.031C329.288 176.781 330.303 177.633 330.243 178.59C330.204 179.21 329.754 179.781 329.171 179.95Z" fill="#FFB61D"/>
</g>
<defs>
<filter id="filter0_d_30_19" x="0" y="0" width="467" height="477" filterUnits="userSpaceOnUse" color-interpolation-filters="sRGB">
<feFlood flood-opacity="0" result="BackgroundImageFix"/>
<feColorMatrix in="SourceAlpha" type="matrix" values="0 0 0 0 0 0 0 0 0 0 0 0 0 0 0 0 0 0 127 0" result="hardAlpha"/>
<feOffset dy="14"/>
<feGaussianBlur stdDeviation="23"/>
<feComposite in2="hardAlpha" operator="out"/>
<feColorMatrix type="matrix" values="0 0 0 0 0 0 0 0 0 0 0 0 0 0 0 0 0 0 0.25 0"/>
<feBlend mode="normal" in2="BackgroundImageFix" result="effect1_dropShadow_30_19"/>
<feBlend mode="normal" in="SourceGraphic" in2="effect1_dropShadow_30_19" result="shape"/>
</filter>
</defs>
</svg>
