<svg width="427" height="434" viewBox="0 0 427 434" fill="none" xmlns="http://www.w3.org/2000/svg">
<g filter="url(#filter0_d_48_49)">
<g clip-path="url(#clip0_48_49)">
<path d="M402 13H25V397H402V13Z" fill="#0C0C0C"/>
<path fill-rule="evenodd" clip-rule="evenodd" d="M235.811 352.1C252.064 352.229 268.311 351.478 284.485 349.851L284.526 350.363C281.198 350.685 277.868 350.984 274.539 351.336C264.262 352.432 253.944 352.674 243.627 352.945C236.015 353.113 228.411 352.345 220.979 350.657C212.101 348.692 203.044 348.05 194.033 347.05C176.726 345.132 159.561 342.359 142.763 337.577C141.441 337.2 139.911 336.98 138.844 336.349C136.197 334.784 133.143 334.125 130.671 332.14C129.355 331.084 127.464 330.897 126.101 329.606C122.402 326.109 117.814 324.021 113.486 321.497C106.811 317.606 100.013 313.632 95.1663 307.441C86.4636 296.326 78.7622 284.464 74.4349 270.793C69.9565 256.646 69.403 242.355 73.5924 227.877C75.3954 221.642 76.7717 215.332 80.2054 209.745C82.0361 206.892 84.0508 204.166 86.2369 201.586C88.795 198.445 90.8946 194.957 93.9609 192.193C98.2039 188.368 102.453 184.601 107.048 181.195C111.874 177.621 113.586 172.177 114.683 166.406C116.04 159.276 116.622 152.006 118.625 144.989C124.225 125.37 135.312 109.956 151.819 98.2925C160.152 92.4045 168.981 87.4268 177.615 82.0954C185.721 77.0895 194.224 72.7268 202.282 67.6703C220.488 56.2485 240.057 56.1094 260.129 59.4093C269.039 60.8747 277.483 64.0805 285.838 67.5484C294.964 71.3352 304.239 74.7277 312.591 80.2296C327.61 90.1261 339.414 102.819 346.422 119.831C349.798 128.023 353.162 136.221 354.809 144.983C356.517 153.554 356.716 162.365 355.395 171.006C353.696 181.573 350.601 191.823 348.824 202.365C348.496 204.382 348.342 206.425 348.367 208.47C348.394 213.871 347.685 219.278 348.224 224.665C348.876 231.183 349.888 237.664 350.525 244.182C351.436 254.144 351.317 264.176 350.17 274.113C349.141 283.474 347.347 292.731 344.805 301.787C343.334 307.205 341.219 312.421 338.508 317.316C337.218 319.607 336.649 322.716 333.698 323.824C328.714 332.281 320.135 336.066 312.343 340.863C308.928 342.966 305.142 344.282 301.558 346.005C298.638 347.407 295.597 347.325 292.644 347.942C284.59 349.632 276.362 350.082 268.171 350.734C257.415 351.593 246.628 351.861 235.811 352.1Z" fill="#64FCD9"/>
<path fill-rule="evenodd" clip-rule="evenodd" d="M213.298 13.3455C213.062 13.4125 212.688 13.3669 212.725 13.1201C212.866 13.0462 213.025 12.9703 213.178 13.0118C213.331 13.0533 213.431 13.2795 213.308 13.3812L213.298 13.3455Z" fill="#00160A"/>
<path fill-rule="evenodd" clip-rule="evenodd" d="M214.501 153.771L215.087 154.02C218.264 155.353 220.667 156.102 222.298 156.264C224.026 156.437 226.551 156.118 229.871 155.307L229.807 156.146C229.264 163.494 229.286 169.041 229.871 172.787C230.479 176.673 231.919 180.054 234.191 182.927C231.638 185.835 227.793 188.768 232.536 202.351C235.755 211.571 230.287 244.21 229.807 271.637C229.58 284.617 232.241 296.545 234.191 304.058C238.848 322.008 246.392 337.334 254.72 344.321C258.878 347.81 265.982 351.244 263.825 352.076C247.895 358.22 186.609 350.988 186.357 347.819C186.126 344.908 202.621 345.284 204.956 332.079C209.471 306.534 201.607 260.589 201.83 254.945C202.488 238.275 207.38 218.052 213.501 202.923C213.729 202.359 215.394 202.258 217.634 202.351L217.789 201.711C219.221 195.695 219.467 191.575 218.528 189.352C217.439 186.777 213.73 184.311 207.4 181.954C209.665 180.561 211.347 177.687 212.444 173.331L212.558 172.865C213.589 168.516 214.237 162.151 214.501 153.771Z" fill="white"/>
<path fill-rule="evenodd" clip-rule="evenodd" d="M216.746 245.382C217.42 236.991 217.381 233.762 218.527 225.424C218.859 223.006 218.363 203.128 214.241 206.306C212.697 207.496 213.312 210.15 212.575 211.974C206.454 227.102 202.488 238.274 201.83 254.945C201.492 263.507 200.927 272.11 201.606 280.651C202.809 295.788 214.673 271.206 216.746 245.382Z" fill="white"/>
<path fill-rule="evenodd" clip-rule="evenodd" d="M227.457 280.009C225.82 260.025 229.81 240.074 231.887 220.133C232.554 213.723 233.014 207.15 231.434 200.908C230.59 197.573 229.166 194.33 229.098 190.885C229.031 187.441 230.878 183.586 234.19 182.927C227.714 174.978 226.175 163.172 230.39 153.771C230.675 159.201 230.96 164.632 231.245 170.062C231.397 172.953 231.62 176.046 233.373 178.321C235.126 180.596 239.008 181.347 240.69 179.017C242.474 176.549 246.353 176.764 248.807 178.533C251.262 180.302 252.719 183.132 254.365 185.698C257.235 190.174 260.905 194.093 265.034 197.387C280.438 209.681 289.352 229.402 290.593 249.325C291.306 260.782 279.266 287.034 279.208 304.709C279.165 317.769 290.26 324.355 294.061 326.109C296.895 327.418 299.977 328.151 302.703 329.681C305.428 331.212 307.868 333.841 307.996 337.014C308.126 340.224 305.908 343.016 303.571 345.167C294.348 353.652 281.058 357.29 268.915 354.655C264.398 353.674 260.015 351.856 256.34 349.003C251.396 345.167 247.961 339.68 244.913 334.156C235.709 317.472 229.019 299.092 227.457 280.009Z" fill="white"/>
<path fill-rule="evenodd" clip-rule="evenodd" d="M199.965 99.7595C201.776 90.4728 205.737 81.7806 209.663 73.1908C211.596 68.9632 215.734 65.8492 220.288 65.1943C218.868 66.2204 217.339 67.4072 216.987 69.1378C216.634 70.8683 218.389 72.9537 219.945 72.154C226.59 68.7369 235.416 70.4326 240.363 76.0774C242.034 77.9836 243.263 80.2369 244.479 82.4687C248.56 89.9654 252.774 98.0852 251.85 106.594C251.575 109.127 251.055 112.225 253.064 113.759C254.035 114.5 253.738 116.027 253.323 117.185C249.078 129.006 242.514 139.967 234.126 149.243C231.365 152.297 227.943 155.369 223.855 155.305C221.254 155.265 218.865 153.941 216.597 152.652C212.049 150.066 207.449 147.442 203.668 143.803C199.887 140.164 196.951 135.343 196.609 130.073C196.351 126.096 197.543 121.934 196.154 118.206C195.461 116.348 194.168 114.75 193.605 112.848C193.043 110.946 193.582 108.424 195.445 107.808C198.496 106.8 199.344 102.947 199.965 99.7595Z" fill="white"/>
<path d="M238.633 133.32C240.576 133.32 242.152 131.715 242.152 129.736C242.152 127.756 240.576 126.152 238.633 126.152C236.69 126.152 235.114 127.756 235.114 129.736C235.114 131.715 236.69 133.32 238.633 133.32Z" fill="#FFB61D"/>
<path fill-rule="evenodd" clip-rule="evenodd" d="M171.768 351.094C172.866 350.074 173.902 349.111 173.428 347.818C170.474 348.076 167.917 350.736 167.764 353.711C167.611 356.687 169.882 359.597 172.794 360.159C195.016 364.445 217.884 365.332 240.369 362.782C245.786 362.167 251.887 360.909 254.718 356.228C253.858 355.06 252.098 355.856 250.842 356.663L250.395 356.956C245.968 359.796 240.567 360.585 235.296 361.022L234.31 361.1C214.553 362.604 194.613 361.664 175.083 358.307C172.486 357.86 169.139 356.284 169.788 353.718C170.047 352.693 170.926 351.876 171.768 351.094ZM231.27 170.532L230.39 153.77C226.175 163.172 227.714 174.978 234.189 182.927C230.878 183.586 229.031 187.44 229.098 190.885C229.145 193.295 229.857 195.606 230.569 197.92C230.875 198.913 231.18 199.906 231.434 200.908C233.013 207.149 232.554 213.722 231.886 220.133L231.796 220.987C231.287 225.759 230.674 230.53 230.061 235.303C228.148 250.193 226.235 265.091 227.456 280.009C229.019 299.092 235.708 317.472 244.913 334.156C247.961 339.68 251.396 345.167 256.339 349.003C260.015 351.855 264.398 353.674 268.914 354.655C281.058 357.29 294.347 353.652 303.571 345.167C305.908 343.016 308.126 340.224 307.995 337.014C307.867 333.841 305.428 331.212 302.702 329.681C301.116 328.79 299.409 328.17 297.7 327.549C296.473 327.103 295.245 326.656 294.06 326.109C285.117 321.98 279.321 311.666 280.342 301.699C275.3 307.073 278.054 316.462 283.498 321.41C287.008 324.601 291.283 326.633 295.57 328.672C297.932 329.795 300.297 330.92 302.541 332.242C303.838 333.006 305.216 334.012 305.468 335.52C305.682 336.804 305.002 338.058 304.264 339.12C299.018 346.673 289.944 350.54 281.001 352.076C275.137 353.083 268.869 353.196 263.51 350.565C258.869 348.286 255.369 344.185 252.318 339.931L251.923 339.375C236.646 317.761 228.624 290.902 229.489 264.262C229.769 255.617 230.953 247.01 232.135 238.413C233.824 226.125 235.51 213.859 234.553 201.533L250.734 189.42C251.902 188.576 253.742 187.892 254.449 189.137C256.768 193.214 260.309 196.308 263.845 199.398C265.071 200.47 266.297 201.541 267.472 202.653C280.573 215.056 287.574 233.364 288.183 251.595C288.792 269.826 283.384 287.929 274.692 303.867C272.451 307.975 266.746 307.927 262.177 307.333L262.057 307.318C261.694 307.268 261.325 307.196 261.037 306.971C260.413 306.482 260.451 305.549 260.593 304.737L260.63 304.537C263.435 290.292 266.122 275.841 265.302 261.336C264.483 246.83 259.791 232.049 249.696 221.809C252.949 228.451 255.79 235.304 258.196 242.313C260.074 247.783 261.693 253.38 262.375 259.134C263.53 268.885 261.966 278.607 260.398 288.356C259.45 294.252 258.5 300.157 258.149 306.085L258.142 306.214C258.097 307.074 258.118 308.009 258.676 308.645C259.164 309.202 259.935 309.376 260.653 309.52L260.835 309.557C266.183 310.611 272.891 311.024 275.703 306.296C285.85 289.232 291.833 269.247 290.592 249.324C289.352 229.402 280.437 209.681 265.033 197.387L264.648 197.076C260.676 193.847 257.145 190.034 254.364 185.698C254.076 185.248 253.793 184.791 253.51 184.333C252.177 182.173 250.831 179.992 248.806 178.533C246.352 176.764 242.473 176.549 240.69 179.017L240.608 179.126C238.884 181.323 235.098 180.56 233.373 178.321C231.714 176.169 231.425 173.284 231.27 170.532ZM207.74 182.31C214.076 174.309 216.318 163.138 213.569 153.258L211.1 169.435C210.64 172.392 210.045 175.45 208.154 177.726C206.152 180.135 202.17 181.141 199.942 178.945L199.833 178.842C197.383 176.596 193.489 178.52 190.779 180.617L190.54 180.805C181.964 187.651 173.541 194.867 166.898 203.652C159.5 213.438 154.543 224.861 150.059 236.337L149.232 238.467C146.409 245.794 143.776 253.348 143.634 261.2C143.487 269.367 146.511 278.035 153.175 282.614C156.699 285.035 156.517 290.268 155.945 294.548L153.697 311.38C152.841 317.862 152.125 324.635 154.498 330.692C157.563 338.518 165.363 343.616 173.438 345.553C181.19 347.413 189.273 346.817 197.219 346.112L209.983 344.97C210.899 344.885 211.852 344.756 212.576 344.188C213.292 343.625 213.657 342.725 213.946 341.854C217.148 332.208 214.65 321.875 211.796 311.947L210.187 306.411C207.247 296.16 204.892 285.665 204.508 275C203.963 259.846 207.401 244.885 210.995 230.147L219.861 193.892C220.609 190.837 218.837 187.606 216.342 185.736C214.013 183.991 211.16 183.18 208.343 182.463L207.74 182.31ZM186.532 187.44C188.117 186.11 190.45 184.813 192.056 186.117C198.593 191.419 206.328 195.189 214.492 197.051C215.65 197.315 215.768 198.882 215.575 200.107L215.54 200.308C213.986 208.466 211.834 216.552 209.685 224.63C205.316 241.047 200.957 257.429 201.652 274.302C202.167 286.785 205.448 298.934 208.931 310.943L210.323 315.72C212.382 322.825 214.286 330.461 211.842 337.408C211.257 339.071 210.36 340.726 208.862 341.625C207.69 342.329 206.289 342.489 204.936 342.635L197.143 343.473C189.513 344.288 181.734 344.995 174.283 343.193C166.527 341.319 159.059 336.172 156.562 328.487C154.749 322.913 155.735 316.907 156.693 311.07C156.755 310.691 156.817 310.312 156.878 309.935L156.987 309.261C158.091 302.318 158.714 295.296 158.849 288.266C167.646 298.358 175.198 309.567 181.275 321.548C181.713 322.411 182.998 322.012 183.811 321.501L184.436 321.107C187.773 318.999 191.123 316.768 193.457 313.573C195.937 310.178 197.034 305.394 195.051 301.677L182.966 279.028C178.616 270.864 174.198 262.048 175.21 252.839C175.855 246.956 178.669 241.597 181.562 236.433L188.991 223.236L188.263 224.036C180.996 232.065 173.951 241.142 172.845 251.942C172.019 260.016 174.659 268.025 177.976 275.432L178.298 276.147C181.873 283.992 186.148 291.48 190.493 298.917L192.125 301.704C193.901 304.734 193.116 308.765 191.128 311.656C189.269 314.361 186.542 316.288 183.819 318.106L183.256 318.482L177.97 309.295C173.341 301.261 168.552 293.181 161.875 286.817C160.684 285.683 159.432 284.6 158.18 283.518C155.042 280.805 151.905 278.094 149.744 274.565C144.098 265.347 146.634 253.409 150.303 243.158L150.529 242.533C158.154 221.625 169.6 201.643 186.532 187.44ZM271.641 314.301L257.105 311.097C256.276 310.922 255.322 310.809 254.718 311.376C254.853 312.272 255.808 312.756 256.699 313.074L256.903 313.145C261.621 314.728 266.49 316.332 271.469 316.04C272.06 316.005 272.821 315.77 272.814 315.192C272.808 314.667 272.165 314.416 271.641 314.301ZM231.093 204.991L230.857 202.922C227.958 203.421 225.002 203.582 222.066 203.4L221.978 203.394C221.116 203.34 220.207 203.283 219.449 203.689C218.664 204.109 218.203 205.245 218.795 205.908C219.185 206.344 219.837 206.399 220.422 206.424L220.695 206.436C224.245 206.585 227.965 206.651 231.093 204.991ZM193.305 183.341C192.808 181.832 194.605 180.405 196.165 180.566C197.489 180.702 198.61 181.519 199.707 182.318C199.746 182.347 199.785 182.376 199.825 182.404L200.289 182.738C203.944 185.315 208.311 186.552 212.657 187.61L214.146 187.968C216.421 188.511 216.839 191.518 216.729 193.933L216.715 194.199C216.701 194.42 216.682 194.656 216.547 194.83C216.275 195.18 215.736 195.077 215.317 194.939L214.884 194.796C207.653 192.401 200.389 189.624 194.478 184.775C193.995 184.379 193.502 183.938 193.305 183.341ZM220.012 65.395L220.288 65.1943C215.733 65.8492 211.596 68.9632 209.663 73.1908C205.736 81.7806 201.775 90.4728 199.965 99.7595C199.344 102.947 198.495 106.8 195.445 107.808L195.33 107.849C193.559 108.528 193.054 110.985 193.605 112.848C193.912 113.889 194.439 114.838 194.966 115.789C195.403 116.577 195.839 117.365 196.153 118.206C197.042 120.591 196.874 123.153 196.706 125.731C196.611 127.183 196.515 128.64 196.608 130.073C196.95 135.343 199.886 140.164 203.667 143.803C207.082 147.09 211.165 149.548 215.275 151.899L216.596 152.652C218.864 153.941 221.254 155.265 223.854 155.305C227.942 155.369 231.364 152.297 234.126 149.243L234.53 148.793C242.725 139.614 249.146 128.815 253.322 117.185C253.738 116.027 254.035 114.5 253.064 113.759C251.37 112.465 251.473 110.06 251.712 107.82L251.849 106.594C252.748 98.3095 248.777 90.3929 244.8 83.0621L244.275 82.097C243.125 79.9876 241.941 77.8781 240.362 76.0774C235.415 70.4326 226.59 68.7369 219.944 72.154C218.389 72.9537 216.634 70.8683 216.986 69.1378C217.316 67.5193 218.675 66.3755 220.012 65.395ZM199.674 117.17C200.233 113.754 200.796 110.323 200.673 106.907C202.682 112.658 209.456 116.203 215.25 114.537C215.865 114.36 216.467 114.133 217.068 113.907C218.038 113.54 219.008 113.175 220.029 113.022C221.683 112.773 223.62 113.26 224.412 114.751L224.492 114.899C226.797 118.985 232.775 119.297 237.056 117.377C239.267 116.386 241.256 114.98 243.246 113.574C245.154 112.225 247.063 110.875 249.169 109.891C249.518 111.147 249.193 112.446 248.896 113.635C248.636 114.674 248.397 115.628 248.649 116.394C248.807 116.173 248.957 115.957 249.1 115.75C250.017 114.425 250.657 113.502 251.501 114.151C252.476 114.902 252.406 116.969 251.501 118.031C251.18 118.408 250.801 118.742 250.424 119.074C249.738 119.679 249.057 120.28 248.736 121.125C244.609 131.993 238.165 141.952 229.972 150.122C228.968 151.124 227.899 152.124 226.573 152.608C223.75 153.637 220.707 152.082 218.102 150.575L216.851 149.847C209.326 145.429 201.498 140.089 199.306 131.659C198.076 126.924 198.872 122.063 199.674 117.17ZM223.344 117.762L223.633 117.561C223.338 116.011 220.898 116.129 219.717 117.194C217.688 119.021 217.425 122.476 219.238 124.512C221.051 126.547 224.67 126.691 226.568 124.732C226.609 123.873 225.503 123.415 224.634 123.5C224.361 123.527 224.086 123.581 223.812 123.636C223.215 123.754 222.62 123.872 222.048 123.701C220.757 123.316 220.325 121.597 220.849 120.374C221.328 119.257 222.334 118.472 223.344 117.762ZM197.474 109.142L197.919 109.14C198.564 109.149 199.452 109.237 199.306 109.891C198.839 111.996 198.626 114.45 198.513 116.132L198.418 117.673C198.142 117.781 197.352 116.676 196.897 116.041C196.804 115.91 196.725 115.8 196.667 115.724L196.608 115.648C196.488 115.382 196.326 115.067 196.148 114.721C195.024 112.539 193.274 109.142 197.474 109.142ZM204.726 90.7442C205.082 89.5358 205.487 88.2523 206.454 87.4592C207.422 86.6656 209.139 86.6973 209.682 87.8319C210.955 90.4912 213.87 91.9003 216.679 92.7C224.977 95.0619 234.239 93.6923 241.523 89.0264C242.941 88.1181 244.921 88.7259 246.069 89.9649C247.121 91.1005 247.628 92.6263 248.009 94.1449L248.11 94.5586C248.962 98.1293 249.492 101.779 249.691 105.447C249.723 106.03 249.735 106.657 249.417 107.144C249.226 107.438 248.934 107.647 248.649 107.849L248.205 108.162C246.943 109.047 245.637 109.898 244.162 110.308C242.514 110.766 240.584 110.575 239.343 109.385L239.198 109.248C236.053 106.367 230.967 105.917 227.387 108.23C226.927 108.527 226.482 108.868 226.037 109.208C224.897 110.08 223.758 110.952 222.366 111.098C220.288 111.316 218.607 109.892 216.934 108.475C216.344 107.974 215.754 107.474 215.147 107.048C211.796 104.691 207.063 104.549 203.58 106.701C201.081 104.872 201.699 101.004 202.581 98.012L204.726 90.7442ZM241.743 103.502L230.91 102.597C230.291 102.549 229.638 102.532 229.12 102.847C228.564 103.183 228.352 104.062 228.895 104.418C229.105 104.555 229.372 104.583 229.626 104.606L240.613 105.598C242.127 105.723 243.943 105.659 244.665 104.409C243.918 103.713 242.786 103.589 241.743 103.502ZM216.978 103.86C217.143 103.213 216.775 102.552 216.34 102.045C213.808 99.0867 208.398 99.4113 206.242 102.65C205.822 103.28 205.821 104.483 206.58 104.434C208.656 101.754 213.332 101.723 215.443 104.376C215.859 104.899 216.813 104.506 216.978 103.86ZM246.676 101.912C246.852 101.729 246.795 100.983 246.302 100.696C245.936 100.484 244.903 100.382 244.73 100.745C244.341 101.542 246.135 102.474 246.676 101.912ZM246.621 99.2157C246.806 98.7524 245.929 97.4524 245.424 97.4503C244.979 97.4488 244.426 98.7718 244.722 99.208C245.025 99.6545 246.455 99.6309 246.621 99.2157ZM243.549 98.4661C244.155 98.3745 244.639 97.0172 244.162 96.6593C243.689 96.3035 242.312 96.6767 242.161 97.1211C242.005 97.5799 242.899 98.5644 243.549 98.4661ZM206.708 96.8677C207.336 97.7586 208.923 97.5968 209.366 96.5963C209.808 95.5954 208.877 94.2754 207.806 94.385C206.735 94.4946 206.079 95.9763 206.708 96.8677ZM244.18 94.5806C244.875 94.8821 245.913 94.8079 245.973 94.0732C245.917 93.0901 244.856 92.9355 244.162 93.0558C243.608 93.1521 243.618 94.3364 244.18 94.5806ZM242.48 94.5565C242.983 94.2723 242.851 92.7236 242.29 92.5285C241.684 92.3165 240.051 92.7353 240.146 93.7424C240.24 94.75 241.91 94.8796 242.48 94.5565ZM208.763 94.0061C209.368 94.6814 210.666 94.3901 210.937 93.5187C211.208 92.6468 210.312 91.6468 209.435 91.8434C208.558 92.04 208.157 93.3313 208.763 94.0061ZM206.961 91.9965C207.446 91.5787 207.514 90.8286 207.232 90.4354C206.663 89.6418 206.186 89.6454 205.797 90.0361C205.313 90.523 205.29 91.3432 205.485 92.1911C205.558 92.5085 206.469 92.422 206.961 91.9965ZM234.325 131.131C232.815 133.148 230.559 134.593 228.097 135.121C228.032 135.135 227.966 135.148 227.901 135.162C227.392 135.267 226.87 135.375 226.478 135.707C226.035 136.082 225.886 136.871 226.353 137.216C226.613 137.408 226.967 137.4 227.29 137.37C231.488 136.986 235.385 134.213 237.125 130.371C237.004 129.764 236.171 129.555 235.611 129.819C235.119 130.051 234.786 130.505 234.46 130.948C234.415 131.009 234.37 131.071 234.325 131.131Z" fill="#00160A"/>
<path fill-rule="evenodd" clip-rule="evenodd" d="M246.202 246.633C247.296 245.927 248.591 247.315 248.899 248.608C249.208 249.902 249.25 251.459 250.311 252.217C251.395 252.994 252.853 252.446 254.15 252.19C255.446 251.934 257.236 252.433 257.232 253.795C257.231 254.132 257.108 254.455 256.982 254.765C255.859 257.515 254.268 260.059 252.302 262.247C252.717 264.01 253.353 265.719 254.188 267.316C254.747 268.385 253.495 269.668 252.319 269.612C251.145 269.556 250.167 268.716 249.215 268.003C248.263 267.291 247.073 266.644 245.957 267.029C244.995 267.361 244.421 268.345 243.792 269.166C243.161 269.988 242.176 270.761 241.214 270.426C240.051 270.022 239.888 268.398 240.065 267.143C240.297 265.499 240.747 263.889 241.398 262.369C241.859 261.296 241.104 260.051 240.164 259.39C239.224 258.73 238.087 258.396 237.198 257.665C236.309 256.933 235.74 255.529 236.421 254.588C236.751 254.131 237.293 253.9 237.818 253.722C239.568 253.129 241.433 252.903 243.267 253.06C243.969 251.334 244.67 249.607 245.372 247.881C245.565 247.408 245.78 246.905 246.202 246.633Z" fill="#FFB61D"/>
<path fill-rule="evenodd" clip-rule="evenodd" d="M194.48 184.775C193.997 184.378 193.503 183.939 193.306 183.341C192.809 181.831 194.606 180.405 196.166 180.566C197.491 180.702 198.611 181.519 199.708 182.318C199.902 182.46 200.096 182.601 200.29 182.738C204.363 185.61 209.319 186.817 214.147 187.968C216.507 188.531 216.87 191.744 216.716 194.199C216.702 194.42 216.683 194.655 216.548 194.829C216.277 195.181 215.737 195.077 215.319 194.94C207.946 192.511 200.509 189.72 194.48 184.775ZM193.458 313.573C195.938 310.178 197.035 305.394 195.053 301.677L183.129 279.329C178.727 271.081 174.187 262.162 175.211 252.839C175.899 246.573 179.047 240.9 182.129 235.425L188.992 223.236C181.473 231.462 173.989 240.782 172.846 251.942C171.993 260.277 174.835 268.541 178.3 276.147C182.321 284.972 187.228 293.347 192.126 301.704C193.902 304.734 193.117 308.765 191.129 311.656C189.142 314.548 186.164 316.55 183.258 318.482L178.526 310.259C173.722 301.91 168.821 293.436 161.876 286.817C160.685 285.683 159.433 284.6 158.181 283.518C155.043 280.805 151.906 278.094 149.745 274.566C143.985 265.159 146.743 252.92 150.531 242.533C158.156 221.625 169.602 201.643 186.533 187.44C188.118 186.11 190.451 184.814 192.057 186.117C198.594 191.419 206.329 195.189 214.493 197.051C215.715 197.33 215.779 199.06 215.541 200.308C213.988 208.466 211.836 216.552 209.686 224.629C205.317 241.047 200.958 257.429 201.653 274.303C202.215 287.943 206.082 301.186 209.906 314.283C209.985 314.553 210.064 314.824 210.143 315.094C212.268 322.375 214.359 330.257 211.843 337.408C211.258 339.071 210.361 340.726 208.863 341.625C207.692 342.328 206.291 342.49 204.937 342.635L198.078 343.373C190.15 344.226 182.039 345.068 174.284 343.193C166.528 341.318 159.061 336.172 156.563 328.488C154.75 322.913 155.736 316.907 156.694 311.07C156.793 310.465 156.892 309.861 156.988 309.26C158.092 302.318 158.715 295.297 158.85 288.265C167.647 298.358 175.2 309.567 181.276 321.548C181.714 322.411 182.999 322.012 183.812 321.501C187.351 319.275 190.979 316.968 193.458 313.573Z" fill="white"/>
<path fill-rule="evenodd" clip-rule="evenodd" d="M250.903 186.279C250.96 185.703 250.634 185.168 250.321 184.686C249.402 183.27 248.439 181.809 247.023 180.917C245.607 180.025 243.601 179.87 242.379 181.023C240.028 183.241 237.293 185.034 234.339 186.293C232.397 187.121 231.418 189.462 231.499 191.61C231.579 193.758 232.498 195.768 233.4 197.71C233.557 198.048 233.766 198.428 234.127 198.491C234.429 198.545 234.714 198.35 234.962 198.166C240.275 194.203 245.589 190.241 250.903 186.279Z" fill="white"/>
<path fill-rule="evenodd" clip-rule="evenodd" d="M125.145 108.863C125.365 108.583 125.462 108.223 125.413 107.869C125.366 107.51 125.178 107.186 124.892 106.971C124.892 106.971 121.283 104.421 121.07 104.515C120.856 104.611 124.124 108.035 124.124 108.035C117.991 115.782 106.949 117.236 99.0799 111.333C91.2107 105.43 89.3096 94.2662 94.7681 86.0138L118.668 104.409C118.957 104.627 119.366 104.564 119.58 104.269C119.793 103.974 95.5462 84.9489 95.5462 84.9489C95.2632 84.7313 94.9053 84.6401 94.5549 84.6965C94.2046 84.7533 93.8919 84.9525 93.6894 85.2489C87.6946 94.0845 89.7047 106.17 98.2229 112.506C106.685 118.913 118.623 117.298 125.145 108.863ZM100.197 110.976C106.909 116.043 116.257 115.383 122.213 109.42C122.472 109.163 122.476 108.743 122.223 108.48C121.969 108.218 121.555 108.213 121.296 108.47C115.788 113.952 107.176 114.563 100.969 109.915C94.762 105.266 92.7946 96.7295 96.3248 89.7663C96.442 89.5543 96.4359 89.2942 96.3087 89.0879C96.1811 88.8821 95.9534 88.7628 95.7146 88.7771C95.4753 88.7919 95.2632 88.9379 95.1612 89.158C91.3097 96.6967 93.4481 105.961 100.197 110.976ZM101.305 106.397C101.264 105.82 101.405 105.246 101.703 104.783C102.062 104.265 102.506 103.834 103.009 103.517C103.96 102.909 104.526 103.097 104.833 103.362C105.833 104.219 105.055 106.533 104.591 107.268C104.222 107.864 103.633 108.222 103.002 108.232C102.639 108.235 102.285 108.101 101.992 107.851C101.593 107.505 101.343 106.975 101.305 106.397ZM104.109 104.504C103.543 104.694 103.039 105.08 102.665 105.611C102.542 105.8 102.484 106.034 102.499 106.27C102.509 106.45 102.584 106.616 102.705 106.727C103.029 106.939 103.439 106.812 103.631 106.44C103.954 105.866 104.121 105.191 104.109 104.504ZM108.093 110.268C108.646 110.328 109.198 110.153 109.605 109.789C110.015 109.431 110.273 108.941 110.331 108.412C110.428 107.578 110.072 105.317 108.691 105.168C108.258 105.12 107.626 105.277 106.998 106.269C106.664 106.792 106.44 107.374 106.341 107.981C106.274 108.51 106.412 109.043 106.73 109.479C107.043 109.919 107.54 110.207 108.093 110.268ZM108.539 106.468C108.88 107.009 109.041 107.637 109.001 108.268C108.98 108.484 108.877 108.687 108.71 108.835C108.586 108.952 108.415 109.01 108.242 108.993C108.071 108.969 107.918 108.876 107.823 108.737C107.695 108.557 107.641 108.338 107.671 108.123C107.779 107.499 108.082 106.922 108.539 106.468ZM113.213 104.237C114.435 103.686 115.846 105.533 116.179 106.329V106.327C116.657 107.358 116.243 108.597 115.255 109.099C115.029 109.203 114.784 109.256 114.537 109.256C114.26 109.255 113.988 109.191 113.737 109.068C113.259 108.835 112.88 108.427 112.671 107.921C112.338 107.126 111.99 104.788 113.213 104.237ZM114.27 107.866C114.417 107.941 114.589 107.948 114.742 107.885C115.082 107.675 115.2 107.22 115.007 106.859C114.726 106.275 114.282 105.792 113.731 105.476C113.579 106.111 113.617 106.779 113.838 107.391C113.921 107.599 114.075 107.768 114.27 107.866ZM98.5225 92.8885C98.0037 92.8214 97.48 92.9622 97.0512 93.2847C96.6194 93.6042 96.3364 94.1106 96.2761 94.6728C96.2007 95.8473 97.018 96.8667 98.1038 96.9522C98.1993 96.9635 98.2958 96.9686 98.3918 96.9681C99.3509 96.9681 101.158 96.5467 101.291 95.2815C101.431 93.8746 99.3418 92.9878 98.5225 92.8885ZM98.242 95.598C97.8499 95.5918 97.5337 95.2488 97.5287 94.8248C97.5528 94.6503 97.6443 94.4951 97.7811 94.3983C97.9258 94.2903 98.0982 94.2335 98.2737 94.236C98.3104 94.236 98.3471 94.236 98.3848 94.2427C98.998 94.3528 99.566 94.662 100.013 95.129C99.4796 95.4761 98.8613 95.6394 98.24 95.598H98.242ZM97.4312 101.976C97.2151 101.479 97.2256 100.913 97.4614 100.425C97.6916 99.9361 98.0922 99.5491 98.5883 99.3361C99.3675 98.9946 101.663 98.6469 102.204 99.889C102.745 101.131 100.933 102.58 100.152 102.921C99.8666 103.046 99.5585 103.112 99.2468 103.112C99.0231 103.112 98.8005 103.077 98.5878 103.009C98.0701 102.85 97.6479 102.473 97.4312 101.976ZM100.325 100.324C99.9109 100.317 99.4987 100.387 99.1096 100.531H99.1116C98.907 100.615 98.7401 100.772 98.6436 100.971C98.5637 101.12 98.5567 101.299 98.624 101.454C98.6919 101.609 98.8271 101.725 98.9905 101.768C99.2021 101.832 99.4293 101.816 99.6304 101.725C100.204 101.438 100.678 100.983 100.989 100.421C100.776 100.345 100.551 100.311 100.325 100.324Z" fill="#FFB61D"/>
<path fill-rule="evenodd" clip-rule="evenodd" d="M334.529 302.399C334.308 302.119 334.211 301.759 334.261 301.405C334.308 301.046 334.496 300.722 334.782 300.507C334.782 300.507 338.391 297.957 338.604 298.052C338.817 298.147 335.549 301.571 335.549 301.571C341.682 309.318 352.725 310.772 360.594 304.869C368.463 298.966 370.364 287.802 364.906 279.55L341.006 297.946C340.716 298.163 340.308 298.1 340.094 297.805C339.88 297.51 364.128 278.485 364.128 278.485C364.411 278.267 364.768 278.176 365.119 278.233C365.469 278.289 365.782 278.489 365.984 278.785C371.979 287.621 369.969 299.706 361.451 306.042C352.988 312.449 341.051 310.834 334.529 302.399ZM359.476 304.513C352.764 309.579 343.417 308.919 337.461 302.957C337.202 302.7 337.198 302.279 337.451 302.016C337.704 301.754 338.119 301.749 338.377 302.006C343.886 307.488 352.498 308.1 358.705 303.451C364.912 298.802 366.879 290.266 363.349 283.302C363.232 283.09 363.238 282.83 363.365 282.624C363.493 282.418 363.72 282.299 363.959 282.313C364.198 282.328 364.411 282.474 364.513 282.694C368.364 290.233 366.226 299.497 359.476 304.513ZM358.369 299.933C358.41 299.356 358.269 298.782 357.971 298.319C357.612 297.801 357.168 297.37 356.665 297.053C355.714 296.445 355.148 296.633 354.841 296.898C353.841 297.755 354.619 300.069 355.083 300.804C355.452 301.4 356.041 301.758 356.671 301.768C357.034 301.771 357.389 301.637 357.681 301.387C358.08 301.041 358.331 300.511 358.369 299.933ZM355.565 298.04C356.131 298.23 356.635 298.616 357.009 299.147C357.131 299.336 357.19 299.57 357.175 299.806C357.165 299.986 357.09 300.152 356.969 300.263C356.644 300.475 356.235 300.348 356.043 299.976C355.719 299.402 355.553 298.727 355.565 298.04ZM351.581 303.804C351.028 303.864 350.476 303.689 350.069 303.325C349.659 302.967 349.4 302.477 349.343 301.948C349.246 301.114 349.602 298.853 350.982 298.704C351.416 298.656 352.047 298.813 352.675 299.805C353.01 300.328 353.234 300.911 353.333 301.517C353.4 302.046 353.261 302.579 352.944 303.015C352.631 303.455 352.133 303.744 351.581 303.804ZM351.135 300.004C350.794 300.545 350.632 301.173 350.673 301.804C350.693 302.021 350.797 302.223 350.964 302.371C351.087 302.488 351.259 302.546 351.432 302.53C351.603 302.505 351.755 302.412 351.851 302.273C351.979 302.093 352.032 301.874 352.003 301.659C351.895 301.036 351.592 300.459 351.135 300.004ZM346.461 297.773C345.239 297.222 343.828 299.069 343.495 299.865V299.863C343.017 300.894 343.43 302.133 344.418 302.636C344.645 302.739 344.889 302.792 345.137 302.792C345.413 302.791 345.686 302.727 345.937 302.604C346.415 302.371 346.795 301.963 347.003 301.457C347.335 300.662 347.683 298.324 346.461 297.773ZM345.404 301.402C345.256 301.477 345.085 301.485 344.932 301.422C344.591 301.211 344.474 300.756 344.667 300.396C344.947 299.811 345.392 299.329 345.943 299.013C346.094 299.647 346.057 300.315 345.836 300.927C345.753 301.135 345.599 301.304 345.404 301.402ZM361.151 286.425C361.67 286.358 362.194 286.498 362.623 286.821C363.054 287.14 363.337 287.647 363.398 288.209C363.473 289.383 362.656 290.403 361.57 290.488C361.474 290.5 361.378 290.505 361.282 290.504C360.323 290.504 358.516 290.083 358.383 288.818C358.243 287.411 360.332 286.524 361.151 286.425ZM361.432 289.134C361.824 289.128 362.14 288.785 362.145 288.361C362.121 288.186 362.029 288.031 361.893 287.934C361.748 287.826 361.576 287.77 361.4 287.772C361.363 287.772 361.327 287.772 361.289 287.779C360.676 287.889 360.108 288.198 359.661 288.665C360.194 289.012 360.812 289.176 361.434 289.134H361.432ZM362.243 295.512C362.459 295.015 362.448 294.449 362.212 293.961C361.982 293.472 361.582 293.085 361.085 292.872C360.306 292.531 358.011 292.183 357.47 293.425C356.929 294.667 358.74 296.116 359.522 296.457C359.807 296.582 360.115 296.648 360.427 296.648C360.651 296.648 360.873 296.613 361.086 296.545C361.604 296.386 362.026 296.009 362.243 295.512ZM359.349 293.86C359.763 293.853 360.175 293.923 360.564 294.067H360.562C360.767 294.151 360.934 294.308 361.03 294.507C361.11 294.657 361.117 294.835 361.05 294.99C360.982 295.145 360.847 295.261 360.683 295.304C360.472 295.368 360.244 295.352 360.043 295.261C359.469 294.974 358.996 294.519 358.685 293.957C358.898 293.881 359.124 293.848 359.349 293.86Z" fill="#FFB61D"/>
<path d="M208.474 135.88C210.417 135.88 211.992 134.275 211.992 132.296C211.992 130.317 210.417 128.712 208.474 128.712C206.53 128.712 204.955 130.317 204.955 132.296C204.955 134.275 206.53 135.88 208.474 135.88Z" fill="#FFB61D"/>
<path fill-rule="evenodd" clip-rule="evenodd" d="M199.808 311.598C200.254 312.733 198.788 318.005 194.96 321.783C191.133 325.561 186.164 326.458 185.757 325.423C185.349 324.388 190.918 322.352 194.433 318.664C197.947 314.975 199.361 310.463 199.808 311.598Z" fill="#00160A"/>
</g>
</g>
<defs>
<filter id="filter0_d_48_49" x="0" y="0" width="427" height="434" filterUnits="userSpaceOnUse" color-interpolation-filters="sRGB">
<feFlood flood-opacity="0" result="BackgroundImageFix"/>
<feColorMatrix in="SourceAlpha" type="matrix" values="0 0 0 0 0 0 0 0 0 0 0 0 0 0 0 0 0 0 127 0" result="hardAlpha"/>
<feOffset dy="12"/>
<feGaussianBlur stdDeviation="12.5"/>
<feComposite in2="hardAlpha" operator="out"/>
<feColorMatrix type="matrix" values="0 0 0 0 0 0 0 0 0 0 0 0 0 0 0 0 0 0 0.16 0"/>
<feBlend mode="normal" in2="BackgroundImageFix" result="effect1_dropShadow_48_49"/>
<feBlend mode="normal" in="SourceGraphic" in2="effect1_dropShadow_48_49" result="shape"/>
</filter>
<clipPath id="clip0_48_49">
<rect x="25" y="13" width="377" height="384" rx="38" fill="white"/>
</clipPath>
</defs>
</svg>
