<svg width="445" height="452" viewBox="0 0 445 452" fill="none" xmlns="http://www.w3.org/2000/svg">
<g filter="url(#filter0_d_28_20)">
<path d="M411 20H34V404H411V20Z" fill="white"/>
<path fill-rule="evenodd" clip-rule="evenodd" d="M309.295 256.987C303.813 259.171 297.47 262.448 296.882 268.415C304.33 262.578 313.53 259.095 322.912 258.56C316.43 266.878 308.246 273.813 299.037 278.791C290.766 283.261 280.295 288.029 279.585 297.538C288.467 286.765 302.124 280.242 315.936 280.177C307.1 293.36 292.931 302.711 277.507 305.537C278.037 309.588 295.137 318.265 300.118 319.934C303.666 335.457 305.202 355.586 308.75 371.109C309.622 374.929 310.391 379.318 308.095 382.466C305.817 385.589 301.514 386.126 297.704 386.402C282.687 387.489 262.142 388.577 247.125 389.664C245.327 381.367 243.53 373.071 241.732 364.774C216.402 367.169 107.812 392.515 87.8844 379.219C10.9569 327.889 109.053 310.403 111.161 247.909C111.644 233.58 69.347 208.532 70.0186 193.89C70.4571 184.328 71.9102 174.989 76.5544 166.779C81.1986 158.57 88.558 152.246 96.5564 147.408C85.544 144.525 77.2031 133.344 77.4263 121.765C77.6495 110.186 86.4151 99.3472 97.5296 96.9071C92.2893 90.546 84.0377 87.6306 78.0105 82.0396C70.9893 75.5264 67.461 65.0202 70.0186 55.7046C72.5761 46.389 81.5811 39.0597 91.0693 39.4727C98.8626 39.8119 105.721 44.8327 111.161 50.5272C119.598 59.3586 125.873 70.3172 129.265 82.1456C131.526 90.0294 139.813 94.0399 146.812 98.12C153.811 102.2 161.078 109.307 159.106 117.271C156.499 106.373 195.244 119.354 230.382 122.532C235.048 122.954 240.069 123.567 243.518 126.796C248.474 131.434 255.915 133.126 262.337 131.075C264.38 136.234 265.884 142.03 264.146 147.304C262.41 152.579 256.257 156.605 251.339 154.185C252.623 160.912 253.907 167.64 255.19 174.367C267.765 174.521 280.338 174.783 292.909 175.152C299.571 175.347 306.535 175.656 312.326 179.018C318.116 182.38 325.866 177.617 331.588 165.38C327.885 185.348 332.272 193.326 339.838 195.496C339.854 195.345 340.442 195.417 340.459 195.266C342.711 175.533 355.857 158.013 374.152 151.082C372.534 154.879 360.959 162.38 352.92 171.958C345.069 181.313 341.311 193.838 340.922 196.088C353.388 192.758 357.545 202.218 378.696 193.89C369.031 205.725 350.406 208.64 337.699 200.304C331.704 207.115 332.039 214.655 327.792 222.715C335.006 213.582 344.586 221.679 336.986 227.598C341.02 227.993 345.381 228.534 348.306 231.389C351.232 234.245 351.305 240.255 347.531 241.758C334.786 246.834 322.041 251.911 309.295 256.987Z" fill="#7BF5D9"/>
<path fill-rule="evenodd" clip-rule="evenodd" d="M288.607 211.985C289.068 211.091 289.57 210.154 290.419 209.633C291.268 209.113 292.57 209.22 293.027 210.116C293.513 211.069 292.79 212.218 291.94 212.854C291.09 213.491 290.045 213.939 289.493 214.854C292.477 216.857 295.462 218.861 298.446 220.864C300.783 222.432 303.428 224.673 302.949 227.482C302.669 229.129 301.299 230.41 299.772 231.024C298.246 231.639 296.568 231.703 294.927 231.751C283.901 232.075 272.864 232.018 261.841 231.58C261.077 231.55 260.224 231.477 259.714 230.896C259.32 230.445 259.238 229.802 259.174 229.202C258.54 223.226 257.906 217.251 257.271 211.275C257.248 211.054 257.225 210.824 257.303 210.616C257.629 209.744 258.911 210.281 259.627 210.864C264.701 214.989 272.813 214.504 277.379 209.803C278.482 208.667 280.36 208.814 281.777 209.499C283.195 210.184 284.38 211.298 285.802 211.973C285.65 211.136 286.375 210.252 287.211 210.256C288.047 210.259 288.765 211.148 288.607 211.985Z" fill="white"/>
<path fill-rule="evenodd" clip-rule="evenodd" d="M111.048 146.031C111.048 146.031 109.816 131.004 112.916 126.174C116.016 121.343 127.826 119.889 127.826 119.889C127.826 119.889 160.193 119.458 177.681 120.139C195.169 120.82 230.144 123.873 230.144 123.873C230.144 123.873 234.689 124.882 236.732 126.174C238.775 127.465 241.624 131.13 241.624 131.13C241.624 131.13 247.825 132.051 250.91 132.176C253.994 132.301 256.821 131.747 256.821 131.747C256.821 131.747 260.752 143.424 257.973 148.991C255.193 154.557 245.862 153.694 245.862 153.694L249.165 174.525C249.165 174.525 245.238 176.415 243.092 178.785C240.946 181.156 240.084 184.554 240.084 184.554L246.463 247.909C246.463 247.909 248.339 251.202 252.37 252.453C256.401 253.704 265.483 253.81 265.483 253.81C265.483 253.81 265.159 260.198 265.483 262.948C265.807 265.697 266.095 267.203 266.095 267.203L272.932 317.06C272.932 317.06 266.287 318.292 259.711 319.917C253.135 321.542 240.084 325.178 240.084 325.178C240.084 325.178 235.483 327.314 234.887 330.764C234.291 334.213 236.732 344.58 236.732 344.58L163.464 350.269C163.464 350.269 156.334 350.405 153.882 348.832C151.429 347.258 150.757 342.114 150.757 342.114L140.847 251.325C140.847 251.325 125.011 251.72 120.386 249.031C115.761 246.34 115.201 236.411 115.201 236.411C115.201 236.411 115.97 230.782 115.201 226.876C114.945 225.573 111.595 211.445 110.471 198.003C109.834 190.396 118.621 184.554 118.621 184.554L111.048 146.031Z" fill="white"/>
<path fill-rule="evenodd" clip-rule="evenodd" d="M162.745 125.131C162.175 125.949 162.652 127.169 163.476 127.72C164.299 128.27 165.336 128.332 166.32 128.377C177.009 128.867 187.697 129.357 198.385 129.847C199.427 129.895 200.581 129.905 201.37 129.211C202.158 128.517 202.054 126.862 201.025 126.696C189.139 124.771 177.078 123.971 165.048 124.311C164.204 124.335 163.234 124.429 162.745 125.131Z" fill="#E7EAEE"/>
<path fill-rule="evenodd" clip-rule="evenodd" d="M210.301 203.163L207.524 189.886C207.524 189.886 207.394 192.624 205.924 193.737C204.453 194.851 201.545 194.413 201.545 194.413C201.545 194.413 201.085 185.142 203.131 182.319C205.178 179.496 207.194 182.162 211.082 181.259C214.966 180.357 214.161 177.385 218.675 178.708C223.188 180.032 226.523 189.87 226.523 189.87C226.523 189.87 222.984 191.078 221.478 190.768C219.973 190.459 220.34 188.598 220.34 188.598C220.34 188.598 219.272 188.136 219.544 191.398C219.677 192.982 220.854 195.365 221.478 198.483C221.711 199.643 221.478 202.252 221.478 202.252C221.478 202.252 217.462 202.669 213.992 203.426C210.521 204.183 210.301 203.163 210.301 203.163Z" fill="#E7EAEE"/>
<path fill-rule="evenodd" clip-rule="evenodd" d="M111.689 170.138C110.353 169.405 109.266 168.286 108.2 167.185C105.452 164.344 102.669 161.456 100.762 157.972C100.581 157.64 100.402 157.259 100.507 156.894C100.611 156.53 101.158 156.323 101.362 156.641C104.677 161.795 108.863 166.366 113.681 170.093C113.247 170.687 112.329 170.489 111.689 170.138Z" fill="#00160A"/>
<path fill-rule="evenodd" clip-rule="evenodd" d="M115.694 104.9C116.484 104.071 116.905 102.957 117.269 101.863C118.403 98.4518 119.175 94.9164 119.569 91.3375C119.64 90.6929 119.756 89.9505 120.305 89.6218C120.923 92.6908 120.158 95.8534 119.397 98.8885C118.729 101.557 117.988 104.358 116.092 106.321C115.9 106.52 115.655 106.722 115.386 106.677C115.022 106.615 114.876 106.122 115.006 105.77C115.136 105.419 115.437 105.17 115.694 104.9Z" fill="#00160A"/>
<path fill-rule="evenodd" clip-rule="evenodd" d="M306.306 131.666C306.681 131.563 307.064 131.865 307.228 132.225C307.392 132.584 307.404 132.992 307.477 133.382C307.762 134.903 309.108 136.151 310.622 136.297C310.81 136.744 310.393 137.191 310.063 137.543C309.312 138.343 308.838 139.408 308.742 140.51C308.679 141.226 308.531 142.221 307.827 142.212C307.26 142.204 307.011 141.506 306.807 140.968C306.308 139.652 305.184 138.6 303.854 138.206C303.575 138.123 303.458 137.76 303.535 137.474C303.612 137.189 303.824 136.966 304.027 136.754C304.901 135.841 305.787 134.761 305.777 133.486C305.772 132.797 305.652 131.844 306.306 131.666Z" fill="#FFB61D"/>
<path fill-rule="evenodd" clip-rule="evenodd" d="M332.775 251.373C331.602 252.601 331.187 254.522 331.745 256.137C331.127 256.419 330.665 255.551 330.359 254.936C329.901 254.013 329.033 253.31 328.047 253.063C329.475 252.145 330.365 250.417 330.293 248.698C330.868 248.317 331.511 249.111 331.676 249.79C331.841 250.468 332.089 251.349 332.775 251.373Z" fill="#E7EAEE"/>
<path fill-rule="evenodd" clip-rule="evenodd" d="M322.769 253.675C323.449 254.774 324.415 255.686 325.543 256.294C325.948 256.512 325.581 257.12 325.246 257.439C324.403 258.241 323.87 259.372 323.781 260.543C323.044 259.791 322.307 259.039 321.57 258.286C321.276 257.985 320.965 257.519 321.218 257.183C321.992 256.156 322.527 254.945 322.769 253.675Z" fill="#E7EAEE"/>
<path fill-rule="evenodd" clip-rule="evenodd" d="M273.532 121.346C274.202 116.995 275.824 112.719 278.672 109.405C281.521 106.092 285.679 103.83 290.003 103.833C294.327 103.837 298.694 106.331 300.491 110.337C301.421 112.41 301.649 114.743 301.586 117.022C301.465 121.354 300.323 125.654 298.282 129.456C296.44 132.885 293.794 135.97 290.358 137.709C286.922 139.449 282.64 139.682 279.299 137.759C276.654 136.237 274.804 133.504 273.922 130.542C273.041 127.581 273.06 124.403 273.532 121.346ZM299.96 118.054C300.038 115.356 299.601 112.57 298.208 110.274C297.362 108.879 296.175 107.698 294.786 106.867C290.305 104.191 284.205 105.629 280.483 109.32C276.761 113.012 275.148 118.467 274.981 123.756C274.893 126.577 275.191 129.47 276.368 132.025C277.546 134.58 279.701 136.766 282.385 137.468C285.896 138.386 289.603 136.657 292.356 134.254C296.951 130.245 299.782 124.213 299.96 118.054Z" fill="#FFB61D"/>
<path fill-rule="evenodd" clip-rule="evenodd" d="M317.782 118.325C317.067 119.277 316.319 120.528 316.868 121.588C317.064 121.968 316.556 122.409 316.152 122.29C315.748 122.17 315.518 121.735 315.41 121.32C315.303 120.905 315.267 120.461 315.052 120.093C314.836 119.725 314.345 119.469 313.988 119.696C313.48 119.634 313.427 118.854 313.723 118.428C314.018 118.002 314.504 117.709 314.685 117.222C314.829 116.835 314.752 116.402 314.82 115.995C314.888 115.588 315.229 115.153 315.621 115.257C315.608 115.973 315.689 116.715 316.046 117.332C316.402 117.949 317.084 118.41 317.782 118.325Z" fill="#FFB61D"/>
<path fill-rule="evenodd" clip-rule="evenodd" d="M253.818 116.915C254.377 116.253 255.08 115.687 255.904 115.445C256.727 115.204 257.683 115.332 258.327 115.909C259.027 116.537 259.247 117.586 259.098 118.524C258.949 119.462 258.484 120.314 257.996 121.123C257.362 122.173 256.673 123.189 255.934 124.166C255.703 124.47 255.45 124.785 255.096 124.921C254.629 125.1 254.108 124.926 253.647 124.73C252.028 124.04 250.523 123.073 249.216 121.882C248.019 120.791 246.914 119.192 247.399 117.632C247.709 116.637 248.653 115.919 249.665 115.765C250.677 115.611 251.727 115.975 252.532 116.619C252.917 116.927 253.499 117.294 253.818 116.915ZM248.704 117.493C247.94 118.564 248.77 120.065 249.733 120.955C250.935 122.065 252.362 122.884 253.776 123.695C253.958 123.799 254.161 123.907 254.364 123.862C254.546 123.822 254.681 123.671 254.801 123.526C255.758 122.37 256.616 121.128 257.361 119.819C257.934 118.813 258.355 117.334 257.432 116.649C256.701 116.107 255.637 116.544 255.017 117.214C254.398 117.885 254.008 118.76 253.331 119.37C252.803 118.522 252.241 117.64 251.384 117.142C250.527 116.645 249.284 116.68 248.704 117.493Z" fill="#FFB61D"/>
<path fill-rule="evenodd" clip-rule="evenodd" d="M242.869 87.6361C244.622 86.2445 246.571 85.1089 248.637 84.2753C249.904 83.7644 251.35 83.3712 252.602 83.9185C254.608 84.795 254.999 87.7298 253.944 89.6759C252.888 91.6225 250.886 92.8027 248.98 93.8871C245.242 96.0135 241.504 98.1398 237.767 100.266C238.503 98.7701 237.672 97.0134 236.992 95.4897C235.46 92.0583 234.659 88.291 234.658 84.5216C234.658 83.3307 234.745 82.1045 235.258 81.0344C235.771 79.9643 236.794 79.0765 237.963 79.0488C239.833 79.0038 241.077 80.9878 241.708 82.7813C242.26 84.3521 242.65 85.9824 242.869 87.6361ZM250.791 84.9082C247.768 85.5338 244.951 87.1538 242.864 89.467C242.659 89.6949 242.259 89.5945 242.071 89.3513C241.884 89.1081 241.847 88.7815 241.812 88.4743C241.576 86.4396 241.054 84.4392 240.265 82.5535C239.826 81.5029 239.09 80.3422 237.968 80.3237C237.137 80.3099 236.414 80.9878 236.107 81.7747C235.801 82.5617 235.827 83.4377 235.886 84.2825C236.213 88.9924 237.43 93.6373 239.45 97.8874C242.756 96.0001 246.063 94.1129 249.369 92.2257C250.401 91.6364 251.451 91.0332 252.253 90.148C253.055 89.2627 253.583 88.0329 253.35 86.8522C253.117 85.6711 251.95 84.6686 250.791 84.9082Z" fill="#FFB61D"/>
<path fill-rule="evenodd" clip-rule="evenodd" d="M219.731 320.936C229.382 319.816 239.096 319.252 248.809 319.248C250.591 319.248 252.141 317.838 252.865 316.179C253.588 314.521 253.646 312.651 253.647 310.835C253.651 304.092 253.028 297.367 252.406 290.653C252.154 287.931 251.902 285.209 251.65 282.486C251.496 280.834 251.334 279.145 250.651 277.639C249.466 275.025 246.842 273.325 244.108 272.593C241.374 271.86 238.5 271.96 235.675 272.066C226.295 272.416 216.915 272.766 207.535 273.115C212.942 271.096 218.831 271.001 224.59 270.929C229.005 270.874 233.42 270.82 237.835 270.764C242.347 270.708 247.504 270.939 250.382 274.479C252.242 276.766 252.653 279.898 252.964 282.851C253.942 292.147 254.659 301.474 255.113 310.812C255.264 313.907 255.142 317.544 252.668 319.347C251.284 320.356 249.489 320.507 247.792 320.624C237.455 321.338 227.118 322.05 216.781 322.764C214.354 322.931 211.797 323.074 209.613 321.982C208.855 321.602 208.076 320.744 208.483 319.99C211.843 321.853 215.93 321.378 219.731 320.936Z" fill="#00160A"/>
<path fill-rule="evenodd" clip-rule="evenodd" d="M178.852 171.8C179.045 172.095 179.089 172.462 179.128 172.815C179.219 173.635 179.309 174.456 179.4 175.276C179.507 176.25 179.529 177.427 178.737 177.983C178.314 178.279 177.769 178.303 177.257 178.317C166.474 178.614 155.691 178.91 144.909 179.207C144.215 179.226 143.412 179.196 142.987 178.637C142.72 178.287 142.679 177.815 142.654 177.372C142.575 175.981 142.554 174.587 142.588 173.193C142.594 172.981 142.606 172.753 142.735 172.587C142.89 172.387 143.163 172.338 143.41 172.304C154.552 170.767 165.843 170.361 177.063 171.094C177.726 171.138 178.483 171.238 178.852 171.8ZM178.409 177.138C177.313 176.535 178.417 174.769 178.019 173.568C177.676 172.536 176.377 172.292 175.309 172.23C165.142 171.64 154.922 172.008 144.821 173.327C144.449 173.376 144.036 173.448 143.81 173.754C143.587 174.055 143.627 174.473 143.678 174.847C143.757 175.426 143.835 176.004 143.914 176.583C143.976 177.039 144.071 177.551 144.447 177.806C144.72 177.991 145.07 177.989 145.398 177.981C156.402 177.7 167.405 177.419 178.409 177.138Z" fill="#00160A"/>
<path fill-rule="evenodd" clip-rule="evenodd" d="M199.135 191.244C199.186 190.026 199.237 188.806 199.289 187.587C199.389 185.21 199.511 182.744 200.596 180.638C201.68 178.53 204.022 176.893 206.295 177.44C207.717 177.783 209.028 178.921 210.458 178.616C211.704 178.349 212.467 177.096 213.519 176.366C216.027 174.629 219.522 176.243 221.596 178.497C223.831 180.927 225.284 184.091 225.682 187.396C225.715 187.677 225.733 187.992 225.555 188.209C225.408 188.389 225.168 188.452 224.944 188.504C224.081 188.706 223.217 188.907 222.354 189.108C221.619 189.28 220.856 189.452 220.118 189.296C219.379 189.14 218.67 188.56 218.611 187.795C218.39 192.074 221.536 196.162 220.66 200.353C220.334 200.172 220.008 199.99 219.682 199.809C220.451 195.606 216.773 191.537 217.542 187.334C217.643 186.777 217.862 186.186 218.35 185.915C218.838 185.645 219.611 185.952 219.591 186.518C219.561 187.424 220.521 188.1 221.411 188.093C222.301 188.085 223.11 187.599 223.87 187.128C224.141 186.96 224.067 186.545 223.954 186.243C223.113 183.995 222.007 181.85 220.667 179.868C219.761 178.529 218.671 177.205 217.166 176.661C215.661 176.117 213.674 176.672 213.12 178.197C212.472 179.982 210.022 180.102 208.223 179.588C206.424 179.073 204.404 178.27 202.799 179.244C201.457 180.059 201.008 181.796 200.756 183.366C200.325 186.062 200.126 188.795 200.162 191.526C200.235 191.942 200.757 192.077 201.172 192.066C203.36 192.008 205.392 190.25 205.802 188.059C206.392 188.75 206.603 189.686 206.793 190.581C207.454 193.679 208.115 196.777 208.775 199.875C208.978 200.829 208.741 202.295 207.798 202.121C207.371 198.742 206.738 195.39 205.904 192.091C204.328 192.456 202.752 192.821 201.176 193.186C200.692 193.298 200.151 193.401 199.728 193.138C199.144 192.774 199.106 191.941 199.135 191.244Z" fill="#00160A"/>
<path fill-rule="evenodd" clip-rule="evenodd" d="M245.243 275.387C246.048 276.275 244.798 277.913 245.535 278.86C245.917 279.351 245.644 280.13 245.138 280.486C244.632 280.842 243.983 280.89 243.368 280.927C232.809 281.551 222.249 282.176 211.69 282.802C210.972 282.844 210.114 282.819 209.722 282.206C209.551 281.937 209.509 281.607 209.473 281.29C209.376 280.463 209.28 279.636 209.183 278.81C209.153 278.55 209.126 278.272 209.246 278.041C209.443 277.661 209.933 277.578 210.355 277.54C221.453 276.542 232.563 275.699 243.684 275.01C244.236 274.976 244.868 274.973 245.243 275.387ZM244.031 276.783C243.997 276.579 243.952 276.356 243.792 276.228C243.632 276.101 243.409 276.111 243.207 276.126C233.361 276.857 223.515 277.588 213.669 278.319C212.873 278.378 212.047 278.446 211.352 278.845C210.657 279.244 210.133 280.077 210.342 280.861C210.406 281.104 210.544 281.335 210.755 281.465C211.014 281.625 211.338 281.614 211.641 281.597C222.036 281.022 232.431 280.448 242.827 279.874C244.063 279.805 244.24 278.026 244.031 276.783Z" fill="#00160A"/>
<path fill-rule="evenodd" clip-rule="evenodd" d="M253.575 265.756C255.444 270.765 256.04 276.158 256.621 281.485C257.97 293.859 259.318 306.233 260.668 318.608C259.664 318.692 259.201 317.379 259.076 316.361C257.033 299.712 256.375 282.847 252.919 266.441C253.138 266.213 253.356 265.984 253.575 265.756Z" fill="#00160A"/>
<path fill-rule="evenodd" clip-rule="evenodd" d="M193.287 179.559C192.996 179.432 193.002 178.97 193.225 178.741C193.448 178.514 193.786 178.458 194.099 178.418C196.447 178.114 198.815 177.966 201.181 177.975C201.056 179.004 199.752 179.304 198.735 179.352C197.027 179.432 195.319 179.513 193.611 179.593C193.502 179.598 193.387 179.603 193.287 179.559Z" fill="#00160A"/>
<path fill-rule="evenodd" clip-rule="evenodd" d="M206.533 305.399C206.338 301.716 206.143 298.033 205.948 294.35C205.423 284.437 204.882 274.422 202.173 264.886C201.827 263.668 201.432 262.432 200.665 261.434C198.747 258.934 195.196 258.646 192.081 258.646C180.07 258.647 168.06 259.81 156.265 262.116C155.066 262.35 153.82 262.619 152.864 263.391C151.344 264.618 150.943 266.775 150.802 268.745C150.544 272.342 150.8 275.976 151.557 279.499C151.123 279.425 150.69 279.352 150.257 279.278C148.667 275.906 147.943 272.116 148.175 268.383C148.276 266.763 148.569 265.112 149.389 263.719C151.429 260.254 155.918 259.423 159.861 258.993C169.867 257.901 179.91 257.166 189.965 256.789C194.013 256.637 198.587 256.753 201.365 259.755C202.762 261.266 203.47 263.295 204.025 265.292C205.955 272.228 206.487 279.475 207.01 286.664C207.521 293.689 208.031 300.714 208.542 307.738C208.662 309.389 208.781 311.066 208.453 312.687C207.384 317.971 201.86 321.185 196.601 321.824C191.342 322.462 186.048 321.238 180.753 321.149C173.631 321.028 166.468 322.957 159.445 321.752C157.422 321.405 155.271 320.675 154.159 318.919C153.387 317.701 153.248 316.191 153.131 314.747C152.297 304.558 151.464 294.37 150.631 284.181C150.575 283.499 151.074 282.482 151.588 282.923C152.507 292.736 153.425 302.55 154.343 312.364C154.468 313.692 154.603 315.059 155.209 316.243C156.089 317.96 157.865 319.052 159.706 319.538C161.547 320.024 163.477 319.985 165.379 319.959C173.425 319.852 181.475 320.057 189.507 320.571C192.193 320.743 194.907 320.948 197.56 320.49C200.213 320.03 202.846 318.827 204.493 316.658C206.838 313.571 206.74 309.297 206.533 305.399Z" fill="#00160A"/>
<path fill-rule="evenodd" clip-rule="evenodd" d="M192.878 175.575C193.627 174.98 192.997 173.761 193.145 172.805C193.353 171.454 195.005 170.989 196.34 170.832C204.913 169.823 213.547 169.346 222.177 169.404C222.895 169.409 223.744 169.49 224.106 170.122C224.54 170.881 224.135 172.205 224.957 172.471C225.343 172.595 225.838 172.365 226.13 172.65C226.614 173.121 225.713 173.759 225.047 173.82C214.947 174.743 204.826 175.418 194.694 175.846C194.074 175.872 193.417 175.888 192.878 175.575ZM223.046 171.315C222.81 170.711 222.021 170.623 221.383 170.632C213.246 170.759 205.113 171.168 197.004 171.861C196.054 171.942 194.931 172.144 194.535 173.028C194.345 173.53 194.708 174.108 195.187 174.336C195.666 174.565 196.22 174.535 196.748 174.501C204.848 173.978 212.949 173.454 221.049 172.931C221.548 172.899 222.068 172.86 222.498 172.601C222.927 172.341 223.23 171.788 223.046 171.315Z" fill="#00160A"/>
<path fill-rule="evenodd" clip-rule="evenodd" d="M233.966 292.39C235.216 293.401 234.681 295.616 235.768 296.807C236.273 297.36 237.03 297.576 237.742 297.788C238.2 297.924 238.766 298.267 238.621 298.729C238.472 299.203 237.794 299.126 237.34 298.945C235.855 298.353 234.181 297.368 234.099 295.746C234.039 294.562 233.694 293.394 233.102 292.374C233.268 292.086 233.71 292.183 233.966 292.39Z" fill="#00160A"/>
<path fill-rule="evenodd" clip-rule="evenodd" d="M239.873 309.163C239.466 303.826 239.059 298.488 238.652 293.15C238.592 292.366 238.524 291.552 238.142 290.868C237.761 290.184 236.971 289.668 236.225 289.873C232.849 290.795 229.344 291.222 225.85 291.138C222.795 291.065 219.668 290.61 216.729 291.462C216.784 292.945 216.839 294.427 216.893 295.909C216.909 296.342 216.933 296.802 217.175 297.158C217.853 298.157 219.536 297.395 219.918 296.245C220.3 295.095 219.955 293.837 220.021 292.624C220.032 292.41 220.075 292.165 220.254 292.052C220.635 291.81 221.002 292.387 221.1 292.833C221.38 294.112 221.66 295.451 221.329 296.718C220.998 297.984 219.844 299.132 218.568 298.964C217.246 298.791 216.705 300.631 216.673 301.989C216.609 304.699 216.545 307.408 216.481 310.117C216.461 310.97 216.763 312.148 217.594 312.052C219.743 311.804 221.891 311.556 224.039 311.308C224.558 311.248 225.117 311.195 225.573 311.454C226.03 311.712 226.272 312.417 225.898 312.788C223.374 313.013 220.851 313.239 218.328 313.464C217.591 313.53 216.826 313.592 216.131 313.335C215.436 313.077 214.83 312.404 214.893 311.653C215.514 304.282 215.653 296.87 215.309 289.48C215.235 287.909 217.115 287.11 218.634 286.821C223.455 285.9 228.37 285.501 233.273 285.632C234.916 285.676 236.708 285.842 237.9 286.995C239.114 288.17 239.351 290.02 239.519 291.716C240.146 298.075 240.773 304.433 241.4 310.791C241.434 311.134 241.442 311.541 241.173 311.75C241.012 311.875 240.797 311.888 240.595 311.897C238.502 311.985 236.41 312.074 234.318 312.163C233.209 312.21 232.016 312.234 231.094 311.607C230.461 311.176 230.042 310.493 229.675 309.815C228.792 308.186 228.088 306.459 227.577 304.674C226.777 306.715 226.27 308.874 226.078 311.063C225.067 311.175 224.879 309.63 225.114 308.622C225.599 306.542 226.085 304.463 226.57 302.383C226.643 302.066 226.761 301.699 227.066 301.602C227.514 301.458 227.858 302.004 228.022 302.453C228.706 304.324 229.389 306.194 230.073 308.064C230.661 309.674 232.357 310.642 234.032 310.84C235.707 311.039 237.385 310.609 239.019 310.183C239.342 310.099 239.709 309.977 239.835 309.662C239.897 309.506 239.885 309.331 239.873 309.163ZM217.111 289.62C218.626 289.64 220.141 289.66 221.656 289.68C222.795 289.695 223.933 289.71 225.071 289.688C229.18 289.609 233.28 289.048 237.264 288.019C236.375 287.09 234.95 287.038 233.677 287.061C229.12 287.144 224.566 287.414 220.031 287.87C218.817 287.992 217.308 288.394 217.111 289.62Z" fill="#00160A"/>
<path fill-rule="evenodd" clip-rule="evenodd" d="M210.331 285.624C210.244 285.141 210.858 284.878 211.334 284.802C216.831 283.935 222.402 283.551 227.963 283.658C228.043 283.659 228.125 283.661 228.199 283.692C228.46 283.803 228.448 284.222 228.24 284.418C228.033 284.614 227.728 284.647 227.446 284.669C222.15 285.073 216.777 284.865 211.588 286.019C211.106 286.126 210.419 286.118 210.331 285.624Z" fill="#00160A"/>
<path fill-rule="evenodd" clip-rule="evenodd" d="M333.26 274.031C333.563 273.302 333.898 272.532 334.542 272.088C335.086 271.714 335.767 271.632 336.419 271.559C338.355 271.345 340.29 271.131 342.225 270.917C343.182 270.811 344.418 270.401 344.381 269.421C344.264 266.256 344.504 262.611 346.972 260.686C349.23 258.924 352.611 259.407 354.927 261.088C357.244 262.768 358.712 265.386 359.978 267.981C360.538 269.13 362.073 269.339 363.314 269.117C364.555 268.896 365.813 268.399 367.037 268.702C368.921 269.167 369.874 271.264 370.521 273.126C373.771 282.47 375.978 292.211 380.02 301.228C381.532 304.601 381.054 308.81 378.825 311.741C378.55 309.413 378.933 307.009 379.916 304.889C380.38 303.89 378.837 303.233 377.753 303.236C366.701 303.265 355.603 303.297 344.674 304.967C344.34 305.018 343.985 305.081 343.736 305.313C343.494 305.538 343.4 305.88 343.316 306.203C342.978 307.515 342.639 308.825 342.3 310.137C342.087 310.958 342.221 312.233 343.05 312.148C353.867 311.032 364.742 310.5 375.613 310.554C376.757 310.56 378.318 311.022 378.169 312.177C366.588 312.316 354.964 312.459 343.507 314.195C341.683 314.472 340.424 312.171 340.63 310.304C340.837 308.437 341.888 306.763 342.184 304.909C342.44 303.311 342.121 301.681 341.777 300.1C341.23 297.587 340.62 295.088 339.946 292.608C339.289 290.187 338.571 287.783 337.853 285.38C336.768 281.745 335.682 278.11 334.597 274.475C333.104 276.702 332.439 279.489 332.762 282.165C332.987 284.028 333.665 285.798 334.173 287.603C334.9 290.182 335.281 292.847 335.66 295.503C336.407 300.733 337.155 305.964 337.902 311.195C338.012 311.964 337.795 313.099 337.039 312.985C333.68 302.401 334.603 290.7 330.639 280.336C331.512 278.234 332.386 276.133 333.26 274.031ZM358.276 275.951C359.37 275.331 359.937 273.883 359.562 272.666C359.187 271.449 357.909 270.591 356.663 270.72C353.607 271.035 350.551 271.351 347.496 271.666C347.213 271.695 346.897 271.743 346.728 271.974C346.594 272.157 346.592 272.404 346.604 272.631C346.686 274.053 347.17 275.45 347.985 276.608C348.618 277.508 349.493 278.585 348.999 279.571C348.381 280.803 346.352 280.112 345.849 278.828C345.346 277.543 345.704 276.093 345.61 274.713C345.517 273.333 344.543 271.745 343.203 271.974C341.007 272.351 338.811 272.727 336.614 273.104C336.299 273.158 335.888 273.357 335.98 273.668C338.655 282.685 341.329 291.702 344.004 300.719C344.337 301.843 345.088 303.234 346.21 302.967C356.512 300.517 367.374 302.834 377.834 301.224C374.7 291.216 371.458 281.244 368.108 271.31C368.009 271.017 367.897 270.705 367.652 270.522C367.38 270.319 367.014 270.326 366.677 270.34C365.108 270.408 363.539 270.476 361.97 270.543C361.35 270.57 360.503 270.871 360.639 271.489C361.066 273.425 361.492 275.361 361.919 277.297C361.992 277.63 362.064 277.987 361.942 278.305C361.61 279.17 360.359 278.952 359.524 278.577C358.977 278.332 358.401 278.062 358.063 277.56C357.724 277.057 357.752 276.247 358.276 275.951ZM354.232 261.905C353.028 261.006 351.446 260.357 350.058 260.914C349.574 261.108 349.153 261.434 348.74 261.756C348.005 262.33 347.247 262.93 346.812 263.764C346.409 264.539 346.325 265.441 346.25 266.316C346.184 267.081 346.118 267.845 346.052 268.609C346.011 269.083 345.995 269.628 346.332 269.957C346.656 270.273 347.164 270.25 347.61 270.207C350.806 269.898 354.002 269.588 357.199 269.278C357.654 269.234 358.21 269.108 358.331 268.658C358.378 268.481 358.34 268.292 358.297 268.113C357.708 265.646 356.241 263.406 354.232 261.905ZM353.035 269.992C352.713 270.085 353.071 270.699 353.305 270.456C353.604 270.331 353.272 269.759 353.02 269.965L353.035 269.992Z" fill="#FFB61D"/>
<path fill-rule="evenodd" clip-rule="evenodd" d="M251.703 196.809C251.647 196.619 251.759 196.42 251.89 196.272C252.534 195.55 253.612 195.497 254.569 195.494C260.377 195.481 266.185 195.467 271.992 195.453C272.401 195.452 272.838 195.46 273.172 195.701C273.505 195.941 273.636 196.508 273.315 196.767C273.145 196.904 272.91 196.913 272.693 196.915C265.946 196.992 259.199 197.068 252.452 197.144C252.159 197.147 251.787 197.097 251.703 196.809Z" fill="#00160A"/>
<path fill-rule="evenodd" clip-rule="evenodd" d="M253.856 202.917C253.506 202.711 253.554 202.137 253.848 201.855C254.143 201.574 254.572 201.508 254.972 201.458C257.377 201.163 259.794 201.001 262.21 200.839C263.541 200.75 264.872 200.66 266.203 200.571C267.934 200.455 269.665 200.339 271.395 200.222C271.945 200.186 272.559 200.17 272.973 200.54C273.387 200.91 273.286 201.801 272.736 201.835C266.628 202.221 260.52 202.606 254.412 202.992C254.222 203.004 254.02 203.013 253.856 202.917Z" fill="#00160A"/>
<path fill-rule="evenodd" clip-rule="evenodd" d="M286.596 210.961C287.058 210.067 287.559 209.13 288.408 208.61C289.257 208.089 290.559 208.196 291.017 209.092C291.503 210.045 290.779 211.194 289.929 211.831C289.079 212.467 288.034 212.915 287.482 213.83C290.467 215.833 293.451 217.837 296.435 219.84C298.773 221.409 301.417 223.649 300.939 226.458C300.658 228.105 299.288 229.386 297.761 230C296.235 230.615 294.557 230.679 292.916 230.727C281.89 231.051 270.853 230.994 259.831 230.556C259.066 230.526 258.213 230.454 257.703 229.872C257.309 229.421 257.227 228.778 257.164 228.178C256.529 222.203 255.895 216.227 255.26 210.251C255.237 210.03 255.215 209.8 255.292 209.592C255.618 208.72 256.9 209.257 257.616 209.84C262.69 213.965 270.802 213.48 275.368 208.779C276.471 207.643 278.349 207.79 279.766 208.475C281.184 209.16 282.37 210.274 283.791 210.949C283.639 210.112 284.364 209.228 285.2 209.232C286.036 209.235 286.754 210.125 286.596 210.961ZM287.22 214.81C286.858 213.454 284.89 213.17 283.805 214.038C282.72 214.906 282.368 216.418 282.274 217.819C282.239 218.343 281.394 218.395 281.105 217.961C280.815 217.528 280.933 216.943 281.093 216.445C281.517 215.131 282.17 213.893 283.012 212.807C283.429 212.27 282.818 211.543 282.267 211.149C280.326 209.759 277.577 208.387 275.796 209.985C270.916 214.363 263.132 214.946 257.676 211.343C257.741 215.828 258.066 220.31 258.647 224.757C258.706 225.205 258.781 225.683 259.085 226.013C259.487 226.449 260.145 226.479 260.732 226.48C270.211 226.492 279.69 226.504 289.169 226.517C290.091 226.518 291.345 226.182 291.273 225.246C291.106 223.066 292.053 220.828 293.724 219.456C292.41 218.484 291.095 217.511 289.781 216.538C289.379 216.241 288.96 215.937 288.471 215.851C286.996 215.594 286.011 217.316 285.489 218.745C284.69 217.289 285.621 215.171 287.22 214.81ZM262.447 229.694C272.317 229.773 282.189 229.756 292.059 229.644C294.862 229.612 298.133 229.322 299.653 226.924C286.023 227.534 272.373 227.685 258.733 227.376C258.564 229.044 260.801 229.681 262.447 229.694ZM296.227 220.733C295.934 220.543 295.63 220.349 295.287 220.289C294.254 220.109 293.438 221.16 292.99 222.125C292.73 222.683 292.504 223.258 292.314 223.845C292.17 224.292 292.045 224.767 292.136 225.228C292.227 225.689 292.598 226.126 293.06 226.131C294.738 226.151 296.417 226.133 298.095 226.077C298.49 226.064 298.921 226.035 299.217 225.768C299.566 225.453 299.608 224.91 299.521 224.444C299.205 222.756 297.652 221.652 296.227 220.733ZM290.298 209.818C290.28 209.298 289.597 209.033 289.126 209.234C288.654 209.435 288.364 209.913 288.104 210.362C287.791 210.905 287.478 211.448 287.165 211.991C287.001 212.275 286.911 212.76 287.228 212.831C288.061 212.125 288.894 211.42 289.728 210.714C290.007 210.478 290.311 210.188 290.298 209.818ZM284.898 210.667C284.756 211.369 285.11 212.145 285.728 212.487C285.942 211.764 285.816 210.945 285.396 210.323C285.37 210.147 285.135 210.045 284.993 210.148C284.883 210.29 284.844 210.486 284.89 210.66L284.898 210.667Z" fill="#00160A"/>
<path fill-rule="evenodd" clip-rule="evenodd" d="M250.96 189.963C250.71 188.729 250.459 187.493 250.208 186.258C250.111 185.778 250.022 185.245 250.269 184.824C250.606 184.251 251.377 184.174 252.033 184.163C268.145 183.877 284.262 183.94 300.371 184.35C301.47 184.378 302.373 185.345 302.707 186.411C303.041 187.478 302.931 188.63 302.818 189.743C302.757 190.345 302.659 191.017 302.188 191.385C301.802 191.686 301.275 191.694 300.788 191.689C284.608 191.509 268.429 191.329 252.248 191.149C251.982 191.146 251.7 191.139 251.475 190.994C251.145 190.783 251.039 190.352 250.96 189.963ZM253.185 185.246C251.994 185.237 251.15 186.678 251.447 187.853C251.745 189.028 252.859 189.836 254.017 190.122C255.174 190.407 256.386 190.27 257.572 190.157C272.183 188.765 286.959 191.424 301.56 189.924C301.637 189.019 301.71 188.083 301.424 187.223C301.138 186.363 300.392 185.593 299.5 185.586C284.062 185.473 268.624 185.36 253.185 185.246Z" fill="#00160A"/>
<path fill-rule="evenodd" clip-rule="evenodd" d="M153.81 225.743C153.27 226.784 152.527 227.842 151.412 228.151C149.288 228.741 147.532 226.34 146.953 224.177C146.048 220.801 146.277 217.12 147.593 213.887C148.297 212.157 147.71 210.112 146.606 208.615C144.525 205.79 140.642 204.553 137.306 205.514C133.97 206.475 131.337 209.498 130.639 212.957C130.529 213.499 130.607 214.259 131.144 214.336C133.826 214.719 135.057 217.924 135.465 220.65C135.777 222.732 135.912 224.913 135.219 226.897C134.525 228.881 132.829 230.623 130.768 230.783C128.918 229.514 127.525 227.569 126.904 225.387C125.748 221.33 127.249 217.028 128.799 213.109C129.745 210.718 130.759 208.268 132.556 206.452C136.396 202.569 143.567 203.03 146.898 207.374C148.179 209.045 148.914 211.121 150.334 212.671C151.404 213.84 152.819 214.658 153.795 215.909C155.916 218.626 155.4 222.673 153.81 225.743ZM128.078 218.242C127.106 220.971 127.377 224.132 128.799 226.648C129.032 227.062 129.31 227.473 129.718 227.707C130.127 227.941 130.696 227.945 131.018 227.599C131.985 226.563 132.106 224.997 132.103 223.568C132.099 221.878 131.997 220.188 131.797 218.51C131.715 217.823 131.575 217.064 131.03 216.651C130.485 216.239 129.461 216.584 129.547 217.27C129.796 219.268 130.045 221.265 130.294 223.262C130.351 223.716 130.401 224.208 130.177 224.605C129.954 225.002 129.336 225.187 129.053 224.831C128.32 223.307 128.099 221.533 128.435 219.871C128.556 219.273 128.639 218.455 128.078 218.242ZM150.524 226.161C150.772 225.964 150.888 225.644 150.98 225.339C151.707 222.934 151.715 220.31 151.002 217.901C150.731 216.985 149.997 215.914 149.108 216.22C148.594 216.397 148.333 216.971 148.17 217.498C147.426 219.892 147.525 222.549 148.444 224.879C148.621 225.325 148.838 225.777 149.212 226.072C149.585 226.367 150.152 226.457 150.524 226.161ZM133.072 217.52C133.72 220.864 133.582 224.364 132.674 227.645C132.59 227.947 132.926 228.182 133.208 228.309C134.571 224.942 134.744 221.088 133.688 217.608C133.512 217.481 133.275 217.447 133.072 217.52ZM151.985 216.617C151.783 216.944 151.582 217.271 151.38 217.599C152.044 217.484 152.348 218.407 152.383 219.092C152.466 220.675 152.548 222.257 152.63 223.84C153.248 223.604 153.36 222.778 153.371 222.105C153.398 220.59 153.423 219.076 153.449 217.562C153.227 217.535 153.004 217.509 152.781 217.482C152.758 217.053 152.403 216.667 151.985 216.617Z" fill="#00160A"/>
<path fill-rule="evenodd" clip-rule="evenodd" d="M224.872 219.489C220.443 219.274 215.994 219.47 211.599 220.073C211.21 220.127 210.775 220.172 210.463 219.93C210.15 219.688 210.184 219.047 210.574 219.003C214.969 218.511 219.383 218.195 223.803 218.055C224.283 218.04 224.822 218.048 225.164 218.392C225.506 218.736 225.353 219.513 224.872 219.489Z" fill="#00160A"/>
<path fill-rule="evenodd" clip-rule="evenodd" d="M121.978 201.474C123.235 201.353 124.493 201.233 125.75 201.113C126.384 201.052 127.017 200.992 127.651 200.931C131.68 200.546 135.71 200.16 139.742 199.817C139.901 199.804 140.066 199.791 140.213 199.853C140.65 200.038 140.582 200.756 140.202 201.042C139.822 201.327 139.307 201.311 138.835 201.295C132.896 201.094 126.976 202.912 121.064 202.297C120.68 202.257 120.178 202.055 120.245 201.668C120.821 201.584 121.4 201.529 121.978 201.474Z" fill="#00160A"/>
<path fill-rule="evenodd" clip-rule="evenodd" d="M257.418 334.419C257.221 332.657 257.079 330.74 255.916 329.421C255.023 328.408 255.485 326.526 256.74 326.06C257.995 325.594 259.538 326.732 259.494 328.092C259.479 328.559 259.312 329.005 259.183 329.453C258.295 332.513 259.119 335.805 260.204 338.798C261.302 341.829 262.983 345.056 266.001 346.052C269.491 347.205 273.354 344.654 274.902 341.265C276.449 337.875 276.214 333.94 275.673 330.243C275.619 329.872 275.521 329.444 275.187 329.287C273.829 328.648 273.623 326.405 274.841 325.521C276.059 324.637 278.074 325.568 278.223 327.084C278.274 327.598 278.145 328.11 278.049 328.617C277.382 332.138 278.264 335.829 277.533 339.336C277.075 341.533 275.978 343.587 274.416 345.171C272.759 346.85 270.522 348.008 268.185 348.049C265.039 348.103 262.096 346.115 260.317 343.47C258.539 340.826 257.776 337.604 257.418 334.419Z" fill="#00160A"/>
<path fill-rule="evenodd" clip-rule="evenodd" d="M165.655 189.771C165.743 190.978 165.826 192.221 165.457 193.372C165.088 194.522 164.15 195.57 162.966 195.673C156.864 196.208 150.761 196.742 144.648 197.111C136.312 197.613 127.96 197.807 119.612 198C119.313 198.007 118.995 198.009 118.746 197.841C118.373 197.59 118.304 197.072 118.269 196.618C118.179 195.429 118.088 194.24 117.998 193.052C117.971 192.69 117.95 192.3 118.141 191.994C118.421 191.546 119.021 191.469 119.542 191.437C134.897 190.51 150.274 189.955 165.655 189.771ZM163.087 193.941C164.067 193.875 164.266 192.302 163.547 191.619C162.827 190.937 161.735 190.921 160.752 190.947C148.115 191.267 135.473 191.587 122.861 192.46C121.952 192.523 121.007 192.6 120.222 193.069C119.437 193.539 118.871 194.525 119.17 195.401C119.596 196.645 121.244 196.781 122.535 196.694C136.052 195.776 149.569 194.859 163.087 193.941Z" fill="#00160A"/>
<path fill-rule="evenodd" clip-rule="evenodd" d="M149.966 219.81C149.978 220.138 149.99 220.464 150.002 220.791C150.027 221.472 150.052 222.157 149.956 222.831C149.118 222.74 148.858 221.642 148.809 220.786C148.786 220.378 148.778 219.923 149.046 219.619C149.314 219.316 149.951 219.402 149.966 219.81Z" fill="#00160A"/>
<path fill-rule="evenodd" clip-rule="evenodd" d="M210.303 222.597C211.125 221.824 212.375 221.848 213.493 221.881C217.031 221.983 220.58 221.704 224.061 221.051C224.472 220.974 224.693 221.625 224.437 221.96C224.181 222.296 223.719 222.366 223.304 222.409C219.381 222.816 215.441 223.057 211.498 223.131C211.028 223.14 210.432 223.058 210.303 222.597Z" fill="#00160A"/>
<path fill-rule="evenodd" clip-rule="evenodd" d="M342.39 236.109C342.002 237.445 340.713 238.272 339.484 238.884C333.331 241.95 326.098 242.7 319.466 240.961C317.238 240.377 314.699 239.027 314.604 236.685C314.534 234.964 315.882 233.522 317.311 232.599C319.502 231.185 322.056 230.47 324.603 229.966C329.516 228.994 334.842 228.793 339.289 231.131C341.152 232.111 342.984 234.061 342.39 236.109ZM316.123 236.425C316.127 238.316 318.198 239.423 319.993 239.903C326.229 241.569 333.05 240.85 338.818 237.919C339.744 237.448 340.721 236.828 341.015 235.818C341.41 234.461 340.378 233.094 339.232 232.293C335.786 229.88 331.226 230.21 327.068 230.664C323.721 231.029 320.155 231.505 317.604 233.741C316.816 234.432 316.121 235.366 316.123 236.425Z" fill="#00160A"/>
<path fill-rule="evenodd" clip-rule="evenodd" d="M161.363 125.356C161.153 124.141 161.976 122.933 163.037 122.336C164.097 121.739 165.347 121.624 166.556 121.551C177.341 120.905 188.108 122.669 198.896 123.249C200.284 123.324 201.749 123.402 202.916 124.17C204.085 124.938 204.77 126.663 203.962 127.815C203.571 128.372 202.925 128.682 202.284 128.889C200.435 129.484 198.45 129.405 196.512 129.32C186.427 128.878 176.342 128.436 166.256 127.995C164.254 127.908 161.71 127.367 161.363 125.356ZM162.747 123.595C162.177 124.413 162.654 125.633 163.478 126.184C164.301 126.734 165.338 126.796 166.322 126.841C177.01 127.331 187.699 127.821 198.387 128.311C199.429 128.359 200.582 128.369 201.372 127.675C202.16 126.981 202.056 125.326 201.027 125.159C189.141 123.235 177.08 122.435 165.05 122.775C164.205 122.799 163.236 122.893 162.747 123.595Z" fill="#00160A"/>
<path fill-rule="evenodd" clip-rule="evenodd" d="M279.62 114.808C281.261 111.326 283.921 107.737 287.702 107.44C290.22 107.242 292.892 107.691 294.885 109.271C298.499 112.138 298.751 117.695 297.459 122.172C295.937 127.449 292.539 132.336 287.665 134.702C286.502 135.267 285.238 135.689 283.951 135.637C280.532 135.501 278.041 132.079 277.305 128.675C276.296 124.009 277.591 119.115 279.62 114.808ZM283.873 134.363C286.401 134.714 288.782 133.074 290.566 131.216C293.908 127.733 296.152 123.173 296.891 118.361C297.104 116.975 297.193 115.536 296.822 114.184C296.094 111.525 293.619 109.604 290.964 109.051C288.41 108.519 285.604 109.154 283.636 110.893C282.69 111.73 281.955 112.786 281.313 113.882C279.221 117.457 278.032 121.616 278.177 125.775C278.243 127.654 278.593 129.564 279.527 131.186C280.46 132.808 282.044 134.11 283.873 134.363Z" fill="#FFB61D"/>
<path fill-rule="evenodd" clip-rule="evenodd" d="M196.726 262.579C197.063 262.561 197.423 262.549 197.708 262.732C198.059 262.959 198.188 263.409 198.289 263.82C198.511 264.72 198.734 265.656 198.556 266.566C198.377 267.475 197.672 268.349 196.763 268.39C194.441 268.493 192.12 268.596 189.8 268.699C188.889 268.74 187.823 268.872 187.371 269.678C187.064 270.224 187.156 270.901 187.256 271.522C187.541 273.281 188.345 275.504 190.094 275.439C191.257 275.396 192.294 276.296 192.794 277.366C193.295 278.437 193.37 279.655 193.436 280.838C193.499 281.952 193.22 283.475 192.124 283.503C191.241 283.525 190.997 284.741 191.026 285.641C191.221 291.898 191.416 298.155 191.611 304.411C191.642 305.419 190.374 305.843 189.389 305.945C181.132 306.794 172.79 306.771 164.538 305.878C164.242 305.846 163.864 305.728 163.857 305.425C163.705 298.355 163.552 291.286 163.399 284.216C163.39 283.804 163.192 283.234 162.801 283.343C161.572 283.685 160.335 282.523 160.08 281.25C159.826 279.978 160.263 278.679 160.693 277.457C160.892 276.892 161.115 276.293 161.591 275.938C162.608 275.183 164.486 275.721 164.942 274.526C165.017 274.328 165.032 274.112 165.024 273.9C164.961 272.053 163.273 270.597 161.495 270.232C159.717 269.867 157.884 270.347 156.153 270.897C155.756 269.372 155.654 267.767 155.855 266.203C155.903 265.834 155.976 265.446 156.22 265.169C156.567 264.772 157.146 264.717 157.666 264.689C170.686 263.986 183.706 263.283 196.726 262.579ZM162.012 276.903C161.762 277.199 161.707 277.612 161.661 278C161.544 279.012 161.426 280.023 161.309 281.034C161.284 281.247 161.261 281.472 161.345 281.668C161.525 282.089 162.07 282.161 162.521 282.173C164.911 282.233 167.301 282.293 169.691 282.354C170.095 282.364 170.517 282.37 170.875 282.181C171.451 281.877 171.688 281.051 171.363 280.48C171.655 280.449 171.947 280.419 172.24 280.388C172.111 281.27 172.993 282.009 173.86 282.139C174.726 282.268 175.597 281.999 176.469 281.928C178.3 281.781 180.127 282.513 181.95 282.293C182.142 282.27 182.347 282.229 182.481 282.088C182.657 281.903 182.653 281.613 182.639 281.356C182.57 280.124 182.5 278.891 182.431 277.658C182.41 277.27 182.377 276.852 182.132 276.554C181.783 276.128 181.156 276.115 180.611 276.137C177.98 276.241 175.348 276.344 172.717 276.448C172.533 276.455 172.33 276.471 172.203 276.606C172.06 276.757 172.07 276.995 172.089 277.204C172.178 278.163 172.266 279.123 172.355 280.082C172.005 280.116 171.663 280.22 171.352 280.386C171.274 279.631 171.197 278.875 171.119 278.119C171.048 277.429 170.783 276.547 170.103 276.538C167.931 276.508 165.76 276.479 163.588 276.449C163.023 276.441 162.381 276.467 162.012 276.903ZM174.525 284.339C174.489 283.83 174.272 283.157 173.774 283.211C170.677 283.55 167.543 283.531 164.45 283.154C164.527 290.017 164.652 296.881 164.827 303.743C164.849 304.626 165.944 304.98 166.807 305.07C169.37 305.338 171.95 305.429 174.526 305.343C174.737 305.336 174.965 305.321 175.126 305.182C175.338 304.999 175.351 304.677 175.348 304.394C175.275 297.703 175 291.014 174.525 284.339ZM190.012 283.961C189.928 283.813 189.735 283.782 189.567 283.768C186.903 283.538 184.225 283.474 181.553 283.575C181.311 283.584 181.052 283.601 180.86 283.752C180.569 283.981 180.551 284.414 180.559 284.789C180.706 291.64 180.854 298.491 181.001 305.342C183.943 305.631 186.937 305.348 189.776 304.512C189.953 304.46 190.14 304.399 190.254 304.252C190.378 304.093 190.386 303.875 190.388 303.674C190.444 299.266 190.332 294.858 190.22 290.452C190.168 288.375 190.115 286.299 190.062 284.224C190.06 284.134 190.057 284.039 190.012 283.961ZM156.978 266.594C156.468 267.412 157.017 268.567 157.856 269.024C158.696 269.481 159.701 269.437 160.652 269.381C166.401 269.041 172.15 268.702 177.899 268.363C183.382 268.039 188.865 267.715 194.339 267.262C195.14 267.195 195.983 267.112 196.645 266.647C197.308 266.182 197.692 265.2 197.248 264.517C196.803 263.832 195.844 263.8 195.038 263.842C183.092 264.47 171.147 265.098 159.2 265.725C158.375 265.769 157.422 265.884 156.978 266.594ZM179.957 305.182C179.553 298.494 179.473 291.786 179.718 285.091C179.732 284.706 179.744 284.306 179.593 283.953C179.154 282.923 177.738 282.926 176.648 283.097C176.149 283.176 175.512 283.419 175.55 283.931C176.017 290.336 176.485 296.751 176.38 303.172C176.366 304.022 176.844 304.862 177.575 305.273C178.306 305.684 179.259 305.647 179.957 305.182ZM192.295 280.493C192.153 279.61 192.005 278.706 191.582 277.921C191.159 277.137 190.401 276.479 189.523 276.435C187.855 276.35 186.186 276.265 184.519 276.181C184.084 276.159 183.484 276.292 183.505 276.734C183.569 278.079 183.632 279.424 183.696 280.768C183.723 281.355 183.831 282.064 184.365 282.286C184.537 282.358 184.728 282.364 184.914 282.368C187.089 282.418 189.264 282.469 191.439 282.52C191.854 282.529 192.202 282.158 192.315 281.751C192.429 281.344 192.362 280.911 192.295 280.493ZM181.764 273.867C181.547 272.934 181.32 271.978 180.799 271.178C180.278 270.379 179.393 269.754 178.454 269.825C177.006 269.933 175.558 270.041 174.109 270.15C173.207 270.217 172.185 270.35 171.656 271.097C171.017 272.001 171.455 273.263 171.283 274.364C171.222 274.75 171.519 275.12 171.873 275.27C172.228 275.421 172.627 275.403 173.011 275.383C175.604 275.247 178.196 275.111 180.788 274.975C181.169 274.955 181.626 274.885 181.778 274.528C181.865 274.323 181.816 274.086 181.764 273.867ZM186.308 272.176C185.814 271.488 185.827 270.468 186.336 269.792C185.427 269.217 184.155 269.324 183.35 270.042C182.546 270.76 182.275 272.031 182.714 273.024C182.869 273.374 182.78 273.789 182.89 274.156C183.045 274.678 183.581 275.007 184.113 275.074C184.644 275.141 185.178 274.998 185.695 274.858C186.374 274.673 187.2 274.303 187.194 273.587C187.188 273.017 186.638 272.637 186.308 272.176ZM170.107 274.626C170.408 273.623 170.003 272.479 169.23 271.786C168.457 271.093 167.375 270.823 166.349 270.917C165.937 270.955 165.507 271.059 165.209 271.351C164.911 271.643 164.804 272.169 165.072 272.489C165.271 272.726 165.611 272.795 165.819 273.024C166.136 273.372 166.029 273.929 166.174 274.38C166.502 275.4 167.862 275.497 168.911 275.399C169.271 275.366 169.667 275.314 169.904 275.036C170.003 274.92 170.063 274.774 170.107 274.626ZM170.277 271.252C170.52 271.012 170.565 270.591 170.376 270.304C169.957 270.177 169.489 270.431 169.268 270.815C169.432 271.197 169.892 271.418 170.286 271.303M182.232 270.187C182.294 270.019 182.258 269.819 182.142 269.684C181.745 269.556 181.281 269.671 180.986 269.971C181.29 270.322 181.843 270.417 182.243 270.186L182.232 270.187Z" fill="#00160A"/>
<path fill-rule="evenodd" clip-rule="evenodd" d="M342.505 241.758C329.76 246.834 317.014 251.911 304.269 256.987C298.786 259.171 292.444 262.448 291.856 268.415C299.304 262.578 308.503 259.095 317.886 258.56C311.404 266.878 303.22 273.813 294.01 278.791C285.739 283.261 275.268 288.029 274.559 297.538C283.441 286.765 297.098 280.242 310.91 280.177C302.073 293.36 287.904 302.711 272.481 305.537C273.01 309.588 273.539 313.639 274.069 317.69C279.309 317.501 284.581 318.265 289.562 319.934C293.11 335.457 296.657 350.978 300.204 366.501C301.077 370.321 301.846 374.71 299.549 377.858C297.271 380.981 292.969 381.518 289.159 381.794C274.143 382.881 259.126 383.969 244.109 385.056C242.312 376.759 240.514 368.463 238.716 360.166C213.386 362.561 188.056 364.957 162.727 367.353C157.393 367.857 151.751 368.31 146.925 365.943C129.417 357.357 108.189 373.975 89.6971 367.895C105.944 367.584 122.14 364.697 137.526 359.372C143.105 357.44 149.786 352.15 146.871 346.934C132.603 357.074 114.296 361.122 97.1843 357.921C98.1887 340.994 97.5427 323.967 95.2581 307.17C107.434 305.395 119.433 302.367 131.014 298.147C134.235 296.973 137.549 295.622 139.843 293.036C142.137 290.451 143.064 286.274 141.049 283.458C123.435 293.018 103.098 297.297 83.2068 295.627C84.2447 318.551 85.2827 341.476 86.3207 364.4C83.3805 341.493 81.8212 318.401 81.6546 295.298C91.8938 294.374 102.133 293.449 112.371 292.524C110.725 285.08 109.068 277.465 109.914 269.883C110.76 262.301 114.591 254.623 121.325 251.279C116.231 240.211 108.531 230.398 99.0553 222.897C87.9468 214.103 73.6653 207.472 68.5926 194.106C65.2385 185.269 66.8837 174.989 71.5279 166.779C76.1721 158.57 83.5313 152.246 91.5298 147.408C80.5177 144.525 72.1766 133.344 72.3998 121.765C72.6229 110.186 81.3884 99.3472 92.503 96.9071C87.2627 90.546 79.0112 87.6306 72.9841 82.0396C65.9628 75.5264 62.4345 65.0202 64.9921 55.7046C67.5497 46.389 76.5545 39.0597 86.0427 39.4727C93.8361 39.8119 100.694 44.8327 106.135 50.5272C114.572 59.3586 120.846 70.3172 124.239 82.1456C126.5 90.0294 134.787 94.0399 141.785 98.12C148.784 102.2 156.052 109.307 154.08 117.271C151.473 106.373 142.719 97.2383 132.086 94.3194C126.546 92.7988 124.527 86.0834 122.744 80.5277C119.277 69.7165 113.356 59.73 105.578 51.5701C99.7318 45.4378 92.0893 40.0867 83.7098 40.5474C75.0837 41.0216 67.4796 48.1688 65.5075 56.7354C63.5354 65.3021 66.8419 74.6888 73.1361 80.7156C79.547 86.8544 88.7184 89.8614 93.8873 97.1144C82.6773 99.4348 73.8148 110.423 73.7559 122.074C73.697 133.726 82.448 144.807 93.634 147.244C85.7512 151.944 78.3747 157.915 73.5112 165.79C68.6477 173.666 66.5629 183.661 69.473 192.48C76.2038 212.878 104.258 217.746 114.159 236.756C116.84 227.786 112.91 218.354 110.89 209.205C108.869 200.057 110.011 188.308 118.385 184.412C115.938 172.397 113.49 160.383 111.043 148.368C109.219 139.415 108.304 128.072 115.866 123.143C110.538 121.461 105.81 117.875 102.698 113.16C106.058 118.4 112.531 121.372 118.611 120.469C110.928 103.505 102.409 86.9323 93.0961 70.8366C103.13 86.2472 112.01 102.437 119.635 119.219C154.899 118.247 190.217 119.354 225.356 122.532C230.022 122.954 235.043 123.567 238.491 126.796C243.447 131.434 250.888 133.126 257.31 131.075C259.354 136.234 260.857 142.03 259.12 147.304C257.383 152.579 251.231 156.605 246.312 154.185C247.596 160.912 248.88 167.64 250.164 174.367C262.739 174.521 275.312 174.783 287.882 175.152C294.545 175.347 301.508 175.656 307.299 179.018C313.089 182.38 317.175 189.827 314.596 196.088C316.241 190.914 317.886 185.741 319.531 180.567C325.33 189.942 328.178 201.179 327.558 212.241C329.567 209.128 331.576 206.015 333.584 202.902C326.448 191.462 325.54 176.256 331.261 164.019C336.873 173.485 340.034 184.443 340.341 195.496C342.433 175.575 356.29 157.415 374.725 150.431C371.526 157.937 368.328 165.444 365.13 172.951C362.391 179.378 358.913 186.507 352.333 188.548C347.992 189.895 341.708 189.814 340.92 194.365C353.387 191.035 366.656 190.87 379.199 193.89C369.534 205.725 350.909 208.64 338.201 200.304C332.207 207.115 327.013 214.655 322.766 222.715C329.98 213.582 341.207 207.871 352.708 207.483C346.529 214.922 339.559 221.679 331.96 227.598C335.993 227.993 340.354 228.534 343.28 231.389C346.206 234.245 346.279 240.255 342.505 241.758ZM174.267 166.791C177.609 166.752 181.353 166.873 183.687 169.312C185.467 171.172 185.944 173.915 186.332 176.483C188.107 188.224 189.768 199.982 191.317 211.756C191.705 214.71 189.274 217.435 186.497 218.371C183.72 219.308 180.701 218.897 177.805 218.476C180.219 216.353 184.296 217.875 186.895 215.991C189.226 214.302 189.212 210.833 188.933 207.933C187.887 197.061 186.462 186.226 184.662 175.457C184.344 173.553 183.954 171.527 182.63 170.146C180.867 168.305 178.05 168.182 175.525 168.179C165.162 168.166 154.798 168.153 144.435 168.14C142.649 168.138 140.77 168.159 139.219 169.062C134.757 171.66 136.402 178.521 138.62 183.244C144.904 181.946 151.325 181.337 157.736 181.433C163.416 181.517 170.498 183.395 171.456 189.098C173.561 201.627 175.664 214.156 177.768 226.684C178.872 233.254 179.48 241.235 174.326 245.34C171.75 247.392 168.332 247.881 165.089 248.299C157.113 249.326 149.137 250.353 141.162 251.38C144.484 281.005 147.805 310.63 151.128 340.255C151.498 343.559 152.176 347.358 155.029 348.976C156.716 349.934 158.763 349.856 160.692 349.749C186.104 348.337 211.492 346.468 236.839 344.142C235.825 341.788 235.805 339.011 236.785 336.643C239.353 351.952 241.92 367.261 244.487 382.571C248.982 379.415 248.291 372.564 247.098 367.138C244.076 353.4 241.055 339.661 238.034 325.923C236.811 328.208 235.587 330.494 234.364 332.779C233.763 329.926 235.444 326.973 237.776 325.277C240.108 323.58 242.981 322.884 245.783 322.273C254.397 320.391 263.104 318.955 271.86 317.97C269.315 299.686 266.771 281.403 264.226 263.12C248.582 267.496 232.015 266.119 215.851 264.707C211.063 264.29 204.979 262.648 204.522 257.776C203.375 245.528 202.227 233.28 201.079 221.032C200.93 219.435 200.021 217.284 198.526 217.787C194.851 219.023 192.666 213.691 192.365 209.761C191.422 197.435 190.478 185.109 189.535 172.783C189.411 171.167 189.379 169.301 190.562 168.217C191.391 167.458 192.584 167.318 193.694 167.215C201.612 166.478 209.53 165.74 217.449 165.003C221.97 164.582 227.106 164.364 230.397 167.551C232.719 169.8 233.498 173.211 233.988 176.437C234.891 182.382 235.19 188.422 234.879 194.43C234.251 188.558 233.624 182.685 232.997 176.813C232.714 174.171 232.369 171.369 230.731 169.301C227.934 165.771 222.73 165.83 218.292 166.202C210.363 166.867 202.434 167.531 194.505 168.196C193.437 168.285 192.28 168.414 191.504 169.166C190.494 170.145 190.523 171.765 190.624 173.181C191.474 185.093 192.323 197.005 193.173 208.917C193.333 211.165 193.551 213.568 194.946 215.318C196.342 217.068 199.369 217.617 200.673 215.795C198.887 211.796 201.358 206.898 205.015 204.567C208.673 202.236 213.161 201.826 217.462 201.476C224.879 200.873 232.296 200.271 239.713 199.668C239.205 184.031 237.549 168.433 234.765 153.047C232.199 152.317 229.863 150.772 228.164 148.683C226.891 152.02 223.103 154.141 219.655 153.446C216.207 152.751 213.498 149.319 213.57 145.74C213.161 149.859 209.638 153.432 205.592 153.83C201.547 154.229 197.417 151.41 196.241 147.447C194.304 149.648 191.79 151.544 188.899 151.812C186.01 152.08 182.813 150.221 182.343 147.304C178.547 152.32 169.726 151.811 166.51 146.391C163.203 151.95 153.788 151.813 150.637 146.16C149.223 151.387 141.326 151.805 137.536 147.999C133.745 144.193 133.007 138.331 132.48 132.936C126.223 139.077 125.094 148.941 126.282 157.708C127.47 166.475 130.564 174.919 131.315 183.736C133.029 184.175 134.909 183.898 136.431 182.982C134.787 177.923 133.706 171.126 138.168 168.343C139.957 167.227 142.172 167.17 144.27 167.145C154.269 167.027 164.268 166.91 174.267 166.791ZM273.318 251.93C286.434 251.266 299.965 253.008 312.429 248.797C314.358 248.146 316.334 247.287 317.577 245.649C314.393 244.159 311.011 241.589 311.089 238.02C311.14 235.677 312.735 233.651 314.531 232.186C316.416 230.648 318.612 229.505 320.94 228.85C321.129 228.263 320.115 228.136 319.613 228.483C319.112 228.83 318.35 229.259 318.016 228.743C317.926 228.605 317.908 228.432 317.892 228.267C316.641 215.299 314.787 202.392 312.338 189.603C311.602 185.757 310.509 181.474 307.181 179.509C305.384 178.448 303.231 178.269 301.159 178.124C285.562 177.024 269.936 176.352 254.304 176.105C250.61 176.047 246.477 176.187 243.887 178.871C241.922 180.907 241.359 183.931 241.151 186.778C240.507 195.594 242.36 204.369 243.566 213.123C245.011 223.611 245.53 234.203 246.483 244.749C246.61 246.152 246.764 247.614 247.509 248.802C248.787 250.837 251.38 251.475 253.729 251.811C257.199 252.306 260.708 252.516 264.211 252.437C267.251 252.368 270.282 252.083 273.318 251.93ZM165.676 183.906C161.236 181.917 156.15 182.45 151.332 183.02C144.044 183.882 136.757 184.743 129.469 185.605C125.967 186.019 122.46 186.434 118.995 187.099C118.16 187.26 117.322 187.437 116.533 187.761C113.445 189.033 111.603 192.425 111.175 195.79C110.746 199.155 111.481 202.547 112.185 205.864C114.373 216.172 116.313 226.576 116.839 237.108C116.943 239.193 116.995 241.305 117.558 243.313C118.121 245.32 119.269 247.252 121.066 248.257C122.447 249.031 124.071 249.191 125.644 249.297C140.065 250.262 154.478 247.893 168.742 245.532C170.772 245.197 172.908 244.813 174.489 243.476C176.933 241.41 177.298 237.775 177.281 234.54C177.248 228.567 176.538 222.597 175.169 216.788C173.568 209.995 171.054 203.311 170.987 196.325C170.958 193.243 171.355 189.923 169.776 187.294C168.844 185.741 167.312 184.638 165.676 183.906ZM97.0546 313.275C98.9929 327.462 99.6444 341.831 98.9974 356.14C98.9633 356.895 99.863 357.279 100.591 357.421C109.916 359.236 119.52 356.91 128.569 353.983C133.713 352.32 138.861 350.424 143.31 347.311C145.345 345.888 147.404 343.742 147.024 341.258C144.579 325.294 143.234 309.157 143.003 293.003C134.769 299.556 124.321 302.336 114.195 304.96C109.395 306.204 104.53 307.456 99.578 307.414C98.3807 307.404 97.3869 308.475 97.0521 309.646C96.7179 310.817 96.8898 312.067 97.0546 313.275ZM286.312 320.446C270.888 318.916 255.155 320.713 240.448 325.683C241.331 332.526 242.537 339.325 244.062 346.049C244.672 348.742 245.334 351.422 245.995 354.103C247.283 359.322 248.571 364.542 249.859 369.762C250.038 370.488 250.263 371.282 250.878 371.693C251.426 372.06 252.136 372.018 252.791 371.963C268.02 370.669 283.24 369.268 298.451 367.758C295.125 352.661 291.8 337.564 288.475 322.467C288.347 321.887 288.194 321.261 287.741 320.887C287.348 320.562 286.814 320.496 286.312 320.446ZM263.577 254.173C260.22 254.347 256.814 254.517 253.537 253.759C250.26 253 247.071 251.181 245.389 248.218C244.423 249.351 242.503 249.436 241.444 248.393C240.386 247.35 240.405 245.393 241.483 244.371C237.22 244.411 232.957 244.45 228.693 244.489C230.642 245.658 230.482 249.105 228.468 250.152C226.454 251.199 223.666 249.43 223.619 247.127C223.598 246.094 224.221 244.933 225.232 244.841C224.812 244.109 223.724 244.542 222.896 244.462C221.649 244.342 220.967 242.958 220.529 241.762C218.754 236.911 217.139 232.001 215.525 227.093C216.656 228.978 219.202 229.826 221.207 228.986C221.916 228.689 221.937 227.651 221.636 226.934C221.109 225.681 219.908 224.716 218.575 224.609C217.241 224.503 215.853 225.333 215.402 226.615C214.734 226.106 215.019 224.929 215.72 224.468C216.421 224.007 217.32 224.047 218.153 224.099C226.016 224.582 233.908 224.575 241.77 224.076C242.128 224.053 242.523 224.012 242.767 223.745C243.043 223.442 243.016 222.975 242.972 222.565C242.672 219.748 242.371 216.931 242.07 214.114C242.037 213.801 241.99 213.46 241.761 213.249C241.508 213.017 241.128 213.028 240.789 213.053C230.933 213.768 221.103 214.849 211.325 216.292C210.284 216.445 209.316 215.555 208.987 214.537C208.659 213.52 208.811 212.414 208.966 211.354C209.02 210.983 209.089 210.58 209.36 210.324C209.609 210.089 209.97 210.033 210.307 209.989C220.48 208.667 230.72 207.873 240.973 207.613C240.724 208.644 239.403 208.867 238.36 208.886C228.845 209.058 219.34 209.835 209.919 211.211C209.167 212.521 210.198 214.286 211.586 214.837C212.975 215.387 214.53 215.093 215.995 214.812C224.066 213.265 232.255 212.353 240.465 212.088C241.637 212.05 241.777 210.332 241.531 209.164C240.959 206.452 240.387 203.74 239.814 201.028C234.129 202.125 228.322 202.562 222.541 202.33C219.12 202.192 215.717 202.801 212.345 203.408C209.48 203.923 206.426 204.534 204.356 206.616C201.936 209.05 201.502 212.856 201.649 216.317C201.89 221.995 203.304 227.549 204.003 233.188C204.856 240.078 204.636 247.061 205.291 253.973C205.468 255.835 205.72 257.732 206.539 259.407C207.359 261.081 208.849 262.518 210.666 262.794C225.594 265.061 240.815 265.319 255.808 263.558C257.193 263.395 258.591 263.212 259.898 262.719C261.961 261.942 263.731 260.382 264.784 258.415C265.206 257.625 265.522 256.722 265.368 255.836C265.214 254.95 264.458 254.127 263.577 254.173ZM144.233 293.016C145.795 310.523 147.358 328.03 148.92 345.537C149.201 348.684 149.471 351.934 148.506 354.937C147.54 357.939 145 360.654 141.9 360.757C143.72 363.469 146.861 365.019 150.038 365.587C153.214 366.155 156.471 365.854 159.682 365.552C186.144 363.062 212.605 360.572 239.066 358.082C238.497 354.713 237.929 351.345 237.361 347.978C237.234 347.222 236.87 346.263 236.119 346.32C217.925 347.701 199.732 349.082 181.538 350.463C174.068 351.03 166.56 351.597 159.093 350.975C155.315 350.66 150.648 349.131 150.276 345.288C147.293 314.544 143.84 283.847 139.919 253.213C139.858 252.742 139.783 252.238 139.467 251.888C139.045 251.422 138.346 251.387 137.723 251.384C134.003 251.364 130.282 251.345 126.562 251.325C127.648 257.603 129.059 263.823 130.786 269.951C131.105 271.083 131.636 272.405 132.775 272.609C136.865 273.341 140.094 276.768 141.777 280.636C143.46 284.503 143.857 288.804 144.233 293.016ZM129.94 184.044C126.746 167.547 124.045 150.952 121.839 134.289C121.714 133.346 121.594 132.369 121.866 131.459C122.427 129.584 124.44 128.602 126.313 128.15C129.973 127.266 133.796 127.56 137.548 127.842C171.85 130.418 206.264 131.449 240.655 130.931C239.288 128.105 236.537 126.178 233.611 125.156C230.685 124.134 227.558 123.906 224.473 123.689C194.199 121.558 163.88 119.562 133.536 119.934C129.823 119.979 126.068 120.066 122.483 121.051C118.899 122.035 115.449 124.018 113.381 127.159C110.122 132.108 110.911 138.646 111.92 144.515C114.282 158.262 117.155 171.917 120.532 185.441C123.668 184.975 126.804 184.51 129.94 184.044ZM203.798 151.802C205.438 151.819 207.141 151.725 208.592 150.948C211.146 149.578 212.28 146.422 212.449 143.487C212.618 140.551 212.049 137.609 212.232 134.674C212.274 134.006 212.641 133.119 213.278 133.287C213.74 136.665 214.201 140.044 214.662 143.422C214.917 145.287 215.182 147.187 215.984 148.884C216.786 150.58 218.228 152.071 220.044 152.427C221.087 152.631 222.176 152.448 223.17 152.067C225.549 151.156 227.543 148.837 227.453 146.249C227.328 142.676 227.203 139.103 227.078 135.53C227.029 134.117 226.513 132.234 225.127 132.308C215.881 132.801 206.608 132.757 197.368 132.177C196.695 132.135 196.517 133.107 196.588 133.791C196.958 137.335 197.328 140.879 197.698 144.422C197.977 147.098 198.573 150.243 200.983 151.344C201.857 151.743 202.841 151.791 203.798 151.802ZM251.215 374.173C250.773 374.489 250.48 374.976 250.211 375.453C248.808 377.94 247.682 380.587 246.858 383.329C263.042 382.177 279.212 380.839 295.366 379.314C295.973 379.257 296.631 379.176 297.067 378.742C297.35 378.459 297.495 378.068 297.632 377.689C298.236 376.016 298.841 374.343 299.445 372.67C299.74 371.856 300.001 370.843 299.426 370.203C298.948 369.672 298.135 369.689 297.43 369.746C282.66 370.951 267.898 372.249 253.145 373.64C252.474 373.703 251.768 373.779 251.215 374.173ZM279.743 272.616C279.306 267.415 278.414 261.578 274.248 258.54C272.622 263.1 270.98 267.73 270.608 272.567C270.236 277.404 271.286 282.56 274.471 286.167C274.919 286.674 275.417 287.166 275.654 287.804C275.891 288.441 275.771 289.283 275.19 289.621C270.86 285.783 269.068 279.629 269.169 273.783C269.27 267.938 271.029 262.27 272.772 256.7C273.155 255.477 272.06 254.189 270.83 253.904C269.601 253.618 268.331 254.037 267.137 254.45C266.905 254.531 266.802 254.801 266.729 255.04C265.903 257.719 265.07 260.56 265.709 263.292C268.464 275.062 268.109 287.415 270.913 299.173C271.017 299.607 271.129 300.051 271.377 300.419C273.237 296.715 275.097 293.011 276.957 289.306C277.831 287.566 278.709 285.813 279.255 283.939C280.316 280.294 280.062 276.403 279.743 272.616ZM345.537 187.18C345.896 187.482 346.378 187.578 346.841 187.63C352.101 188.229 357.064 184.583 359.976 180.082C362.889 175.581 364.265 170.264 366.174 165.237C367.966 160.518 370.258 155.997 372.998 151.777C367.513 157.018 360.761 160.689 355.036 165.657C349.311 170.626 344.44 177.594 344.843 185.243C344.881 185.95 345.001 186.73 345.537 187.18ZM134.893 136.489C135.641 139.827 135.332 143.536 137.147 146.418C138.908 149.211 142.621 150.542 145.711 149.488C148.801 148.434 150.977 145.092 150.73 141.783C150.674 141.031 150.507 140.292 150.341 139.557C149.69 136.677 149.039 133.797 148.388 130.917C148.323 130.63 148.251 130.329 148.051 130.116C147.765 129.812 147.307 129.776 146.894 129.76C142.916 129.605 138.939 129.45 134.962 129.295C134.579 129.28 134.159 129.277 133.862 129.522C133.485 129.834 133.464 130.405 133.513 130.896C133.704 132.811 134.473 134.612 134.893 136.489ZM242.555 139.602C242.65 144.213 245.599 148.223 248.71 151.574C249.013 151.901 249.325 152.23 249.704 152.462C250.318 152.835 251.065 152.923 251.777 152.861C254.18 152.651 256.236 150.8 257.25 148.571C258.264 146.343 258.378 143.793 258.16 141.347C257.942 138.901 257.41 136.491 257.196 134.045C257.152 133.554 256.976 132.913 256.492 132.915C252.24 132.932 247.988 132.948 243.736 132.965C243.192 132.967 242.615 132.978 242.156 133.275C241.696 133.571 241.44 134.264 241.781 134.696C242.822 136.015 242.52 137.91 242.555 139.602ZM307.216 282.233C295.566 282.024 284.887 289.058 276.738 297.541C275.365 298.971 274.024 300.471 273.11 302.242C272.948 302.555 272.82 302.991 273.085 303.22C273.226 303.342 273.428 303.349 273.613 303.349C280.391 303.324 286.909 300.408 292.416 296.383C297.922 292.358 302.562 287.251 307.216 282.233ZM163.065 148.651C164.73 147.675 165.801 145.732 165.752 143.777C165.727 142.785 165.44 141.823 165.209 140.859C164.613 138.38 164.382 135.81 164.524 133.262C164.555 132.719 164.6 132.161 164.44 131.643C164.28 131.124 163.855 130.647 163.322 130.618C158.92 130.373 154.517 130.128 150.115 129.883C149.957 129.874 149.784 129.87 149.656 129.965C149.458 130.113 149.469 130.413 149.506 130.661C150.047 134.31 151.781 137.747 151.892 141.436C151.933 142.792 151.755 144.184 152.128 145.487C152.606 147.157 153.971 148.475 155.555 149.124C157.138 149.774 158.915 149.81 160.596 149.502C161.455 149.344 162.308 149.094 163.065 148.651ZM339.217 198.606C342.406 199.522 345.225 201.437 348.318 202.646C355.174 205.325 363.336 204.206 369.254 199.777C371.796 197.875 374.337 195.973 376.878 194.071C373.78 194.818 370.576 195.104 367.398 194.917C362.088 194.605 356.844 192.985 351.541 193.391C347.029 193.736 342.641 195.593 339.217 198.606ZM248.173 173.615C247.546 170.08 246.92 166.544 246.293 163.008C245.453 158.269 244.613 153.53 243.773 148.791C243.714 148.455 243.641 148.094 243.397 147.86C243.152 147.626 242.675 147.626 242.542 147.939C241.703 149.911 239.985 151.474 237.968 152.103C236.743 152.484 236.639 154.185 236.781 155.481C237.785 164.624 238.974 173.746 240.345 182.84C240.744 179.12 243.874 175.891 247.519 175.435C248.229 175.346 248.3 174.332 248.173 173.615ZM181.19 144.856C180.8 141.044 180.309 137.243 179.717 133.458C179.595 132.678 179.268 131.705 178.493 131.67C174.486 131.491 170.479 131.312 166.472 131.133C166.33 131.127 166.179 131.122 166.052 131.191C165.729 131.365 165.782 131.845 165.877 132.205C166.801 135.7 167.292 139.313 167.333 142.932C167.343 143.823 167.333 144.747 167.699 145.556C168.238 146.747 169.464 147.43 170.629 147.986C172.659 148.954 174.88 149.806 177.095 149.455C179.311 149.103 181.422 147.128 181.19 144.856ZM182.923 144.877C183.327 146.872 184.068 149.191 185.986 149.765C187.605 150.249 189.355 150.382 190.979 149.916C192.603 149.45 194.084 148.339 194.811 146.788C195.328 145.684 195.445 144.434 195.512 143.213C195.696 139.868 195.57 136.504 195.133 133.183C195.11 133.005 195.084 132.822 194.996 132.667C194.762 132.255 194.211 132.197 193.744 132.186C189.663 132.096 185.583 132.005 181.503 131.915C181.17 131.907 180.704 132.26 180.986 132.441C181.443 136.614 182.089 140.765 182.923 144.877ZM320.022 186.152C316.835 193.492 315.897 201.825 317.369 209.709C317.957 212.859 319.114 216.202 321.79 217.889C322.578 218.385 323.891 218.532 324.183 217.636C327.569 207.231 325.989 195.275 320.022 186.152ZM113.43 278.306C114.782 279.251 116.306 279.94 117.901 280.327C119.917 280.816 122.011 280.822 124.082 280.873C128.923 280.992 133.758 281.369 138.56 282.004C139.229 282.092 139.783 281.354 139.766 280.666C139.748 279.978 139.337 279.371 138.911 278.837C136.35 275.623 132.61 273.408 128.602 272.731C125.761 272.251 122.858 272.52 119.98 272.436C117.103 272.352 114.1 271.855 111.805 270.085C111.683 271.768 111.674 273.46 111.776 275.145C111.817 275.827 111.885 276.535 112.226 277.123C112.512 277.616 112.967 277.982 113.43 278.306ZM229.894 147.531C230.345 148.366 231.071 149.009 231.814 149.589C232.618 150.217 233.488 150.805 234.477 151.036C236.911 151.603 239.4 149.766 240.426 147.448C241.452 145.128 241.348 142.47 241.11 139.938C240.93 138.024 240.686 136.115 240.377 134.218C240.326 133.902 240.266 133.571 240.071 133.319C239.728 132.878 239.101 132.827 238.549 132.812C235.582 132.732 232.614 132.651 229.646 132.571C228.989 132.554 228.056 132.874 228.251 133.512C229.124 136.375 229.505 139.392 229.371 142.385C229.293 144.133 229.065 145.999 229.894 147.531ZM334.916 200.669C338.066 195.49 339.009 188.969 337.459 183.085C336.088 177.883 332.901 173.274 331.891 167.986C329.536 175.264 327.165 183.098 329.295 190.447C330.387 194.213 332.592 197.535 334.916 200.669ZM282.719 282.147C292.09 279.688 300.74 274.447 307.333 267.233C309.305 265.074 311.324 262.96 313.389 260.892C308.332 261.598 303.395 263.191 298.862 265.579C291.946 269.223 285.877 274.897 282.719 282.147ZM339.81 218.793C343.257 215.494 346.703 212.195 350.15 208.896C338.495 210.409 327.61 217.269 321.079 227.217C322.762 228.538 325.177 227.76 327.141 226.933C329.872 225.783 332.627 224.619 335.058 222.908C336.77 221.703 338.294 220.245 339.81 218.793ZM113.132 290.897C113.161 291.202 113.197 291.524 113.378 291.769C113.775 292.304 114.584 292.172 115.215 291.984C122.447 289.832 129.579 287.325 136.575 284.476C137.079 284.271 137.668 283.946 137.678 283.393C132.311 283.013 126.943 282.635 121.576 282.255C120.263 282.162 118.945 282.069 117.658 281.789C115.722 281.368 113.876 280.523 112.282 279.328C112.399 283.194 112.765 287.047 113.132 290.897ZM282.686 253.907C282.253 254.225 282.078 254.787 281.929 255.31C281.418 257.103 280.904 259.006 281.379 260.809C281.621 261.729 282.106 262.558 282.585 263.375C283.912 265.634 285.239 267.893 286.565 270.151C286.689 270.361 286.823 270.582 287.036 270.696C287.669 271.035 288.295 270.239 288.589 269.574C290.498 265.261 292.451 260.699 292.018 255.989C291.951 255.264 291.758 254.442 291.123 254.11C290.831 253.957 290.492 253.938 290.164 253.921C288.197 253.822 286.23 253.722 284.264 253.623C283.719 253.595 283.127 253.581 282.686 253.907ZM312.747 237.937C312.697 240.973 315.297 243.512 318.15 244.395C321.002 245.279 324.062 244.899 327.027 244.574C332.238 244.005 337.751 243.535 342.035 240.459C342.986 239.776 343.885 238.934 344.309 237.831C344.971 236.11 344.305 234.078 343.06 232.734C341.815 231.389 340.088 230.621 338.36 230.057C332.185 228.044 325.328 228.276 319.298 230.702C316.116 231.982 312.805 234.453 312.747 237.937ZM112.641 268.95C113.203 269.484 114.341 269.62 114.56 268.87C115.309 266.302 116.996 264.1 118.982 262.343C120.969 260.586 123.258 259.229 125.533 257.883C126.147 257.52 126.108 256.619 125.99 255.907C125.76 254.526 125.53 253.146 125.3 251.766C125.242 251.416 125.128 250.999 124.791 250.905C124.516 250.829 124.245 251.018 124.02 251.197C122.388 252.495 120.756 253.793 119.124 255.091C115.854 257.692 112.35 260.676 111.641 264.839C111.394 266.29 111.585 267.946 112.641 268.95ZM125.371 259.659C121.706 261.99 117.827 264.571 116.162 268.632C116.057 268.885 115.962 269.15 115.97 269.424C115.986 269.965 116.414 270.42 116.904 270.628C117.394 270.835 117.939 270.845 118.47 270.851C121.608 270.889 124.746 270.926 127.883 270.964C128.035 270.966 128.201 270.963 128.322 270.868C128.512 270.717 128.492 270.423 128.455 270.18C127.954 266.959 127.453 263.737 126.953 260.515C126.882 260.057 126.737 259.509 126.298 259.384C125.978 259.293 125.653 259.479 125.371 259.659ZM281.251 254.104C278.941 253.498 276.449 253.63 274.214 254.478C274.647 255.926 275.414 257.267 276.436 258.365C279.88 262.063 280.898 267.433 281.289 272.515C281.498 275.229 281.572 277.955 281.51 280.677C283.023 278.3 284.535 275.923 286.048 273.545C286.199 273.309 286.354 273.059 286.37 272.778C286.387 272.496 286.261 272.229 286.134 271.978C284.641 269.042 282.448 266.51 281.062 263.52C279.677 260.529 279.253 256.71 281.251 254.104ZM126.482 129.672C125.207 129.878 123.754 130.208 123.149 131.368C122.731 132.171 122.855 133.141 122.989 134.039C123.543 137.738 124.096 141.437 124.65 145.136C127.484 139.945 130.138 134.655 132.79 129.367C132.299 128.801 131.429 128.873 130.697 128.991C129.292 129.218 127.887 129.445 126.482 129.672ZM300.907 255.262C301.299 255.792 302.323 255.205 302.082 254.588C305.867 255.695 309.993 254.907 313.568 253.226C317.143 251.544 320.264 249.024 323.336 246.515C322.046 246.331 320.755 246.148 319.466 245.964C319.202 245.927 318.861 245.932 318.76 246.182C318.066 247.914 316.57 249.212 314.919 250.031C313.267 250.85 311.45 251.247 309.653 251.637C308.407 251.907 307.16 252.178 305.913 252.449C303.982 252.867 301.804 253.471 300.907 255.262ZM232.436 228.44C232.678 228.378 232.939 228.304 233.093 228.103C233.334 227.794 233.213 227.348 233.151 226.958C233.087 226.567 233.184 226.048 233.567 225.981C233.915 226.051 234.076 226.473 234.085 226.834C234.093 227.196 234.015 227.574 234.143 227.911C234.429 228.663 235.448 228.692 236.232 228.59C236.697 228.53 237.161 228.47 237.626 228.41C237.771 228.391 237.926 228.367 238.035 228.266C238.378 227.946 237.9 227.422 237.794 226.961C237.712 226.603 237.876 226.217 237.768 225.868C237.585 225.272 236.807 225.18 236.194 225.201C231.506 225.359 226.819 225.518 222.131 225.676C222.212 226.58 222.454 227.468 222.844 228.284C222.927 228.46 223.026 228.641 223.193 228.738C223.362 228.837 223.569 228.83 223.763 228.821C224.929 228.766 226.094 228.711 227.259 228.656C227.358 228.651 227.462 228.645 227.545 228.589C227.758 228.446 227.684 228.116 227.587 227.876C227.418 227.463 227.25 227.05 227.082 226.638C226.935 226.278 227.574 226.066 227.842 226.342C228.111 226.618 228.121 227.051 228.248 227.418C228.511 228.179 229.305 228.644 230.091 228.741C230.878 228.839 231.668 228.639 232.436 228.44ZM300.513 253.716C300.769 253.439 300.205 253.149 299.835 253.196C297.724 253.459 295.614 253.723 293.503 253.987C293.221 254.022 292.848 254.18 292.915 254.461C293.608 257.353 293.348 260.475 292.186 263.207C291.965 263.728 291.819 264.523 292.349 264.697C294.55 260.673 297.307 256.964 300.513 253.716ZM228.593 230.622C228.527 230.389 228.452 230.143 228.278 229.978C228.079 229.789 227.793 229.742 227.523 229.712C226.14 229.558 224.731 229.654 223.38 229.996C223.803 231.392 224.225 232.787 224.648 234.182C224.728 234.447 224.836 234.744 225.087 234.847C225.217 234.9 225.361 234.891 225.5 234.881C226.865 234.784 228.231 234.686 229.596 234.588C229.299 233.257 228.965 231.934 228.593 230.622ZM219.703 235.502C219.855 235.586 220.04 235.561 220.21 235.532C221.447 235.327 222.683 235.122 223.919 234.917C223.473 233.461 223.027 232.004 222.581 230.548C222.516 230.335 222.434 230.1 222.241 229.994C222.088 229.91 221.902 229.928 221.73 229.948C220.628 230.079 219.525 230.209 218.423 230.34C218.216 230.364 217.971 230.417 217.894 230.615C217.841 230.749 217.891 230.899 217.94 231.035C218.426 232.369 218.911 233.704 219.397 235.039C219.462 235.217 219.538 235.411 219.703 235.502ZM233.592 229.685C233.331 229.454 232.944 229.469 232.599 229.499C231.51 229.59 230.421 229.681 229.332 229.772C229.658 231.193 230.068 232.594 230.559 233.965C230.623 234.145 230.696 234.334 230.846 234.449C231.033 234.593 231.289 234.585 231.523 234.571C232.266 234.525 233.01 234.479 233.753 234.434C234.095 234.413 234.511 234.338 234.626 234.009C234.681 233.851 234.646 233.677 234.61 233.513C234.384 232.487 234.157 231.462 233.932 230.437C233.871 230.163 233.8 229.869 233.592 229.685ZM227.097 239.894C226.989 239.911 226.875 239.932 226.796 240.009C226.644 240.159 226.713 240.417 226.794 240.617C227.08 241.33 227.366 242.043 227.652 242.756C227.758 243.021 227.878 243.302 228.114 243.455C228.334 243.596 228.609 243.599 228.868 243.598C229.856 243.591 230.844 243.585 231.832 243.58C231.976 243.579 232.133 243.574 232.245 243.479C232.447 243.309 232.372 242.983 232.279 242.733C231.898 241.713 231.518 240.693 231.138 239.672C231.016 239.344 230.569 239.34 230.229 239.394C229.185 239.56 228.141 239.727 227.097 239.894ZM235.409 229.483C235.201 229.484 234.968 229.496 234.828 229.652C234.659 229.841 234.712 230.136 234.776 230.382C235.057 231.464 235.338 232.546 235.619 233.627C235.668 233.817 235.726 234.02 235.876 234.145C236.075 234.31 236.362 234.279 236.616 234.239C237.552 234.094 238.489 233.948 239.425 233.803C239.325 232.695 239.152 231.595 238.909 230.511C238.833 230.172 238.728 229.803 238.44 229.616C238.225 229.477 237.953 229.474 237.698 229.475C236.935 229.478 236.172 229.48 235.409 229.483ZM237.315 243.452C237.012 242.33 236.708 241.207 236.404 240.084C236.289 239.656 236.124 239.17 235.717 239.008C235.517 238.929 235.294 238.946 235.079 238.965C234.08 239.054 233.08 239.142 232.081 239.231C232.344 240.236 232.657 241.229 233.015 242.203C233.196 242.693 233.47 243.249 233.978 243.333C235.08 243.515 236.204 243.555 237.315 243.452ZM239.054 243.374C239.96 243.45 240.955 243.501 241.687 242.952C241.369 241.695 241.052 240.438 240.734 239.18C240.663 238.897 240.567 238.582 240.313 238.447C240.126 238.348 239.901 238.375 239.692 238.404C238.795 238.532 237.897 238.659 237 238.786C237.213 240.118 237.575 241.424 238.077 242.672C238.154 242.864 238.241 243.063 238.401 243.189C238.583 243.331 238.826 243.355 239.054 243.374ZM319.777 225.473C320.468 224.026 321.161 222.58 321.852 221.134C321.925 220.982 321.999 220.817 321.973 220.65C321.947 220.488 321.831 220.358 321.72 220.238C320.735 219.178 319.751 218.117 318.765 217.056C318.356 217.625 318.403 218.4 318.469 219.102C318.683 221.408 318.898 223.714 319.112 226.02C319.413 226.088 319.641 225.755 319.777 225.473ZM240.05 229.316C239.921 229.307 239.773 229.304 239.683 229.399C239.582 229.505 239.604 229.677 239.634 229.822C239.829 230.779 240.023 231.737 240.218 232.694C240.291 233.049 240.376 233.428 240.639 233.672C241.489 234.462 243.128 233.104 243.919 233.956C244.058 232.596 243.958 231.212 243.625 229.888C243.602 229.795 243.574 229.696 243.504 229.632C243.423 229.558 243.306 229.547 243.197 229.539C242.148 229.465 241.099 229.391 240.05 229.316ZM220.48 236.417C220.366 236.433 220.248 236.45 220.155 236.518C219.948 236.667 219.956 236.977 219.986 237.234C220.065 237.918 220.152 238.628 220.504 239.217C220.855 239.806 221.55 240.242 222.204 240.064C223.141 239.808 224.078 239.552 225.014 239.296C224.974 238.384 224.792 237.479 224.479 236.623C224.401 236.41 224.303 236.185 224.11 236.069C223.91 235.949 223.66 235.978 223.43 236.009C222.447 236.145 221.463 236.281 220.48 236.417ZM242.33 228.415C242.612 228.371 242.912 228.319 243.122 228.122C243.746 227.535 243.033 226.341 243.538 225.646C243.736 225.374 243.252 225.132 242.921 225.146C241.441 225.21 239.961 225.274 238.481 225.337C238.539 225.961 238.645 226.58 238.799 227.186C238.971 227.862 239.618 228.324 240.287 228.474C240.957 228.624 241.652 228.52 242.33 228.415ZM230.369 236.534C230.179 235.601 228.953 235.383 228.034 235.558C227.115 235.732 226.088 236.07 225.307 235.547C225.357 236.531 225.582 237.506 225.97 238.409C226.051 238.599 226.15 238.797 226.327 238.899C226.526 239.014 226.773 238.977 226.999 238.937C227.905 238.778 228.812 238.619 229.718 238.459C230.167 238.38 230.759 238.018 230.523 237.621C230.334 237.305 230.443 236.896 230.369 236.534ZM224.772 240.361C224.031 240.489 223.291 240.617 222.55 240.744C222.15 240.813 221.656 240.977 221.613 241.389C221.505 242.43 222.523 243.269 223.531 243.477C224.538 243.684 225.583 243.481 226.606 243.584C226.564 242.7 226.382 241.821 226.07 240.995C225.996 240.798 225.907 240.595 225.743 240.466C225.477 240.257 225.102 240.304 224.772 240.361ZM244.283 238.341C243.3 238.235 242.302 238.289 241.335 238.498C241.869 239.793 242.248 241.155 242.462 242.543C242.56 243.179 243.452 243.192 244.065 243.033C244.293 242.973 244.543 242.899 244.673 242.7C244.785 242.527 244.78 242.304 244.771 242.097C244.718 240.955 244.666 239.811 244.613 238.669C244.61 238.596 244.605 238.52 244.564 238.461C244.504 238.373 244.387 238.353 244.283 238.341ZM228.24 248.582C229.167 247.64 228.691 245.739 227.436 245.362C226.18 244.986 224.77 246.322 225.048 247.625C225.335 248.972 227.282 249.555 228.24 248.582ZM235.522 237.541C236.111 236.758 235.229 235.601 234.274 235.431C233.32 235.26 232.352 235.633 231.383 235.619C231.026 235.613 231.011 236.16 231.127 236.504C231.278 236.949 231.427 237.394 231.578 237.839C231.639 238.021 231.75 238.239 231.939 238.227C232.63 238.183 233.321 238.139 234.012 238.095C234.563 238.06 235.185 237.988 235.522 237.541ZM245.072 245.105C245 244.909 244.895 244.717 244.729 244.593C244.579 244.482 244.393 244.435 244.209 244.413C242.759 244.235 241.352 245.708 241.566 247.18C242.183 247.927 243.345 248.133 244.174 247.643C245.003 247.152 245.403 246.022 245.072 245.105ZM236.12 236.208C236.089 236.856 236.648 237.408 237.26 237.583C237.873 237.757 238.525 237.645 239.151 237.531C239.472 237.473 239.831 237.389 239.999 237.104C240.357 236.498 239.646 235.386 240.302 235.154C239.862 235.092 239.422 235.03 238.982 234.969C238.4 234.887 237.799 234.808 237.235 234.971C236.67 235.135 236.15 235.611 236.12 236.208ZM241.383 237.037C242.05 237.627 243.166 237.546 243.786 236.904C244.406 236.262 244.487 235.175 244.019 234.41C242.852 234.631 241.684 234.852 240.517 235.072C240.664 235.788 240.841 236.557 241.383 237.037ZM331.588 225.671C330.679 226.014 329.77 226.358 328.86 226.701C328.409 226.871 327.951 227.045 327.56 227.331C329.047 227.922 330.922 227.15 331.588 225.671ZM247.094 152.185C247.07 151.776 246.646 151.441 246.251 151.521C246.276 151.937 246.684 152.287 247.091 152.242L247.094 152.185Z" fill="#00160A"/>
</g>
<defs>
<filter id="filter0_d_28_20" x="0" y="0" width="445" height="452" filterUnits="userSpaceOnUse" color-interpolation-filters="sRGB">
<feFlood flood-opacity="0" result="BackgroundImageFix"/>
<feColorMatrix in="SourceAlpha" type="matrix" values="0 0 0 0 0 0 0 0 0 0 0 0 0 0 0 0 0 0 127 0" result="hardAlpha"/>
<feOffset dy="14"/>
<feGaussianBlur stdDeviation="17"/>
<feComposite in2="hardAlpha" operator="out"/>
<feColorMatrix type="matrix" values="0 0 0 0 0 0 0 0 0 0 0 0 0 0 0 0 0 0 0.25 0"/>
<feBlend mode="normal" in2="BackgroundImageFix" result="effect1_dropShadow_28_20"/>
<feBlend mode="normal" in="SourceGraphic" in2="effect1_dropShadow_28_20" result="shape"/>
</filter>
</defs>
</svg>
