<svg width="375" height="385" viewBox="0 0 375 385" fill="none" xmlns="http://www.w3.org/2000/svg">
<path d="M375 0H0V385H375V0Z" fill="#0C0C0C"/>
<path fill-rule="evenodd" clip-rule="evenodd" d="M73.2355 278.626C28.3567 246.661 82.106 204.305 68.976 153.657C55.8465 103.009 24.0417 27.4909 149.515 54.3995C276.645 81.6642 357.275 116.771 338.22 225.516C319.165 334.261 118.115 310.59 73.2355 278.626Z" fill="#7BF5D9"/>
<path fill-rule="evenodd" clip-rule="evenodd" d="M268.027 322.41C265.213 319.53 263.88 315.503 262.637 311.628C259.378 316.472 252.104 316.628 247.109 313.737C242.114 310.847 238.743 305.8 235.156 301.207C228.734 292.983 201.225 272.675 200.773 266.548C200.533 263.299 209.738 257.383 209.738 257.383L193.198 247.392C193.198 247.392 184.619 254.148 179.687 254.951C165.967 257.185 156.262 255.855 156.25 258.391C156.208 267.564 210.267 314.102 193.028 313.737C167.157 313.19 119.904 261.491 104.598 257.383C98.1877 255.663 54.2227 258.391 54.2227 247.465C54.2227 232.791 93.4927 222.695 93.4927 222.695C93.4927 222.695 83.2577 187.261 95.6452 158.286C98.4822 151.649 101.995 143.939 102.337 137.419C102.431 135.63 151.956 87.4689 158.318 85.0629C173.153 79.4532 188.933 76.4882 204.741 76.3409C206.848 76.3213 266.935 85.0629 293.955 130.852C298.839 139.127 321.021 200.58 298.499 239.13C294.946 245.212 295.382 252.76 297.838 259.455C300.295 266.15 303.315 273.598 300.531 280.157C299.011 269.648 296.341 259.315 292.588 249.415C287.355 253.321 290.005 261.726 293.125 267.546C297.056 274.88 300.988 282.214 304.92 289.548C306.556 292.598 308.246 295.959 307.658 299.388C306.985 303.309 303.582 306.021 300.43 308.34C293.234 313.634 286.037 318.929 278.841 324.223C275.611 326.6 270.841 325.291 268.027 322.41Z" fill="white"/>
<path fill-rule="evenodd" clip-rule="evenodd" d="M170.817 160.13C171.368 158.599 173.352 157.966 174.816 158.604C176.28 159.242 177.189 160.839 177.418 162.454C177.648 164.07 177.299 165.712 176.851 167.279C176.443 168.708 175.95 170.111 175.376 171.479C175.323 171.605 175.251 171.748 175.12 171.778C174.98 171.81 174.85 171.698 174.75 171.594C172.262 169.006 170.763 165.443 170.632 161.81C170.612 161.243 170.626 160.662 170.817 160.13ZM175.117 160.504C174.709 160.145 174.182 159.909 173.645 159.926C172.39 159.965 171.515 161.37 171.543 162.658C171.571 163.946 172.239 165.116 172.888 166.218C173.353 167.009 173.817 167.799 174.282 168.589C174.44 168.858 174.752 169.165 174.998 168.978C175.098 168.903 175.136 168.771 175.168 168.649C175.359 167.931 175.549 167.214 175.739 166.496C176.011 165.47 176.285 164.427 176.268 163.364C176.251 162.301 175.904 161.196 175.117 160.504Z" fill="#FFB61D"/>
<path fill-rule="evenodd" clip-rule="evenodd" d="M174.296 164.627C173.99 164.715 173.656 164.699 173.361 164.58C172.787 164.351 172.39 163.719 172.424 163.088C172.457 162.456 172.917 161.872 173.512 161.708C174.413 161.458 175.428 162.31 175.368 163.267C175.329 163.887 174.879 164.458 174.296 164.627Z" fill="#FFB61D"/>
<path fill-rule="evenodd" clip-rule="evenodd" d="M190.718 314.771C191.748 314.91 191.368 316.55 190.7 317.366C184.323 325.16 175.997 331.259 166.744 334.914C164.669 335.733 162.523 336.438 160.305 336.595C156.191 336.886 152.094 335.236 148.841 332.635C145.588 330.034 143.109 326.537 141.09 322.847C135.566 312.755 133.25 300.847 134.576 289.351C134.701 288.27 135.419 286.834 136.39 287.274C136.109 291.117 136.065 294.979 136.26 298.828C136.451 302.608 136.876 306.399 137.933 310.026C138.912 313.384 140.419 316.552 141.989 319.664C143.604 322.863 145.314 326.052 147.646 328.745C149.977 331.438 153.003 333.627 156.446 334.325C160.761 335.2 165.191 333.673 169.17 331.747C177.422 327.753 184.825 321.921 190.718 314.771Z" fill="#00160A"/>
<path fill-rule="evenodd" clip-rule="evenodd" d="M220.575 270.967C228.069 263.397 235.564 255.827 243.058 248.257C243.478 247.833 244.099 247.381 244.595 247.706C245.257 248.139 244.727 249.182 244.169 249.749C236.103 257.939 228.037 266.13 219.971 274.32C219.39 274.017 219.22 273.201 219.425 272.566C219.63 271.93 220.11 271.436 220.575 270.967Z" fill="#00160A"/>
<path fill-rule="evenodd" clip-rule="evenodd" d="M163.202 227.43C162.745 227.511 162.288 227.592 161.831 227.673C160.944 226.307 160.037 224.889 159.759 223.272C159.48 221.655 160.001 219.774 161.399 218.976C162.981 218.073 163.458 215.854 162.954 214.069C162.45 212.285 161.202 210.839 159.979 209.47C158.737 208.079 156.746 206.602 155.271 207.729C154.31 208.463 152.872 208.048 152.012 207.192C151.152 206.335 150.697 205.152 150.14 204.063C149.088 202.002 147.553 200.143 145.546 199.062C143.538 197.981 141.026 197.767 139.005 198.822C137.001 199.868 135.736 201.95 134.028 203.451C132.319 204.951 129.498 205.748 127.958 204.066C127.567 203.638 127.304 203.003 127.527 202.462C127.749 201.922 128.613 201.736 128.889 202.25C129.591 203.56 131.533 203.541 132.747 202.715C133.962 201.888 134.722 200.536 135.718 199.445C137.666 197.31 140.628 196.198 143.459 196.54C146.289 196.881 148.919 198.667 150.333 201.208C151.014 202.432 151.434 203.824 152.323 204.899C153.212 205.973 154.828 206.631 155.969 205.846C157.257 204.96 158.938 206.061 160.069 207.152C161.599 208.627 163.09 210.222 163.952 212.187C164.814 214.152 164.95 216.57 163.824 218.389C162.887 219.903 161.093 221.129 161.248 222.917C161.393 224.583 163.261 225.758 163.202 227.43Z" fill="#00160A"/>
<path fill-rule="evenodd" clip-rule="evenodd" d="M182.984 152.397C185.728 153.716 188.169 155.825 189.58 158.578C190.99 161.33 191.277 164.749 190.013 167.576C187.397 173.422 179.078 175.698 178.161 182.063C177.927 183.684 178.245 185.37 177.855 186.959C177.585 188.057 176.995 189.037 176.522 190.061C175.508 192.257 175.03 194.71 175.141 197.137C174.084 197.724 172.841 196.473 172.706 195.246C172.571 194.02 173.049 192.802 173.023 191.568C172.975 189.248 171.227 187.402 169.737 185.658C167.5 183.043 165.557 179.964 165.194 176.503C165.077 175.388 165.126 174.251 164.882 173.159C164.619 171.983 164.031 170.917 163.511 169.836C162.109 166.919 161.16 163.554 162.023 160.424C162.886 157.294 166.105 154.706 169.16 155.567C170.027 155.811 170.876 156.311 171.767 156.175C173.33 155.936 173.96 154.021 175.05 152.845C177.003 150.739 180.418 151.164 182.984 152.397ZM169.699 182.808C171.431 185.147 173.163 187.488 174.896 189.827C176.883 187.68 176.061 184.205 176.665 181.308C177.488 177.362 180.926 174.684 183.904 172.051C186.883 169.418 189.841 165.816 189.172 161.839C188.634 158.644 185.918 156.374 183.314 154.538C181.846 153.504 180.152 152.464 178.401 152.796C176.63 153.132 175.417 154.744 174.142 156.049C172.866 157.353 170.943 158.486 169.346 157.631C167.1 156.428 164.24 158.481 163.606 160.999C162.972 163.518 163.883 166.153 164.884 168.543C165.885 170.933 167.013 173.41 166.823 176.003C166.638 178.527 168.207 180.793 169.699 182.808Z" fill="#00160A"/>
<path fill-rule="evenodd" clip-rule="evenodd" d="M31.5153 129.061C31.4029 128.748 31.9371 128.66 32.2236 128.818C32.2112 129.143 31.7241 129.307 31.5261 129.053L31.5153 129.061Z" fill="#00160A"/>
<path fill-rule="evenodd" clip-rule="evenodd" d="M239.296 257.207C239.884 257.292 240.197 258.035 240.063 258.629C239.93 259.223 239.494 259.688 239.077 260.122C235.7 263.625 232.324 267.129 228.948 270.633C228.698 270.891 228.406 271.169 228.051 271.157C227.575 271.142 227.263 270.576 227.321 270.091C227.379 269.605 227.69 269.196 227.992 268.818C231.097 264.917 234.466 261.24 238.067 257.819C238.413 257.49 238.829 257.141 239.296 257.207Z" fill="#00160A"/>
<path fill-rule="evenodd" clip-rule="evenodd" d="M140.023 206.538C141.883 206.711 143.314 208.506 143.633 210.395C143.952 212.285 143.379 214.217 142.6 215.96C142.172 216.92 141.679 217.851 141.127 218.742C140.729 219.384 140.223 220.058 139.493 220.183C138.273 220.39 137.417 219.012 136.946 217.838C136.284 216.186 135.676 214.511 135.125 212.817C134.854 211.986 134.593 211.11 134.732 210.244C134.943 208.922 136.038 207.932 137.186 207.292C138.057 206.806 139.036 206.447 140.023 206.538ZM138.275 216.267C138.418 216.496 138.57 216.73 138.794 216.875C138.977 216.994 139.202 217.044 139.417 217.013C139.97 216.934 140.326 216.387 140.608 215.893C141.348 214.598 142.107 213.24 142.19 211.741C142.273 210.243 141.444 208.576 140.013 208.267C138.34 207.906 136.78 209.627 136.638 211.377C136.497 213.127 137.352 214.79 138.275 216.267Z" fill="#FFB61D"/>
<path fill-rule="evenodd" clip-rule="evenodd" d="M139.943 210.09C140.403 210.241 140.798 210.586 141.02 211.026C141.218 211.417 141.278 211.881 141.185 212.311C140.973 213.306 139.878 214 138.917 213.75C137.955 213.5 137.315 212.353 137.589 211.375C137.864 210.397 139 209.776 139.943 210.09ZM139.731 212.154C140.081 211.965 139.768 211.276 139.402 211.429C139.118 211.468 138.93 211.834 139.06 212.097C139.189 212.358 139.588 212.419 139.786 212.207L139.731 212.154Z" fill="#FFB61D"/>
<path fill-rule="evenodd" clip-rule="evenodd" d="M238.394 228.914C237.357 227.764 236.425 226.515 235.614 225.187C235.355 224.763 235.893 224.21 236.376 224.276C236.86 224.343 237.215 224.759 237.523 225.148C238.598 226.5 239.672 227.853 240.747 229.206C240.624 229.689 240.03 229.908 239.56 229.779C239.09 229.652 238.725 229.28 238.394 228.914Z" fill="#00160A"/>
<path fill-rule="evenodd" clip-rule="evenodd" d="M273.799 291.606C273.81 291.764 273.754 291.918 273.695 292.064C273.105 293.539 272.227 294.892 271.127 296.019C269.379 297.811 267.009 299.139 266.072 301.487C265.851 302.043 265.023 302.124 264.593 301.716C264.163 301.308 264.104 300.609 264.295 300.041C264.485 299.472 264.879 299.004 265.263 298.551C266.517 297.076 267.77 295.6 269.024 294.124C269.984 292.994 270.987 291.83 272.318 291.21C272.865 290.955 273.752 290.991 273.799 291.606Z" fill="#00160A"/>
<path fill-rule="evenodd" clip-rule="evenodd" d="M239.671 222.77C240.908 224.262 242.145 225.755 243.383 227.247C243.59 227.497 243.81 227.783 243.796 228.111C243.774 228.623 243.163 228.928 242.678 228.808C242.193 228.689 241.827 228.292 241.501 227.904C240.453 226.656 239.514 225.311 238.7 223.89C238.382 223.337 238.259 222.368 238.879 222.286C239.198 222.243 239.463 222.519 239.671 222.77Z" fill="#00160A"/>
<path fill-rule="evenodd" clip-rule="evenodd" d="M225.423 231.088C225.234 230.817 225.04 230.464 225.199 230.173C225.462 229.694 226.174 230.066 226.53 230.478C227.787 231.933 228.857 233.559 229.703 235.299C228.897 235.718 228.04 234.865 227.516 234.109C226.818 233.102 226.12 232.096 225.423 231.088Z" fill="#00160A"/>
<path fill-rule="evenodd" clip-rule="evenodd" d="M226.537 235.374C227.041 235.912 227.55 236.795 227.026 237.311C226.492 237.836 225.639 237.244 225.168 236.66C224.028 235.246 223.037 233.707 222.217 232.077C222.743 231.613 223.522 232.153 224.003 232.666C224.848 233.568 225.692 234.471 226.537 235.374Z" fill="#00160A"/>
<path fill-rule="evenodd" clip-rule="evenodd" d="M227.908 230.082C227.68 229.739 227.467 229.266 227.713 228.937C228.066 228.466 228.782 228.898 229.177 229.333C230.322 230.592 231.466 231.851 232.611 233.111C232.56 233.566 232.04 233.839 231.599 233.772C231.157 233.705 230.789 233.399 230.458 233.091C229.496 232.197 228.638 231.185 227.908 230.082Z" fill="#00160A"/>
<path fill-rule="evenodd" clip-rule="evenodd" d="M235.125 227.29C235.838 228.224 236.551 229.157 237.264 230.09C237.546 230.461 237.845 230.936 237.66 231.367C237.483 231.782 236.921 231.891 236.515 231.713C236.109 231.535 235.825 231.157 235.56 230.794C234.816 229.775 234.079 228.75 233.349 227.719C233.187 227.492 233.019 227.237 233.043 226.957C233.084 226.489 233.666 226.247 234.101 226.39C234.536 226.533 234.844 226.921 235.125 227.29Z" fill="#00160A"/>
<path fill-rule="evenodd" clip-rule="evenodd" d="M234.588 231.595C234.736 231.761 234.894 231.953 234.878 232.177C234.856 232.475 234.516 232.661 234.227 232.616C233.939 232.572 233.701 232.37 233.484 232.169C232.062 230.856 230.862 229.288 229.957 227.558C230.135 227.082 230.836 227.405 231.172 227.78C232.31 229.052 233.449 230.323 234.588 231.595Z" fill="#00160A"/>
<path fill-rule="evenodd" clip-rule="evenodd" d="M248.405 223.175C248.516 223.306 248.633 223.456 248.626 223.629C248.616 223.891 248.313 224.055 248.061 224.011C247.809 223.967 247.606 223.782 247.418 223.605C246.079 222.334 244.797 220.999 243.58 219.604C244.011 219.011 244.92 219.487 245.442 219.997C246.478 221.007 247.467 222.068 248.405 223.175Z" fill="#00160A"/>
<path fill-rule="evenodd" clip-rule="evenodd" d="M244.161 224.444C243.412 223.391 242.663 222.338 241.914 221.284C241.777 221.091 241.632 220.856 241.706 220.629C241.851 220.183 242.511 220.382 242.866 220.68C243.992 221.623 244.949 222.78 245.672 224.075C245.812 224.326 245.947 224.624 245.848 224.895C245.721 225.24 245.261 225.341 244.931 225.197C244.6 225.053 244.373 224.742 244.161 224.444Z" fill="#00160A"/>
<path fill-rule="evenodd" clip-rule="evenodd" d="M250.136 220.574C249.396 219.757 248.657 218.94 247.917 218.123C247.653 217.832 247.972 217.316 248.357 217.273C248.742 217.231 249.094 217.481 249.399 217.725C249.96 218.176 250.502 218.652 251.021 219.153C251.308 219.43 251.6 219.733 251.708 220.121C251.816 220.51 251.667 221.004 251.295 221.137C250.866 221.288 250.445 220.915 250.136 220.574Z" fill="#00160A"/>
<path fill-rule="evenodd" clip-rule="evenodd" d="M248.701 222.192C247.677 221.113 246.696 219.991 245.761 218.831C245.599 218.629 245.427 218.38 245.496 218.127C245.575 217.842 245.938 217.731 246.211 217.826C246.484 217.921 246.684 218.157 246.87 218.383C247.726 219.423 248.582 220.463 249.438 221.503C249.67 221.784 249.897 222.227 249.635 222.478C249.37 222.73 248.953 222.457 248.701 222.192Z" fill="#00160A"/>
<path fill-rule="evenodd" clip-rule="evenodd" d="M297.42 288.846C298.576 288.48 301.502 287.665 302.658 287.299C303.176 287.135 303.946 287.114 304.044 287.662C304.124 288.112 303.619 288.419 303.196 288.565C302.029 288.968 299.05 289.696 297.828 289.848C297.393 289.902 296.76 289.735 296.848 289.295C296.899 289.041 297.179 288.923 297.42 288.846Z" fill="#00160A"/>
<path fill-rule="evenodd" clip-rule="evenodd" d="M168.262 239.216C170.092 239.243 172.255 239.681 172.985 241.404C173.671 243.022 172.593 244.968 171.081 245.808C169.569 246.648 167.767 246.669 166.048 246.666C142.593 246.635 119.139 246.054 95.71 244.923C94.25 244.853 94.112 242.69 94.4455 241.229C94.6445 240.357 94.8685 239.438 95.481 238.8C96.3625 237.883 97.7605 237.82 99.0155 237.816C115.859 237.76 132.732 237.706 149.504 239.297C152.16 239.549 154.82 239.843 157.488 239.816C161.085 239.78 164.664 239.162 168.262 239.216ZM170.888 243.587C171.281 242.8 170.702 241.798 169.916 241.436C169.13 241.075 168.225 241.169 167.367 241.256C156.372 242.366 145.302 241.084 134.273 240.423C126.257 239.942 118.225 239.788 110.197 239.635C106.85 239.571 103.503 239.508 100.156 239.444C99.0885 239.424 97.9185 239.438 97.0985 240.14C96.278 240.842 96.2505 242.496 97.2685 242.828C97.4525 242.888 97.648 242.897 97.841 242.907C121.405 244.083 145 244.611 168.591 244.49C169.456 244.486 170.493 244.377 170.888 243.587Z" fill="#00160A"/>
<path fill-rule="evenodd" clip-rule="evenodd" d="M153.287 258.681C155.379 263.381 159.885 266.861 164.864 267.621C167.206 267.979 168.805 270.166 170.139 272.175C171.526 274.263 172.543 277.802 170.251 278.724C179.146 288.795 188.042 298.866 196.937 308.937C197.971 310.107 198.975 312.059 197.776 313.05C197.331 313.418 196.722 313.476 196.151 313.495C188.822 313.747 181.907 310.226 175.564 306.447C166.431 301.006 157.707 294.84 149.498 288.021C143.5 283.039 134.884 281.614 127.666 284.41C123.921 285.86 119.227 282.903 118.79 278.819C118.353 274.735 122.31 270.802 126.272 271.383C120.315 262.309 109.662 256.701 99.0085 257.032C86.15 257.431 73.2405 256.046 60.74 252.926C59.642 252.652 58.4635 252.31 57.7745 251.39C56.4015 249.557 57.842 246.949 59.3515 245.232C70.4715 232.58 87.5825 225.753 104.106 227.378C104.81 227.447 105.193 226.569 105.358 225.864C109.559 207.891 113.759 189.919 117.96 171.947C118.466 169.78 121.679 169.48 123.271 170.995C124.863 172.51 125.213 174.926 125.396 177.147C126.764 193.701 124.375 211.523 132.391 225.955C132.764 226.627 133.186 227.316 133.842 227.697C134.488 228.074 135.266 228.097 136.009 228.11C150.85 228.38 165.691 228.65 180.532 228.92C182.381 228.953 184.651 228.728 185.398 226.991C187.313 222.54 189.227 218.089 191.141 213.638C191.75 212.222 192.59 210.616 194.08 210.383C196.215 210.048 197.566 212.801 197.497 215.017C197.428 217.233 196.702 219.587 197.652 221.578C201.139 217.773 204.685 213.919 209.045 211.226C213.404 208.532 218.76 207.101 223.649 208.549C219.326 215.604 215.004 222.66 210.682 229.715C214.292 232.167 214.577 238.37 211.207 241.16C209.768 242.351 210.91 244.702 212.102 246.153C215.836 250.696 219.569 255.24 223.303 259.784C220.116 261.301 216.404 259.74 213.271 258.109C207.67 255.196 202.204 252.012 196.895 248.572C194.318 246.903 191.479 250.032 189.14 252.037C185.428 255.221 180.303 255.854 175.491 256.358C168.09 257.132 160.689 257.906 153.287 258.681ZM166.197 248.804C170.745 249.06 175.378 249.383 179.79 248.226C184.308 247.041 188.419 244.282 191.29 240.51C191.987 239.594 193.208 239.335 194.324 239.137C198.176 238.457 202.234 237.791 205.914 239.145C207.574 239.755 209.6 239.056 210.564 237.54C211.529 236.025 211.338 233.839 210.126 232.524C208.815 232.487 208.576 234.397 207.88 235.539C206.967 237.039 204.973 237.284 203.252 237.373C196.937 237.699 190.621 238.024 184.306 238.35C182.773 238.43 180.661 237.972 180.707 236.396C180.727 235.703 181.22 235.13 181.704 234.646C183.399 232.947 185.335 231.5 187.431 230.365C161.788 230.565 136.142 230.269 110.511 229.477C97.9065 229.088 84.466 228.794 73.726 235.577C72.7235 236.211 71.9395 238.078 73.103 238.263C76.529 238.805 79.955 239.348 83.3805 239.891C83.789 239.955 84.2255 240.034 84.5205 240.33C85.406 241.218 84.1655 242.646 83.025 243.139C78.319 245.173 72.711 244.863 68.2455 242.321C67.233 241.745 66.0325 241.044 65.0015 241.583C63.7555 242.235 63.927 244.291 64.9835 245.231C66.04 246.171 67.545 246.303 68.9405 246.391C81.475 247.185 94.01 247.98 106.545 248.774C110.069 248.996 113.603 249.22 117.126 248.994C133.461 247.949 149.855 247.886 166.197 248.804ZM184.495 298.693C180.108 292.496 175.111 286.755 169.604 281.584C167.801 279.892 166.213 277.976 164.63 276.065C157.709 267.711 150.787 259.357 143.866 251.004C143.175 250.169 141.98 250.06 140.915 250.025C131.824 249.73 122.703 250.423 113.755 252.09C113.093 252.214 112.379 252.373 111.942 252.898C110.929 254.115 112.195 255.893 113.383 256.931C125.265 267.318 137.583 277.178 150.293 286.475C152.632 288.186 155.006 289.891 157.648 291.049C162.631 293.234 167.614 295.419 172.598 297.604C176.41 299.275 180.956 300.91 184.495 298.693ZM124.985 206.461C124.802 204.02 124.801 201.537 124.148 199.183C122.971 194.942 119.833 191.612 116.709 188.586C116.467 188.352 116.147 188.099 115.834 188.216C115.549 188.324 115.446 188.674 115.381 188.978C113.053 199.862 110.725 210.746 108.397 221.631C107.958 223.685 107.516 225.768 107.611 227.869C115.773 227.974 123.934 228.08 132.096 228.185C128.03 221.694 125.562 214.156 124.985 206.461ZM220.881 210.075C215.812 209.63 210.59 211.543 206.94 215.183C200.254 221.849 193.115 228.036 185.591 233.682C184.561 234.455 183.458 235.312 183.108 236.572C189.412 236.28 195.715 235.988 202.018 235.696C203.681 235.619 205.638 235.363 206.433 233.862C210.782 225.648 215.61 217.7 220.881 210.075ZM59.088 248.61C58.916 248.988 58.764 249.408 58.8595 249.813C59.028 250.528 59.842 250.825 60.539 251C74.6325 254.51 89.2541 254.962 103.751 255.398C105.193 255.441 106.69 255.475 108.014 254.886C109.339 254.298 110.439 252.9 110.224 251.435C100.801 250.094 91.2895 249.407 81.777 249.38C76.078 249.364 70.217 249.558 64.874 247.522C63.5855 247.03 62.127 246.045 62.291 244.644C60.9185 245.658 59.8045 247.038 59.088 248.61ZM193.48 245.998C192.974 244.871 191.549 244.455 190.368 244.715C189.187 244.975 188.184 245.743 187.193 246.453C184.907 248.092 182.434 249.538 179.721 250.198C177.355 250.774 174.894 250.733 172.463 250.688C163.589 250.527 154.715 250.366 145.842 250.204C147.818 253.231 150.526 256.632 154.055 256.234C160.957 255.456 167.949 255.642 174.819 254.602C181.688 253.561 188.649 251.119 193.48 245.998ZM214.011 253.791C214.334 253.746 214.711 253.635 214.812 253.318C214.897 253.051 214.741 252.772 214.59 252.538C212.034 248.589 208.886 245.088 205.753 241.607C205.275 241.075 204.776 240.529 204.127 240.248C203.455 239.958 202.697 239.986 201.97 240.042C198.998 240.27 196.054 240.892 193.236 241.888C193.005 241.969 192.738 242.1 192.712 242.349C192.692 242.542 192.832 242.71 192.965 242.848C195.927 245.939 199.631 248.147 203.287 250.317C206.595 252.281 210.224 254.315 214.011 253.791ZM129.742 273.646C129.465 273.427 129.171 273.199 128.825 273.153C128.544 273.115 128.263 273.203 127.992 273.289C127.366 273.489 126.74 273.688 126.113 273.888C125.5 274.083 124.733 274.663 125.087 275.213C126.191 276.931 126.64 279.08 126.317 281.111C126.212 281.769 127.136 282.005 127.784 281.958C131.137 281.715 134.49 281.472 137.842 281.229C138.192 281.204 138.664 281.022 138.582 280.672C135.635 278.33 132.689 275.988 129.742 273.646ZM187.191 227.094C186.955 227.726 187.583 228.413 188.239 228.483C188.895 228.552 189.519 228.212 190.095 227.883C192.173 226.696 194.413 225.317 195.198 223.013C195.454 222.262 195.533 221.462 195.61 220.67C195.742 219.312 195.874 217.954 196.007 216.596C196.036 216.295 196.06 215.968 195.905 215.71C195.749 215.453 195.336 215.349 195.164 215.594C194.467 216.588 193.444 217.337 192.301 217.688C191.807 217.84 191.276 217.927 190.859 218.24C190.363 218.612 190.119 219.234 189.9 219.824C188.997 222.247 188.094 224.67 187.191 227.094ZM166.532 270.615C165.627 268.881 163.133 268.299 161.587 269.46C163.58 271.059 164.704 273.527 166.396 275.458C166.979 276.122 167.736 276.765 168.605 276.706C169.474 276.648 170.192 275.456 169.576 274.823C168.368 273.583 167.339 272.16 166.532 270.615ZM122.21 275.342C120.864 276.691 121.323 278.975 121.878 280.82C122.065 281.442 122.662 282.215 123.157 281.809C123.326 281.671 123.386 281.44 123.436 281.225C123.684 280.165 123.934 279.08 123.823 277.996C123.712 276.912 123.169 275.81 122.21 275.342Z" fill="#00160A"/>
<path fill-rule="evenodd" clip-rule="evenodd" d="M271.029 324.977C268.215 322.097 266.882 318.069 265.638 314.194C262.38 319.039 258.154 322.477 253.158 319.587C248.163 316.696 241.744 308.366 238.157 303.773C231.735 295.55 224.106 288.321 215.607 282.408C220.146 287.52 222.86 294.304 223.133 301.215C226.576 301.179 230.019 301.142 233.462 301.105C221.887 305.155 209.485 306.698 197.303 305.605C203.923 299.89 209.1 292.427 212.195 284.137C211.505 281.893 208.221 282.413 206.304 283.701C204.387 284.99 201.906 286.626 200.059 285.233C197.785 283.518 197.941 278.147 195.242 278.987C188.232 281.167 179.923 276.835 177.501 269.739C175.848 270.8 174.195 271.861 172.541 272.922C171.745 270.293 175.431 268.261 177.915 269.298C180.4 270.335 181.855 272.915 183.579 275.025C185.301 277.135 188.065 278.998 190.523 277.898C195.105 275.849 201.132 279.549 201.54 284.663C205.093 281.736 209.966 280.575 214.411 281.598C211.576 277.381 208.411 273.397 204.958 269.697C207.583 266.105 210.829 262.993 214.499 260.55C212.698 264.046 210.201 267.162 207.208 269.651C222.562 285.106 237.916 300.561 253.27 316.015C254.237 316.988 255.345 318.025 256.698 318.044C258.181 318.065 259.377 316.866 260.388 315.752C267.594 307.812 274.8 299.873 282.007 291.934C283.884 289.865 285.86 287.585 286.142 284.772C286.496 281.24 284.093 278.108 281.8 275.449C272.573 264.755 262.756 254.597 252.41 245.041C247.872 240.849 241.891 236.491 236.183 238.71C229.295 241.388 227.656 252.03 220.581 254.132C222.697 251.147 224.812 248.162 226.928 245.177C222.734 242.062 217.487 235.111 217.214 229.804C220.581 226.655 224.732 224.271 228.174 222.443C224.732 214.12 225.141 212.39 229.745 211.254C234.349 210.117 238.337 208.991 242.569 207.538C254.3 203.51 259.899 184.412 250.052 176.479C244.635 172.115 204.036 129.278 186.605 113.485C187.925 119.53 180.169 125.229 175.021 121.996C176.008 125.481 173.635 129.698 170.128 130.157C166.622 130.617 163.201 126.625 164.428 123.222C165.485 120.293 168.865 119.081 170.827 116.694C172.79 114.307 171.078 109.062 168.411 110.564C167.002 116.385 158.71 118.865 154.477 114.732C152.987 113.277 151.034 112.919 149.038 113.263C146.592 113.684 142.362 114.659 140.553 116.459C137.719 119.28 137.079 123.4 133.705 125.314C133.167 125.619 132.603 125.881 132.008 126.089C127.676 127.605 121.611 123.204 123.86 119.112C111.536 130.779 103.075 146.674 100.166 163.624C106.599 165.507 107.82 174.18 107.802 181.047C100.545 182.938 107.373 197.159 101.096 201.35C93.9415 206.127 95.9305 217.236 98.764 225.502C91.511 209.477 90.6385 190.523 96.3865 173.868C95.8185 184.434 95.2505 195.001 94.6825 205.567C99.549 204.836 101.514 198.748 101.917 193.716C102.319 188.683 102.625 182.762 106.746 180.006C105.208 175.98 104.576 171.591 104.916 167.28C103.125 166.686 101.334 166.093 99.543 165.5C98.467 173.279 90.05 177.106 83.1095 180.419C75.6165 183.995 68.5675 188.549 62.1855 193.937C55.34 199.717 48.8212 207.663 49.5794 216.728C50.3085 225.445 57.625 232.111 65.306 235.9C57.0805 235.881 50.021 228.369 48.6949 220.034C47.369 211.7 50.906 203.126 56.436 196.875C61.966 190.624 69.2985 186.374 76.7345 182.764C86.472 178.036 98.283 171.904 98.6465 160.852C98.9495 151.639 108.792 142.609 104.077 134.764C97.454 123.744 93.7595 110.889 93.4955 97.9434C93.365 91.557 94.5005 84.3273 99.6 80.6667C102.139 78.8443 105.298 78.2083 108.375 77.8454C119.788 76.5 131.547 78.3772 142.023 83.2185C148.205 86.0752 154.957 90.0355 161.32 87.6295C176.154 82.0193 191.934 79.0548 207.742 78.9075C209.85 78.8875 211.598 77.2992 213.066 75.7459C218.839 69.6346 223.658 62.563 229.941 57.0066C236.224 51.4503 244.583 47.4502 252.704 49.1698C261.207 50.97 267.555 58.7438 270.332 67.1881C273.109 75.6329 272.952 84.7559 272.764 93.6663C272.429 109.625 291.925 118.316 296.957 133.418C299.923 142.323 309.711 146.449 318.513 149.077C327.315 151.703 337.176 154.614 341.712 162.792C345.938 170.409 343.848 180.387 338.86 187.501C333.871 194.615 326.485 199.489 319.28 204.192C307.615 211.806 310.889 231.28 301.5 241.696C296.767 246.947 298.383 255.326 300.84 262.021C303.296 268.717 306.316 276.164 303.533 282.723C302.012 272.214 299.343 261.882 295.59 251.981C290.356 255.887 293.006 264.293 296.126 270.112C300.058 277.446 303.99 284.78 307.922 292.114C309.557 295.164 311.247 298.525 310.659 301.954C309.987 305.875 306.583 308.587 303.431 310.906C296.235 316.201 289.038 321.495 281.842 326.79C278.613 329.166 273.842 327.857 271.029 324.977ZM286.387 257.381C285.756 256.652 284.601 257.008 283.738 257.417C282.874 257.827 282.009 258.236 281.145 258.647C280.955 258.736 280.747 258.828 280.546 258.772C280.166 258.666 280.102 258.089 280.341 257.768C280.579 257.447 280.982 257.319 281.356 257.194C282.152 256.928 282.93 256.602 283.68 256.219C284.108 256 284.568 255.711 284.685 255.234C284.801 254.758 284.268 254.178 283.874 254.457C282.714 255.278 281.408 255.882 280.041 256.231C279.631 256.335 278.992 256.204 279.088 255.782C279.125 255.62 279.272 255.514 279.409 255.425C280.629 254.637 281.961 254.032 283.349 253.634C283.848 253.491 283.724 252.627 283.247 252.415C282.771 252.203 282.227 252.418 281.751 252.631C280.601 253.146 279.45 253.661 278.3 254.175C278.052 254.286 277.776 254.431 277.71 254.7C277.65 254.94 277.786 255.181 277.916 255.39C278.752 256.734 279.589 258.078 280.425 259.423C280.552 259.628 280.697 259.847 280.922 259.922C281.167 260.003 281.428 259.89 281.661 259.778C283.253 259.016 284.829 258.216 286.387 257.381ZM207.779 111.152C205.072 111.2 203.038 108.039 203.542 105.307C204.046 102.574 206.438 100.53 209.029 99.7196C212.55 98.619 216.755 99.2632 219.561 96.8182C220.822 95.7202 221.591 94.1427 222.739 92.9215C225.242 90.2593 229.595 89.6957 232.663 91.6376C233.352 89.7819 231.314 87.9878 229.406 87.6573C227.499 87.3267 225.443 87.7214 223.686 86.8908C220.599 85.432 216.965 87.3061 214.495 89.7013C212.024 92.0971 209.999 95.1144 206.954 96.6632C203.91 98.2119 199.303 97.348 198.466 93.9671C198.205 92.9138 198.173 91.518 197.173 91.1628C195.594 90.6022 194.773 88.7106 194.867 86.9986C194.96 85.2867 195.76 83.7113 196.542 82.1959C193.449 82.0362 190.343 82.1348 187.265 82.4906C186.527 82.5758 185.589 82.8961 185.59 83.6584C185.593 85.2348 184.168 86.3657 182.887 87.2348C180.176 89.0746 177.465 90.9144 174.754 92.7541C174.84 94.5914 177.478 95.0313 179.023 94.1006C180.57 93.1699 181.658 91.5062 183.324 90.8302C184.214 90.4688 185.192 90.4246 186.148 90.3846C187.781 90.3163 189.415 90.248 191.048 90.1798C193.141 90.0925 195.964 90.6382 196.075 92.7855C196.166 94.5467 194.261 95.5754 193.042 96.8182C190.266 99.6456 190.277 105.119 186.633 106.579C185.339 107.097 184.991 108.938 185.559 110.24C186.127 111.542 187.311 112.427 188.431 113.271C207.985 128.001 242.049 165.978 242.794 166.079C243.54 166.18 244.415 165.631 244.372 164.861C244.265 162.868 244.16 160.839 244.635 158.903C245.11 156.968 246.263 155.105 248.04 154.296C249.677 153.55 252.06 153.381 252.415 151.578C253.208 147.545 257.141 144.426 261.142 144.656C263.109 144.77 265.278 145.54 266.914 144.415C265.595 143.13 263.645 142.865 262.009 142.049C260.373 141.233 258.934 139.168 259.911 137.593C261.355 135.268 259.252 132.227 259.685 129.505C259.868 128.35 260.503 127.327 261.175 126.382C263.452 123.177 266.329 120.422 269.603 118.313C270.363 117.823 270.555 116.79 270.674 115.876C270.964 113.669 271.253 111.462 271.543 109.254C271.744 107.714 271.881 105.947 270.852 104.808C267.502 101.101 261.926 100.98 257.004 101.145C252.081 101.31 246.519 101.245 243.109 97.5964C242.051 96.464 240.117 96.849 238.969 97.8854C237.822 98.9218 237.187 100.414 236.333 101.715C233.663 105.78 228.495 107.935 223.821 106.931C221.318 106.394 218.794 105.039 216.335 105.765C213.058 106.732 211.188 111.092 207.779 111.152ZM301.854 211.208C302.005 211.769 302.225 212.41 302.76 212.599C303.19 212.75 303.654 212.544 304.064 212.341C305.423 211.668 306.784 210.996 308.143 210.324C308.841 209.978 309.625 209.521 309.75 208.736C312.267 192.815 311.538 176.361 307.622 160.741C306.696 157.047 305.591 153.391 304.12 149.889C302.24 145.415 299.776 141.228 297.247 137.105C293.607 131.17 289.814 125.334 285.874 119.605C285.143 120.776 284.925 122.194 284.553 123.531C284.182 124.868 283.558 126.254 282.362 126.906C281.165 127.558 279.327 127.005 279.115 125.632C278.656 122.662 275.553 120.417 272.676 120.973C272.057 121.093 271.852 121.883 271.775 122.524C271.074 128.356 270.374 134.189 269.673 140.021C269.622 140.445 269.602 140.949 269.927 141.216C270.197 141.439 270.583 141.389 270.928 141.384C272.887 141.354 274.596 143.454 274.217 145.427C273.839 147.401 271.482 148.679 269.681 147.889C268.904 147.548 268.295 148.63 268.1 149.474C266.924 154.573 265.747 159.671 264.571 164.77C264.224 166.274 265.488 167.693 266.849 168.354C268.21 169.014 269.764 169.254 271.013 170.117C274.14 172.279 274.005 177.197 276.534 180.068C278.594 182.407 282.406 182.832 284.908 181.002C287.146 179.365 288.118 176.375 288.12 173.554C288.121 171.63 289.285 169.757 290.983 168.945C292.682 168.134 294.827 168.426 296.262 169.664C297.659 170.87 298.291 172.744 298.863 174.524C299.116 175.308 299.368 176.165 299.098 176.943C298.655 178.215 297.131 178.592 295.886 179.029C293.598 179.832 291.593 181.457 290.302 183.555C289.672 184.579 289.245 186.016 290.025 186.924C291.931 189.145 293.837 191.365 295.743 193.586C296.74 194.747 297.767 195.964 298.168 197.457C299.397 202.041 300.626 206.624 301.854 211.208ZM107.668 138.208C110.655 132.484 113.672 126.714 117.729 121.733C121.284 117.371 125.565 113.702 129.839 110.085C135.471 105.319 141.137 100.596 146.837 95.9158C149.21 93.9677 151.619 92.0072 154.385 90.7172C146.093 86.9658 137.747 83.1954 128.943 80.9916C120.139 78.7884 110.761 78.2135 102.075 80.8617C101.238 81.1169 100.397 81.4069 99.675 81.91C98.455 82.7601 97.684 84.1363 97.106 85.529C94.834 91.0011 94.9615 97.2017 95.7005 103.102C97.252 115.488 101.358 127.531 107.668 138.208ZM294.898 308.088C294.82 308.919 293.947 309.701 293.214 309.34C292.867 309.169 292.656 308.807 292.465 308.465C289.54 303.223 286.615 297.98 283.69 292.738C281.803 293.467 280.896 295.803 281.108 297.862C281.32 299.92 282.389 301.767 283.434 303.538C285.03 306.247 286.626 308.956 288.223 311.666C287.383 312.553 286.032 311.374 285.41 310.314C283.195 306.538 280.98 302.762 278.764 298.986C274.533 303.454 270.301 307.922 266.07 312.39C268.826 316.813 271.582 321.235 274.337 325.657C274.987 326.699 276.377 327.032 277.555 326.77C278.732 326.508 279.75 325.774 280.732 325.057C288.117 319.665 295.501 314.273 302.886 308.881C303.447 308.471 304.049 308.003 304.214 307.316C304.386 306.598 304.028 305.87 303.681 305.221C286.976 274.022 269.147 243.456 250.243 213.609C249.687 212.73 248.983 211.76 247.965 211.69C247.286 211.644 246.656 212.024 246.077 212.39C238.579 217.127 231.082 221.864 223.585 226.6C222.197 227.477 220.809 228.354 219.42 229.231C219.059 229.459 218.67 229.724 218.549 230.141C218.406 230.634 218.689 231.142 218.963 231.573C221.694 235.881 224.577 240.086 227.605 244.18C231.183 240.226 235.439 235.968 240.694 236.102C245.231 236.217 248.974 239.605 252.279 242.799C254.211 244.667 256.144 246.535 258.077 248.403C255.022 242.527 251.41 236.957 247.309 231.796C247.132 230.927 248.622 231.165 249.197 231.828C254.92 238.438 258.07 247.125 264.098 253.444C270.257 259.901 276.417 266.358 282.576 272.816C285.191 275.559 287.968 278.658 288.174 282.49C288.363 285.991 286.341 289.175 284.309 291.993C287.891 296.334 291.169 300.942 294.105 305.768C294.536 306.476 294.977 307.257 294.898 308.088ZM229.669 82.9166C232.263 83.4443 234.86 83.9725 237.404 84.7102C243.958 86.6106 250.052 89.8615 256.092 93.0909C261.365 95.9091 266.665 98.7463 271.397 102.439C271.911 89.2378 271.401 76.1293 267.123 63.6687C265.889 60.0753 262.909 56.2007 260.01 53.8219C256.606 51.0291 251.882 50.5376 247.568 51.1711C240.033 52.2778 233.171 56.4209 227.518 61.6544C221.866 66.8878 217.283 73.2023 212.739 79.4716C218.382 80.62 224.026 81.7683 229.669 82.9166ZM305.362 146.995C312.643 166.064 315.02 187.081 312.19 207.356C321.43 201.92 329.688 194.732 336.422 186.264C339.779 182.044 342.889 177.078 342.671 171.634C342.491 167.161 340.012 163.032 336.74 160.073C333.466 157.114 329.447 155.18 325.408 153.494C318.91 150.781 312.199 148.606 305.362 146.995ZM291.085 179.6C292.795 178.311 294.627 177.19 296.544 176.258C296.539 175.001 296.525 173.704 296.034 172.553C295.543 171.403 294.442 170.429 293.221 170.515C291.938 170.606 290.97 171.81 290.563 173.062C290.155 174.315 290.148 175.665 289.866 176.953C289.087 180.516 286.012 183.425 282.49 183.93C278.967 184.435 275.233 182.503 273.532 179.295C272.162 176.711 271.957 173.366 269.773 171.459C268.564 170.402 266.954 169.997 265.408 169.624C265.049 169.538 264.668 169.451 264.319 169.574C263.758 169.771 263.494 170.414 263.297 170.988C261.973 174.83 260.65 178.672 259.326 182.514C258.836 183.935 258.434 185.752 259.528 186.757C269.632 196.04 273.744 210.805 284.02 219.888C284.324 220.157 284.699 220.438 285.09 220.342C289.991 219.148 294.743 217.308 299.192 214.882C299.546 214.689 299.915 214.475 300.119 214.121C300.325 213.761 300.324 213.318 300.302 212.901C300.156 210.03 299.325 207.199 297.901 204.723C297.228 203.552 296.403 202.396 296.275 201.043C296.165 199.887 296.583 198.703 296.315 197.575C296.097 196.654 295.454 195.911 294.833 195.209C293.079 193.226 291.325 191.244 289.57 189.261C288.702 188.28 287.801 187.235 287.535 185.938C287.017 183.412 289.057 181.127 291.085 179.6ZM181.118 121.229C183.188 119.951 184.442 117.401 184.215 114.932C183.885 111.329 180.863 108.703 178.074 106.491C173.503 102.868 163.05 94.0631 158.454 92.1705C153.858 90.2778 133.525 108.899 126.46 116.038C126.103 116.399 125.73 116.792 125.631 117.296C125.531 117.8 123.372 123.221 127.719 124.539C132.067 125.856 132.533 124.841 134.309 123.221C136.085 121.601 137.119 119.303 137.953 117.019C138.666 115.069 140.821 114.135 142.809 113.72C144.797 113.304 146.939 113.149 148.584 111.929C150.297 110.658 152.689 110.732 154.641 111.563C156.593 112.393 158.205 113.871 159.776 115.322C161.089 116.534 163.211 115.179 164.02 113.568C164.829 111.957 165.169 109.969 166.584 108.886C168.607 107.336 171.712 108.723 172.958 110.977C174.73 114.182 173.478 118.759 170.339 120.548C168.52 121.584 165.858 122.28 165.786 124.414C165.75 125.475 166.471 126.408 167.275 127.077C168.718 128.274 171.067 128.843 172.296 127.416C174.047 125.382 172.091 121.084 174.517 120.004C176.66 119.05 179.117 122.465 181.118 121.229ZM236.43 98.4773C237.155 97.3218 237.882 96.0559 239.092 95.4666C240.639 94.714 242.497 95.3121 243.964 96.2171C245.432 97.1221 246.742 98.3336 248.352 98.9321C249.99 99.5414 251.785 99.4593 253.525 99.369C256.419 99.2191 259.313 99.0692 262.207 98.9193C244.713 88.5125 225.035 81.2144 204.817 81.0091C203.113 80.9921 201.369 81.0317 199.77 81.6369C198.171 82.2426 196.719 83.5167 196.309 85.2148C195.685 87.8015 197.977 90.5658 200.57 90.6484C199.215 91.6669 199.424 94.0323 200.715 95.1355C202.007 96.2381 203.938 96.2294 205.488 95.5657C207.038 94.9014 208.294 93.6905 209.512 92.5041C211.781 90.2973 214.05 88.09 216.319 85.8827C217.745 84.4956 219.965 84.4366 221.892 84.8283C223.82 85.2199 225.705 85.9776 227.669 85.9283C231.793 85.8257 235.446 90.1721 234.742 94.345C232.891 92.5529 230.199 91.7223 227.693 92.1705C225.187 92.6181 222.926 94.3337 221.774 96.6627C220.84 98.5502 218.755 99.5481 216.727 99.9362C214.7 100.325 212.605 100.244 210.585 100.672C208.565 101.1 206.507 102.192 205.68 104.132C204.854 106.073 205.934 108.839 207.987 109.035C210.379 109.263 211.775 106.379 213.788 105.032C215.703 103.749 218.202 103.917 220.436 104.416C222.67 104.914 224.905 105.7 227.182 105.498C231.141 105.147 234.277 101.906 236.43 98.4773ZM300.495 216.737C295.911 218.552 291.327 220.366 286.743 222.181C286.106 222.433 285.329 223.078 285.712 223.659C290.085 230.284 293.451 237.609 295.651 245.286C295.865 246.033 296.969 245.474 297.401 244.833C301.41 238.882 304.607 232.355 306.868 225.502C307.277 224.262 307.659 222.922 307.307 221.663C306.756 219.685 304.685 218.687 303.159 217.353C302.737 216.984 302.311 216.558 301.763 216.476C301.331 216.412 300.902 216.576 300.495 216.737ZM247.613 157.889C245.508 160.185 247.277 164.074 246.195 167.025C245.956 167.679 245.568 168.369 245.789 169.03C245.899 169.36 246.146 169.618 246.385 169.865C247.134 170.635 247.883 171.405 248.632 172.176C249.219 172.78 250.174 173.407 250.786 172.828C253.304 170.451 256.354 168.67 259.633 167.666C260.577 167.377 261.599 167.116 262.258 166.364C262.839 165.7 263.027 164.778 263.191 163.902C264.117 158.999 265.037 154.094 265.95 149.189C266.021 148.806 266.089 148.395 265.938 148.039C265.777 147.66 265.404 147.428 265.04 147.25C261.353 145.446 256.393 147.294 254.691 151.107C254.113 152.4 253.846 153.899 252.875 154.915C251.461 156.397 248.999 156.38 247.613 157.889ZM174.081 95.1704C173.368 94.5061 172.631 93.6725 172.701 92.6864C172.776 91.6356 173.724 90.9113 174.583 90.3343C177.626 88.2907 180.669 86.2471 183.712 84.2041C183.638 83.5973 182.809 83.5331 182.223 83.6425C174.343 85.1137 166.623 87.4848 159.251 90.6988C167.473 95.9019 175.36 101.661 182.845 107.928C183.753 105.811 186.091 104.769 187.475 102.943C189.224 100.637 189.355 97.2129 191.505 95.2982C192.56 94.3583 194.127 93.7069 194.339 92.2896C192.493 92.3029 190.646 92.3163 188.801 92.3291C186.555 92.3455 184.164 92.4051 182.298 93.6879C180.67 94.8075 179.419 96.8439 177.46 96.9014C176.169 96.9393 175.037 96.0615 174.081 95.1704ZM266.111 221.251C267.544 223.888 268.977 226.525 270.409 229.163C267.785 220.589 264.655 212.178 261.043 203.992C260.914 203.701 260.767 203.39 260.492 203.241C260.153 203.057 259.741 203.178 259.377 203.303C249.2 206.797 239.023 210.29 228.845 213.784C228.536 213.89 228.201 214.016 228.035 214.305C227.836 214.651 227.955 215.091 228.088 215.469C228.684 217.158 229.465 218.779 230.411 220.291C236.794 216.479 243.176 212.666 249.559 208.853C250.542 208.266 251.576 207.663 252.712 207.619C253.652 207.582 254.565 207.936 255.405 208.371C260.391 210.953 263.39 216.243 266.111 221.251ZM219.904 292.6C218.62 289.787 216.419 287.484 213.892 285.777C210.788 291.695 207.227 297.362 203.253 302.704C202.949 303.112 202.837 303.948 203.336 303.912C208.182 303.563 213.029 303.213 217.876 302.863C218.849 302.793 220.018 302.583 220.375 301.651C221.484 298.761 221.187 295.413 219.904 292.6ZM293.077 251.1C293.469 250.482 293.869 249.848 294.028 249.129C294.239 248.179 294.006 247.189 293.756 246.249C291.834 239.017 288.81 232.114 285.035 225.697C284.596 224.95 284.123 224.184 283.408 223.713C282.692 223.242 281.663 223.156 281.039 223.748C280.205 224.539 280.521 225.936 280.901 227.035C283.91 235.739 286.919 244.443 289.928 253.146C290.108 253.665 290.517 254.303 291.017 254.104C291.211 254.026 291.338 253.836 291.452 253.657C291.994 252.804 292.535 251.952 293.077 251.1ZM262.877 140.399C263.748 141.154 264.904 141.439 266.014 141.702C266.905 141.912 267.432 140.721 267.586 139.796C268.615 133.62 269.276 127.387 269.936 121.158C269.431 120.938 268.895 121.362 268.501 121.754C267.086 123.164 265.67 124.574 264.254 125.984C263.269 126.966 262.239 128.026 261.927 129.399C261.332 132.011 263.5 134.989 262.129 137.273C261.531 138.269 262.006 139.645 262.877 140.399ZM259.793 189.801C259.454 189.409 259.086 189.004 258.6 188.842C258.114 188.681 257.479 188.864 257.31 189.359C255.803 193.786 254.296 198.212 252.789 202.639C252.646 203.059 252.742 203.768 253.158 203.641C255.7 202.871 258.045 201.508 260.598 200.776C263.15 200.045 266.136 200.054 268.176 201.791C265.797 197.511 262.982 193.485 259.793 189.801ZM281.566 125.075C282.331 122.945 283.095 120.816 283.86 118.687C284.008 118.274 283.714 117.844 283.439 117.508C280.709 114.169 277.957 110.808 274.652 108.072C274.511 107.955 274.352 107.834 274.172 107.844C273.828 107.863 273.691 108.301 273.642 108.651C273.231 111.62 272.819 114.589 272.408 117.558C272.288 118.423 273.065 119.175 273.879 119.431C274.693 119.687 275.568 119.615 276.405 119.775C277.948 120.07 279.315 121.204 279.919 122.692C280.303 123.635 280.587 124.89 281.566 125.075ZM257.163 182.425C258.608 178.631 259.934 174.788 261.137 170.905C261.218 170.644 261.298 170.36 261.212 170.1C260.983 169.407 259.983 169.586 259.345 169.914C256.839 171.203 254.429 172.689 252.143 174.355C251.86 174.561 251.55 174.822 251.539 175.179C251.531 175.45 251.701 175.687 251.863 175.9C253.56 178.133 255.328 180.31 257.163 182.425ZM278.364 244.972C278.093 244.669 277.648 244.622 277.247 244.629C276.341 244.644 275.438 244.834 274.599 245.185C274.186 245.358 273.776 245.572 273.331 245.596C272.885 245.619 272.386 245.381 272.276 244.937C273.453 244.074 274.881 243.574 276.327 243.52C276.97 243.495 276.989 242.375 276.424 242.057C275.86 241.74 275.163 241.972 274.562 242.209C273.57 242.601 272.576 242.992 271.583 243.384C271.294 243.498 270.997 243.139 271.039 242.825C271.081 242.509 271.33 242.27 271.576 242.077C272.469 241.376 273.535 240.91 274.646 240.734C275.175 240.651 275.26 239.807 274.874 239.427C274.487 239.046 273.892 239.022 273.357 239.05C271.801 239.134 270.259 239.48 268.811 240.071C270.046 242.345 271.307 244.604 272.592 246.847C272.925 247.428 273.287 248.035 273.864 248.356C274.9 247.013 276.476 246.122 278.135 245.942C278.534 245.898 278.635 245.276 278.364 244.972ZM299.625 285.998C298.673 286.247 297.731 286.532 296.799 286.851C296.544 286.938 296.25 287.074 296.207 287.346C296.181 287.509 296.257 287.667 296.331 287.813C296.878 288.893 297.426 289.972 297.973 291.051C298.195 291.489 298.641 292.003 299.056 291.753C300.42 290.93 301.945 290.385 303.513 290.163C303.944 290.102 304.226 289.627 304.236 289.18C304.246 288.732 304.053 288.311 303.865 287.907C303.542 287.216 303.187 286.488 302.552 286.085C301.697 285.543 300.598 285.743 299.625 285.998ZM303.297 297.862C302.924 297.931 302.495 298.046 302.349 298.405C302.23 298.697 302.355 299.028 302.479 299.317C302.954 300.423 303.429 301.528 303.904 302.634C304.051 302.98 304.248 303.367 304.607 303.449C304.862 303.507 305.121 303.389 305.357 303.272C306.088 302.913 306.819 302.553 307.551 302.193C307.962 301.991 308.399 301.765 308.625 301.358C308.851 300.951 308.73 300.313 308.29 300.189C308.056 300.122 307.808 300.217 307.589 300.327C306.934 300.653 306.343 301.128 305.644 301.337C304.945 301.546 304.054 301.386 303.723 300.72C305.445 300.092 307.092 299.245 308.615 298.203C308.478 297.227 307.145 297.14 306.199 297.317C305.232 297.499 304.264 297.68 303.297 297.862ZM289.219 272.478C289.499 272.165 289.906 272.012 290.296 271.87C291.369 271.478 292.442 271.087 293.516 270.695C294.074 270.491 293.937 269.539 293.41 269.261C292.884 268.982 292.248 269.156 291.682 269.335C290.455 269.723 289.227 270.111 288 270.499C287.84 270.55 287.671 270.606 287.559 270.733C287.302 271.026 287.475 271.486 287.657 271.831C288.144 272.754 288.63 273.676 289.116 274.599C289.173 274.707 289.237 274.821 289.345 274.873C289.475 274.936 289.628 274.888 289.764 274.84C291.258 274.31 292.752 273.78 294.246 273.25C294.602 273.123 295.03 272.892 295 272.505C294.959 271.979 294.208 271.975 293.717 272.135C292.181 272.635 290.644 273.136 289.108 273.637C288.837 273.316 288.939 272.791 289.219 272.478ZM308.315 212.298C306.992 213.066 305.67 213.833 304.348 214.6C304.189 214.692 304.021 214.793 303.934 214.958C303.703 215.394 304.16 215.867 304.561 216.144C305.384 216.709 306.206 217.275 307.029 217.841C307.191 217.953 307.366 218.068 307.56 218.07C308.003 218.074 308.232 217.539 308.345 217.099C308.71 215.688 309.075 214.277 309.44 212.865C309.486 212.688 309.531 212.494 309.457 212.327C309.278 211.924 308.69 212.081 308.315 212.298ZM290.901 275.639C290.582 275.724 290.218 275.846 290.099 276.162C290.01 276.397 290.09 276.662 290.194 276.89C290.462 277.478 290.886 277.989 291.408 278.354C292.795 277.811 294.184 277.267 295.571 276.723C296.168 276.489 296.873 276.096 296.848 275.441C296.83 274.972 296.399 274.609 295.951 274.518C295.503 274.428 295.042 274.545 294.599 274.663C293.367 274.988 292.134 275.313 290.901 275.639ZM270.796 224.389C271.281 225.361 272.482 225.643 273.533 225.818C275.209 226.097 276.885 226.376 278.561 226.655C278.591 225.678 277.609 225.029 276.737 224.637C275.139 223.918 273.472 223.363 271.767 222.983C271.583 222.942 271.391 222.903 271.208 222.948C270.662 223.083 270.54 223.875 270.796 224.389ZM264.581 223.652C264.712 223.601 264.845 223.549 264.958 223.464C265.459 223.086 265.306 222.2 264.796 221.837C264.286 221.474 263.595 221.523 263.003 221.714C262.411 221.905 261.858 222.221 261.253 222.362C260.435 222.551 259.364 222.543 259.051 223.342C258.783 224.023 259.397 224.796 260.096 224.954C260.796 225.111 261.512 224.847 262.182 224.586C262.982 224.275 263.781 223.964 264.581 223.652ZM267.799 229.804C268.475 229.351 268.162 228.16 267.444 227.783C266.725 227.407 265.862 227.583 265.076 227.767C264.246 227.962 263.361 228.19 262.797 228.843C262.232 229.496 262.232 230.72 263.003 231.089C264.05 231.592 265.033 230.173 266.176 229.997C266.722 229.914 267.337 230.113 267.799 229.804ZM291.512 267.979C291.738 267.901 291.979 267.814 292.124 267.62C292.286 267.403 292.292 267.095 292.201 266.839C291.986 266.239 291.312 265.92 290.69 265.932C290.067 265.943 289.481 266.215 288.915 266.482C288.195 266.821 287.474 267.16 286.754 267.499C286.358 267.686 285.911 267.94 285.845 268.382C285.779 268.832 286.18 269.24 286.613 269.335C287.047 269.431 287.493 269.297 287.917 269.163C289.119 268.783 290.318 268.388 291.512 267.979ZM294.758 283.638C296.309 282.968 297.861 282.299 299.411 281.629C299.559 281.566 299.71 281.499 299.816 281.378C300.132 281.02 299.844 280.395 299.405 280.223C298.966 280.051 298.476 280.184 298.025 280.318C296.976 280.63 295.927 280.942 294.879 281.253C294.299 281.426 293.651 281.658 293.406 282.224C293.073 283 293.997 283.967 294.758 283.638ZM305.229 292.923C305.849 292.677 305.623 291.605 305.008 291.348C304.393 291.091 303.702 291.355 303.078 291.591C301.857 292.053 300.598 292.41 299.319 292.658C298.873 293.274 299.416 294.219 300.136 294.428C300.855 294.637 301.614 294.357 302.311 294.08C303.285 293.694 304.257 293.309 305.229 292.923ZM272.204 221.549C273.454 221.886 274.704 222.222 275.954 222.559C276.43 222.686 277.164 222.615 277.129 222.111C274.971 220.579 272.486 219.532 269.901 219.065C269.765 219.041 269.62 219.018 269.49 219.067C269.041 219.234 269.212 219.947 269.55 220.293C270.248 221.009 271.25 221.293 272.204 221.549ZM276.927 216.592C277.37 217.683 277.812 218.774 278.254 219.866C278.52 220.523 278.819 221.221 279.406 221.6C279.994 221.978 280.95 221.817 281.142 221.134C281.288 220.613 280.946 220.092 280.62 219.665C279.375 218.036 278.093 216.436 276.776 214.868C276.484 215.387 276.703 216.039 276.927 216.592ZM274.787 218.642C275.021 218.726 275.307 218.801 275.496 218.636C275.718 218.443 275.638 218.071 275.487 217.816C274.94 216.89 273.831 216.524 272.816 216.228C271.452 215.83 270.087 215.432 268.723 215.034C268.299 214.91 267.979 215.546 268.177 215.95C268.376 216.354 268.833 216.535 269.25 216.683C271.095 217.336 272.941 217.99 274.787 218.642ZM293.033 278.812C292.649 278.931 292.232 279.076 292.022 279.427C291.649 280.05 292.195 280.864 292.836 281.184C294.283 279.974 296.127 279.276 297.992 279.23C298.627 279.214 298.683 278.122 298.144 277.776C297.606 277.43 296.908 277.609 296.3 277.797C295.211 278.136 294.122 278.474 293.033 278.812ZM286.972 261.756C286.092 261.994 285.212 262.233 284.332 262.472C283.525 262.691 282.514 263.233 282.707 264.067C282.872 264.776 283.837 264.937 284.486 264.639C285.134 264.34 285.628 263.76 286.273 263.455C287.328 262.955 288.812 263.137 289.404 262.112C288.9 261.377 287.817 261.526 286.972 261.756ZM253.995 213.987C253.826 214.061 253.652 214.147 253.541 214.298C253.253 214.686 253.567 215.289 254.012 215.46C254.458 215.63 254.951 215.508 255.413 215.394C256.966 215.013 258.545 214.748 260.136 214.604C260.29 213.709 259.15 213.207 258.265 213.171C256.807 213.111 255.335 213.393 253.995 213.987ZM279.725 248.714C280.181 248.218 279.924 247.113 279.272 247.243C277.543 247.59 275.876 248.261 274.379 249.214C274.029 249.946 274.997 250.704 275.781 250.577C276.565 250.45 277.195 249.86 277.93 249.551C278.544 249.293 279.27 249.21 279.725 248.714ZM280.672 232.675C280.467 232.41 280.14 232.284 279.829 232.17C278.318 231.615 276.808 231.061 275.297 230.506C274.883 230.354 274.419 230.203 274.017 230.384C273.615 230.565 273.455 231.249 273.849 231.449C275.785 232.432 277.842 233.16 279.957 233.612C280.177 233.659 280.422 233.699 280.612 233.575C280.89 233.393 280.877 232.941 280.672 232.675ZM273.559 214.424C273.774 214.556 274.057 214.308 274.063 214.051C274.068 213.794 273.9 213.57 273.731 213.38C272.107 211.562 269.725 210.713 267.447 209.931C266.869 209.733 266.024 209.666 265.855 210.267C268.49 211.518 271.062 212.906 273.559 214.424ZM307.165 295.083C307.029 294.596 306.528 294.292 306.036 294.242C305.545 294.191 305.057 294.341 304.585 294.489C303.761 294.748 302.936 295.006 302.112 295.265C301.542 295.444 300.851 295.795 300.898 296.405C300.937 296.901 301.5 297.198 301.983 297.15C302.465 297.102 302.89 296.823 303.327 296.608C304.281 296.139 305.369 295.964 306.417 296.11C306.906 296.178 307.301 295.571 307.165 295.083ZM255.468 217.694C255.461 218.153 255.81 218.589 256.249 218.672C256.532 218.726 256.822 218.646 257.1 218.566C258.705 218.107 260.309 217.648 261.914 217.189C261.939 216.726 261.549 216.326 261.116 216.191C260.684 216.057 260.22 216.126 259.773 216.196C258.609 216.378 257.443 216.56 256.277 216.742C255.837 216.811 255.475 217.236 255.468 217.694ZM281.97 250.645C282.034 250.215 281.622 249.835 281.202 249.78C280.781 249.726 280.368 249.902 279.979 250.075C278.741 250.624 277.503 251.173 276.264 251.722C275.896 252.202 276.349 252.963 276.93 253.098C277.51 253.233 278.099 252.96 278.635 252.695C279.481 252.276 280.327 251.858 281.173 251.439C281.521 251.267 281.912 251.037 281.97 250.645ZM264.262 206.625C264.404 206.887 264.688 207.025 264.954 207.147C267.16 208.162 269.367 209.177 271.573 210.192C271.965 210.372 272.536 210.495 272.729 210.101C272.937 209.679 272.425 209.276 272.001 209.09C269.628 208.055 267.254 207.02 264.88 205.985C264.761 205.933 264.634 205.879 264.506 205.902C264.219 205.951 264.119 206.365 264.262 206.625ZM275.688 235.848C275.614 235.816 275.535 235.783 275.456 235.799C275.374 235.816 275.306 235.889 275.294 235.974C275.487 237.33 276.968 237.998 278.237 238.421C279.896 238.974 281.556 239.526 283.215 240.079C283.613 239.626 282.962 238.999 282.414 238.762C280.172 237.791 277.93 236.82 275.688 235.848ZM263.421 219.961C263.606 219.603 263.327 219.155 262.977 218.97C262.363 218.646 261.623 218.827 260.957 219.014C260.2 219.228 259.443 219.441 258.685 219.654C258.139 219.808 257.481 220.099 257.461 220.68C257.446 221.114 257.845 221.47 258.262 221.549C258.678 221.629 259.103 221.503 259.509 221.379C260.59 221.048 261.67 220.717 262.75 220.385C263.009 220.306 263.294 220.206 263.421 219.961ZM300.982 283.035C300.531 282.768 299.965 282.925 299.469 283.087C297.892 283.605 296.315 284.122 294.738 284.64C294.39 285.214 295.024 285.976 295.681 286.016C296.338 286.056 296.934 285.663 297.514 285.343C298.57 284.763 299.733 284.389 300.923 284.249C301.44 284.188 301.432 283.303 300.982 283.035ZM270.866 233.887C270.361 233.748 269.826 233.845 269.311 233.942C268.675 234.063 268.039 234.183 267.403 234.304C266.682 234.44 265.766 234.824 265.843 235.573C265.888 236.015 266.313 236.334 266.741 236.398C267.169 236.462 267.6 236.331 268.014 236.202C269.285 235.805 270.554 235.408 271.823 235.011C271.836 234.474 271.371 234.026 270.866 233.887ZM266.535 225.105C266.182 224.735 265.6 224.709 265.115 224.853C264.63 224.996 264.196 225.279 263.722 225.458C263.163 225.668 262.559 225.731 262.003 225.947C261.446 226.163 260.908 226.595 260.812 227.197C261.021 227.699 261.723 227.643 262.236 227.501C263.596 227.125 264.956 226.749 266.315 226.373C266.803 226.238 266.888 225.475 266.535 225.105ZM264.642 231.937C264.076 232.106 264.173 233.067 264.69 233.36C265.207 233.652 265.845 233.491 266.411 233.322C267.6 232.97 268.789 232.617 269.978 232.265C270.065 231.655 269.522 231.103 268.935 230.971C268.349 230.838 267.743 231.011 267.167 231.183C266.325 231.435 265.484 231.686 264.642 231.937ZM271.388 146.067C272.144 145.508 272.027 144.355 272.049 143.399C271.064 143.275 269.985 143.173 269.155 143.73C268.324 144.288 268.101 145.794 268.991 146.246C269.296 146.402 269.652 146.397 269.993 146.39C270.477 146.379 270.995 146.357 271.388 146.067ZM273.293 227.363C272.816 227.313 272.123 227.529 272.259 228C272.324 228.226 272.566 228.337 272.782 228.418C274.854 229.187 277.016 229.696 279.207 229.93C279.479 229.866 279.559 229.472 279.417 229.226C279.275 228.98 279.002 228.853 278.743 228.746C277.001 228.027 275.16 227.56 273.293 227.363ZM263.651 203.751C265.443 204.697 267.269 205.574 269.125 206.379C269.486 206.535 269.895 206.691 270.257 206.538C270.619 206.385 270.757 205.762 270.398 205.601C268.288 204.654 266.179 203.705 264.069 202.757C263.734 202.607 263.256 202.499 263.075 202.826C262.877 203.183 263.294 203.563 263.651 203.751ZM281.388 235.461C281.082 235.177 280.671 235.05 280.276 234.93C278.611 234.428 276.947 233.926 275.283 233.424C275.052 233.355 274.795 233.287 274.58 233.396C274.365 233.504 274.287 233.877 274.503 233.985C276.78 235.131 279.184 236.012 281.654 236.604C281.858 236.236 281.693 235.746 281.388 235.461ZM282.693 261.836C283.88 261.405 285.067 260.974 286.254 260.543C286.777 260.353 287.336 260.134 287.636 259.655C287.559 259.226 287.107 258.956 286.682 258.947C286.257 258.939 285.855 259.128 285.47 259.312C284.43 259.811 283.389 260.31 282.349 260.809C281.973 260.989 281.541 261.255 281.534 261.68C281.729 262.071 282.29 261.983 282.693 261.836ZM273.262 237.463C273.538 237.147 273.289 236.596 272.904 236.438C272.518 236.281 272.084 236.389 271.684 236.499C270.321 236.873 268.958 237.248 267.596 237.622C267.349 237.916 267.571 238.413 267.918 238.566C268.266 238.72 268.665 238.638 269.034 238.554C270.264 238.274 271.492 237.994 272.721 237.714C272.917 237.669 273.127 237.617 273.262 237.463ZM289.908 263.676C289.627 263.612 289.34 263.726 289.074 263.838C287.622 264.447 286.17 265.057 284.717 265.666C284.297 265.842 284.466 266.575 284.893 266.736C285.32 266.896 285.786 266.688 286.195 266.485C287.443 265.865 288.692 265.245 289.94 264.624C290.081 264.554 290.232 264.474 290.302 264.329C290.429 264.064 290.189 263.739 289.908 263.676ZM279.245 239.997C278.686 239.784 277.88 239.673 277.656 240.24C279.624 241.281 281.712 242.083 283.862 242.625C284.301 242.353 283.753 241.71 283.272 241.527C281.93 241.017 280.587 240.507 279.245 239.997ZM252.169 212.072C251.793 212.51 252.163 213.341 252.732 213.337C254.032 212.465 255.55 211.94 257.099 211.825C256.608 211.195 255.757 210.956 254.973 211.019C254.19 211.082 253.451 211.402 252.727 211.719C252.524 211.808 252.314 211.902 252.169 212.072ZM283.975 244.816C284.401 244.922 285.072 244.799 284.966 244.363C283.188 243.539 281.314 242.933 279.397 242.563C279.185 242.856 279.312 243.299 279.577 243.542C279.841 243.786 280.202 243.879 280.548 243.965C281.691 244.249 282.833 244.533 283.975 244.816ZM282.63 247.103C283.626 247.419 284.657 247.619 285.697 247.696C285.905 247.413 285.786 246.982 285.531 246.742C285.277 246.503 284.927 246.408 284.593 246.321C283.532 246.044 282.472 245.767 281.412 245.49C281.027 246.17 281.898 246.871 282.63 247.103ZM305.301 305.138C305.064 305.737 305.372 306.574 305.996 306.657C306.774 305.891 307.441 305.008 307.971 304.044C307.669 303.71 307.138 303.791 306.721 303.948C306.131 304.171 305.538 304.54 305.301 305.138ZM288.697 255.423C288.191 254.939 287.566 254.587 286.897 254.409C286.789 255.383 287.334 256.398 288.193 256.825C288.398 256.927 288.643 256.997 288.853 256.905C289.384 256.673 289.12 255.827 288.697 255.423ZM286.208 249.304C285.861 249.047 285.41 248.997 284.983 248.956C284.457 248.906 283.931 248.856 283.405 248.805C283.15 249.436 283.872 250.049 284.53 250.148C285.187 250.247 285.907 250.112 286.482 250.455C286.742 250.105 286.556 249.562 286.208 249.304ZM290.286 261.178C290.493 261.358 290.746 261.52 291.016 261.489C291.111 260.163 290.239 258.93 289.152 258.206C289.025 259.306 289.465 260.459 290.286 261.178ZM286.915 252.241C286.306 251.896 285.589 251.755 284.898 251.843C285.149 252.534 285.745 253.081 286.441 253.261C286.814 253.357 287.28 253.314 287.483 252.979C287.686 252.644 287.285 252.09 286.97 252.317M252.792 209.287C252.215 209.393 251.673 209.694 251.271 210.133C251.99 210.34 252.807 210.131 253.346 209.602C253.213 209.418 253.007 209.293 252.786 209.262" fill="#00160A"/>
<path fill-rule="evenodd" clip-rule="evenodd" d="M240.401 268.265C246.293 262.455 254.563 263.274 260.347 269.65C265.378 275.197 264.182 282.525 258.47 288.671C256.314 290.967 251.988 292.489 248.857 292.116C246.207 291.846 242.08 289.841 239.629 287.992C238.494 287.136 237.457 285.372 236.478 282.692L236.333 282.291C234.595 277.341 235.769 272.109 239.708 268.826L239.893 268.676L239.934 268.617C239.968 268.573 240.008 268.532 240.053 268.494L240.124 268.437L240.204 268.384L240.372 268.298L240.401 268.265ZM250.644 288.224L248.862 290.181L249.058 290.198C250.885 290.334 252.672 290.04 254.297 289.332L254.388 289.29L254.262 289.283C253.139 289.201 251.952 288.849 250.719 288.261L250.644 288.224ZM245.444 284.549L245.278 284.392L245.102 284.568C244.411 285.259 243.709 285.967 242.991 286.697L242.177 287.526C242.408 287.698 242.647 287.866 242.897 288.03C244.024 288.784 245.241 289.356 246.5 289.728L246.771 289.804L248.073 288.396L249.048 287.337L248.984 287.298C247.759 286.525 246.555 285.577 245.444 284.549ZM253.945 284.598L251.821 286.932L251.928 286.979C253.58 287.69 255.05 287.825 256.315 287.301L256.448 287.243L256.32 287.094C255.681 286.36 254.994 285.632 254.242 284.889L253.945 284.598ZM241.147 279.674L240.77 280.055C240.227 280.597 239.679 281.136 239.127 281.671L238.257 282.505L238.33 282.684C238.919 284.077 239.739 285.289 240.807 286.349L240.846 286.387L240.967 286.26C241.74 285.454 242.54 284.638 243.372 283.802L244.02 283.154L243.844 282.972C242.875 281.961 242.046 280.97 241.349 279.97L241.147 279.674ZM257.414 280.787L255.096 283.333L255.119 283.356C256.009 284.227 256.822 285.082 257.576 285.945L257.806 286.21L257.812 286.202C258.604 285.099 258.468 283.301 257.517 281.028L257.414 280.787ZM249.304 280.442L249.132 280.607C248.339 281.371 247.535 282.155 246.716 282.963L246.485 283.192L246.7 283.387C247.834 284.404 248.919 285.258 250.004 285.946L250.21 286.073L251.665 284.488L252.666 283.392L252.335 283.09C251.734 282.546 251.085 281.975 250.269 281.272L249.304 280.442ZM261.688 276.093L258.481 279.615L258.585 279.822C258.762 280.179 258.935 280.542 259.105 280.91L259.358 281.467L259.593 282.004C259.832 282.523 259.997 283.04 260.086 283.549L260.099 283.635L260.195 283.459C261.493 281.016 262.024 278.501 261.699 276.166L261.688 276.093ZM254.633 276.054L254.469 275.83L253.883 276.334L252.254 277.718L251.962 277.969C251.662 278.229 251.393 278.467 251.145 278.693L250.856 278.96L250.558 279.243L251.23 279.818C251.979 280.464 252.632 281.038 253.243 281.591L253.823 282.123L255.687 280.073L256.574 279.093L256.567 279.08C256.01 278.071 255.347 277.04 254.633 276.054ZM244.705 276.261L244.565 276.12L244.521 276.169C243.976 276.754 243.426 277.336 242.871 277.913L242.318 278.484L242.434 278.665C243.107 279.702 243.941 280.714 244.913 281.695L245.159 281.94L245.204 281.983L245.28 281.909C245.842 281.358 246.418 280.798 247.013 280.223L247.973 279.301L247.841 279.187C246.761 278.243 245.718 277.27 244.705 276.261ZM238.777 272.524L238.724 272.614C237.404 274.892 236.997 277.723 237.61 280.42L237.665 280.651L237.693 280.761L237.969 280.496C238.548 279.937 239.122 279.372 239.691 278.803L240.271 278.217L240.216 278.114C239.267 276.3 238.77 274.458 238.777 272.566L238.777 272.524ZM249.258 270.819L248.57 271.63C247.789 272.543 246.997 273.446 246.194 274.339L245.721 274.861L245.839 274.978C246.774 275.906 247.743 276.81 248.755 277.699L249.225 278.108L249.674 277.684C249.963 277.415 250.272 277.137 250.621 276.833L251.194 276.34L252.541 275.201C252.784 274.994 253.001 274.809 253.203 274.634L253.4 274.462L253.305 274.347C252.843 273.797 252.407 273.324 252.046 272.977L251.94 272.876C251.206 272.197 250.404 271.574 249.51 270.983L249.258 270.819ZM258.981 270.72L258.909 270.85C258.166 272.144 257.141 273.356 255.747 274.675L255.631 274.784L255.672 274.843C256.281 275.722 256.859 276.64 257.406 277.599L257.604 277.953L259.163 276.224L261.136 274.025L261.09 273.91C260.637 272.804 259.963 271.765 259.067 270.809L258.981 270.72ZM240.524 271.704L240.516 271.779C240.356 273.524 240.689 275.241 241.469 276.929L241.489 276.971L241.697 276.757C242.157 276.279 242.614 275.797 243.068 275.312L243.415 274.939L243.274 274.791C242.475 273.946 241.691 273.073 240.916 272.168L240.524 271.704ZM241.299 269.774L241.18 269.833L241.211 269.871C242.266 271.163 243.341 272.387 244.454 273.561L244.568 273.681L245.032 273.17C245.847 272.263 246.651 271.346 247.443 270.419L247.829 269.964L247.788 269.94C247.591 269.831 247.391 269.722 247.185 269.612L246.871 269.447C245.035 268.522 243.678 268.624 241.484 269.683L241.299 269.774ZM252.785 266.472L252.108 267.334C251.651 267.91 251.19 268.484 250.725 269.053L250.399 269.449L250.482 269.503C251.712 270.318 252.761 271.202 253.622 272.182L253.818 272.41C254.009 272.637 254.197 272.868 254.382 273.102L254.596 273.375L254.625 273.347C255.997 272.034 256.967 270.837 257.632 269.551L257.651 269.512L257.475 269.37C255.696 267.934 254.392 267.081 253.013 266.556L252.785 266.472ZM250.064 265.978C248.32 265.966 246.733 266.285 245.268 266.943L245.185 266.981L245.33 267C245.651 267.049 245.966 267.132 246.276 267.252L246.43 267.315C247.26 267.69 248.024 268.066 248.739 268.457L248.979 268.59L249.447 268.022C249.925 267.438 250.398 266.851 250.867 266.259L251.035 266.045L250.83 266.021C250.661 266.004 250.491 265.991 250.32 265.984L250.064 265.978Z" fill="#FFB61D"/>
<path fill-rule="evenodd" clip-rule="evenodd" d="M279.692 143.453C280.243 141.921 282.227 141.288 283.691 141.927C285.155 142.565 286.064 144.161 286.293 145.777C286.523 147.393 286.174 149.035 285.726 150.602C285.318 152.03 284.825 153.434 284.251 154.801C284.198 154.928 284.126 155.07 283.995 155.101C283.855 155.133 283.725 155.021 283.625 154.916C281.137 152.329 279.638 148.766 279.507 145.133C279.487 144.566 279.501 143.985 279.692 143.453ZM283.992 143.826C283.584 143.467 283.057 143.232 282.52 143.249C281.265 143.288 280.39 144.693 280.418 145.981C280.446 147.269 281.114 148.438 281.763 149.541C282.228 150.331 282.692 151.121 283.157 151.911C283.315 152.18 283.627 152.487 283.873 152.301C283.973 152.226 284.011 152.094 284.043 151.972C284.234 151.254 284.424 150.537 284.614 149.819C284.886 148.793 285.16 147.75 285.143 146.687C285.126 145.624 284.779 144.518 283.992 143.826Z" fill="#FFB61D"/>
<path fill-rule="evenodd" clip-rule="evenodd" d="M283.171 147.95C282.865 148.038 282.531 148.021 282.236 147.903C281.662 147.673 281.265 147.043 281.299 146.411C281.332 145.779 281.792 145.196 282.387 145.031C283.288 144.781 284.303 145.633 284.243 146.59C284.204 147.21 283.754 147.781 283.171 147.95Z" fill="#FFB61D"/>
</svg>
