<svg width="469" height="479" viewBox="0 0 469 479" fill="none" xmlns="http://www.w3.org/2000/svg">
<g filter="url(#filter0_d_30_19)">
<path d="M422 30H47V415H422V30Z" fill="white"/>
<path fill-rule="evenodd" clip-rule="evenodd" d="M120.236 308.626C75.3567 276.661 129.106 234.305 115.976 183.657C102.847 133.009 71.0417 57.4909 196.515 84.3995C323.645 111.664 404.275 146.771 385.22 255.516C366.165 364.261 165.115 340.59 120.236 308.626Z" fill="#7BF5D9"/>
<path fill-rule="evenodd" clip-rule="evenodd" d="M315.027 352.41C312.213 349.53 310.88 345.503 309.637 341.628C306.378 346.472 299.104 346.628 294.109 343.737C289.114 340.847 285.743 335.8 282.156 331.207C275.734 322.983 248.225 302.675 247.773 296.548C247.533 293.299 256.738 287.383 256.738 287.383L240.198 277.392C240.198 277.392 231.619 284.148 226.687 284.951C212.967 287.185 203.262 285.855 203.25 288.391C203.208 297.564 257.267 344.102 240.028 343.737C214.157 343.19 166.904 291.491 151.598 287.383C145.188 285.663 101.223 288.391 101.223 277.465C101.223 262.791 140.493 252.695 140.493 252.695C140.493 252.695 130.258 217.261 142.645 188.286C145.482 181.649 148.995 173.939 149.337 167.419C149.431 165.63 198.956 117.469 205.318 115.063C220.153 109.453 235.933 106.488 251.741 106.341C253.848 106.321 313.935 115.063 340.955 160.852C345.839 169.127 368.021 230.58 345.499 269.13C341.946 275.212 342.382 282.76 344.838 289.455C347.295 296.15 350.315 303.598 347.531 310.157C346.011 299.648 343.341 289.315 339.588 279.415C334.355 283.321 337.005 291.726 340.125 297.546C344.056 304.88 347.988 312.214 351.92 319.548C353.556 322.598 355.246 325.959 354.658 329.388C353.985 333.309 350.582 336.021 347.43 338.34C340.234 343.634 333.037 348.929 325.841 354.223C322.611 356.6 317.841 355.291 315.027 352.41Z" fill="white"/>
<path fill-rule="evenodd" clip-rule="evenodd" d="M217.817 190.13C218.368 188.598 220.352 187.965 221.816 188.604C223.28 189.242 224.189 190.839 224.418 192.454C224.648 194.07 224.299 195.712 223.851 197.279C223.443 198.707 222.95 200.111 222.376 201.478C222.323 201.605 222.251 201.747 222.12 201.778C221.98 201.81 221.85 201.698 221.75 201.593C219.262 199.006 217.763 195.443 217.632 191.81C217.612 191.243 217.626 190.662 217.817 190.13ZM222.117 190.504C221.709 190.144 221.182 189.909 220.645 189.926C219.39 189.965 218.515 191.37 218.543 192.658C218.571 193.946 219.239 195.116 219.888 196.218C220.353 197.008 220.817 197.798 221.282 198.588C221.44 198.857 221.752 199.165 221.998 198.978C222.098 198.903 222.136 198.771 222.168 198.649C222.359 197.931 222.549 197.214 222.739 196.496C223.011 195.47 223.285 194.427 223.268 193.364C223.251 192.301 222.904 191.196 222.117 190.504Z" fill="#FFB61D"/>
<path fill-rule="evenodd" clip-rule="evenodd" d="M221.296 194.627C220.99 194.715 220.656 194.699 220.361 194.58C219.787 194.351 219.39 193.72 219.424 193.088C219.457 192.456 219.917 191.873 220.512 191.708C221.413 191.458 222.428 192.31 222.368 193.267C222.329 193.887 221.879 194.459 221.296 194.627Z" fill="#FFB61D"/>
<path fill-rule="evenodd" clip-rule="evenodd" d="M237.718 344.771C238.748 344.91 238.368 346.55 237.7 347.366C231.323 355.16 222.997 361.259 213.744 364.914C211.669 365.733 209.523 366.438 207.305 366.595C203.191 366.886 199.094 365.236 195.841 362.635C192.588 360.034 190.109 356.537 188.09 352.847C182.566 342.755 180.25 330.847 181.576 319.351C181.701 318.27 182.419 316.834 183.39 317.274C183.109 321.117 183.065 324.979 183.26 328.828C183.451 332.608 183.876 336.399 184.933 340.026C185.912 343.384 187.419 346.552 188.989 349.664C190.604 352.863 192.314 356.052 194.646 358.745C196.977 361.438 200.003 363.627 203.446 364.325C207.761 365.2 212.191 363.673 216.17 361.747C224.422 357.753 231.825 351.921 237.718 344.771Z" fill="#00160A"/>
<path fill-rule="evenodd" clip-rule="evenodd" d="M267.575 300.967C275.069 293.397 282.564 285.827 290.058 278.257C290.478 277.833 291.099 277.381 291.595 277.706C292.257 278.139 291.727 279.182 291.169 279.749C283.103 287.939 275.037 296.13 266.971 304.32C266.39 304.017 266.22 303.201 266.425 302.566C266.63 301.93 267.11 301.436 267.575 300.967Z" fill="#00160A"/>
<path fill-rule="evenodd" clip-rule="evenodd" d="M210.202 257.43C209.745 257.511 209.288 257.592 208.831 257.673C207.944 256.307 207.037 254.889 206.759 253.272C206.48 251.655 207.001 249.774 208.399 248.976C209.981 248.073 210.458 245.854 209.954 244.069C209.45 242.285 208.202 240.839 206.979 239.47C205.737 238.079 203.746 236.602 202.271 237.729C201.31 238.463 199.872 238.048 199.012 237.192C198.152 236.335 197.697 235.152 197.14 234.063C196.088 232.002 194.553 230.143 192.546 229.062C190.538 227.981 188.026 227.767 186.005 228.822C184.001 229.868 182.736 231.95 181.028 233.451C179.319 234.951 176.498 235.748 174.958 234.066C174.567 233.638 174.304 233.003 174.527 232.462C174.749 231.922 175.613 231.736 175.889 232.25C176.591 233.56 178.533 233.541 179.747 232.715C180.962 231.888 181.722 230.536 182.718 229.445C184.666 227.31 187.628 226.198 190.459 226.54C193.289 226.881 195.919 228.667 197.333 231.208C198.014 232.432 198.434 233.824 199.323 234.899C200.212 235.973 201.828 236.631 202.969 235.846C204.257 234.96 205.938 236.061 207.069 237.152C208.599 238.627 210.09 240.222 210.952 242.187C211.814 244.152 211.95 246.57 210.824 248.389C209.887 249.903 208.093 251.129 208.248 252.917C208.393 254.583 210.261 255.758 210.202 257.43Z" fill="#00160A"/>
<path fill-rule="evenodd" clip-rule="evenodd" d="M229.984 182.397C232.728 183.716 235.169 185.825 236.58 188.578C237.99 191.33 238.277 194.749 237.013 197.576C234.397 203.422 226.078 205.698 225.161 212.063C224.927 213.684 225.245 215.37 224.855 216.959C224.585 218.057 223.995 219.037 223.522 220.061C222.508 222.257 222.03 224.71 222.141 227.137C221.084 227.724 219.841 226.473 219.706 225.246C219.571 224.02 220.049 222.802 220.023 221.568C219.975 219.248 218.227 217.402 216.737 215.658C214.5 213.043 212.557 209.964 212.194 206.503C212.077 205.388 212.126 204.251 211.882 203.159C211.619 201.983 211.031 200.917 210.511 199.836C209.109 196.919 208.16 193.554 209.023 190.424C209.886 187.294 213.105 184.706 216.16 185.567C217.027 185.811 217.876 186.311 218.767 186.175C220.33 185.936 220.96 184.021 222.05 182.845C224.003 180.739 227.418 181.164 229.984 182.397ZM216.699 212.808C218.431 215.147 220.163 217.488 221.896 219.827C223.883 217.68 223.061 214.205 223.665 211.308C224.488 207.362 227.926 204.684 230.904 202.051C233.883 199.418 236.841 195.816 236.172 191.839C235.634 188.644 232.918 186.374 230.314 184.538C228.846 183.504 227.152 182.464 225.401 182.796C223.63 183.132 222.417 184.744 221.142 186.049C219.866 187.353 217.943 188.486 216.346 187.631C214.1 186.428 211.24 188.481 210.606 190.999C209.972 193.518 210.883 196.153 211.884 198.543C212.885 200.933 214.013 203.41 213.823 206.003C213.638 208.527 215.207 210.793 216.699 212.808Z" fill="#00160A"/>
<path fill-rule="evenodd" clip-rule="evenodd" d="M78.5153 159.061C78.4029 158.749 78.9371 158.66 79.2236 158.818C79.2112 159.143 78.7241 159.308 78.5261 159.053L78.5153 159.061Z" fill="#00160A"/>
<path fill-rule="evenodd" clip-rule="evenodd" d="M286.296 287.208C286.884 287.292 287.197 288.035 287.063 288.629C286.93 289.223 286.494 289.689 286.077 290.122C282.7 293.625 279.324 297.129 275.948 300.633C275.698 300.892 275.406 301.169 275.051 301.158C274.575 301.142 274.263 300.576 274.321 300.091C274.379 299.605 274.69 299.197 274.992 298.818C278.097 294.917 281.466 291.24 285.067 287.82C285.413 287.491 285.829 287.141 286.296 287.208Z" fill="#00160A"/>
<path fill-rule="evenodd" clip-rule="evenodd" d="M187.023 236.538C188.883 236.711 190.314 238.506 190.633 240.395C190.952 242.285 190.379 244.217 189.6 245.96C189.172 246.92 188.679 247.851 188.127 248.742C187.729 249.384 187.223 250.058 186.493 250.183C185.273 250.39 184.417 249.012 183.946 247.838C183.284 246.186 182.676 244.511 182.125 242.817C181.854 241.986 181.593 241.11 181.732 240.244C181.943 238.922 183.038 237.932 184.186 237.292C185.057 236.806 186.036 236.447 187.023 236.538ZM185.275 246.267C185.418 246.496 185.57 246.73 185.794 246.875C185.977 246.994 186.202 247.044 186.417 247.013C186.97 246.934 187.326 246.387 187.608 245.893C188.348 244.598 189.107 243.24 189.19 241.741C189.273 240.243 188.444 238.576 187.013 238.267C185.34 237.906 183.78 239.627 183.638 241.377C183.497 243.127 184.352 244.79 185.275 246.267Z" fill="#FFB61D"/>
<path fill-rule="evenodd" clip-rule="evenodd" d="M186.943 240.089C187.403 240.241 187.798 240.586 188.02 241.026C188.218 241.417 188.278 241.88 188.185 242.311C187.973 243.305 186.878 243.999 185.917 243.749C184.955 243.499 184.315 242.353 184.589 241.375C184.864 240.397 186 239.776 186.943 240.089ZM186.731 242.153C187.081 241.964 186.768 241.276 186.402 241.429C186.118 241.468 185.93 241.834 186.06 242.096C186.189 242.358 186.588 242.419 186.786 242.206L186.731 242.153Z" fill="#FFB61D"/>
<path fill-rule="evenodd" clip-rule="evenodd" d="M285.394 258.914C284.357 257.764 283.425 256.515 282.614 255.187C282.355 254.763 282.893 254.21 283.376 254.276C283.86 254.343 284.215 254.759 284.523 255.148C285.598 256.5 286.672 257.853 287.747 259.206C287.624 259.689 287.03 259.908 286.56 259.779C286.09 259.652 285.725 259.28 285.394 258.914Z" fill="#00160A"/>
<path fill-rule="evenodd" clip-rule="evenodd" d="M320.799 321.606C320.81 321.764 320.754 321.918 320.695 322.064C320.105 323.539 319.227 324.892 318.127 326.019C316.379 327.811 314.009 329.139 313.072 331.487C312.851 332.043 312.023 332.124 311.593 331.716C311.163 331.309 311.104 330.609 311.295 330.041C311.485 329.473 311.879 329.004 312.263 328.552C313.517 327.076 314.77 325.6 316.024 324.125C316.984 322.994 317.987 321.83 319.318 321.21C319.865 320.955 320.752 320.991 320.799 321.606Z" fill="#00160A"/>
<path fill-rule="evenodd" clip-rule="evenodd" d="M286.671 252.77C287.908 254.262 289.145 255.755 290.383 257.247C290.59 257.497 290.81 257.783 290.796 258.111C290.774 258.623 290.163 258.928 289.678 258.808C289.193 258.689 288.827 258.292 288.501 257.904C287.453 256.656 286.514 255.311 285.7 253.89C285.382 253.337 285.259 252.368 285.879 252.286C286.198 252.243 286.463 252.519 286.671 252.77Z" fill="#00160A"/>
<path fill-rule="evenodd" clip-rule="evenodd" d="M272.423 261.088C272.234 260.817 272.04 260.463 272.199 260.173C272.462 259.694 273.174 260.066 273.53 260.477C274.787 261.933 275.857 263.558 276.703 265.299C275.897 265.717 275.04 264.865 274.516 264.109C273.818 263.102 273.12 262.095 272.423 261.088Z" fill="#00160A"/>
<path fill-rule="evenodd" clip-rule="evenodd" d="M273.537 265.374C274.041 265.912 274.55 266.795 274.026 267.311C273.492 267.836 272.639 267.244 272.168 266.66C271.028 265.246 270.037 263.707 269.217 262.077C269.743 261.613 270.522 262.153 271.003 262.666C271.848 263.568 272.692 264.471 273.537 265.374Z" fill="#00160A"/>
<path fill-rule="evenodd" clip-rule="evenodd" d="M274.908 260.083C274.68 259.739 274.467 259.267 274.713 258.937C275.066 258.466 275.782 258.898 276.177 259.333C277.322 260.592 278.466 261.852 279.611 263.111C279.56 263.567 279.04 263.839 278.599 263.772C278.157 263.705 277.789 263.399 277.458 263.091C276.496 262.197 275.638 261.185 274.908 260.083Z" fill="#00160A"/>
<path fill-rule="evenodd" clip-rule="evenodd" d="M282.125 257.29C282.838 258.224 283.551 259.157 284.264 260.09C284.546 260.461 284.845 260.936 284.66 261.367C284.483 261.782 283.921 261.891 283.515 261.713C283.109 261.535 282.825 261.157 282.56 260.794C281.816 259.775 281.079 258.75 280.349 257.719C280.187 257.492 280.019 257.237 280.043 256.957C280.084 256.489 280.666 256.247 281.101 256.39C281.536 256.533 281.844 256.921 282.125 257.29Z" fill="#00160A"/>
<path fill-rule="evenodd" clip-rule="evenodd" d="M281.588 261.595C281.736 261.761 281.894 261.953 281.878 262.177C281.856 262.475 281.516 262.661 281.227 262.616C280.939 262.572 280.701 262.37 280.484 262.169C279.062 260.856 277.862 259.288 276.957 257.558C277.135 257.082 277.836 257.405 278.172 257.78C279.31 259.052 280.449 260.323 281.588 261.595Z" fill="#00160A"/>
<path fill-rule="evenodd" clip-rule="evenodd" d="M295.405 253.175C295.516 253.306 295.633 253.456 295.626 253.63C295.616 253.891 295.313 254.056 295.061 254.012C294.809 253.967 294.606 253.783 294.418 253.605C293.079 252.334 291.797 250.999 290.58 249.605C291.011 249.011 291.92 249.488 292.442 249.997C293.478 251.008 294.467 252.069 295.405 253.175Z" fill="#00160A"/>
<path fill-rule="evenodd" clip-rule="evenodd" d="M291.161 254.444C290.412 253.391 289.663 252.338 288.914 251.285C288.777 251.092 288.632 250.857 288.706 250.63C288.851 250.184 289.511 250.382 289.866 250.68C290.992 251.624 291.949 252.781 292.672 254.076C292.812 254.327 292.947 254.624 292.848 254.895C292.721 255.24 292.261 255.342 291.931 255.197C291.6 255.053 291.373 254.742 291.161 254.444Z" fill="#00160A"/>
<path fill-rule="evenodd" clip-rule="evenodd" d="M297.136 250.574C296.396 249.757 295.657 248.94 294.917 248.124C294.653 247.832 294.972 247.316 295.357 247.273C295.742 247.231 296.094 247.481 296.399 247.726C296.96 248.176 297.502 248.652 298.021 249.153C298.308 249.43 298.6 249.733 298.708 250.121C298.816 250.511 298.667 251.004 298.295 251.137C297.866 251.288 297.445 250.915 297.136 250.574Z" fill="#00160A"/>
<path fill-rule="evenodd" clip-rule="evenodd" d="M295.701 252.192C294.677 251.113 293.696 249.992 292.761 248.831C292.599 248.629 292.427 248.38 292.496 248.127C292.575 247.842 292.938 247.731 293.211 247.826C293.484 247.921 293.684 248.158 293.87 248.383C294.726 249.423 295.582 250.463 296.438 251.503C296.67 251.785 296.897 252.227 296.635 252.478C296.37 252.73 295.953 252.458 295.701 252.192Z" fill="#00160A"/>
<path fill-rule="evenodd" clip-rule="evenodd" d="M344.42 318.846C345.576 318.48 348.502 317.665 349.658 317.299C350.176 317.135 350.946 317.114 351.044 317.662C351.124 318.112 350.619 318.419 350.196 318.565C349.029 318.968 346.05 319.696 344.828 319.848C344.393 319.902 343.76 319.735 343.848 319.295C343.899 319.041 344.179 318.923 344.42 318.846Z" fill="#00160A"/>
<path fill-rule="evenodd" clip-rule="evenodd" d="M215.262 269.216C217.092 269.244 219.255 269.681 219.985 271.404C220.671 273.022 219.593 274.968 218.081 275.808C216.569 276.648 214.767 276.669 213.048 276.667C189.593 276.636 166.139 276.055 142.71 274.924C141.25 274.853 141.112 272.69 141.446 271.229C141.645 270.357 141.869 269.438 142.481 268.801C143.363 267.883 144.761 267.821 146.016 267.817C162.859 267.761 179.732 267.706 196.504 269.298C199.16 269.55 201.82 269.843 204.488 269.817C208.085 269.781 211.664 269.163 215.262 269.216ZM217.888 273.588C218.281 272.8 217.702 271.799 216.916 271.437C216.13 271.075 215.225 271.169 214.367 271.256C203.372 272.366 192.302 271.085 181.273 270.423C173.257 269.942 165.225 269.788 157.197 269.635C153.85 269.572 150.503 269.508 147.156 269.444C146.088 269.424 144.919 269.438 144.099 270.14C143.278 270.842 143.251 272.497 144.269 272.828C144.453 272.888 144.648 272.898 144.841 272.907C168.405 274.083 192 274.612 215.591 274.49C216.456 274.486 217.493 274.378 217.888 273.588Z" fill="#00160A"/>
<path fill-rule="evenodd" clip-rule="evenodd" d="M200.287 288.681C202.379 293.381 206.885 296.861 211.864 297.621C214.206 297.979 215.805 300.166 217.139 302.175C218.526 304.263 219.543 307.802 217.251 308.724C226.146 318.795 235.042 328.866 243.937 338.937C244.971 340.107 245.975 342.059 244.776 343.05C244.331 343.418 243.722 343.476 243.151 343.495C235.822 343.747 228.907 340.226 222.564 336.447C213.431 331.006 204.707 324.84 196.498 318.021C190.5 313.039 181.884 311.614 174.666 314.41C170.921 315.86 166.227 312.903 165.79 308.819C165.353 304.735 169.31 300.802 173.272 301.383C167.315 292.309 156.662 286.701 146.009 287.032C133.15 287.431 120.241 286.046 107.74 282.926C106.642 282.652 105.464 282.31 104.775 281.39C103.402 279.557 104.842 276.949 106.352 275.232C117.472 262.58 134.583 255.753 151.106 257.378C151.81 257.447 152.193 256.569 152.358 255.864C156.559 237.891 160.759 219.919 164.96 201.947C165.466 199.78 168.679 199.48 170.271 200.995C171.863 202.51 172.213 204.926 172.396 207.147C173.764 223.701 171.375 241.523 179.391 255.955C179.764 256.627 180.186 257.316 180.842 257.697C181.488 258.074 182.266 258.097 183.009 258.11C197.85 258.38 212.691 258.65 227.532 258.92C229.381 258.953 231.651 258.728 232.398 256.991C234.313 252.54 236.227 248.089 238.141 243.638C238.75 242.222 239.59 240.616 241.08 240.383C243.215 240.048 244.566 242.801 244.497 245.017C244.428 247.233 243.702 249.587 244.652 251.578C248.139 247.773 251.685 243.919 256.045 241.226C260.404 238.532 265.76 237.101 270.649 238.549C266.326 245.604 262.004 252.66 257.682 259.715C261.292 262.167 261.577 268.37 258.207 271.16C256.768 272.351 257.91 274.702 259.102 276.153C262.836 280.696 266.569 285.24 270.303 289.784C267.116 291.301 263.404 289.74 260.271 288.109C254.67 285.196 249.204 282.012 243.895 278.572C241.318 276.903 238.479 280.032 236.14 282.037C232.428 285.221 227.303 285.854 222.491 286.358C215.09 287.132 207.689 287.906 200.287 288.681ZM213.197 278.804C217.745 279.06 222.378 279.383 226.79 278.226C231.308 277.041 235.419 274.282 238.29 270.51C238.987 269.594 240.208 269.335 241.324 269.137C245.176 268.457 249.234 267.791 252.914 269.145C254.574 269.755 256.6 269.056 257.564 267.54C258.529 266.025 258.338 263.839 257.126 262.524C255.815 262.487 255.576 264.397 254.88 265.539C253.967 267.039 251.973 267.284 250.252 267.373C243.937 267.699 237.621 268.024 231.306 268.35C229.773 268.43 227.661 267.972 227.707 266.396C227.727 265.703 228.22 265.13 228.704 264.646C230.399 262.947 232.335 261.5 234.431 260.365C208.788 260.565 183.142 260.269 157.511 259.477C144.907 259.088 131.466 258.794 120.726 265.577C119.724 266.211 118.94 268.078 120.103 268.263C123.529 268.805 126.955 269.348 130.381 269.891C130.789 269.955 131.226 270.034 131.521 270.33C132.406 271.218 131.166 272.646 130.025 273.139C125.319 275.173 119.711 274.863 115.246 272.321C114.233 271.745 113.033 271.044 112.002 271.583C110.756 272.235 110.927 274.291 111.984 275.231C113.04 276.171 114.545 276.303 115.941 276.391C128.475 277.185 141.01 277.98 153.545 278.774C157.069 278.996 160.603 279.22 164.126 278.994C180.461 277.949 196.855 277.886 213.197 278.804ZM231.495 328.693C227.108 322.496 222.111 316.755 216.604 311.584C214.801 309.892 213.213 307.976 211.63 306.065C204.709 297.711 197.787 289.357 190.866 281.004C190.175 280.169 188.98 280.06 187.915 280.025C178.824 279.73 169.703 280.423 160.755 282.09C160.093 282.214 159.379 282.373 158.942 282.898C157.929 284.115 159.195 285.893 160.383 286.931C172.265 297.318 184.583 307.178 197.293 316.475C199.632 318.186 202.006 319.891 204.648 321.049C209.631 323.234 214.614 325.419 219.598 327.604C223.41 329.275 227.956 330.91 231.495 328.693ZM171.985 236.461C171.802 234.02 171.801 231.537 171.148 229.183C169.971 224.942 166.833 221.612 163.709 218.586C163.467 218.352 163.147 218.099 162.834 218.216C162.549 218.324 162.446 218.674 162.381 218.978C160.053 229.862 157.725 240.746 155.397 251.631C154.958 253.685 154.516 255.768 154.611 257.869C162.773 257.974 170.934 258.08 179.096 258.185C175.03 251.694 172.562 244.156 171.985 236.461ZM267.881 240.075C262.812 239.63 257.59 241.543 253.94 245.183C247.254 251.849 240.115 258.036 232.591 263.682C231.561 264.455 230.458 265.312 230.108 266.572C236.412 266.28 242.715 265.988 249.018 265.696C250.681 265.619 252.638 265.363 253.433 263.862C257.782 255.648 262.61 247.7 267.881 240.075ZM106.088 278.61C105.916 278.988 105.764 279.408 105.86 279.813C106.028 280.528 106.842 280.825 107.539 281C121.633 284.51 136.254 284.962 150.751 285.398C152.193 285.441 153.69 285.475 155.014 284.886C156.339 284.298 157.439 282.9 157.224 281.435C147.801 280.094 138.29 279.407 128.777 279.38C123.078 279.364 117.217 279.558 111.874 277.522C110.586 277.03 109.127 276.045 109.291 274.644C107.919 275.658 106.805 277.038 106.088 278.61ZM240.48 275.998C239.974 274.871 238.549 274.455 237.368 274.715C236.187 274.975 235.184 275.743 234.193 276.453C231.907 278.092 229.434 279.538 226.721 280.198C224.355 280.774 221.894 280.733 219.463 280.688C210.589 280.527 201.715 280.366 192.842 280.204C194.818 283.231 197.526 286.632 201.055 286.234C207.957 285.456 214.949 285.642 221.819 284.602C228.688 283.561 235.649 281.119 240.48 275.998ZM261.011 283.791C261.334 283.746 261.711 283.635 261.812 283.318C261.897 283.051 261.741 282.772 261.59 282.538C259.034 278.589 255.886 275.088 252.753 271.607C252.275 271.075 251.776 270.529 251.127 270.248C250.455 269.958 249.697 269.986 248.97 270.042C245.998 270.27 243.054 270.892 240.236 271.888C240.005 271.969 239.738 272.1 239.712 272.349C239.692 272.542 239.832 272.71 239.965 272.848C242.927 275.939 246.631 278.147 250.287 280.317C253.595 282.281 257.224 284.315 261.011 283.791ZM176.742 303.646C176.465 303.427 176.171 303.199 175.825 303.153C175.544 303.115 175.263 303.203 174.992 303.289C174.366 303.489 173.74 303.688 173.113 303.888C172.5 304.083 171.733 304.663 172.087 305.213C173.191 306.931 173.64 309.08 173.317 311.111C173.212 311.769 174.136 312.005 174.784 311.958C178.137 311.715 181.49 311.472 184.842 311.229C185.192 311.204 185.664 311.022 185.582 310.672C182.635 308.33 179.689 305.988 176.742 303.646ZM234.191 257.094C233.955 257.726 234.583 258.413 235.239 258.483C235.895 258.552 236.519 258.212 237.095 257.883C239.173 256.696 241.413 255.317 242.198 253.013C242.454 252.262 242.533 251.462 242.61 250.67C242.742 249.312 242.874 247.954 243.007 246.596C243.036 246.295 243.06 245.968 242.905 245.71C242.749 245.453 242.336 245.349 242.164 245.594C241.467 246.588 240.444 247.337 239.301 247.688C238.807 247.84 238.276 247.927 237.859 248.24C237.363 248.612 237.119 249.234 236.9 249.824C235.997 252.247 235.094 254.67 234.191 257.094ZM213.532 300.615C212.627 298.881 210.133 298.299 208.587 299.46C210.58 301.059 211.704 303.527 213.396 305.458C213.979 306.122 214.736 306.765 215.605 306.706C216.474 306.648 217.192 305.456 216.576 304.823C215.368 303.583 214.339 302.16 213.532 300.615ZM169.21 305.342C167.864 306.691 168.323 308.975 168.878 310.82C169.065 311.442 169.662 312.215 170.157 311.809C170.326 311.671 170.386 311.44 170.436 311.225C170.684 310.165 170.934 309.08 170.823 307.996C170.712 306.912 170.169 305.81 169.21 305.342Z" fill="#00160A"/>
<path fill-rule="evenodd" clip-rule="evenodd" d="M318.029 354.977C315.215 352.097 313.882 348.069 312.638 344.194C309.38 349.039 305.154 352.477 300.158 349.587C295.163 346.696 288.744 338.366 285.157 333.773C278.735 325.55 271.106 318.321 262.607 312.408C267.146 317.52 269.86 324.304 270.133 331.215C273.576 331.179 277.019 331.142 280.462 331.105C268.887 335.155 256.485 336.698 244.303 335.605C250.923 329.89 256.1 322.427 259.195 314.137C258.505 311.893 255.221 312.413 253.304 313.701C251.387 314.99 248.906 316.626 247.059 315.233C244.785 313.518 244.941 308.147 242.242 308.987C235.232 311.167 226.923 306.835 224.501 299.739C222.848 300.8 221.195 301.861 219.541 302.922C218.745 300.293 222.431 298.261 224.915 299.298C227.4 300.335 228.855 302.915 230.579 305.025C232.301 307.135 235.065 308.998 237.523 307.898C242.105 305.849 248.132 309.549 248.54 314.663C252.093 311.736 256.966 310.575 261.411 311.598C258.576 307.381 255.411 303.397 251.958 299.697C254.583 296.105 257.829 292.993 261.499 290.55C259.698 294.046 257.201 297.162 254.208 299.651C269.562 315.106 284.916 330.561 300.27 346.015C301.237 346.988 302.345 348.025 303.698 348.044C305.181 348.065 306.377 346.866 307.388 345.752C314.594 337.812 321.8 329.873 329.007 321.934C330.884 319.865 332.86 317.585 333.142 314.772C333.496 311.24 331.093 308.108 328.8 305.449C319.573 294.755 309.756 284.597 299.41 275.041C294.872 270.849 288.891 266.491 283.183 268.71C276.295 271.388 274.656 282.03 267.581 284.132C269.697 281.147 271.812 278.162 273.928 275.177C269.734 272.062 264.487 265.111 264.214 259.804C267.581 256.655 271.732 254.271 275.174 252.443C271.732 244.12 272.141 242.39 276.745 241.254C281.349 240.117 285.337 238.991 289.569 237.538C301.3 233.51 306.899 214.412 297.052 206.479C291.635 202.115 251.036 159.278 233.605 143.485C234.925 149.53 227.169 155.229 222.021 151.996C223.008 155.481 220.635 159.698 217.128 160.157C213.622 160.617 210.201 156.625 211.428 153.222C212.485 150.293 215.865 149.081 217.827 146.694C219.79 144.307 218.078 139.062 215.411 140.564C214.002 146.385 205.71 148.865 201.477 144.732C199.987 143.277 198.034 142.919 196.038 143.263C193.592 143.684 189.362 144.659 187.553 146.459C184.719 149.28 184.079 153.4 180.705 155.314C180.167 155.619 179.603 155.881 179.008 156.089C174.676 157.605 168.611 153.204 170.86 149.112C158.536 160.779 150.075 176.674 147.166 193.624C153.599 195.507 154.82 204.18 154.802 211.047C147.545 212.938 154.373 227.159 148.096 231.35C140.942 236.127 142.931 247.236 145.764 255.502C138.511 239.477 137.638 220.523 143.386 203.868C142.818 214.434 142.251 225.001 141.683 235.567C146.549 234.836 148.514 228.748 148.917 223.716C149.319 218.683 149.625 212.762 153.746 210.006C152.208 205.98 151.576 201.591 151.916 197.28C150.125 196.686 148.334 196.093 146.543 195.5C145.467 203.279 137.05 207.106 130.109 210.419C122.616 213.995 115.568 218.549 109.186 223.937C102.34 229.717 95.8212 237.663 96.5794 246.728C97.3085 255.445 104.625 262.111 112.306 265.9C104.08 265.881 97.021 258.369 95.6949 250.034C94.369 241.7 97.906 233.126 103.436 226.875C108.966 220.624 116.298 216.374 123.734 212.764C133.472 208.036 145.283 201.904 145.646 190.852C145.95 181.639 155.792 172.609 151.077 164.764C144.454 153.744 140.759 140.889 140.495 127.943C140.365 121.557 141.5 114.327 146.6 110.667C149.139 108.844 152.298 108.208 155.375 107.845C166.788 106.5 178.547 108.377 189.023 113.218C195.205 116.075 201.957 120.036 208.32 117.63C223.154 112.019 238.934 109.055 254.742 108.907C256.85 108.887 258.598 107.299 260.066 105.746C265.839 99.6346 270.658 92.563 276.941 87.0066C283.224 81.4503 291.583 77.4502 299.704 79.1698C308.207 80.97 314.555 88.7438 317.332 97.1881C320.109 105.633 319.952 114.756 319.764 123.666C319.429 139.625 338.925 148.316 343.957 163.418C346.923 172.323 356.711 176.449 365.513 179.077C374.315 181.703 384.176 184.614 388.712 192.792C392.938 200.409 390.848 210.387 385.86 217.501C380.871 224.615 373.485 229.489 366.28 234.192C354.615 241.806 357.889 261.28 348.5 271.696C343.767 276.947 345.383 285.326 347.84 292.021C350.296 298.717 353.316 306.164 350.533 312.723C349.012 302.214 346.343 291.882 342.59 281.981C337.356 285.887 340.006 294.293 343.126 300.112C347.058 307.446 350.99 314.78 354.922 322.114C356.557 325.164 358.247 328.525 357.659 331.954C356.987 335.875 353.583 338.587 350.431 340.906C343.235 346.201 336.038 351.495 328.842 356.79C325.613 359.166 320.842 357.857 318.029 354.977ZM333.387 287.381C332.756 286.652 331.601 287.008 330.738 287.417C329.874 287.827 329.009 288.236 328.145 288.647C327.955 288.736 327.747 288.828 327.546 288.772C327.166 288.666 327.102 288.089 327.341 287.768C327.579 287.447 327.982 287.319 328.356 287.194C329.152 286.928 329.93 286.602 330.68 286.219C331.108 286 331.568 285.711 331.685 285.234C331.801 284.758 331.268 284.178 330.874 284.457C329.714 285.278 328.408 285.882 327.041 286.231C326.631 286.335 325.992 286.204 326.088 285.782C326.125 285.62 326.272 285.514 326.409 285.425C327.629 284.637 328.961 284.032 330.349 283.634C330.848 283.491 330.724 282.627 330.247 282.415C329.771 282.203 329.227 282.418 328.751 282.631C327.601 283.146 326.45 283.661 325.3 284.175C325.052 284.286 324.776 284.431 324.71 284.7C324.65 284.94 324.786 285.181 324.916 285.39C325.752 286.734 326.589 288.078 327.425 289.423C327.552 289.628 327.697 289.847 327.922 289.922C328.167 290.003 328.428 289.89 328.661 289.778C330.253 289.016 331.829 288.216 333.387 287.381ZM254.779 141.152C252.072 141.2 250.038 138.039 250.542 135.307C251.046 132.574 253.438 130.53 256.029 129.72C259.55 128.619 263.755 129.263 266.561 126.818C267.822 125.72 268.591 124.143 269.739 122.921C272.242 120.259 276.595 119.696 279.663 121.638C280.352 119.782 278.314 117.988 276.406 117.657C274.499 117.327 272.443 117.721 270.686 116.891C267.599 115.432 263.965 117.306 261.495 119.701C259.024 122.097 256.999 125.114 253.954 126.663C250.91 128.212 246.303 127.348 245.466 123.967C245.205 122.914 245.173 121.518 244.173 121.163C242.594 120.602 241.773 118.711 241.867 116.999C241.96 115.287 242.76 113.711 243.542 112.196C240.449 112.036 237.343 112.135 234.265 112.491C233.527 112.576 232.589 112.896 232.59 113.658C232.593 115.235 231.168 116.366 229.887 117.235C227.176 119.075 224.465 120.914 221.754 122.754C221.84 124.591 224.478 125.031 226.023 124.101C227.57 123.17 228.658 121.506 230.324 120.83C231.214 120.469 232.192 120.425 233.148 120.385C234.781 120.316 236.415 120.248 238.048 120.18C240.141 120.093 242.964 120.638 243.075 122.785C243.166 124.547 241.261 125.575 240.042 126.818C237.266 129.646 237.277 135.119 233.633 136.579C232.339 137.097 231.991 138.938 232.559 140.24C233.127 141.542 234.311 142.427 235.431 143.271C254.985 158.001 289.049 195.978 289.794 196.079C290.54 196.18 291.415 195.631 291.372 194.861C291.265 192.868 291.16 190.839 291.635 188.903C292.11 186.968 293.263 185.105 295.04 184.296C296.677 183.55 299.06 183.381 299.415 181.578C300.208 177.545 304.141 174.426 308.142 174.656C310.109 174.77 312.278 175.54 313.914 174.415C312.595 173.13 310.645 172.865 309.009 172.049C307.373 171.233 305.934 169.168 306.911 167.593C308.355 165.268 306.252 162.227 306.685 159.505C306.868 158.35 307.503 157.327 308.175 156.382C310.452 153.177 313.329 150.422 316.603 148.313C317.363 147.823 317.555 146.79 317.674 145.876C317.964 143.669 318.253 141.462 318.543 139.254C318.744 137.714 318.881 135.947 317.852 134.808C314.502 131.101 308.926 130.98 304.004 131.145C299.081 131.31 293.519 131.245 290.109 127.596C289.051 126.464 287.117 126.849 285.969 127.885C284.822 128.922 284.187 130.414 283.333 131.715C280.663 135.78 275.495 137.935 270.821 136.931C268.318 136.394 265.794 135.039 263.335 135.765C260.058 136.732 258.188 141.092 254.779 141.152ZM348.854 241.208C349.005 241.769 349.225 242.41 349.76 242.599C350.19 242.75 350.654 242.544 351.064 242.341C352.423 241.668 353.784 240.996 355.143 240.324C355.841 239.978 356.625 239.521 356.75 238.736C359.267 222.815 358.538 206.361 354.622 190.741C353.696 187.047 352.591 183.391 351.12 179.889C349.24 175.415 346.776 171.228 344.247 167.105C340.607 161.17 336.814 155.334 332.874 149.605C332.143 150.776 331.925 152.194 331.553 153.531C331.182 154.868 330.558 156.254 329.362 156.906C328.165 157.558 326.327 157.005 326.115 155.632C325.656 152.662 322.553 150.417 319.676 150.973C319.057 151.093 318.852 151.883 318.775 152.524C318.074 158.356 317.374 164.189 316.673 170.021C316.622 170.445 316.602 170.949 316.927 171.216C317.197 171.439 317.583 171.389 317.928 171.384C319.887 171.354 321.596 173.454 321.217 175.427C320.839 177.401 318.482 178.679 316.681 177.889C315.904 177.548 315.295 178.63 315.1 179.474C313.924 184.573 312.747 189.671 311.571 194.77C311.224 196.274 312.488 197.693 313.849 198.354C315.21 199.014 316.764 199.254 318.013 200.117C321.14 202.279 321.005 207.197 323.534 210.068C325.594 212.407 329.406 212.832 331.908 211.002C334.146 209.365 335.118 206.375 335.12 203.554C335.121 201.63 336.285 199.757 337.983 198.945C339.682 198.134 341.827 198.426 343.262 199.664C344.659 200.87 345.291 202.744 345.863 204.524C346.116 205.308 346.368 206.165 346.098 206.943C345.655 208.215 344.131 208.592 342.886 209.029C340.598 209.832 338.593 211.457 337.302 213.555C336.672 214.579 336.245 216.016 337.025 216.924C338.931 219.145 340.837 221.365 342.743 223.586C343.74 224.747 344.767 225.964 345.168 227.457C346.397 232.041 347.626 236.624 348.854 241.208ZM154.668 168.208C157.655 162.484 160.672 156.714 164.729 151.733C168.284 147.371 172.565 143.702 176.839 140.085C182.471 135.319 188.137 130.596 193.837 125.916C196.21 123.968 198.619 122.007 201.385 120.717C193.093 116.966 184.747 113.195 175.943 110.992C167.139 108.788 157.761 108.213 149.075 110.862C148.238 111.117 147.397 111.407 146.675 111.91C145.455 112.76 144.684 114.136 144.106 115.529C141.834 121.001 141.962 127.202 142.701 133.102C144.252 145.488 148.358 157.531 154.668 168.208ZM341.898 338.088C341.82 338.919 340.947 339.701 340.214 339.34C339.867 339.169 339.656 338.807 339.465 338.465C336.54 333.223 333.615 327.98 330.69 322.738C328.803 323.467 327.896 325.803 328.108 327.862C328.32 329.92 329.389 331.767 330.434 333.538C332.03 336.247 333.626 338.956 335.223 341.666C334.383 342.553 333.032 341.374 332.41 340.314C330.195 336.538 327.98 332.762 325.764 328.986C321.533 333.454 317.301 337.922 313.07 342.39C315.826 346.813 318.582 351.235 321.337 355.657C321.987 356.699 323.377 357.032 324.555 356.77C325.732 356.508 326.75 355.774 327.732 355.057C335.117 349.665 342.501 344.273 349.886 338.881C350.447 338.471 351.049 338.003 351.214 337.316C351.386 336.598 351.028 335.87 350.681 335.221C333.976 304.022 316.147 273.456 297.243 243.609C296.687 242.73 295.983 241.76 294.965 241.69C294.286 241.644 293.656 242.024 293.077 242.39C285.579 247.127 278.082 251.864 270.585 256.6C269.197 257.477 267.809 258.354 266.42 259.231C266.059 259.459 265.67 259.724 265.549 260.141C265.406 260.634 265.689 261.142 265.963 261.573C268.694 265.881 271.577 270.086 274.605 274.18C278.183 270.226 282.439 265.968 287.694 266.102C292.231 266.217 295.974 269.605 299.279 272.799C301.211 274.667 303.144 276.535 305.077 278.403C302.022 272.527 298.41 266.957 294.309 261.796C294.132 260.927 295.622 261.165 296.197 261.828C301.92 268.438 305.07 277.125 311.098 283.444C317.257 289.901 323.417 296.358 329.576 302.816C332.191 305.559 334.968 308.658 335.174 312.49C335.363 315.991 333.341 319.175 331.309 321.993C334.891 326.334 338.169 330.942 341.105 335.768C341.536 336.476 341.977 337.257 341.898 338.088ZM276.669 112.917C279.263 113.444 281.86 113.973 284.404 114.71C290.958 116.611 297.052 119.861 303.092 123.091C308.365 125.909 313.665 128.746 318.397 132.439C318.911 119.238 318.401 106.129 314.123 93.6687C312.889 90.0753 309.909 86.2007 307.01 83.8219C303.606 81.0291 298.882 80.5376 294.568 81.1711C287.033 82.2778 280.171 86.4209 274.518 91.6544C268.866 96.8878 264.283 103.202 259.739 109.472C265.382 110.62 271.026 111.768 276.669 112.917ZM352.362 176.995C359.643 196.064 362.02 217.081 359.19 237.356C368.43 231.92 376.688 224.732 383.422 216.264C386.779 212.044 389.889 207.078 389.671 201.634C389.491 197.161 387.012 193.032 383.74 190.073C380.466 187.114 376.447 185.18 372.408 183.494C365.91 180.781 359.199 178.606 352.362 176.995ZM338.085 209.6C339.795 208.311 341.627 207.19 343.544 206.258C343.539 205.001 343.525 203.704 343.034 202.553C342.543 201.403 341.442 200.429 340.221 200.515C338.938 200.606 337.97 201.81 337.563 203.062C337.155 204.315 337.148 205.665 336.866 206.953C336.087 210.516 333.012 213.425 329.49 213.93C325.967 214.435 322.233 212.503 320.532 209.295C319.162 206.711 318.957 203.366 316.773 201.459C315.564 200.402 313.954 199.997 312.408 199.624C312.049 199.538 311.668 199.451 311.319 199.574C310.758 199.771 310.494 200.414 310.297 200.988C308.973 204.83 307.65 208.672 306.326 212.514C305.836 213.935 305.434 215.752 306.528 216.757C316.632 226.04 320.744 240.805 331.02 249.888C331.324 250.157 331.699 250.438 332.09 250.342C336.991 249.148 341.743 247.308 346.192 244.882C346.546 244.689 346.915 244.475 347.119 244.121C347.325 243.761 347.324 243.318 347.302 242.901C347.156 240.03 346.325 237.199 344.901 234.723C344.228 233.552 343.403 232.396 343.275 231.043C343.165 229.887 343.583 228.703 343.315 227.575C343.097 226.654 342.454 225.911 341.833 225.209C340.079 223.226 338.325 221.244 336.57 219.261C335.702 218.28 334.801 217.235 334.535 215.938C334.017 213.412 336.057 211.127 338.085 209.6ZM228.118 151.229C230.188 149.951 231.442 147.401 231.215 144.932C230.885 141.329 227.863 138.703 225.074 136.491C220.503 132.868 210.05 124.063 205.454 122.17C200.858 120.278 180.525 138.899 173.46 146.038C173.103 146.399 172.73 146.792 172.631 147.296C172.531 147.8 170.372 153.221 174.719 154.539C179.067 155.856 179.533 154.841 181.309 153.221C183.085 151.601 184.119 149.303 184.953 147.019C185.666 145.069 187.821 144.135 189.809 143.72C191.797 143.304 193.939 143.149 195.584 141.929C197.297 140.658 199.689 140.732 201.641 141.563C203.593 142.393 205.205 143.871 206.776 145.322C208.089 146.534 210.211 145.179 211.02 143.568C211.829 141.957 212.169 139.969 213.584 138.886C215.607 137.336 218.712 138.723 219.958 140.977C221.73 144.182 220.478 148.759 217.339 150.548C215.52 151.584 212.858 152.28 212.786 154.414C212.75 155.475 213.471 156.408 214.275 157.077C215.718 158.274 218.067 158.843 219.296 157.416C221.047 155.382 219.091 151.084 221.517 150.004C223.66 149.05 226.117 152.465 228.118 151.229ZM283.43 128.477C284.155 127.322 284.882 126.056 286.092 125.467C287.639 124.714 289.497 125.312 290.964 126.217C292.432 127.122 293.742 128.334 295.352 128.932C296.99 129.541 298.785 129.459 300.525 129.369C303.419 129.219 306.313 129.069 309.207 128.919C291.713 118.512 272.035 111.214 251.817 111.009C250.113 110.992 248.369 111.032 246.77 111.637C245.171 112.243 243.719 113.517 243.309 115.215C242.685 117.802 244.977 120.566 247.57 120.648C246.215 121.667 246.424 124.032 247.715 125.135C249.007 126.238 250.938 126.229 252.488 125.566C254.038 124.901 255.294 123.69 256.512 122.504C258.781 120.297 261.05 118.09 263.319 115.883C264.745 114.496 266.965 114.437 268.892 114.828C270.82 115.22 272.705 115.978 274.669 115.928C278.793 115.826 282.446 120.172 281.742 124.345C279.891 122.553 277.199 121.722 274.693 122.17C272.187 122.618 269.926 124.334 268.774 126.663C267.84 128.55 265.755 129.548 263.727 129.936C261.7 130.325 259.605 130.244 257.585 130.672C255.565 131.1 253.507 132.192 252.68 134.132C251.854 136.073 252.934 138.839 254.987 139.035C257.379 139.263 258.775 136.379 260.788 135.032C262.703 133.749 265.202 133.917 267.436 134.416C269.67 134.914 271.905 135.7 274.182 135.498C278.141 135.147 281.277 131.906 283.43 128.477ZM347.495 246.737C342.911 248.552 338.327 250.366 333.743 252.181C333.106 252.433 332.329 253.078 332.712 253.659C337.085 260.284 340.451 267.609 342.651 275.286C342.865 276.033 343.969 275.474 344.401 274.833C348.41 268.882 351.607 262.355 353.868 255.502C354.277 254.262 354.659 252.922 354.307 251.663C353.756 249.685 351.685 248.687 350.159 247.353C349.737 246.984 349.311 246.558 348.763 246.476C348.331 246.412 347.902 246.576 347.495 246.737ZM294.613 187.889C292.508 190.185 294.277 194.074 293.195 197.025C292.956 197.679 292.568 198.369 292.789 199.03C292.899 199.36 293.146 199.618 293.385 199.865C294.134 200.635 294.883 201.405 295.632 202.176C296.219 202.78 297.174 203.407 297.786 202.828C300.304 200.451 303.354 198.67 306.633 197.666C307.577 197.377 308.599 197.116 309.258 196.364C309.839 195.7 310.027 194.778 310.191 193.902C311.117 188.999 312.037 184.094 312.95 179.189C313.021 178.806 313.089 178.395 312.938 178.039C312.777 177.66 312.404 177.428 312.04 177.25C308.353 175.446 303.393 177.294 301.691 181.107C301.113 182.4 300.846 183.899 299.875 184.915C298.461 186.397 295.999 186.38 294.613 187.889ZM221.081 125.17C220.368 124.506 219.631 123.672 219.701 122.686C219.776 121.636 220.724 120.911 221.583 120.334C224.626 118.291 227.669 116.247 230.712 114.204C230.638 113.597 229.809 113.533 229.223 113.642C221.343 115.114 213.623 117.485 206.251 120.699C214.473 125.902 222.36 131.661 229.845 137.928C230.753 135.811 233.091 134.769 234.475 132.943C236.224 130.637 236.355 127.213 238.505 125.298C239.56 124.358 241.127 123.707 241.339 122.29C239.493 122.303 237.646 122.316 235.801 122.329C233.555 122.346 231.164 122.405 229.298 123.688C227.67 124.807 226.419 126.844 224.46 126.901C223.169 126.939 222.037 126.062 221.081 125.17ZM313.111 251.251C314.544 253.888 315.977 256.525 317.409 259.163C314.785 250.589 311.655 242.178 308.043 233.992C307.914 233.701 307.767 233.39 307.492 233.241C307.153 233.057 306.741 233.178 306.377 233.303C296.2 236.797 286.023 240.29 275.845 243.784C275.536 243.89 275.201 244.016 275.035 244.305C274.836 244.651 274.955 245.091 275.088 245.469C275.684 247.158 276.465 248.779 277.411 250.291C283.794 246.479 290.176 242.666 296.559 238.853C297.542 238.266 298.576 237.663 299.712 237.619C300.652 237.582 301.565 237.936 302.405 238.371C307.391 240.953 310.39 246.243 313.111 251.251ZM266.904 322.6C265.62 319.787 263.419 317.484 260.892 315.777C257.788 321.695 254.227 327.362 250.253 332.704C249.949 333.112 249.837 333.948 250.336 333.912C255.182 333.563 260.029 333.213 264.876 332.863C265.849 332.793 267.018 332.583 267.375 331.651C268.484 328.761 268.187 325.413 266.904 322.6ZM340.077 281.1C340.469 280.482 340.869 279.848 341.028 279.129C341.239 278.179 341.006 277.189 340.756 276.249C338.834 269.017 335.81 262.114 332.035 255.697C331.596 254.95 331.123 254.184 330.408 253.713C329.692 253.242 328.663 253.156 328.039 253.748C327.205 254.539 327.521 255.936 327.901 257.035C330.91 265.739 333.919 274.443 336.928 283.146C337.108 283.665 337.517 284.303 338.017 284.104C338.211 284.026 338.338 283.836 338.452 283.657C338.994 282.804 339.535 281.952 340.077 281.1ZM309.877 170.399C310.748 171.154 311.904 171.439 313.014 171.702C313.905 171.912 314.432 170.721 314.586 169.796C315.615 163.62 316.276 157.387 316.936 151.158C316.431 150.938 315.895 151.362 315.501 151.754C314.086 153.164 312.67 154.574 311.254 155.984C310.269 156.966 309.239 158.026 308.927 159.399C308.332 162.011 310.5 164.989 309.129 167.273C308.531 168.269 309.006 169.645 309.877 170.399ZM306.793 219.801C306.454 219.409 306.086 219.004 305.6 218.842C305.114 218.681 304.479 218.864 304.31 219.359C302.803 223.786 301.296 228.212 299.789 232.639C299.646 233.059 299.742 233.768 300.158 233.641C302.7 232.871 305.045 231.508 307.598 230.776C310.15 230.045 313.136 230.054 315.176 231.791C312.797 227.511 309.982 223.485 306.793 219.801ZM328.566 155.075C329.331 152.945 330.095 150.816 330.86 148.687C331.008 148.274 330.714 147.844 330.439 147.508C327.709 144.169 324.957 140.808 321.652 138.072C321.511 137.955 321.352 137.834 321.172 137.844C320.828 137.863 320.691 138.301 320.642 138.651C320.231 141.62 319.819 144.589 319.408 147.558C319.288 148.423 320.065 149.175 320.879 149.431C321.693 149.687 322.568 149.615 323.405 149.775C324.948 150.07 326.315 151.204 326.919 152.692C327.303 153.635 327.587 154.89 328.566 155.075ZM304.163 212.425C305.608 208.631 306.934 204.788 308.137 200.905C308.218 200.644 308.298 200.36 308.212 200.1C307.983 199.407 306.983 199.586 306.345 199.914C303.839 201.203 301.429 202.689 299.143 204.355C298.86 204.561 298.55 204.822 298.539 205.179C298.531 205.45 298.701 205.687 298.863 205.9C300.56 208.133 302.328 210.31 304.163 212.425ZM325.364 274.972C325.093 274.669 324.648 274.622 324.247 274.629C323.341 274.644 322.438 274.834 321.599 275.185C321.186 275.358 320.776 275.572 320.331 275.596C319.885 275.619 319.386 275.381 319.276 274.937C320.453 274.074 321.881 273.574 323.327 273.52C323.97 273.495 323.989 272.375 323.424 272.057C322.86 271.74 322.163 271.972 321.562 272.209C320.57 272.601 319.576 272.992 318.583 273.384C318.294 273.498 317.997 273.139 318.039 272.825C318.081 272.509 318.33 272.27 318.576 272.077C319.469 271.376 320.535 270.91 321.646 270.734C322.175 270.651 322.26 269.807 321.874 269.427C321.487 269.046 320.892 269.022 320.357 269.05C318.801 269.134 317.259 269.48 315.811 270.071C317.046 272.345 318.307 274.604 319.592 276.847C319.925 277.428 320.287 278.035 320.864 278.356C321.9 277.013 323.476 276.122 325.135 275.942C325.534 275.898 325.635 275.276 325.364 274.972ZM346.625 315.998C345.673 316.247 344.731 316.532 343.799 316.851C343.544 316.938 343.25 317.074 343.207 317.346C343.181 317.509 343.257 317.667 343.331 317.813C343.878 318.893 344.426 319.972 344.973 321.051C345.195 321.489 345.641 322.003 346.056 321.753C347.42 320.93 348.945 320.385 350.513 320.163C350.944 320.102 351.226 319.627 351.236 319.18C351.246 318.732 351.053 318.311 350.865 317.907C350.542 317.216 350.187 316.488 349.552 316.085C348.697 315.543 347.598 315.743 346.625 315.998ZM350.297 327.862C349.924 327.931 349.495 328.046 349.349 328.405C349.23 328.697 349.355 329.028 349.479 329.317C349.954 330.423 350.429 331.528 350.904 332.634C351.051 332.98 351.248 333.367 351.607 333.449C351.862 333.507 352.121 333.389 352.357 333.272C353.088 332.913 353.819 332.553 354.551 332.193C354.962 331.991 355.399 331.765 355.625 331.358C355.851 330.951 355.73 330.313 355.29 330.189C355.056 330.122 354.808 330.217 354.589 330.327C353.934 330.653 353.343 331.128 352.644 331.337C351.945 331.546 351.054 331.386 350.723 330.72C352.445 330.092 354.092 329.245 355.615 328.203C355.478 327.227 354.145 327.14 353.199 327.317C352.232 327.499 351.264 327.68 350.297 327.862ZM336.219 302.478C336.499 302.165 336.906 302.012 337.296 301.87C338.369 301.478 339.442 301.087 340.516 300.695C341.074 300.491 340.937 299.539 340.41 299.261C339.884 298.982 339.248 299.156 338.682 299.335C337.455 299.723 336.227 300.111 335 300.499C334.84 300.55 334.671 300.606 334.559 300.733C334.302 301.026 334.475 301.486 334.657 301.831C335.144 302.754 335.63 303.676 336.116 304.599C336.173 304.707 336.237 304.821 336.345 304.873C336.475 304.936 336.628 304.888 336.764 304.84C338.258 304.31 339.752 303.78 341.246 303.25C341.602 303.123 342.03 302.892 342 302.505C341.959 301.979 341.208 301.975 340.717 302.135C339.181 302.635 337.644 303.136 336.108 303.637C335.837 303.316 335.939 302.791 336.219 302.478ZM355.315 242.298C353.992 243.066 352.67 243.833 351.348 244.6C351.189 244.692 351.021 244.793 350.934 244.958C350.703 245.394 351.16 245.867 351.561 246.144C352.384 246.709 353.206 247.275 354.029 247.841C354.191 247.953 354.366 248.068 354.56 248.07C355.003 248.074 355.232 247.539 355.345 247.099C355.71 245.688 356.075 244.277 356.44 242.865C356.486 242.688 356.531 242.494 356.457 242.327C356.278 241.924 355.69 242.081 355.315 242.298ZM337.901 305.639C337.582 305.724 337.218 305.846 337.099 306.162C337.01 306.397 337.09 306.662 337.194 306.89C337.462 307.478 337.886 307.989 338.408 308.354C339.795 307.811 341.184 307.267 342.571 306.723C343.168 306.489 343.873 306.096 343.848 305.441C343.83 304.972 343.399 304.609 342.951 304.518C342.503 304.428 342.042 304.545 341.599 304.663C340.367 304.988 339.134 305.313 337.901 305.639ZM317.796 254.389C318.281 255.361 319.482 255.643 320.533 255.818C322.209 256.097 323.885 256.376 325.561 256.655C325.591 255.678 324.609 255.029 323.737 254.637C322.139 253.918 320.472 253.363 318.767 252.983C318.583 252.942 318.391 252.903 318.208 252.948C317.662 253.083 317.54 253.875 317.796 254.389ZM311.581 253.652C311.712 253.601 311.845 253.549 311.958 253.464C312.459 253.086 312.306 252.2 311.796 251.837C311.286 251.474 310.595 251.523 310.003 251.714C309.411 251.905 308.858 252.221 308.253 252.362C307.435 252.551 306.364 252.543 306.051 253.342C305.783 254.023 306.397 254.796 307.096 254.954C307.796 255.111 308.512 254.847 309.182 254.586C309.982 254.275 310.781 253.964 311.581 253.652ZM314.799 259.804C315.475 259.351 315.162 258.16 314.444 257.783C313.725 257.407 312.862 257.583 312.076 257.767C311.246 257.962 310.361 258.19 309.797 258.843C309.232 259.496 309.232 260.72 310.003 261.089C311.05 261.592 312.033 260.173 313.176 259.997C313.722 259.914 314.337 260.113 314.799 259.804ZM338.512 297.979C338.738 297.901 338.979 297.814 339.124 297.62C339.286 297.403 339.292 297.095 339.201 296.839C338.986 296.239 338.312 295.92 337.69 295.932C337.067 295.943 336.481 296.215 335.915 296.482C335.195 296.821 334.474 297.16 333.754 297.499C333.358 297.686 332.911 297.94 332.845 298.382C332.779 298.832 333.18 299.24 333.613 299.335C334.047 299.431 334.493 299.297 334.917 299.163C336.119 298.783 337.318 298.388 338.512 297.979ZM341.758 313.638C343.309 312.968 344.861 312.299 346.411 311.629C346.559 311.566 346.71 311.499 346.816 311.378C347.132 311.02 346.844 310.395 346.405 310.223C345.966 310.051 345.476 310.184 345.025 310.318C343.976 310.63 342.927 310.942 341.879 311.253C341.299 311.426 340.651 311.658 340.406 312.224C340.073 313 340.997 313.967 341.758 313.638ZM352.229 322.923C352.849 322.677 352.623 321.605 352.008 321.348C351.393 321.091 350.702 321.355 350.078 321.591C348.857 322.053 347.598 322.41 346.319 322.658C345.873 323.274 346.416 324.219 347.136 324.428C347.855 324.637 348.614 324.357 349.311 324.08C350.285 323.694 351.257 323.309 352.229 322.923ZM319.204 251.549C320.454 251.886 321.704 252.222 322.954 252.559C323.43 252.686 324.164 252.615 324.129 252.111C321.971 250.579 319.486 249.532 316.901 249.065C316.765 249.041 316.62 249.018 316.49 249.067C316.041 249.234 316.212 249.947 316.55 250.293C317.248 251.009 318.25 251.293 319.204 251.549ZM323.927 246.592C324.37 247.683 324.812 248.774 325.254 249.866C325.52 250.523 325.819 251.221 326.406 251.6C326.994 251.978 327.95 251.817 328.142 251.134C328.288 250.613 327.946 250.092 327.62 249.665C326.375 248.036 325.093 246.436 323.776 244.868C323.484 245.387 323.703 246.039 323.927 246.592ZM321.787 248.642C322.021 248.726 322.307 248.801 322.496 248.636C322.718 248.443 322.638 248.071 322.487 247.816C321.94 246.89 320.831 246.524 319.816 246.228C318.452 245.83 317.087 245.432 315.723 245.034C315.299 244.91 314.979 245.546 315.177 245.95C315.376 246.354 315.833 246.535 316.25 246.683C318.095 247.336 319.941 247.99 321.787 248.642ZM340.033 308.812C339.649 308.931 339.232 309.076 339.022 309.427C338.649 310.05 339.195 310.864 339.836 311.184C341.283 309.974 343.127 309.276 344.992 309.23C345.627 309.214 345.683 308.122 345.144 307.776C344.606 307.43 343.908 307.609 343.3 307.797C342.211 308.136 341.122 308.474 340.033 308.812ZM333.972 291.756C333.092 291.994 332.212 292.233 331.332 292.472C330.525 292.691 329.514 293.233 329.707 294.067C329.872 294.776 330.837 294.937 331.486 294.639C332.134 294.34 332.628 293.76 333.273 293.455C334.328 292.955 335.812 293.137 336.404 292.112C335.9 291.377 334.817 291.526 333.972 291.756ZM300.995 243.987C300.826 244.061 300.652 244.147 300.541 244.298C300.253 244.686 300.567 245.289 301.012 245.46C301.458 245.63 301.951 245.508 302.413 245.394C303.966 245.013 305.545 244.748 307.136 244.604C307.29 243.709 306.15 243.207 305.265 243.171C303.807 243.111 302.335 243.393 300.995 243.987ZM326.725 278.714C327.181 278.218 326.924 277.113 326.272 277.243C324.543 277.59 322.876 278.261 321.379 279.214C321.029 279.946 321.997 280.704 322.781 280.577C323.565 280.45 324.195 279.86 324.93 279.551C325.544 279.293 326.27 279.21 326.725 278.714ZM327.672 262.675C327.467 262.41 327.14 262.284 326.829 262.17C325.318 261.615 323.808 261.061 322.297 260.506C321.883 260.354 321.419 260.203 321.017 260.384C320.615 260.565 320.455 261.249 320.849 261.449C322.785 262.432 324.842 263.16 326.957 263.612C327.177 263.659 327.422 263.699 327.612 263.575C327.89 263.393 327.877 262.941 327.672 262.675ZM320.559 244.424C320.774 244.556 321.057 244.308 321.063 244.051C321.068 243.794 320.9 243.57 320.731 243.38C319.107 241.562 316.725 240.713 314.447 239.931C313.869 239.733 313.024 239.666 312.855 240.267C315.49 241.518 318.062 242.906 320.559 244.424ZM354.165 325.083C354.029 324.596 353.528 324.292 353.036 324.242C352.545 324.191 352.057 324.341 351.585 324.489C350.761 324.748 349.936 325.006 349.112 325.265C348.542 325.444 347.851 325.795 347.898 326.405C347.937 326.901 348.5 327.198 348.983 327.15C349.465 327.102 349.89 326.823 350.327 326.608C351.281 326.139 352.369 325.964 353.417 326.11C353.906 326.178 354.301 325.571 354.165 325.083ZM302.468 247.694C302.461 248.153 302.81 248.589 303.249 248.672C303.532 248.726 303.822 248.646 304.1 248.566C305.705 248.107 307.309 247.648 308.914 247.189C308.939 246.726 308.549 246.326 308.116 246.191C307.684 246.057 307.22 246.126 306.773 246.196C305.609 246.378 304.443 246.56 303.277 246.742C302.837 246.811 302.475 247.236 302.468 247.694ZM328.97 280.645C329.034 280.215 328.622 279.835 328.202 279.78C327.781 279.726 327.368 279.902 326.979 280.075C325.741 280.624 324.503 281.173 323.264 281.722C322.896 282.202 323.349 282.963 323.93 283.098C324.51 283.233 325.099 282.96 325.635 282.695C326.481 282.276 327.327 281.858 328.173 281.439C328.521 281.267 328.912 281.037 328.97 280.645ZM311.262 236.625C311.404 236.887 311.688 237.025 311.954 237.147C314.16 238.162 316.367 239.177 318.573 240.192C318.965 240.372 319.536 240.495 319.729 240.101C319.937 239.679 319.425 239.276 319.001 239.09C316.628 238.055 314.254 237.02 311.88 235.985C311.761 235.933 311.634 235.879 311.506 235.902C311.219 235.951 311.119 236.365 311.262 236.625ZM322.688 265.848C322.614 265.816 322.535 265.783 322.456 265.799C322.374 265.816 322.306 265.889 322.294 265.974C322.487 267.33 323.968 267.998 325.237 268.421C326.896 268.974 328.556 269.526 330.215 270.079C330.613 269.626 329.962 268.999 329.414 268.762C327.172 267.791 324.93 266.82 322.688 265.848ZM310.421 249.961C310.606 249.603 310.327 249.155 309.977 248.97C309.363 248.646 308.623 248.827 307.957 249.014C307.2 249.228 306.443 249.441 305.685 249.654C305.139 249.808 304.481 250.099 304.461 250.68C304.446 251.114 304.845 251.47 305.262 251.549C305.678 251.629 306.103 251.503 306.509 251.379C307.59 251.048 308.67 250.717 309.75 250.385C310.009 250.306 310.294 250.206 310.421 249.961ZM347.982 313.035C347.531 312.768 346.965 312.925 346.469 313.087C344.892 313.605 343.315 314.122 341.738 314.64C341.39 315.214 342.024 315.976 342.681 316.016C343.338 316.056 343.934 315.663 344.514 315.343C345.57 314.763 346.733 314.389 347.923 314.249C348.44 314.188 348.432 313.303 347.982 313.035ZM317.866 263.887C317.361 263.748 316.826 263.845 316.311 263.942C315.675 264.063 315.039 264.183 314.403 264.304C313.682 264.44 312.766 264.824 312.843 265.573C312.888 266.015 313.313 266.334 313.741 266.398C314.169 266.462 314.6 266.331 315.014 266.202C316.285 265.805 317.554 265.408 318.823 265.011C318.836 264.474 318.371 264.026 317.866 263.887ZM313.535 255.105C313.182 254.735 312.6 254.709 312.115 254.853C311.63 254.996 311.196 255.279 310.722 255.458C310.163 255.668 309.559 255.731 309.003 255.947C308.446 256.163 307.908 256.595 307.812 257.197C308.021 257.699 308.723 257.643 309.236 257.501C310.596 257.125 311.956 256.749 313.315 256.373C313.803 256.238 313.888 255.475 313.535 255.105ZM311.642 261.937C311.076 262.106 311.173 263.067 311.69 263.36C312.207 263.652 312.845 263.491 313.411 263.322C314.6 262.97 315.789 262.617 316.978 262.265C317.065 261.655 316.522 261.103 315.935 260.971C315.349 260.838 314.743 261.011 314.167 261.183C313.325 261.435 312.484 261.686 311.642 261.937ZM318.388 176.067C319.144 175.508 319.027 174.355 319.049 173.399C318.064 173.275 316.985 173.173 316.155 173.73C315.324 174.288 315.101 175.794 315.991 176.246C316.296 176.402 316.652 176.397 316.993 176.39C317.477 176.379 317.995 176.357 318.388 176.067ZM320.293 257.363C319.816 257.313 319.123 257.529 319.259 258C319.324 258.226 319.566 258.337 319.782 258.418C321.854 259.187 324.016 259.696 326.207 259.93C326.479 259.866 326.559 259.472 326.417 259.226C326.275 258.98 326.002 258.853 325.743 258.746C324.001 258.027 322.16 257.56 320.293 257.363ZM310.651 233.751C312.443 234.697 314.269 235.574 316.125 236.379C316.486 236.535 316.895 236.691 317.257 236.538C317.619 236.385 317.757 235.762 317.398 235.601C315.288 234.654 313.179 233.705 311.069 232.757C310.734 232.607 310.256 232.499 310.075 232.826C309.877 233.183 310.294 233.563 310.651 233.751ZM328.388 265.461C328.082 265.177 327.671 265.05 327.276 264.93C325.611 264.428 323.947 263.926 322.283 263.424C322.052 263.355 321.795 263.287 321.58 263.396C321.365 263.504 321.287 263.877 321.503 263.985C323.78 265.131 326.184 266.012 328.654 266.604C328.858 266.236 328.693 265.746 328.388 265.461ZM329.693 291.836C330.88 291.405 332.067 290.974 333.254 290.543C333.777 290.353 334.336 290.134 334.636 289.655C334.559 289.226 334.107 288.956 333.682 288.947C333.257 288.939 332.855 289.128 332.47 289.312C331.43 289.811 330.389 290.31 329.349 290.809C328.973 290.989 328.541 291.255 328.534 291.68C328.729 292.071 329.29 291.983 329.693 291.836ZM320.262 267.463C320.538 267.147 320.289 266.596 319.904 266.438C319.518 266.281 319.084 266.389 318.684 266.499C317.321 266.873 315.958 267.248 314.596 267.622C314.349 267.916 314.571 268.413 314.918 268.566C315.266 268.72 315.665 268.638 316.034 268.554C317.264 268.274 318.492 267.994 319.721 267.714C319.917 267.669 320.127 267.617 320.262 267.463ZM336.908 293.676C336.627 293.612 336.34 293.726 336.074 293.838C334.622 294.447 333.17 295.057 331.717 295.666C331.297 295.842 331.466 296.575 331.893 296.736C332.32 296.896 332.786 296.688 333.195 296.485C334.443 295.865 335.692 295.245 336.94 294.624C337.081 294.554 337.232 294.474 337.302 294.329C337.429 294.064 337.189 293.739 336.908 293.676ZM326.245 269.997C325.686 269.784 324.88 269.673 324.656 270.24C326.624 271.281 328.712 272.083 330.862 272.625C331.301 272.353 330.753 271.71 330.272 271.527C328.93 271.017 327.587 270.507 326.245 269.997ZM299.169 242.072C298.793 242.51 299.163 243.341 299.732 243.337C301.032 242.465 302.55 241.94 304.099 241.825C303.608 241.195 302.757 240.956 301.973 241.019C301.19 241.082 300.451 241.402 299.727 241.719C299.524 241.808 299.314 241.902 299.169 242.072ZM330.975 274.816C331.401 274.922 332.072 274.799 331.966 274.363C330.188 273.539 328.314 272.933 326.397 272.563C326.185 272.856 326.312 273.299 326.577 273.542C326.841 273.786 327.202 273.879 327.548 273.965C328.691 274.249 329.833 274.533 330.975 274.816ZM329.63 277.103C330.626 277.419 331.657 277.619 332.697 277.696C332.905 277.413 332.786 276.982 332.531 276.742C332.277 276.503 331.927 276.408 331.593 276.321C330.532 276.044 329.472 275.767 328.412 275.49C328.027 276.17 328.898 276.871 329.63 277.103ZM352.301 335.138C352.064 335.737 352.372 336.574 352.996 336.657C353.774 335.891 354.441 335.008 354.971 334.044C354.669 333.71 354.138 333.791 353.721 333.948C353.131 334.171 352.538 334.54 352.301 335.138ZM335.697 285.423C335.191 284.939 334.566 284.587 333.897 284.409C333.789 285.383 334.334 286.398 335.193 286.825C335.398 286.927 335.643 286.997 335.853 286.905C336.384 286.673 336.12 285.827 335.697 285.423ZM333.208 279.304C332.861 279.047 332.41 278.997 331.983 278.956C331.457 278.906 330.931 278.856 330.405 278.805C330.15 279.436 330.872 280.049 331.53 280.148C332.187 280.247 332.907 280.112 333.482 280.455C333.742 280.105 333.556 279.562 333.208 279.304ZM337.286 291.178C337.493 291.358 337.746 291.52 338.016 291.489C338.111 290.163 337.239 288.93 336.152 288.206C336.025 289.306 336.465 290.459 337.286 291.178ZM333.915 282.241C333.306 281.896 332.589 281.755 331.898 281.843C332.149 282.534 332.745 283.081 333.441 283.261C333.814 283.357 334.28 283.314 334.483 282.979C334.686 282.644 334.285 282.09 333.97 282.317M299.792 239.287C299.215 239.393 298.673 239.694 298.271 240.133C298.99 240.34 299.807 240.131 300.346 239.602C300.213 239.418 300.007 239.293 299.786 239.262" fill="#00160A"/>
<path fill-rule="evenodd" clip-rule="evenodd" d="M287.401 298.265C293.293 292.455 301.563 293.274 307.347 299.65C312.378 305.197 311.182 312.525 305.47 318.671C303.314 320.967 298.988 322.489 295.857 322.116C293.207 321.846 289.08 319.841 286.629 317.992C285.494 317.136 284.457 315.372 283.478 312.692L283.333 312.291C281.595 307.341 282.769 302.109 286.708 298.826L286.893 298.676L286.934 298.617C286.968 298.573 287.008 298.532 287.053 298.494L287.124 298.437L287.204 298.384L287.372 298.298L287.401 298.265ZM297.644 318.224L295.862 320.181L296.058 320.198C297.885 320.334 299.672 320.04 301.297 319.332L301.388 319.29L301.262 319.283C300.139 319.201 298.952 318.849 297.719 318.261L297.644 318.224ZM292.444 314.549L292.278 314.392L292.102 314.568C291.411 315.259 290.709 315.967 289.991 316.697L289.177 317.526C289.408 317.698 289.647 317.866 289.897 318.03C291.024 318.784 292.241 319.356 293.5 319.728L293.771 319.804L295.073 318.396L296.048 317.337L295.984 317.298C294.759 316.525 293.555 315.577 292.444 314.549ZM300.945 314.598L298.821 316.932L298.928 316.979C300.58 317.69 302.05 317.825 303.315 317.301L303.448 317.243L303.32 317.094C302.681 316.36 301.994 315.632 301.242 314.889L300.945 314.598ZM288.147 309.674L287.77 310.055C287.227 310.597 286.679 311.136 286.127 311.671L285.257 312.505L285.33 312.684C285.919 314.077 286.739 315.289 287.807 316.349L287.846 316.387L287.967 316.26C288.74 315.454 289.54 314.638 290.372 313.802L291.02 313.154L290.844 312.972C289.875 311.961 289.046 310.97 288.349 309.97L288.147 309.674ZM304.414 310.787L302.096 313.333L302.119 313.356C303.009 314.227 303.822 315.082 304.576 315.945L304.806 316.21L304.812 316.202C305.604 315.099 305.468 313.301 304.517 311.028L304.414 310.787ZM296.304 310.442L296.132 310.607C295.339 311.371 294.535 312.155 293.716 312.963L293.485 313.192L293.7 313.387C294.834 314.404 295.919 315.258 297.004 315.946L297.21 316.073L298.665 314.488L299.666 313.392L299.335 313.09C298.734 312.546 298.085 311.975 297.269 311.272L296.304 310.442ZM308.688 306.093L305.481 309.615L305.585 309.822C305.762 310.179 305.935 310.542 306.105 310.91L306.358 311.467L306.593 312.004C306.832 312.523 306.997 313.04 307.086 313.549L307.099 313.635L307.195 313.459C308.493 311.016 309.024 308.501 308.699 306.166L308.688 306.093ZM301.633 306.054L301.469 305.83L300.883 306.334L299.254 307.718L298.962 307.969C298.662 308.229 298.393 308.467 298.145 308.693L297.856 308.96L297.558 309.243L298.23 309.818C298.979 310.464 299.632 311.038 300.243 311.591L300.823 312.123L302.687 310.073L303.574 309.093L303.567 309.08C303.01 308.071 302.347 307.04 301.633 306.054ZM291.705 306.261L291.565 306.12L291.521 306.169C290.976 306.754 290.426 307.336 289.871 307.913L289.318 308.484L289.434 308.665C290.107 309.702 290.941 310.714 291.913 311.695L292.159 311.94L292.204 311.983L292.28 311.909C292.842 311.358 293.418 310.798 294.013 310.223L294.973 309.301L294.841 309.187C293.761 308.243 292.718 307.27 291.705 306.261ZM285.777 302.524L285.724 302.614C284.404 304.892 283.997 307.723 284.61 310.42L284.665 310.651L284.693 310.761L284.969 310.496C285.548 309.937 286.122 309.372 286.691 308.803L287.271 308.217L287.216 308.114C286.267 306.3 285.77 304.458 285.777 302.566L285.777 302.524ZM296.258 300.819L295.57 301.63C294.789 302.543 293.997 303.446 293.194 304.339L292.721 304.861L292.839 304.978C293.774 305.906 294.743 306.81 295.755 307.699L296.225 308.108L296.674 307.684C296.963 307.415 297.272 307.137 297.621 306.833L298.194 306.34L299.541 305.201C299.784 304.994 300.001 304.809 300.203 304.634L300.4 304.462L300.305 304.347C299.843 303.797 299.407 303.324 299.046 302.977L298.94 302.876C298.206 302.197 297.404 301.574 296.51 300.983L296.258 300.819ZM305.981 300.72L305.909 300.85C305.166 302.144 304.141 303.356 302.747 304.675L302.631 304.784L302.672 304.843C303.281 305.722 303.859 306.64 304.406 307.599L304.604 307.953L306.163 306.224L308.136 304.025L308.09 303.91C307.637 302.804 306.963 301.765 306.067 300.809L305.981 300.72ZM287.524 301.704L287.516 301.779C287.356 303.524 287.689 305.241 288.469 306.929L288.489 306.971L288.697 306.757C289.157 306.279 289.614 305.797 290.068 305.312L290.415 304.939L290.274 304.791C289.475 303.946 288.691 303.073 287.916 302.168L287.524 301.704ZM288.299 299.774L288.18 299.833L288.211 299.871C289.266 301.163 290.341 302.387 291.454 303.561L291.568 303.681L292.032 303.17C292.847 302.263 293.651 301.346 294.443 300.419L294.829 299.964L294.788 299.94C294.591 299.831 294.391 299.722 294.185 299.612L293.871 299.447C292.035 298.522 290.678 298.624 288.484 299.683L288.299 299.774ZM299.785 296.472L299.108 297.334C298.651 297.91 298.19 298.484 297.725 299.053L297.399 299.449L297.482 299.503C298.712 300.318 299.761 301.202 300.622 302.182L300.818 302.41C301.009 302.637 301.197 302.868 301.382 303.102L301.596 303.375L301.625 303.347C302.997 302.034 303.967 300.837 304.632 299.551L304.651 299.512L304.475 299.37C302.696 297.934 301.392 297.081 300.013 296.556L299.785 296.472ZM297.064 295.978C295.32 295.966 293.733 296.285 292.268 296.943L292.185 296.981L292.33 297C292.651 297.049 292.966 297.132 293.276 297.252L293.43 297.315C294.26 297.69 295.024 298.066 295.739 298.457L295.979 298.59L296.447 298.022C296.925 297.438 297.398 296.851 297.867 296.259L298.035 296.045L297.83 296.021C297.661 296.004 297.491 295.991 297.32 295.984L297.064 295.978Z" fill="#FFB61D"/>
<path fill-rule="evenodd" clip-rule="evenodd" d="M326.692 173.452C327.243 171.921 329.227 171.288 330.691 171.927C332.155 172.565 333.064 174.161 333.293 175.777C333.523 177.393 333.174 179.035 332.726 180.602C332.318 182.03 331.825 183.434 331.251 184.801C331.198 184.928 331.126 185.07 330.995 185.1C330.855 185.133 330.725 185.021 330.625 184.916C328.137 182.328 326.638 178.765 326.507 175.133C326.487 174.566 326.501 173.985 326.692 173.452ZM330.992 173.826C330.584 173.467 330.057 173.232 329.52 173.249C328.265 173.288 327.39 174.693 327.418 175.981C327.446 177.269 328.114 178.438 328.763 179.541C329.228 180.331 329.692 181.121 330.157 181.911C330.315 182.18 330.627 182.487 330.873 182.301C330.973 182.226 331.011 182.094 331.043 181.972C331.234 181.254 331.424 180.536 331.614 179.819C331.886 178.793 332.16 177.75 332.143 176.687C332.126 175.624 331.779 174.518 330.992 173.826Z" fill="#FFB61D"/>
<path fill-rule="evenodd" clip-rule="evenodd" d="M330.171 177.95C329.865 178.038 329.531 178.021 329.236 177.903C328.662 177.673 328.265 177.042 328.299 176.41C328.332 175.779 328.792 175.195 329.387 175.031C330.288 174.781 331.303 175.633 331.243 176.59C331.204 177.21 330.754 177.781 330.171 177.95Z" fill="#FFB61D"/>
</g>
<defs>
<filter id="filter0_d_30_19" x="0" y="0" width="469" height="479" filterUnits="userSpaceOnUse" color-interpolation-filters="sRGB">
<feFlood flood-opacity="0" result="BackgroundImageFix"/>
<feColorMatrix in="SourceAlpha" type="matrix" values="0 0 0 0 0 0 0 0 0 0 0 0 0 0 0 0 0 0 127 0" result="hardAlpha"/>
<feOffset dy="17"/>
<feGaussianBlur stdDeviation="23.5"/>
<feComposite in2="hardAlpha" operator="out"/>
<feColorMatrix type="matrix" values="0 0 0 0 0 0 0 0 0 0 0 0 0 0 0 0 0 0 0.25 0"/>
<feBlend mode="normal" in2="BackgroundImageFix" result="effect1_dropShadow_30_19"/>
<feBlend mode="normal" in="SourceGraphic" in2="effect1_dropShadow_30_19" result="shape"/>
</filter>
</defs>
</svg>
