<svg width="1200" height="1200" viewBox="0 0 1200 1200" fill="none" xmlns="http://www.w3.org/2000/svg">
<circle cx="600" cy="600" r="600" fill="url(#paint0_linear_7_48)"/>
<path d="M508.996 465.446C508.095 453.074 505.929 444.546 502.498 439.859C499.493 435.172 496.28 431.552 492.856 428.999C489.003 425.594 484.089 423.684 478.114 423.27C472.139 422.856 465.739 422.656 458.912 422.67L455.702 420.117L453.689 395.801L454.959 393.238C457.946 393.232 462.854 393.435 469.682 393.848C476.51 394.26 483.552 394.672 490.807 395.084C498.062 395.495 505.103 395.907 511.931 396.32C518.76 396.732 523.667 396.935 526.654 396.929L638.014 396.698C643.987 396.685 652.734 396.667 664.254 396.643C676.199 396.192 688.357 395.74 700.729 395.287C713.1 394.835 724.193 394.598 734.006 394.578C743.818 394.131 749.79 393.905 751.924 393.901L755.788 400.293L752.904 482.859L724.104 482.919L721.534 480.364C720.65 472.259 719.346 465.862 717.621 461.172C716.323 456.482 712.47 453.076 706.062 450.956C699.654 448.836 689.622 447.577 675.967 447.179C662.739 446.78 644.178 446.605 620.285 446.654L584.445 446.729L583.26 471.691C583.277 475.958 583.079 480.012 582.667 483.853C582.68 487.266 582.482 491.32 582.073 496.014C582.091 500.707 581.901 506.681 581.502 513.935C581.528 520.762 581.602 539.962 581.723 571.535C591.961 571.087 601.774 571.066 611.162 571.474C620.976 571.453 629.722 571.222 637.4 570.779C645.505 570.335 652.543 569.681 658.513 568.815C664.481 567.523 668.74 565.594 671.29 563.029C675.116 559.181 677.012 552.99 676.979 544.457L680.167 541.25L703.842 539.921L706.407 541.196C706.002 546.743 705.594 551.651 705.183 555.918C704.772 559.759 704.36 563.6 703.948 567.441C703.962 571.281 703.764 575.121 703.352 578.962C703.366 582.802 703.384 587.282 703.403 592.402C703.442 602.642 703.693 612.455 704.156 621.84C705.043 630.798 705.933 640.397 706.826 650.635L704.271 651.92L679.946 650.691L677.379 648.776C677.336 637.683 675.171 629.367 670.883 623.829C668.742 621.701 664.895 620.002 659.344 618.733C653.792 617.465 646.962 616.626 638.854 616.216C631.171 615.379 622.209 614.971 611.969 614.992C602.156 615.012 592.129 615.033 581.889 615.054L582.041 654.734C582.1 670.094 582.148 682.681 582.185 692.494C582.221 701.88 582.252 709.774 582.276 716.174C582.727 722.573 582.962 728.119 582.98 732.812C583.423 737.078 583.867 741.77 584.314 746.889C585.214 759.261 587.38 767.79 590.812 772.476C594.67 777.161 598.31 780.78 601.733 783.333C605.586 786.739 611.14 788.647 618.395 789.059C626.077 789.469 633.331 789.668 640.158 789.653L643.367 792.207L645.381 816.523L644.11 819.085C641.124 819.091 635.79 818.889 628.108 818.478C620.853 818.067 613.171 817.656 605.063 817.246C596.955 816.837 589.06 816.426 581.378 816.016C574.123 815.604 569.003 815.401 566.016 815.408L528.256 815.486C525.269 815.492 520.363 815.716 513.538 816.157C506.713 816.597 499.675 817.039 492.423 817.481C485.172 817.922 478.133 818.364 471.308 818.804C464.483 819.245 459.577 819.469 456.591 819.475L455.301 816.918L457.128 792.594L460.318 790.027C467.145 790.013 473.544 789.786 479.516 789.347C485.486 788.482 490.385 786.551 494.214 783.557C497.615 780.563 500.801 776.716 503.769 772.017C507.165 767.316 509.266 758.992 510.074 747.044C510.062 744.057 510.049 740.644 510.035 736.804C510.445 732.536 510.639 727.416 510.616 721.443C511.02 715.468 511.205 708.215 511.173 699.681C511.14 691.148 511.099 680.482 511.05 667.682L510.651 563.362C510.594 548.429 510.546 535.843 510.506 525.603C510.467 515.363 510.22 506.617 509.766 499.364C509.738 492.111 509.501 485.925 509.055 480.806C509.035 475.686 509.016 470.566 508.996 465.446Z" fill="white"/>
<path d="M133.433 583.433C121.522 595.344 121.522 614.656 133.433 626.567L327.534 820.668C339.445 832.579 358.757 832.579 370.668 820.668C382.579 808.757 382.579 789.445 370.668 777.534L198.134 605L370.668 432.466C382.579 420.555 382.579 401.243 370.668 389.332C358.757 377.421 339.445 377.421 327.534 389.332L133.433 583.433ZM159 574.5H155V635.5H159V574.5Z" fill="white"/>
<path d="M1065.57 626.567C1077.48 614.656 1077.48 595.344 1065.57 583.433L871.466 389.332C859.555 377.421 840.243 377.421 828.332 389.332C816.421 401.243 816.421 420.555 828.332 432.466L1000.87 605L828.332 777.534C816.421 789.445 816.421 808.757 828.332 820.668C840.243 832.579 859.555 832.579 871.466 820.668L1065.57 626.567ZM1040 635.5H1044V574.5H1040V635.5Z" fill="white"/>
<path d="M769.412 117.086C878.338 143.871 1004.29 271.245 1050.4 374.37" stroke="white" stroke-width="40" stroke-linecap="round"/>
<defs>
<linearGradient id="paint0_linear_7_48" x1="132.5" y1="183.5" x2="859" y2="1259.5" gradientUnits="userSpaceOnUse">
<stop stop-color="#6AD5F7"/>
<stop offset="1" stop-color="#34788D"/>
</linearGradient>
</defs>
</svg>
