<svg width="846" height="795" viewBox="0 0 846 795" fill="none" xmlns="http://www.w3.org/2000/svg">
<g clip-path="url(#clip0_48_36)">
<path fill-rule="evenodd" clip-rule="evenodd" d="M404.61 298.645C401.158 290.291 394.618 283.467 388.958 276.255C373.822 256.974 364.435 233.744 362.136 209.875C360.909 197.132 365.569 134.939 390.216 120.349C378.047 116.826 365.569 113.152 355.589 105.718C345.608 98.2841 338.545 86.1304 341.231 74.4263C345.296 56.7116 369.76 49.1063 388.008 54.9288C406.257 60.7513 419.383 75.4813 431.528 89.5508C443.142 88.6309 446.025 72.5376 456.632 67.9962C463.787 64.9329 472.105 68.0735 479.041 71.5533C499.227 81.68 518.133 95.5662 528.805 114.597C539.479 133.628 540.403 158.47 526.803 175.771C531.757 170.437 542.023 177.071 541.437 184.132C540.849 191.192 534.217 196.315 527.887 200.149C521.556 203.983 514.481 207.957 511.979 214.637C505.681 231.452 495.676 247.03 482.782 260.096C474.904 268.08 465.86 275.263 460.016 284.667C454.173 294.072 452.221 306.709 459.036 315.515C468.099 306.444 483.72 303.892 495.505 309.56C507.289 315.227 514.234 328.631 511.719 340.852C528.14 342.178 542.892 354.411 546.345 369.567C579.638 401.129 606.832 438.365 626.207 478.919C638.505 504.661 647.638 531.619 656.742 558.509C660.305 569.03 663.911 580.052 661.926 590.936C657.897 613.036 632.404 626.056 608.724 628.672C579.242 631.93 548.52 623.842 525.121 606.662C512.622 643.216 500.145 683.146 514.355 719.144C517.398 726.853 511.312 735.609 503.363 739.034C495.415 742.46 486.265 741.96 477.542 741.391C428.652 738.204 379.763 735.017 330.873 731.829C320.627 731.162 306.62 725.493 310.247 716.457C318.345 696.277 320.659 674.073 316.881 652.799C313.998 667.128 309 681.078 302.074 694.125C302.074 694.125 277.67 741.391 253.334 717.134C239.462 690.774 238.864 659.909 242.959 630.753C247.053 601.596 255.517 573.064 258.825 543.819C262.046 515.329 260.334 486.499 263.485 458.002C266.636 429.504 275.345 400.32 296.027 379.283C312.392 362.639 328.756 345.995 345.12 329.349C349.526 324.869 354.17 320.233 360.262 318.131C366.355 316.029 374.319 317.366 377.452 322.711C381.315 318.192 385.835 313.321 391.966 312.716C398.099 312.112 404.497 319.177 400.561 323.638C407.616 317.612 408.062 307 404.61 298.645Z" fill="white"/>
<path fill-rule="evenodd" clip-rule="evenodd" d="M535.076 369.567C568.369 401.13 595.563 438.366 614.938 478.92C627.235 504.661 636.368 531.62 645.473 558.51C649.036 569.032 652.641 580.054 650.657 590.937C646.627 613.038 621.134 626.056 597.455 628.673C567.972 631.93 539.142 622.154 515.743 604.974C503.244 641.529 488.876 683.146 503.085 719.145C504.372 722.406 507.731 726.097 506.3 729.251C504.35 733.55 496.679 737.06 492.094 739.036C490.887 739.556 494.11 728.801 493.969 713.018C493.729 686.156 481.755 592.836 509.943 599.001C578.788 614.058 630.695 611.723 631.783 595.661C637.309 514.116 531.622 354.412 535.076 369.567Z" fill="#E7EAEE"/>
<g clip-path="url(#clip1_48_36)">
<path d="M846 -19.4116H-39.7627V795H846V-19.4116Z" fill="#0C0C0C"/>
<path fill-rule="evenodd" clip-rule="evenodd" d="M508.711 148.445C510.098 101.083 444.905 20.2313 338.103 34.3184C221.172 49.7415 136.326 173.277 153.228 311.35L153.872 316.654C164.248 402.894 167.716 470.827 149.787 566.486C136.383 638.005 231.701 796.348 442.548 771.299C653.394 746.251 769.208 513.79 669.708 404.105C536.812 257.6 505.674 252.102 508.711 148.445Z" fill="#64FCD9"/>
<path fill-rule="evenodd" clip-rule="evenodd" d="M383.496 286.526C379.879 277.967 373.027 270.977 367.095 263.589C351.236 243.837 341.4 220.039 338.991 195.588C337.705 182.534 342.588 118.822 368.413 103.876C355.663 100.267 342.588 96.5029 332.13 88.8876C321.672 81.2721 314.271 68.8217 317.085 56.8318C321.345 38.6846 346.979 30.8936 366.1 36.8582C385.222 42.8228 398.976 57.9126 411.702 72.3256C423.872 71.3832 426.893 54.897 438.007 50.2446C445.504 47.1065 454.22 50.3239 461.488 53.8886C482.639 64.2626 502.449 78.4879 513.633 97.983C524.817 117.479 525.785 142.928 511.535 160.651C516.726 155.187 527.482 161.983 526.868 169.216C526.253 176.449 519.304 181.697 512.67 185.625C506.036 189.552 498.623 193.623 496.001 200.466C489.403 217.692 478.919 233.65 465.408 247.036C457.153 255.214 447.676 262.572 441.553 272.206C435.43 281.84 433.385 294.786 440.526 303.808C450.023 294.515 466.391 291.901 478.739 297.707C491.087 303.512 498.364 317.243 495.729 329.762C512.936 331.121 528.393 343.653 532.012 359.179C566.898 391.512 595.392 429.657 615.694 471.201C628.58 497.571 638.15 525.188 647.69 552.734C651.423 563.513 655.201 574.804 653.121 585.954C648.899 608.593 622.187 621.931 597.375 624.611C566.482 627.948 534.291 619.663 509.772 602.064C496.676 639.51 483.602 680.414 498.491 717.292C501.679 725.189 495.303 734.159 486.973 737.668C478.645 741.177 469.057 740.665 459.917 740.081C408.689 736.817 357.461 733.552 306.232 730.287C295.496 729.603 280.819 723.795 284.619 714.539C293.105 693.866 295.529 671.12 291.571 649.327C288.55 664.006 283.313 678.296 276.056 691.662C276.056 691.662 250.484 740.082 224.984 715.232C210.449 688.23 209.822 656.611 214.112 626.743C218.403 596.873 227.271 567.644 230.738 537.686C234.113 508.5 232.319 478.966 235.621 449.773C238.922 420.579 248.048 390.683 269.719 369.132C286.867 352.082 304.014 335.031 321.161 317.979C325.778 313.389 330.643 308.641 337.027 306.488C343.411 304.334 351.756 305.704 355.04 311.179C359.087 306.549 363.823 301.56 370.248 300.94C376.674 300.321 383.378 307.558 379.254 312.129C386.646 305.956 387.114 295.085 383.496 286.526Z" fill="white"/>
<path fill-rule="evenodd" clip-rule="evenodd" d="M520.202 359.179C555.088 391.512 583.582 429.657 603.884 471.202C616.77 497.571 626.34 525.188 635.88 552.735C639.613 563.514 643.392 574.805 641.312 585.953C637.09 608.594 610.377 621.931 585.565 624.611C554.672 627.948 524.463 617.933 499.944 600.334C486.848 637.781 471.792 680.414 486.681 717.292C488.03 720.633 491.549 724.414 490.049 727.645C488.006 732.049 479.968 735.644 475.164 737.669C473.899 738.202 477.277 727.184 477.129 711.016C476.878 683.498 464.33 587.899 493.866 594.215C566.005 609.64 620.395 607.247 621.536 590.793C627.326 507.257 516.583 343.654 520.202 359.179Z" fill="#E7EAEE"/>
<path fill-rule="evenodd" clip-rule="evenodd" d="M362.758 268.342V268.341L362.757 268.339L362.756 268.338L362.755 268.337V268.336H362.754V268.335H362.752V268.334V268.333H362.751V268.332H362.75C361.427 266.756 360.106 265.182 358.828 263.589C342.968 243.837 333.132 220.039 330.723 195.588C329.437 182.534 334.321 118.822 360.146 103.876C347.396 100.267 334.321 96.5029 323.863 88.8876C313.405 81.2721 306.003 68.8217 308.818 56.8318C313.078 38.6846 338.712 30.8936 357.832 36.8582C376.954 42.8228 390.708 57.9126 403.435 72.3256C410.137 71.8066 414.065 66.572 418.097 61.1965C421.386 56.8124 424.746 52.3345 429.74 50.2446C437.237 47.1065 445.953 50.3239 453.221 53.8886C474.372 64.2626 494.182 78.4879 505.365 97.983C516.549 117.479 517.518 142.928 503.267 160.651C508.458 155.187 519.215 161.983 518.601 169.216C517.985 176.449 511.036 181.697 504.402 185.625C504.049 185.833 503.694 186.043 503.337 186.253C496.993 189.993 490.216 193.988 487.734 200.466C481.135 217.692 470.651 233.65 457.14 247.036C454.944 249.212 452.66 251.33 450.377 253.449H450.376C444.078 259.292 437.779 265.136 433.285 272.206C427.163 281.84 425.117 294.786 432.259 303.808C441.755 294.515 458.123 291.901 470.472 297.707C482.819 303.512 490.097 317.243 487.462 329.762C504.668 331.121 520.125 343.653 523.744 359.179C558.63 391.512 587.124 429.657 607.426 471.201C620.312 497.571 629.882 525.188 639.422 552.734C643.155 563.513 646.934 574.804 644.854 585.954C640.632 608.593 613.919 621.931 589.107 624.611C558.214 627.948 526.023 619.663 501.504 602.064C488.408 639.51 475.334 680.414 490.223 717.292C491.541 720.556 491.225 724.004 489.811 727.174C480.116 707.804 478.34 685.694 480.933 664.495C483.548 643.124 490.383 622.407 497.185 601.83C498.313 598.418 492.419 597.518 488.576 597.034C481.752 596.174 476.801 590.828 472.533 585.858L455.182 565.649C443.984 552.606 431.073 538.607 413.21 536.081C408.256 535.381 403.242 535.636 398.222 535.891C395.164 536.046 392.103 536.202 389.05 536.142C377.195 535.908 365.444 532.321 355.791 525.988C353.477 524.47 351.128 522.567 350.653 519.989C350.189 517.472 352.663 514.521 355.291 515.162L355.477 515.214C355.449 515.205 355.421 515.196 355.392 515.189C355.359 515.179 355.325 515.17 355.291 515.162C346.928 512.842 338.963 509.31 331.783 504.735C330.46 503.892 329.11 502.956 328.428 501.615C326.955 498.718 329.393 495.169 332.607 493.947C335.822 492.724 339.462 493.17 342.903 493.636C338.798 492.87 334.565 492.054 331.125 489.856C327.686 487.657 325.221 483.689 326.286 479.965C327.35 476.24 332.934 473.935 336.081 476.476C334.708 472.716 337.685 468.549 341.58 466.843C345.475 465.137 349.988 465.272 354.296 465.49C372.371 466.407 390.395 468.181 408.271 470.801L405.653 436.989C405.547 435.61 405.417 434.166 404.604 433.003C403.562 431.513 401.635 430.803 399.829 430.187C363.441 417.793 326.007 407.996 287.975 400.912L296.495 547.672C296.757 552.172 298.12 557.88 302.956 558.611C333.003 563.159 362.477 570.898 390.604 581.625C394.555 583.132 397.444 578.046 398.171 574.172L405.379 535.763C406.38 551.999 403.854 568.413 397.992 583.756C402.475 584.725 405.069 579.28 405.786 575.097L412.295 537.142C413.404 550.596 412.124 564.215 408.523 577.296C407.695 580.299 406.439 583.621 403.384 584.929C400.799 586.035 397.771 585.317 395.033 584.583L299.857 559.064C298.361 558.662 296.8 558.227 295.69 557.22C294.04 555.721 293.814 553.383 293.687 551.253L285.765 418.922C285.252 410.344 285.762 401.744 286.271 393.166L288.882 349.232C273.563 398.849 272.116 451.444 278.569 502.679C285.024 553.915 299.2 604.051 314.731 653.613C308.196 643.335 303.423 632.112 300.642 620.485C293.045 630.481 285.075 641.877 287.242 653.908C290.882 674.114 288.561 695.202 280.591 714.329C278.774 718.691 282.042 723.722 286.515 725.935C290.99 728.147 296.297 728.256 301.377 728.315L369.007 729.087C367.142 726.91 367.815 723.297 370.363 721.816C369.68 728.573 379.108 731.755 386.422 732.67C420.979 736.992 457.713 741.045 489.473 727.885C487.357 732.084 483.333 735.718 478.706 737.668C470.377 741.177 460.79 740.665 451.65 740.081L297.964 730.287C287.229 729.603 272.551 723.795 276.352 714.539C284.837 693.866 287.262 671.12 283.303 649.327C280.282 664.006 275.045 678.296 267.788 691.662C270.764 669.345 278.903 647.621 291.503 628.352C300.471 614.636 295.305 597.184 290.699 581.75C268.886 508.682 265.505 431.018 280.895 356.579C248.05 378.654 234.337 417.826 230.442 455.061C228.812 470.628 228.543 486.304 228.275 501.97C227.899 523.775 227.525 545.56 223.486 567.008C221.641 576.807 219.038 586.491 216.436 596.167C212.326 611.456 208.22 626.727 207.117 642.406C205.395 666.892 211.072 691.25 216.716 715.232C202.181 688.23 201.554 656.611 205.845 626.743C207.814 613.034 210.747 599.462 213.68 585.891C217.138 569.891 220.595 553.896 222.47 537.686C224.169 522.986 224.559 508.199 224.948 493.411C225.332 478.838 225.714 464.263 227.354 449.773C230.654 420.579 239.78 390.683 261.452 369.132L312.893 317.979C317.51 313.389 322.376 308.641 328.759 306.488C335.144 304.334 343.489 305.704 346.772 311.179C350.819 306.549 355.555 301.56 361.98 300.94C368.406 300.321 375.111 307.558 370.986 312.129C378.378 305.956 378.846 295.085 375.229 286.526C372.393 279.816 367.569 274.07 362.758 268.342ZM489.473 727.885C489.592 727.65 489.705 727.413 489.811 727.174C489.89 727.331 489.969 727.487 490.048 727.645C489.968 727.679 489.887 727.713 489.805 727.747C489.694 727.794 489.584 727.839 489.473 727.885ZM641.343 573.568C643.082 586.903 635.306 600.308 623.769 608.545C612.232 616.783 597.46 620.402 582.887 621.323C552.204 623.26 520.843 613.588 497.636 595.031C515.451 578.244 516.446 548.751 499.798 530.98C514.121 524.853 528.767 518.642 544.47 517.054C560.172 515.467 577.406 519.299 587.613 530.385C589.358 532.278 590.867 534.345 592.375 536.409C594.227 538.946 596.078 541.479 598.361 543.689C596.382 531.668 586.191 521.628 573.991 516.938C561.793 512.248 547.915 512.352 535.006 514.991C522.099 517.63 509.94 522.662 497.887 527.66C495.594 528.61 493.88 525.577 493.506 523.292L491.347 510.045C490.457 504.585 490.551 497.438 496.146 495.432C500.349 493.926 499.247 488.032 496.466 484.768C496 484.22 495.5 483.671 494.997 483.115C492.492 480.357 489.863 477.46 490.527 474.062C497.577 437.973 504.667 401.738 517.213 366.933C517.601 365.855 518.074 364.685 519.143 364.116C520.587 363.345 522.413 364.012 523.867 364.767C535.62 370.874 542.644 381.784 549.653 392.671V392.672C552.126 396.514 554.598 400.352 557.275 403.977C561.405 409.568 566.138 414.745 570.871 419.923L570.872 419.924V419.925L570.874 419.926L570.875 419.928L570.876 419.929V419.93L570.877 419.931L570.878 419.932L570.88 419.933L570.881 419.934L570.882 419.935V419.936L570.883 419.937C574.394 423.778 577.905 427.619 581.172 431.632C601.333 456.396 611.224 486.18 621.135 516.029C625.656 529.645 630.182 543.273 635.689 556.445C635.912 556.979 636.138 557.513 636.363 558.049C638.494 563.103 640.641 568.197 641.343 573.568ZM483.383 495.63C486.258 495.605 489.27 495.548 491.789 494.271C494.308 492.993 496.088 490.067 494.924 487.649C493.817 485.353 490.629 484.526 487.921 484.851C486.353 485.04 484.853 485.512 483.352 485.984H483.351H483.35H483.348V485.985H483.347C482.258 486.327 481.168 486.67 480.05 486.905C474.475 488.078 468.785 486.532 463.126 484.996C457 483.332 450.909 481.678 445.041 483.493C448.837 477.716 448.586 470.57 448.348 463.781C448.336 463.426 448.323 463.072 448.311 462.719C447.107 426.665 455.807 390.369 473.383 358.121C466.896 362.388 462.239 368.946 460.602 376.125C460.407 376.978 460.252 377.843 460.097 378.707C459.699 380.929 459.301 383.151 458.234 385.163C453.912 393.318 441.705 393.922 431.877 393.106C423.825 392.438 415.386 391.467 408.826 387.119C405.536 384.938 402.888 382.011 400.253 379.099C396.747 375.224 393.266 371.377 388.333 369.359C380.15 366.011 371.406 368.801 362.558 371.623C354.566 374.173 346.489 376.75 338.666 374.853C334.257 373.784 331.209 378.76 329.886 382.771L324.121 400.247C321.432 390.694 324.717 379.918 332.413 373.041C329.117 371.053 330.005 366.972 330.884 362.931C331.773 358.838 332.655 354.787 329.17 352.995C318.651 347.584 316.569 334.732 315.671 323.681C302.287 328.225 294.651 341.526 292.298 354.464C290.91 362.091 290.926 369.831 290.943 377.579C290.954 382.976 290.964 388.377 290.501 393.746C330.854 401.009 370.629 410.986 409.401 423.572C411.775 424.343 414.268 425.201 415.852 427C417.555 428.935 417.873 431.573 418.123 434.052C419.389 446.588 420.584 459.642 415.707 471.405L415.748 434.746C415.751 432.716 415.373 430.175 413.272 429.554C410.004 428.586 408.471 433.177 408.74 436.325L411.075 463.577C411.394 467.307 411.984 471.509 415.249 473.743L356.583 468.324C350.489 467.762 343.185 467.668 339.621 472.248C340.208 476.629 345.904 478.469 350.604 479.369L387.948 486.528C376.262 488.749 363.981 486.757 352.924 482.629C352.085 482.315 351.25 481.989 350.413 481.663L350.408 481.661C346.908 480.296 343.396 478.927 339.642 478.471C334.991 477.906 329.735 479.071 327.034 482.598C343.743 492.758 363.161 499.12 383.092 500.964C382.971 502.952 380.086 503.548 377.926 503.403C372.304 503.027 366.898 501.511 361.486 499.993H361.485C358.973 499.288 356.461 498.583 353.925 497.993C345.925 496.128 336.957 495.51 329.855 499.377C345.839 511.363 366.914 515.529 387.123 519.327L353.661 518.671C359.579 528.353 372.857 531.92 384.919 532.508C388.487 532.681 392.085 532.677 395.684 532.673C404.252 532.662 412.812 532.652 420.912 535.047C435.613 539.395 446.261 550.865 456.096 561.813L475.061 582.925C477.646 585.804 482.574 586.122 486.228 584.494C489.882 582.866 492.46 579.729 494.482 576.491C498.497 570.057 500.885 562.503 499.59 555.182C498.293 547.86 492.799 540.942 485.057 538.854C471.758 535.269 462.317 524.401 455.791 513.16C453.55 509.301 451.538 505.319 449.525 501.341C445.678 493.728 441.833 486.126 436.41 479.406C434.784 477.391 433.012 475.449 431.242 473.507C426.865 468.708 422.491 463.911 420.325 458.038C431.466 467.95 440.922 479.46 448.244 492.025C449.038 493.386 449.913 494.857 451.447 495.49C452.428 495.895 453.544 495.893 454.621 495.883L483.383 495.63ZM480.316 188.264C483.008 187.943 485.138 186.087 487.063 184.327L496.431 175.759C479.125 215.186 454.412 253.304 416.952 278.228C409.346 283.288 400.304 287.948 391.063 286.43C386.222 285.634 381.879 283.193 378.029 280.38C370.01 274.522 363.667 266.938 358.241 258.951C342.924 236.404 334.42 209.905 334.549 183.32C334.678 156.737 343.521 130.164 360.069 108.364C360.638 107.615 361.276 106.829 362.215 106.53C363.168 106.227 364.212 106.495 365.177 106.766C399.861 116.459 434.215 127.156 468.168 138.834C473.542 140.683 475.78 146.499 476.757 151.698C478.77 162.407 478.233 173.515 475.197 184.019C474.499 186.43 477.624 188.587 480.316 188.264ZM457.685 108.555C461.776 108.589 464.629 113.62 462.317 116.723C460.004 119.827 453.873 119.198 452.361 115.702C450.665 111.781 446.29 109.653 442.165 107.645C441.727 107.432 441.292 107.221 440.864 107.008C426.997 100.142 416.338 89.2373 405.73 78.3859V78.3856C402.946 75.539 400.167 72.6959 397.335 69.9304C391.953 64.6761 386.308 59.6495 380.425 54.8714C373.972 49.6312 367.126 44.6301 359.225 41.4857C351.325 38.3413 342.19 37.1955 334.058 39.797C337.721 39.9677 340.591 43.8054 339.452 47.0109C338.315 50.2164 333.535 51.7579 330.468 49.9087C327.401 48.0594 327.035 43.4145 329.778 41.1774C321.464 43.4406 314.477 49.4867 311.518 56.9807C310.934 58.4584 310.499 60.0924 311.033 61.5859C311.334 62.428 311.925 63.1759 312.51 63.9151C313.334 64.9595 314.145 65.9869 314.107 67.2385C313.807 77.2572 324.476 86.3282 335.316 85.2711C337.438 85.0641 338.295 87.0108 339.182 89.0302C339.604 89.9941 340.036 90.9736 340.614 91.7446C341.649 93.1215 343.378 93.8881 345.032 94.5842C361.857 101.66 379.265 107.56 397.06 112.218C399.122 112.757 401.944 112.982 402.82 111.182C403.992 108.767 407.402 107.513 410.064 108.518C412.725 109.523 414.192 112.618 413.179 115.095C412.726 116.204 414.214 117.104 415.426 117.507L476.042 137.658C474.923 133.533 480.623 129.433 484.708 131.423C488.793 133.413 488.305 140.051 483.965 141.517L506.12 151.788L510.097 121.896C510.283 120.5 509.676 118.423 508.209 118.822C505.49 119.563 502.286 118.149 501.212 115.736C500.139 113.324 501.348 110.251 503.851 109.027C505.777 108.086 506.495 105.764 506.069 103.797C505.644 101.829 504.326 100.137 503.01 98.5368C488.782 81.2197 470.759 66.477 450.087 55.9995C444.547 53.1915 437.832 50.6611 432.106 53.1353C428.793 54.5676 426.563 57.3864 424.384 60.142C424.037 60.5805 423.692 61.0175 423.343 61.4469C418.984 66.8198 413.59 71.481 407.489 75.149L426.804 93.2159C425.206 90.0452 427.636 85.7733 431.381 85.1724C435.125 84.5714 438.986 87.8332 438.652 91.3146C438.317 94.7948 433.893 97.3836 430.322 96.188C438.387 102.18 447.317 108.47 457.685 108.555ZM482.271 353.27C485.206 353.467 488.187 351.847 489.413 349.386C490.639 346.926 490.027 343.792 487.947 341.878C485.348 339.485 488.357 335.018 492.015 334.671C495.672 334.324 498.996 336.472 501.928 338.512L516.06 348.349C517.774 349.543 519.695 351.325 518.947 353.177C502.806 393.086 492.195 434.881 487.454 477.236C487.07 480.669 483.471 483.197 479.777 483.811C476.084 484.427 472.309 483.566 468.673 482.71L455.671 479.651C454.789 479.443 453.863 479.215 453.207 478.634C452.268 477.802 452.124 476.489 452.046 475.293C449.405 434.507 458.529 393.126 478.238 356.505C479.081 354.94 480.377 353.141 482.271 353.27ZM453.634 327.688C450.116 325.247 450.922 319.289 454.984 317.717C444.931 318.515 435.761 322.635 426.58 326.758C417.725 330.735 408.863 334.716 399.193 335.724C405.003 339.35 407.746 346.297 406.959 352.712C406.171 359.128 402.263 364.97 397.184 369.429C401.532 377.085 408.714 383.352 417.259 386.943C420.269 388.208 423.72 389.154 426.856 388.177C427.539 387.965 428.269 387.68 429.012 387.39C431.72 386.335 434.588 385.217 435.947 387.291C438.496 391.181 445.001 390.288 449.221 387.929C452.103 386.317 454.786 384.134 455.972 381.23C457.159 378.325 456.457 374.617 453.682 372.852C451.377 371.385 450.602 368.22 452.002 365.987C453.401 363.755 456.768 362.783 459.303 363.881C461.517 364.84 463.59 362.451 464.913 360.557C468.025 356.1 472.609 352.527 477.9 350.432C475.783 347.569 476.08 343.392 478.587 340.807C472.111 336.456 466.917 330.509 463.693 323.759C463.161 327.781 457.151 330.128 453.634 327.688ZM367.885 312.11V312.111C367.805 312.591 367.724 313.071 367.662 313.548C367.37 315.771 367.631 318.356 369.568 319.711C376.961 311.473 381.306 300.965 381.734 290.292C381.82 288.159 385.335 288.467 387.527 289.17C393.995 291.242 401.257 290.208 407.532 287.681C413.807 285.155 419.282 281.242 424.684 277.371C423.102 287.047 424.479 297.119 428.617 306.135L407.26 320.881C406.416 321.464 405.623 322.801 406.592 323.19C414.685 320.777 421.556 315.87 428.286 311.065L428.917 310.615C435.848 305.669 443.105 300.706 451.599 298.683C460.093 296.66 470.2 298.257 475.613 304.606C478.282 307.735 479.559 311.652 480.78 315.467L484.561 327.28C485.381 329.841 486.186 332.663 485.007 335.102C483.826 337.541 479.673 338.742 478.016 336.55L470.272 326.306C466.583 321.426 462.398 316.212 456.169 314.628C449.372 312.901 442.364 316.023 436.044 318.899C424.97 323.938 413.632 328.488 402.083 332.525C398.531 333.767 394.594 332.554 390.74 331.369C386.354 330.02 382.077 328.704 378.611 331.081C377.324 331.962 375.505 331.48 374.022 330.917C363.819 327.041 354.679 320.826 347.661 312.99L362.353 304.216C364.395 302.996 367.236 304.747 367.929 306.893C368.473 308.578 368.178 310.35 367.885 312.11ZM378.687 364.453C372.001 359.428 368.77 350.812 370.665 343.066C371.147 341.097 368.922 339.572 367.122 338.417C365.323 337.26 363.542 335.006 364.931 333.444C365.679 332.601 364.66 331.422 363.724 330.756L345.748 317.943C343.592 316.405 341.368 314.795 340.123 312.562C337.872 308.526 331.865 306.706 327.446 308.72C321.17 311.58 320.295 319.337 320.261 325.777C320.252 327.295 320.716 329.31 322.365 329.395C326.578 329.615 328.573 335.629 325.209 337.973C321.914 340.267 324.265 345.243 327.542 347.559C328.257 348.065 329.023 348.549 329.791 349.036C332.548 350.78 335.353 352.555 336.071 355.451C336.606 357.608 335.816 359.892 335.043 362.125C334.077 364.916 333.141 367.624 334.859 369.893C336.964 372.672 341.453 372.402 345.071 371.777C356.394 369.826 367.616 367.381 378.687 364.453ZM458.574 499.132C466.722 498.527 474.925 498.542 483.071 499.175C483.754 499.228 484.475 499.299 485.024 499.677C485.869 500.259 486.02 501.347 486.114 502.313C486.894 510.25 488.533 518.115 491.001 525.753C490.618 526.69 489.529 526.917 488.397 527.154C487.658 527.307 486.901 527.466 486.31 527.827C484.401 528.994 484.957 531.786 486.375 533.442C486.877 534.028 487.458 534.562 488.038 535.095V535.096C489.099 536.071 490.155 537.042 490.705 538.307C473.231 533.274 460.492 518.885 453.686 503.255C453.274 502.307 452.876 501.251 453.251 500.292C453.626 499.331 455.167 498.765 455.873 499.552C456.152 499.862 456.223 500.282 456.284 500.68L457.474 508.49C457.628 509.511 459.446 509.522 460.062 508.66C460.678 507.8 460.451 506.666 460.201 505.661L458.574 499.132ZM401.931 345.475C399.584 339.256 393.26 334.463 386.172 333.531C383.578 333.19 380.654 333.433 378.798 335.132C374.715 338.869 373.103 344.566 374.061 349.788C375.018 355.01 378.352 359.723 382.748 363.145C386.034 365.702 390.667 367.637 394.568 365.964C395.73 365.465 396.721 364.681 397.605 363.828C402.542 359.059 404.278 351.695 401.931 345.475ZM479.817 181.441C481.745 169.106 483.537 155.807 477.204 144.791C476.763 144.024 476.308 143.016 476.94 142.372L496.822 151.428C498.398 152.147 500.264 153.537 499.531 155.007C498.675 156.725 498.512 158.622 498.35 160.522C498.281 161.326 498.212 162.128 498.091 162.919C497.359 167.697 494.658 172.073 491.233 175.728C487.808 179.384 483.665 182.402 479.549 185.394C479.407 184.077 479.613 182.751 479.817 181.441ZM499.835 535.654C497.555 532.702 494.506 529.809 490.586 529.45C489.074 529.311 487.039 530.722 488.137 531.688C497.63 540.033 503.988 551.974 502.813 564.001C501.637 576.027 491.769 587.506 478.789 589.337C482.628 593.53 489.953 593.857 495.157 591.183C500.361 588.51 503.707 583.531 505.817 578.406C511.577 564.415 509.26 547.849 499.835 535.654ZM296.084 397.115C310.485 399.19 324.536 402.913 338.543 406.627L376.708 416.746C388.325 419.825 400.073 422.956 410.548 428.505C405.58 428.339 400.748 427.034 395.993 425.697C387.586 423.334 379.206 420.839 370.825 418.342C343.636 410.245 316.428 402.142 288.181 398.536C289.985 396.55 293.304 396.715 296.084 397.115ZM504.763 163.939C502.577 165.745 501.533 168.438 500.904 171.078C500.72 171.853 500.564 172.636 500.408 173.418L500.407 173.419C500.031 175.301 499.656 177.183 498.891 178.956C498.765 179.247 498.63 179.541 498.491 179.837C497.804 181.321 497.092 182.854 497.606 184.352C505.849 183.865 513.307 177.759 514.785 170.286C515.281 167.778 514.987 164.832 512.827 163.234C510.538 161.541 506.949 162.135 504.763 163.939ZM462.557 65.8348C463.505 68.3099 462.074 71.348 459.461 72.4044C456.848 73.4606 453.445 72.377 452.102 70.061C450.625 67.5114 451.975 63.9277 454.852 62.7649C457.727 61.602 461.513 63.1098 462.557 65.8348ZM364.424 68.1709C364.588 65.9203 363.05 63.6501 360.782 62.7911C357.895 61.698 354.183 63.1517 353.041 65.8231C351.898 68.4946 353.538 71.8837 356.461 72.8917C359.893 74.0753 364.18 71.534 364.424 68.1709ZM476.079 90.8411C476.161 93.6883 479.002 96.2271 482.1 96.2195C485.386 96.2108 488.313 93.3061 488.074 90.2927C487.847 87.4519 484.879 85.0394 481.785 85.181C478.691 85.3227 475.998 87.9943 476.079 90.8411ZM387.771 94.1476C385.526 96.7288 380.622 96.7353 378.368 94.1607C376.113 91.5849 377.168 87.1828 380.39 85.7164C383.612 84.25 388.058 86.149 388.918 89.3589C389.358 91.0029 388.923 92.8261 387.771 94.1476ZM369.556 137.166C367.656 139.897 367.25 143.461 368.495 146.495C368.955 147.62 369.642 148.685 370.62 149.483C373.754 152.047 379.112 150.964 381.75 147.965C384.389 144.967 384.751 140.736 383.973 136.947C383.663 135.435 383.092 133.823 381.689 132.984C380.713 132.401 379.485 132.296 378.324 132.373C374.807 132.604 371.456 134.436 369.556 137.166ZM432.672 165.113C431.636 164.139 430.953 162.885 430.529 161.58C428.954 156.742 431.17 151.075 435.733 148.265C437.797 146.994 440.457 146.287 442.793 147.066C445.657 148.019 447.231 150.891 447.774 153.647C448.551 157.59 447.617 162.01 444.459 164.772C441.301 167.534 435.722 167.977 432.672 165.113ZM353.6 219.506C353.705 217.07 353.92 214.637 354.244 212.218C354.357 211.378 355.145 210.658 356.058 210.561C356.481 216.529 356.678 222.511 356.649 228.491C353.778 226.556 353.458 222.776 353.6 219.506ZM460.241 193.597C459.379 189.968 456.414 186.822 452.631 185.519C452 185.301 452.028 184.37 452.559 183.987C453.092 183.604 453.849 183.643 454.504 183.79C458.102 184.597 460.327 187.843 461.971 190.893C462.407 191.7 462.834 192.64 462.452 193.469C462.068 194.299 460.45 194.477 460.241 193.597ZM394.473 722.369C394.095 721.583 393.135 721.209 392.258 720.915C378.519 716.31 363.933 713.852 349.311 713.676C347.228 713.651 344.793 713.836 343.646 715.436C344.762 716.3 346.365 716.299 347.823 716.278C363.304 716.064 378.826 718.706 393.197 724.003C394.064 724.322 394.851 723.154 394.473 722.369ZM399.432 173.649V173.65C398.404 174.239 397.375 174.827 396.47 175.565C394.764 176.956 393.531 179.207 394.413 181.14C395.502 183.529 399.003 183.979 401.774 183.52L401.888 183.501L402.04 183.474L402.123 183.46C402.999 183.308 403.896 183.153 404.748 183.368C405.715 183.611 406.565 184.547 406.233 185.417C406 186.027 405.304 186.368 404.649 186.604C400.587 188.065 395.519 187.522 392.505 184.622C389.492 181.724 389.416 176.416 392.858 173.955L406.305 164.336C406.168 167.277 404.554 170.109 402.083 171.982C401.257 172.607 400.344 173.128 399.432 173.649ZM453.575 196.809C454.41 201.153 453.199 205.616 451.485 209.734C444.103 227.469 426.675 241.368 406.536 245.578C398.432 247.273 389.491 247.373 382.278 243.575C375.066 239.776 370.43 231.235 373.592 224.168C377.305 215.873 388.797 213.547 398.55 213.359C399.405 213.342 400.269 213.331 401.138 213.319C410.188 213.195 419.85 213.063 426.4 207.522C428.73 205.55 430.412 203.07 432.097 200.585C433.517 198.489 434.939 196.391 436.754 194.591C440.723 190.657 448.497 188.776 451.985 193.079C452.861 194.16 453.32 195.482 453.575 196.809ZM449.431 203.428C450.436 199.893 449.994 194.808 446.064 194.274C444.602 194.076 443.144 194.678 441.93 195.452C438.909 197.378 436.973 200.281 435.027 203.2C433.482 205.516 431.93 207.842 429.825 209.699C424.326 214.546 416.101 215.404 408.511 216.009L393.924 217.169C390.204 217.466 386.349 217.799 383.111 219.511C377.03 222.724 374.92 230.938 378.797 236.314C382.989 242.125 391.731 243.387 399.281 242.716C422.554 240.646 443.514 224.225 449.431 203.428ZM457.743 475.108C456.952 475.191 456.128 474.986 455.492 474.546C455.061 474.248 454.716 473.847 454.5 473.393C453.797 471.917 454.745 469.976 456.413 469.479C458.081 468.982 460.087 470.043 460.459 471.618C460.831 473.192 459.484 474.923 457.743 475.108ZM484.723 475.308C484.148 474.844 483.379 474.59 482.615 474.61C480.734 474.663 479.224 476.614 479.786 478.263C480.349 479.914 482.8 480.724 484.376 479.78C485.953 478.836 486.138 476.448 484.723 475.308ZM428.001 349.658C426.048 347.59 426.216 344.117 428.359 342.216C430.504 340.315 434.285 340.289 436.461 342.16C438.784 344.159 438.816 347.975 436.525 350.004C434.235 352.035 430.088 351.866 428.001 349.658ZM402.436 366.896C401.988 368.001 401.95 369.241 402.332 370.366C403.415 373.565 408.225 375.087 411.22 373.179C414.216 371.271 414.357 366.597 411.48 364.539C408.603 362.482 403.71 363.757 402.436 366.896ZM350.705 358.76C350.03 360.808 347.896 362.378 345.575 362.533C342.148 362.763 338.948 359.636 339.405 356.505C339.861 353.375 343.844 351.135 347.084 352.186C349.865 353.088 351.559 356.165 350.705 358.76Z" fill="#00160A"/>
</g>
</g>
<defs>
<clipPath id="clip0_48_36">
<rect width="845.326" height="795" fill="white" transform="translate(0.673828)"/>
</clipPath>
<clipPath id="clip1_48_36">
<rect x="-39.7627" y="-19.4116" width="885.763" height="814.412" rx="44" fill="white"/>
</clipPath>
</defs>
</svg>
