<svg width="375" height="384" viewBox="0 0 375 384" fill="none" xmlns="http://www.w3.org/2000/svg">
<rect width="375" height="384" rx="38" fill="#0C0C0C"/>
<path fill-rule="evenodd" clip-rule="evenodd" d="M273.835 236.987C268.382 239.171 262.073 242.448 261.488 248.415C268.896 242.578 278.047 239.095 287.38 238.56C280.932 246.878 272.791 253.813 263.631 258.791C255.404 263.261 244.988 268.029 244.283 277.538C253.118 266.765 266.702 260.242 280.441 260.177C271.651 273.36 257.557 282.711 242.216 285.537C242.742 289.588 259.752 298.265 264.707 299.934C268.235 315.457 269.764 335.586 273.292 351.109C274.16 354.929 274.925 359.318 272.641 362.466C270.375 365.589 266.095 366.126 262.305 366.402C247.368 367.489 226.932 368.577 211.995 369.664C210.206 361.367 208.418 353.071 206.63 344.774C181.434 347.169 73.4205 372.515 53.5985 359.219C-22.9209 307.889 74.655 290.403 76.752 227.909C77.2325 213.58 35.1595 188.532 35.8275 173.89C36.2637 164.328 37.7091 154.989 42.3286 146.779C46.9482 138.57 54.2685 132.246 62.2245 127.408C51.2705 124.525 42.9739 113.344 43.1959 101.765C43.4179 90.1863 52.137 79.3472 63.1925 76.9071C57.98 70.546 49.7723 67.6306 43.777 62.0396C36.793 55.5264 33.2835 45.0202 35.8275 35.7046C38.3715 26.389 47.3286 19.0597 56.7665 19.4727C64.5185 19.8119 71.3405 24.8327 76.752 30.5272C85.144 39.3586 91.3855 50.3172 94.76 62.1456C97.009 70.0294 105.252 74.0399 112.214 78.12C119.175 82.2001 126.404 89.3072 124.443 97.2708C121.85 86.3729 160.389 99.3536 195.341 102.532C199.982 102.954 204.976 103.567 208.406 106.796C213.336 111.434 220.738 113.126 227.126 111.075C229.158 116.234 230.654 122.03 228.926 127.304C227.198 132.579 221.078 136.605 216.186 134.185C217.463 140.912 218.74 147.64 220.017 154.367C232.525 154.521 245.032 154.783 257.536 155.152C264.163 155.347 271.089 155.656 276.849 159.018C282.609 162.38 290.318 157.617 296.009 145.38C292.326 165.348 296.69 173.326 304.216 175.496C304.231 175.345 304.816 175.417 304.833 175.266C307.074 155.533 320.15 138.013 338.348 131.082C336.738 134.879 325.224 142.38 317.229 151.958C309.419 161.313 305.681 173.838 305.294 176.088C317.694 172.758 321.829 182.218 342.868 173.89C333.254 185.725 314.728 188.64 302.088 180.304C296.125 187.115 296.458 194.655 292.234 202.715C299.41 193.582 308.938 201.679 301.379 207.598C305.391 207.993 309.729 208.534 312.639 211.389C315.549 214.245 315.622 220.255 311.868 221.758C299.191 226.834 286.513 231.911 273.835 236.987Z" fill="#7BF5D9"/>
<path fill-rule="evenodd" clip-rule="evenodd" d="M253.256 191.985C253.715 191.091 254.213 190.154 255.058 189.634C255.902 189.113 257.198 189.221 257.653 190.117C258.136 191.069 257.416 192.218 256.571 192.855C255.726 193.491 254.686 193.939 254.137 194.855C257.106 196.858 260.074 198.861 263.043 200.864C265.368 202.433 267.998 204.673 267.522 207.483C267.243 209.13 265.88 210.41 264.362 211.025C262.843 211.639 261.174 211.703 259.542 211.752C248.575 212.075 237.596 212.018 226.632 211.581C225.872 211.55 225.023 211.478 224.516 210.896C224.124 210.445 224.043 209.802 223.979 209.202C223.348 203.226 222.717 197.251 222.086 191.275C222.063 191.055 222.041 190.824 222.118 190.616C222.442 189.744 223.717 190.281 224.43 190.864C229.477 194.989 237.546 194.504 242.087 189.803C243.184 188.668 245.053 188.815 246.462 189.499C247.872 190.184 249.052 191.298 250.466 191.973C250.315 191.136 251.036 190.252 251.867 190.256C252.699 190.259 253.413 191.149 253.256 191.985Z" fill="white"/>
<path fill-rule="evenodd" clip-rule="evenodd" d="M76.6381 126.031C76.6381 126.031 75.4131 111.004 78.4971 106.173C81.5806 101.343 93.3276 99.8885 93.3276 99.8885C93.3276 99.8885 125.523 99.4574 142.918 100.138C160.313 100.819 195.103 103.872 195.103 103.872C195.103 103.872 199.624 104.882 201.656 106.173C203.688 107.465 206.522 111.129 206.522 111.129C206.522 111.129 212.69 112.051 215.759 112.175C218.827 112.301 221.638 111.746 221.638 111.746C221.638 111.746 225.548 123.424 222.784 128.991C220.019 134.557 210.738 133.693 210.738 133.693L214.023 154.525C214.023 154.525 210.117 156.415 207.982 158.785C205.847 161.155 204.99 164.554 204.99 164.554L211.335 227.909C211.335 227.909 213.202 231.202 217.211 232.453C221.221 233.703 230.254 233.81 230.254 233.81C230.254 233.81 229.932 240.198 230.254 242.947C230.576 245.696 230.863 247.203 230.863 247.203L237.664 297.06C237.664 297.06 231.054 298.292 224.513 299.917C217.972 301.542 204.99 305.177 204.99 305.177C204.99 305.177 200.414 307.314 199.821 310.764C199.228 314.213 201.656 324.58 201.656 324.58L128.777 330.269C128.777 330.269 121.685 330.405 119.245 328.831C116.806 327.257 116.137 322.113 116.137 322.113L106.28 231.325C106.28 231.325 90.5276 231.72 85.9266 229.03C81.3261 226.34 80.7696 216.41 80.7696 216.41C80.7696 216.41 81.5341 210.782 80.7696 206.876C80.5146 205.573 77.1831 191.445 76.0641 178.002C75.4306 170.396 84.1716 164.554 84.1716 164.554L76.6381 126.031Z" fill="white"/>
<path fill-rule="evenodd" clip-rule="evenodd" d="M128.062 105.131C127.495 105.949 127.97 107.169 128.789 107.72C129.608 108.27 130.639 108.332 131.618 108.377C142.25 108.867 152.882 109.357 163.513 109.847C164.549 109.895 165.697 109.906 166.482 109.211C167.266 108.518 167.163 106.862 166.139 106.696C154.316 104.771 142.319 103.972 130.353 104.311C129.513 104.335 128.548 104.429 128.062 105.131Z" fill="#E7EAEE"/>
<path fill-rule="evenodd" clip-rule="evenodd" d="M175.366 183.163L172.603 169.886C172.603 169.886 172.474 172.624 171.011 173.738C169.548 174.851 166.656 174.413 166.656 174.413C166.656 174.413 166.198 165.142 168.234 162.319C170.27 159.496 172.275 162.162 176.142 161.259C180.006 160.357 179.205 157.385 183.695 158.708C188.184 160.032 191.501 169.87 191.501 169.87C191.501 169.87 187.981 171.078 186.483 170.769C184.986 170.459 185.351 168.598 185.351 168.598C185.351 168.598 184.289 168.136 184.56 171.398C184.691 172.982 185.863 175.365 186.483 178.483C186.715 179.644 186.483 182.252 186.483 182.252C186.483 182.252 182.489 182.669 179.037 183.426C175.585 184.183 175.366 183.163 175.366 183.163Z" fill="#E7EAEE"/>
<path fill-rule="evenodd" clip-rule="evenodd" d="M77.2774 150.138C75.9479 149.405 74.8664 148.287 73.8069 147.185C71.0729 144.344 68.3049 141.456 66.4079 137.972C66.2274 137.64 66.0499 137.259 66.1539 136.895C66.2579 136.53 66.8014 136.323 67.0049 136.641C70.3019 141.795 74.4659 146.367 79.2579 150.094C78.8269 150.687 77.9134 150.489 77.2774 150.138Z" fill="#00160A"/>
<path fill-rule="evenodd" clip-rule="evenodd" d="M81.2606 84.9002C82.0461 84.0712 82.4651 82.9566 82.8266 81.8625C83.9546 78.4515 84.7231 74.9162 85.1151 71.3373C85.1856 70.6927 85.3011 69.9503 85.8471 69.6216C86.4616 72.6905 85.7006 75.8531 84.9441 78.8883C84.2791 81.5563 83.5426 84.358 81.6566 86.321C81.4656 86.5196 81.2216 86.7219 80.9536 86.6763C80.5916 86.6143 80.4466 86.1218 80.5756 85.7701C80.7051 85.4188 81.0051 85.1695 81.2606 84.9002Z" fill="#00160A"/>
<path fill-rule="evenodd" clip-rule="evenodd" d="M270.861 111.666C271.235 111.563 271.616 111.865 271.779 112.225C271.942 112.584 271.954 112.992 272.026 113.382C272.31 114.903 273.649 116.151 275.154 116.297C275.342 116.744 274.927 117.191 274.599 117.543C273.852 118.343 273.38 119.408 273.284 120.51C273.222 121.226 273.075 122.221 272.374 122.212C271.81 122.204 271.562 121.506 271.359 120.968C270.863 119.652 269.745 118.6 268.423 118.206C268.145 118.123 268.028 117.76 268.105 117.474C268.181 117.189 268.393 116.966 268.594 116.754C269.463 115.841 270.345 114.761 270.335 113.486C270.33 112.797 270.211 111.844 270.861 111.666Z" fill="#FFB61D"/>
<path fill-rule="evenodd" clip-rule="evenodd" d="M297.189 231.374C296.023 232.601 295.61 234.522 296.165 236.137C295.55 236.419 295.091 235.551 294.786 234.936C294.33 234.013 293.467 233.31 292.486 233.063C293.907 232.145 294.792 230.418 294.721 228.698C295.292 228.317 295.932 229.112 296.096 229.79C296.26 230.468 296.507 231.349 297.189 231.374Z" fill="#E7EAEE"/>
<path fill-rule="evenodd" clip-rule="evenodd" d="M287.237 233.675C287.913 234.774 288.875 235.686 289.996 236.294C290.399 236.512 290.033 237.12 289.701 237.439C288.862 238.241 288.332 239.372 288.244 240.543C287.51 239.791 286.777 239.039 286.044 238.286C285.752 237.985 285.442 237.519 285.694 237.183C286.463 236.156 286.996 234.945 287.237 233.675Z" fill="#E7EAEE"/>
<path fill-rule="evenodd" clip-rule="evenodd" d="M238.262 101.346C238.929 96.9955 240.542 92.7193 243.375 89.4056C246.208 86.0919 250.345 83.8299 254.646 83.8335C258.947 83.8371 263.291 86.3316 265.078 90.3374C266.003 92.4105 266.23 94.7437 266.167 97.0221C266.047 101.354 264.911 105.654 262.88 109.457C261.049 112.885 258.416 115.97 254.999 117.709C251.581 119.449 247.321 119.683 243.999 117.76C241.368 116.237 239.527 113.504 238.65 110.542C237.773 107.581 237.793 104.404 238.262 101.346ZM264.55 98.0538C264.627 95.3561 264.193 92.5703 262.807 90.2745C261.965 88.8787 260.785 87.6981 259.403 86.8676C254.946 84.1909 248.879 85.6291 245.176 89.3206C241.474 93.0121 239.869 98.4675 239.704 103.756C239.616 106.578 239.912 109.47 241.083 112.025C242.255 114.58 244.398 116.766 247.068 117.468C250.561 118.386 254.247 116.657 256.986 114.254C261.556 110.246 264.373 104.213 264.55 98.0538Z" fill="#FFB61D"/>
<path fill-rule="evenodd" clip-rule="evenodd" d="M282.276 98.3252C281.565 99.2775 280.821 100.528 281.367 101.589C281.562 101.968 281.057 102.409 280.655 102.29C280.252 102.17 280.024 101.735 279.917 101.32C279.81 100.906 279.775 100.461 279.56 100.093C279.345 99.725 278.857 99.469 278.502 99.6958C277.996 99.6344 277.944 98.8541 278.238 98.4281C278.532 98.0021 279.015 97.7093 279.196 97.2218C279.339 96.8353 279.262 96.4021 279.33 95.9951C279.398 95.588 279.736 95.1534 280.126 95.2573C280.113 95.9731 280.194 96.7155 280.549 97.3319C280.903 97.9489 281.582 98.4102 282.276 98.3252Z" fill="#FFB61D"/>
<path fill-rule="evenodd" clip-rule="evenodd" d="M218.652 96.9157C219.208 96.2536 219.906 95.6869 220.726 95.4457C221.545 95.2046 222.496 95.332 223.136 95.9091C223.833 96.5368 224.051 97.5859 223.903 98.5238C223.755 99.4618 223.293 100.314 222.807 101.123C222.176 102.173 221.491 103.19 220.756 104.166C220.526 104.471 220.274 104.785 219.922 104.921C219.458 105.1 218.94 104.926 218.481 104.73C216.871 104.041 215.374 103.073 214.074 101.882C212.883 100.791 211.784 99.192 212.267 97.6319C212.574 96.6376 213.513 95.9188 214.52 95.7652C215.527 95.6116 216.571 95.9751 217.372 96.6192C217.755 96.9269 218.334 97.294 218.652 96.9157ZM213.565 97.4932C212.804 98.5643 213.63 100.065 214.588 100.955C215.784 102.065 217.203 102.885 218.61 103.695C218.79 103.799 218.992 103.907 219.195 103.862C219.376 103.823 219.51 103.671 219.629 103.526C220.581 102.37 221.435 101.128 222.176 99.8197C222.746 98.8136 223.164 97.3345 222.246 96.6494C221.519 96.1072 220.46 96.5439 219.844 97.2147C219.228 97.8849 218.841 98.7604 218.167 99.3707C217.642 98.5218 217.083 97.6406 216.23 97.1425C215.378 96.6448 214.142 96.6801 213.565 97.4932Z" fill="#FFB61D"/>
<path fill-rule="evenodd" clip-rule="evenodd" d="M207.761 67.6364C209.505 66.2447 211.443 65.1091 213.499 64.2756C214.759 63.7646 216.197 63.3714 217.442 63.9187C219.438 64.7953 219.827 67.7301 218.777 69.6762C217.727 71.6228 215.735 72.8029 213.839 73.8874C210.121 76.0137 206.403 78.14 202.686 80.2664C203.418 78.7703 202.592 77.0136 201.915 75.4899C200.391 72.0585 199.594 68.2912 199.594 64.5219C199.593 63.3309 199.68 62.1047 200.19 61.0346C200.701 59.9645 201.718 59.0767 202.881 59.0491C204.741 59.004 205.978 60.988 206.606 62.7816C207.155 64.3524 207.543 65.9826 207.761 67.6364ZM215.641 64.9084C212.634 65.5341 209.832 67.154 207.756 69.4673C207.552 69.6951 207.154 69.5948 206.967 69.3516C206.781 69.1084 206.745 68.7817 206.709 68.4745C206.475 66.4398 205.955 64.4394 205.171 62.5537C204.734 61.5031 204.002 60.3424 202.886 60.324C202.06 60.3101 201.34 60.988 201.035 61.775C200.73 62.5619 200.756 63.438 200.815 64.2828C201.141 68.9926 202.351 73.6375 204.36 77.8876C207.649 76.0004 210.938 74.1132 214.227 72.2259C215.253 71.6366 216.298 71.0335 217.095 70.1482C217.893 69.263 218.418 68.0332 218.186 66.8525C217.955 65.6713 216.794 64.6688 215.641 64.9084Z" fill="#FFB61D"/>
<path fill-rule="evenodd" clip-rule="evenodd" d="M184.747 300.936C194.346 299.816 204.008 299.252 213.67 299.248C215.442 299.248 216.984 297.838 217.704 296.179C218.424 294.521 218.482 292.651 218.483 290.835C218.486 284.092 217.867 277.367 217.248 270.653C216.997 267.931 216.747 265.209 216.496 262.486C216.343 260.834 216.182 259.145 215.503 257.639C214.324 255.025 211.713 253.325 208.994 252.593C206.274 251.86 203.416 251.96 200.606 252.066C191.276 252.416 181.946 252.766 172.615 253.115C177.994 251.096 183.851 251.001 189.58 250.929C193.971 250.874 198.363 250.82 202.754 250.764C207.243 250.708 212.372 250.939 215.235 254.479C217.085 256.766 217.493 259.898 217.803 262.851C218.776 272.147 219.489 281.474 219.941 290.812C220.091 293.907 219.97 297.544 217.509 299.347C216.132 300.356 214.347 300.507 212.658 300.624C202.376 301.338 192.094 302.05 181.812 302.764C179.398 302.931 176.854 303.074 174.682 301.982C173.928 301.602 173.153 300.744 173.558 299.99C176.9 301.853 180.965 301.378 184.747 300.936Z" fill="#00160A"/>
<path fill-rule="evenodd" clip-rule="evenodd" d="M144.083 151.8C144.275 152.095 144.32 152.463 144.358 152.815C144.448 153.635 144.538 154.456 144.628 155.277C144.735 156.25 144.757 157.427 143.969 157.983C143.549 158.279 143.006 158.303 142.497 158.317C131.771 158.614 121.046 158.911 110.32 159.208C109.63 159.227 108.832 159.196 108.409 158.637C108.143 158.287 108.102 157.816 108.078 157.373C107.999 155.981 107.978 154.587 108.012 153.194C108.018 152.981 108.03 152.753 108.158 152.587C108.312 152.387 108.584 152.339 108.83 152.304C119.912 150.767 131.144 150.361 142.304 151.095C142.963 151.138 143.716 151.238 144.083 151.8ZM143.643 157.138C142.553 156.536 143.651 154.769 143.255 153.568C142.914 152.536 141.621 152.292 140.559 152.23C130.446 151.64 120.28 152.008 110.233 153.327C109.863 153.376 109.452 153.449 109.228 153.754C109.006 154.055 109.046 154.474 109.096 154.847C109.175 155.426 109.253 156.005 109.331 156.584C109.393 157.039 109.487 157.551 109.861 157.806C110.132 157.992 110.481 157.99 110.807 157.981C121.752 157.7 132.698 157.419 143.643 157.138Z" fill="#00160A"/>
<path fill-rule="evenodd" clip-rule="evenodd" d="M164.259 171.244C164.31 170.025 164.361 168.806 164.412 167.587C164.511 165.21 164.633 162.744 165.712 160.637C166.791 158.53 169.12 156.892 171.381 157.44C172.795 157.782 174.099 158.921 175.522 158.615C176.761 158.349 177.52 157.095 178.567 156.366C181.061 154.628 184.538 156.243 186.601 158.497C188.824 160.927 190.269 164.091 190.665 167.396C190.698 167.677 190.715 167.992 190.539 168.209C190.393 168.389 190.153 168.451 189.931 168.504C189.072 168.705 188.213 168.907 187.355 169.108C186.624 169.279 185.865 169.451 185.13 169.296C184.396 169.14 183.69 168.56 183.631 167.795C183.412 172.074 186.541 176.162 185.669 180.353C185.345 180.172 185.021 179.99 184.697 179.809C185.462 175.606 181.804 171.537 182.568 167.334C182.669 166.777 182.887 166.185 183.372 165.915C183.858 165.645 184.626 165.952 184.607 166.518C184.576 167.423 185.531 168.1 186.416 168.092C187.302 168.085 188.107 167.599 188.863 167.127C189.132 166.96 189.059 166.545 188.946 166.243C188.109 163.995 187.009 161.85 185.677 159.868C184.776 158.528 183.691 157.204 182.194 156.661C180.697 156.116 178.721 156.671 178.17 158.197C177.525 159.982 175.088 160.102 173.299 159.588C171.509 159.073 169.5 158.269 167.904 159.244C166.569 160.059 166.122 161.795 165.872 163.366C165.443 166.061 165.244 168.795 165.28 171.525C165.353 171.942 165.872 172.076 166.285 172.066C168.462 172.008 170.483 170.25 170.891 168.059C171.477 168.75 171.687 169.686 171.876 170.58C172.533 173.678 173.191 176.777 173.848 179.875C174.05 180.828 173.814 182.294 172.876 182.121C172.451 178.742 171.821 175.39 170.992 172.091C169.424 172.456 167.857 172.82 166.289 173.185C165.808 173.297 165.269 173.401 164.849 173.138C164.268 172.774 164.23 171.941 164.259 171.244Z" fill="#00160A"/>
<path fill-rule="evenodd" clip-rule="evenodd" d="M210.123 255.387C210.923 256.275 209.68 257.913 210.413 258.86C210.793 259.351 210.522 260.13 210.018 260.486C209.515 260.842 208.869 260.89 208.258 260.927C197.755 261.551 187.251 262.176 176.748 262.802C176.034 262.844 175.181 262.819 174.791 262.206C174.62 261.937 174.579 261.607 174.542 261.29C174.446 260.463 174.35 259.636 174.254 258.81C174.224 258.55 174.197 258.272 174.317 258.041C174.513 257.661 175.001 257.578 175.42 257.54C186.459 256.542 197.51 255.699 208.572 255.01C209.121 254.976 209.75 254.973 210.123 255.387ZM208.918 256.783C208.884 256.579 208.839 256.356 208.679 256.228C208.521 256.101 208.299 256.111 208.098 256.126C198.304 256.857 188.51 257.588 178.716 258.319C177.924 258.378 177.103 258.446 176.412 258.845C175.72 259.244 175.199 260.077 175.407 260.861C175.471 261.104 175.608 261.335 175.818 261.465C176.076 261.625 176.398 261.614 176.699 261.597C187.039 261.022 197.379 260.448 207.72 259.874C208.949 259.805 209.126 258.026 208.918 256.783Z" fill="#00160A"/>
<path fill-rule="evenodd" clip-rule="evenodd" d="M218.41 245.756C220.269 250.765 220.862 256.158 221.44 261.485C222.782 273.859 224.123 286.233 225.465 298.608C224.467 298.692 224.007 297.379 223.882 296.361C221.85 279.712 221.195 262.847 217.758 246.441C217.975 246.213 218.193 245.984 218.41 245.756Z" fill="#00160A"/>
<path fill-rule="evenodd" clip-rule="evenodd" d="M158.442 159.559C158.152 159.432 158.158 158.97 158.38 158.741C158.602 158.514 158.938 158.458 159.25 158.418C161.585 158.114 163.94 157.966 166.294 157.975C166.169 159.004 164.872 159.304 163.861 159.352C162.162 159.432 160.463 159.513 158.764 159.593C158.655 159.598 158.542 159.603 158.442 159.559Z" fill="#00160A"/>
<path fill-rule="evenodd" clip-rule="evenodd" d="M171.618 285.399C171.424 281.716 171.23 278.033 171.036 274.35C170.514 264.437 169.976 254.422 167.281 244.886C166.937 243.668 166.544 242.432 165.781 241.434C163.873 238.934 160.341 238.646 157.243 238.646C145.296 238.647 133.349 239.81 121.616 242.116C120.424 242.35 119.185 242.619 118.233 243.391C116.722 244.618 116.323 246.775 116.183 248.745C115.926 252.342 116.18 255.976 116.934 259.499C116.502 259.425 116.071 259.352 115.64 259.278C114.059 255.906 113.339 252.116 113.57 248.383C113.67 246.763 113.961 245.112 114.777 243.719C116.806 240.254 121.271 239.423 125.194 238.993C135.146 237.901 145.136 237.166 155.138 236.789C159.165 236.637 163.714 236.753 166.477 239.755C167.867 241.266 168.571 243.295 169.123 245.292C171.043 252.228 171.572 259.475 172.092 266.664C172.6 273.689 173.108 280.714 173.616 287.738C173.736 289.389 173.854 291.066 173.528 292.687C172.465 297.971 166.97 301.185 161.739 301.824C156.508 302.462 151.242 301.238 145.974 301.149C138.891 301.028 131.765 302.957 124.779 301.752C122.767 301.405 120.628 300.675 119.522 298.919C118.754 297.701 118.616 296.191 118.499 294.747C117.67 284.558 116.841 274.37 116.013 264.181C115.957 263.499 116.453 262.482 116.965 262.923C117.878 272.736 118.792 282.55 119.705 292.364C119.829 293.692 119.963 295.059 120.566 296.243C121.442 297.96 123.208 299.052 125.039 299.538C126.871 300.024 128.79 299.985 130.682 299.959C138.686 299.852 146.693 300.057 154.682 300.571C157.354 300.743 160.054 300.948 162.693 300.49C165.332 300.03 167.95 298.827 169.589 296.658C171.922 293.571 171.824 289.297 171.618 285.399Z" fill="#00160A"/>
<path fill-rule="evenodd" clip-rule="evenodd" d="M158.035 155.575C158.78 154.98 158.154 153.761 158.301 152.805C158.508 151.454 160.151 150.989 161.479 150.832C170.007 149.823 178.595 149.346 187.179 149.404C187.893 149.409 188.738 149.49 189.097 150.122C189.529 150.881 189.127 152.205 189.944 152.471C190.328 152.595 190.82 152.365 191.111 152.65C191.592 153.121 190.696 153.759 190.033 153.82C179.987 154.743 169.92 155.418 159.842 155.846C159.225 155.872 158.572 155.888 158.035 155.575ZM188.043 151.315C187.809 150.711 187.023 150.623 186.389 150.632C178.295 150.759 170.206 151.168 162.14 151.861C161.194 151.942 160.078 152.144 159.684 153.028C159.494 153.53 159.855 154.108 160.332 154.336C160.809 154.565 161.36 154.535 161.885 154.501C169.942 153.978 178 153.454 186.057 152.931C186.553 152.899 187.07 152.86 187.498 152.601C187.925 152.341 188.227 151.788 188.043 151.315Z" fill="#00160A"/>
<path fill-rule="evenodd" clip-rule="evenodd" d="M198.905 272.39C200.148 273.402 199.616 275.616 200.697 276.807C201.2 277.36 201.953 277.576 202.661 277.788C203.116 277.925 203.679 278.267 203.535 278.729C203.386 279.203 202.712 279.127 202.26 278.945C200.783 278.353 199.118 277.368 199.037 275.746C198.977 274.562 198.634 273.394 198.045 272.374C198.21 272.087 198.65 272.183 198.905 272.39Z" fill="#00160A"/>
<path fill-rule="evenodd" clip-rule="evenodd" d="M204.781 289.163C204.376 283.826 203.972 278.488 203.567 273.15C203.507 272.366 203.44 271.552 203.06 270.868C202.681 270.184 201.895 269.668 201.153 269.873C197.795 270.795 194.308 271.222 190.833 271.138C187.794 271.065 184.684 270.61 181.761 271.462C181.815 272.945 181.87 274.427 181.924 275.909C181.94 276.342 181.964 276.802 182.204 277.158C182.878 278.157 184.552 277.395 184.932 276.245C185.313 275.095 184.969 273.837 185.035 272.624C185.046 272.41 185.088 272.165 185.267 272.052C185.646 271.81 186.01 272.387 186.108 272.833C186.386 274.112 186.665 275.451 186.336 276.718C186.007 277.984 184.859 279.132 183.59 278.964C182.275 278.791 181.736 280.631 181.705 281.989C181.641 284.699 181.577 287.408 181.514 290.117C181.494 290.97 181.794 292.148 182.621 292.052C184.758 291.804 186.895 291.556 189.032 291.308C189.548 291.248 190.104 291.195 190.558 291.454C191.012 291.712 191.252 292.417 190.88 292.788C188.37 293.013 185.86 293.239 183.351 293.464C182.618 293.53 181.857 293.592 181.165 293.335C180.474 293.077 179.872 292.404 179.934 291.653C180.552 284.282 180.69 276.87 180.348 269.48C180.275 267.909 182.145 267.11 183.655 266.821C188.45 265.9 193.34 265.501 198.216 265.632C199.851 265.676 201.633 265.842 202.819 266.995C204.026 268.17 204.263 270.02 204.429 271.716C205.053 278.075 205.677 284.433 206.301 290.791C206.334 291.134 206.342 291.541 206.075 291.75C205.915 291.875 205.7 291.888 205.5 291.897C203.418 291.985 201.337 292.074 199.256 292.163C198.153 292.21 196.967 292.234 196.049 291.607C195.419 291.176 195.003 290.493 194.637 289.815C193.76 288.186 193.059 286.459 192.551 284.674C191.755 286.715 191.251 288.874 191.06 291.063C190.054 291.175 189.867 289.63 190.101 288.622C190.584 286.542 191.066 284.463 191.549 282.383C191.622 282.066 191.739 281.699 192.042 281.602C192.488 281.458 192.831 282.004 192.994 282.453C193.674 284.324 194.353 286.194 195.033 288.064C195.618 289.674 197.305 290.642 198.972 290.84C200.638 291.039 202.307 290.609 203.932 290.183C204.254 290.099 204.619 289.977 204.744 289.662C204.806 289.506 204.794 289.331 204.781 289.163ZM182.14 269.62C183.647 269.64 185.154 269.66 186.661 269.68C187.794 269.695 188.926 269.71 190.058 269.688C194.146 269.609 198.224 269.048 202.186 268.019C201.302 267.09 199.884 267.038 198.618 267.061C194.085 267.144 189.556 267.414 185.045 267.87C183.837 267.992 182.337 268.394 182.14 269.62Z" fill="#00160A"/>
<path fill-rule="evenodd" clip-rule="evenodd" d="M175.395 265.624C175.308 265.141 175.92 264.878 176.393 264.802C181.861 263.935 187.402 263.551 192.934 263.658C193.013 263.659 193.095 263.661 193.168 263.692C193.428 263.803 193.416 264.222 193.209 264.418C193.003 264.614 192.7 264.647 192.42 264.669C187.152 265.073 181.807 264.865 176.646 266.019C176.166 266.126 175.483 266.118 175.395 265.624Z" fill="#00160A"/>
<path fill-rule="evenodd" clip-rule="evenodd" d="M297.671 254.031C297.973 253.302 298.306 252.532 298.947 252.088C299.488 251.714 300.165 251.632 300.814 251.559C302.739 251.345 304.664 251.131 306.589 250.917C307.541 250.811 308.77 250.401 308.734 249.421C308.617 246.256 308.856 242.611 311.311 240.686C313.557 238.924 316.92 239.407 319.224 241.088C321.529 242.768 322.989 245.386 324.248 247.981C324.805 249.13 326.332 249.339 327.567 249.117C328.801 248.896 330.052 248.399 331.269 248.702C333.144 249.167 334.091 251.264 334.735 253.126C337.968 262.47 340.163 272.211 344.184 281.228C345.688 284.601 345.212 288.81 342.995 291.741C342.721 289.413 343.102 287.009 344.08 284.889C344.541 283.89 343.007 283.233 341.928 283.236C330.936 283.265 319.896 283.297 309.025 284.967C308.693 285.018 308.34 285.081 308.092 285.313C307.852 285.538 307.758 285.88 307.675 286.203C307.338 287.515 307.001 288.825 306.664 290.137C306.452 290.958 306.585 292.233 307.41 292.148C318.169 291.032 328.986 290.5 339.8 290.554C340.938 290.56 342.49 291.022 342.343 292.177C330.823 292.316 319.26 292.459 307.865 294.195C306.05 294.472 304.797 292.171 305.003 290.304C305.209 288.437 306.254 286.763 306.549 284.909C306.803 283.311 306.485 281.681 306.143 280.1C305.6 277.587 304.992 275.088 304.322 272.608C303.668 270.187 302.954 267.783 302.24 265.38C301.161 261.745 300.081 258.11 299.001 254.475C297.516 256.702 296.855 259.489 297.176 262.165C297.4 264.028 298.075 265.798 298.58 267.603C299.303 270.182 299.682 272.847 300.059 275.503C300.802 280.733 301.546 285.964 302.289 291.195C302.398 291.964 302.182 293.099 301.431 292.985C298.09 282.401 299.007 270.7 295.064 260.336C295.933 258.234 296.802 256.133 297.671 254.031ZM322.555 255.951C323.643 255.331 324.207 253.883 323.834 252.666C323.461 251.449 322.19 250.591 320.95 250.72C317.911 251.035 314.871 251.351 311.832 251.666C311.551 251.695 311.237 251.743 311.068 251.974C310.935 252.157 310.933 252.404 310.945 252.631C311.026 254.053 311.508 255.45 312.318 256.608C312.948 257.508 313.818 258.585 313.327 259.571C312.713 260.803 310.694 260.112 310.194 258.828C309.693 257.543 310.049 256.093 309.956 254.713C309.863 253.333 308.895 251.745 307.562 251.974C305.378 252.351 303.193 252.727 301.008 253.104C300.695 253.158 300.285 253.357 300.377 253.668C303.038 262.685 305.698 271.702 308.358 280.719C308.69 281.843 309.437 283.234 310.553 282.967C320.8 280.517 331.604 282.834 342.009 281.224C338.892 271.216 335.667 261.244 332.335 251.31C332.237 251.017 332.125 250.705 331.881 250.522C331.61 250.319 331.246 250.326 330.912 250.34C329.351 250.408 327.79 250.476 326.23 250.543C325.612 250.57 324.77 250.871 324.906 251.489C325.33 253.425 325.754 255.361 326.178 257.297C326.251 257.63 326.323 257.987 326.201 258.305C325.871 259.17 324.627 258.952 323.797 258.577C323.252 258.332 322.679 258.062 322.343 257.56C322.006 257.057 322.034 256.247 322.555 255.951ZM318.532 241.905C317.335 241.006 315.761 240.357 314.38 240.914C313.899 241.108 313.481 241.434 313.07 241.756C312.338 242.33 311.584 242.93 311.152 243.764C310.751 244.539 310.668 245.441 310.593 246.316C310.527 247.081 310.462 247.845 310.396 248.609C310.355 249.083 310.339 249.628 310.674 249.957C310.996 250.273 311.502 250.25 311.946 250.207C315.125 249.898 318.304 249.588 321.483 249.278C321.936 249.234 322.49 249.108 322.609 248.658C322.656 248.481 322.618 248.292 322.576 248.113C321.99 245.646 320.531 243.406 318.532 241.905ZM317.342 249.992C317.022 250.085 317.377 250.699 317.61 250.456C317.908 250.331 317.578 249.759 317.327 249.965L317.342 249.992Z" fill="#FFB61D"/>
<path fill-rule="evenodd" clip-rule="evenodd" d="M216.548 176.809C216.492 176.619 216.603 176.42 216.733 176.272C217.374 175.55 218.446 175.497 219.399 175.494C225.175 175.481 230.952 175.467 236.729 175.453C237.135 175.452 237.571 175.46 237.903 175.701C238.234 175.941 238.364 176.508 238.045 176.767C237.876 176.904 237.642 176.913 237.426 176.915C230.715 176.992 224.004 177.068 217.293 177.144C217.001 177.147 216.631 177.097 216.548 176.809Z" fill="#00160A"/>
<path fill-rule="evenodd" clip-rule="evenodd" d="M218.689 182.917C218.341 182.712 218.389 182.137 218.682 181.855C218.975 181.574 219.401 181.508 219.8 181.459C222.191 181.164 224.596 181.001 226.999 180.839C228.323 180.75 229.647 180.66 230.971 180.571C232.693 180.455 234.414 180.339 236.136 180.223C236.683 180.186 237.293 180.17 237.705 180.54C238.117 180.91 238.016 181.801 237.469 181.835C231.394 182.221 225.318 182.607 219.242 182.992C219.054 183.004 218.853 183.013 218.689 182.917Z" fill="#00160A"/>
<path fill-rule="evenodd" clip-rule="evenodd" d="M251.256 190.961C251.715 190.067 252.213 189.13 253.058 188.61C253.902 188.089 255.198 188.197 255.653 189.093C256.136 190.045 255.416 191.194 254.571 191.831C253.726 192.467 252.686 192.915 252.137 193.831C255.106 195.834 258.074 197.837 261.043 199.84C263.368 201.409 265.998 203.649 265.522 206.459C265.243 208.106 263.88 209.386 262.362 210.001C260.843 210.616 259.174 210.68 257.542 210.728C246.575 211.051 235.596 210.994 224.632 210.557C223.872 210.526 223.023 210.454 222.516 209.872C222.124 209.422 222.043 208.778 221.979 208.178C221.348 202.203 220.717 196.227 220.086 190.251C220.063 190.031 220.041 189.8 220.118 189.592C220.442 188.72 221.717 189.257 222.43 189.84C227.477 193.965 235.546 193.48 240.087 188.779C241.184 187.644 243.053 187.791 244.462 188.475C245.872 189.16 247.052 190.274 248.466 190.949C248.315 190.112 249.036 189.228 249.867 189.232C250.699 189.235 251.413 190.125 251.256 190.961ZM251.877 194.811C251.516 193.454 249.559 193.17 248.479 194.038C247.4 194.906 247.05 196.418 246.956 197.82C246.921 198.343 246.081 198.395 245.793 197.961C245.506 197.528 245.622 196.944 245.782 196.445C246.204 195.131 246.853 193.894 247.69 192.808C248.105 192.271 247.497 191.544 246.95 191.149C245.019 189.759 242.284 188.388 240.513 189.985C235.659 194.363 227.916 194.946 222.489 191.343C222.554 195.828 222.877 200.31 223.455 204.757C223.513 205.205 223.588 205.683 223.89 206.013C224.29 206.449 224.945 206.479 225.529 206.48C234.958 206.492 244.386 206.505 253.815 206.517C254.732 206.518 255.979 206.183 255.908 205.246C255.741 203.066 256.684 200.829 258.346 199.457C257.039 198.484 255.731 197.511 254.423 196.539C254.024 196.242 253.607 195.937 253.121 195.852C251.654 195.594 250.674 197.316 250.155 198.745C249.36 197.289 250.286 195.172 251.877 194.811ZM227.235 209.694C237.053 209.773 246.872 209.756 256.69 209.644C259.477 209.612 262.732 209.322 264.243 206.924C250.685 207.534 237.108 207.685 223.541 207.377C223.372 209.044 225.597 209.682 227.235 209.694ZM260.836 200.733C260.544 200.543 260.242 200.349 259.901 200.29C258.873 200.109 258.062 201.16 257.615 202.126C257.357 202.684 257.132 203.259 256.944 203.845C256.8 204.292 256.675 204.767 256.766 205.228C256.856 205.69 257.226 206.126 257.685 206.131C259.355 206.151 261.024 206.133 262.693 206.077C263.087 206.064 263.515 206.035 263.81 205.768C264.157 205.453 264.199 204.91 264.112 204.444C263.798 202.756 262.253 201.652 260.836 200.733ZM254.938 189.819C254.92 189.298 254.241 189.033 253.772 189.234C253.302 189.435 253.014 189.913 252.756 190.362C252.444 190.905 252.133 191.448 251.821 191.991C251.658 192.276 251.569 192.76 251.884 192.832C252.713 192.126 253.542 191.42 254.371 190.715C254.648 190.479 254.951 190.188 254.938 189.819ZM249.566 190.667C249.426 191.369 249.777 192.145 250.392 192.488C250.605 191.765 250.48 190.946 250.062 190.323C250.036 190.147 249.803 190.045 249.661 190.148C249.552 190.29 249.513 190.486 249.559 190.66L249.566 190.667Z" fill="#00160A"/>
<path fill-rule="evenodd" clip-rule="evenodd" d="M215.809 169.964C215.56 168.729 215.311 167.493 215.061 166.258C214.965 165.778 214.876 165.245 215.121 164.824C215.457 164.251 216.224 164.175 216.876 164.163C232.902 163.878 248.934 163.94 264.958 164.35C266.051 164.378 266.949 165.345 267.281 166.411C267.614 167.478 267.504 168.63 267.392 169.744C267.331 170.346 267.234 171.017 266.765 171.385C266.381 171.687 265.857 171.694 265.373 171.689C249.279 171.509 233.185 171.329 217.09 171.15C216.825 171.146 216.545 171.139 216.321 170.994C215.993 170.783 215.887 170.352 215.809 169.964ZM218.022 165.247C216.838 165.237 215.998 166.679 216.294 167.853C216.59 169.028 217.698 169.836 218.849 170.122C220.001 170.408 221.206 170.27 222.386 170.157C236.92 168.766 251.617 171.424 266.141 169.924C266.217 169.019 266.289 168.084 266.005 167.223C265.72 166.363 264.979 165.593 264.092 165.586C248.735 165.473 233.379 165.36 218.022 165.247Z" fill="#00160A"/>
<path fill-rule="evenodd" clip-rule="evenodd" d="M119.175 205.743C118.638 206.785 117.899 207.842 116.79 208.152C114.677 208.742 112.931 206.34 112.354 204.178C111.454 200.801 111.682 197.12 112.991 193.887C113.691 192.157 113.107 190.112 112.009 188.615C109.939 185.79 106.077 184.554 102.758 185.515C99.4396 186.475 96.8206 189.498 96.1266 192.958C96.0176 193.499 96.0946 194.26 96.6291 194.336C99.2966 194.719 100.521 197.924 100.927 200.65C101.237 202.732 101.372 204.913 100.682 206.897C99.9926 208.881 98.3051 210.623 96.2546 210.783C94.4146 209.514 93.0291 207.569 92.4111 205.387C91.2616 201.33 92.7546 197.029 94.2961 193.11C95.2371 190.718 96.2466 188.269 98.0336 186.453C101.854 182.57 108.987 183.03 112.299 187.374C113.574 189.045 114.305 191.121 115.717 192.671C116.782 193.84 118.189 194.658 119.16 195.909C121.27 198.626 120.757 202.673 119.175 205.743ZM93.5796 198.242C92.6126 200.971 92.8821 204.132 94.2966 206.648C94.5286 207.062 94.8051 207.473 95.2111 207.707C95.6171 207.941 96.1831 207.945 96.5041 207.599C97.4661 206.563 97.5861 204.997 97.5831 203.568C97.5791 201.878 97.4776 200.188 97.2786 198.51C97.1971 197.824 97.0581 197.064 96.5156 196.652C95.9731 196.24 94.9551 196.585 95.0401 197.271C95.2881 199.268 95.5361 201.265 95.7836 203.262C95.8401 203.716 95.8896 204.208 95.6676 204.605C95.4451 205.002 94.8311 205.187 94.5496 204.831C93.8201 203.308 93.6001 201.534 93.9346 199.871C94.0551 199.274 94.1376 198.455 93.5796 198.242ZM115.907 206.162C116.153 205.964 116.268 205.644 116.36 205.339C117.083 202.934 117.091 200.31 116.382 197.901C116.113 196.985 115.382 195.914 114.498 196.221C113.986 196.398 113.727 196.971 113.565 197.498C112.825 199.893 112.923 202.549 113.838 204.879C114.013 205.325 114.23 205.777 114.601 206.072C114.972 206.367 115.536 206.458 115.907 206.162ZM98.5471 197.52C99.1916 200.864 99.0546 204.364 98.1506 207.645C98.0676 207.947 98.4021 208.182 98.6821 208.309C100.038 204.942 100.21 201.089 99.1591 197.609C98.9846 197.482 98.7491 197.447 98.5471 197.52ZM117.359 196.617C117.159 196.944 116.959 197.272 116.758 197.599C117.418 197.485 117.721 198.407 117.756 199.092C117.838 200.675 117.919 202.258 118.001 203.841C118.616 203.604 118.727 202.778 118.739 202.105C118.765 200.59 118.79 199.077 118.816 197.562C118.595 197.535 118.373 197.509 118.152 197.482C118.129 197.053 117.776 196.668 117.359 196.617Z" fill="#00160A"/>
<path fill-rule="evenodd" clip-rule="evenodd" d="M189.859 199.489C185.453 199.274 181.028 199.47 176.656 200.073C176.269 200.127 175.836 200.172 175.526 199.93C175.215 199.688 175.249 199.047 175.637 199.003C180.008 198.511 184.399 198.195 188.795 198.055C189.273 198.04 189.809 198.048 190.149 198.392C190.49 198.736 190.337 199.513 189.859 199.489Z" fill="#00160A"/>
<path fill-rule="evenodd" clip-rule="evenodd" d="M87.5104 181.474C88.7614 181.353 90.0124 181.233 91.2629 181.113C91.8929 181.052 92.5234 180.992 93.1534 180.931C97.1614 180.546 101.169 180.16 105.181 179.817C105.338 179.804 105.503 179.791 105.649 179.853C106.083 180.038 106.016 180.756 105.638 181.042C105.26 181.327 104.748 181.311 104.278 181.295C98.3704 181.094 92.4824 182.912 86.6019 182.297C86.2199 182.257 85.7199 182.055 85.7874 181.668C86.3594 181.584 86.9354 181.529 87.5104 181.474Z" fill="#00160A"/>
<path fill-rule="evenodd" clip-rule="evenodd" d="M222.233 314.419C222.037 312.657 221.896 310.74 220.739 309.42C219.851 308.408 220.31 306.526 221.559 306.06C222.807 305.594 224.341 306.732 224.298 308.092C224.283 308.559 224.117 309.005 223.988 309.453C223.106 312.512 223.925 315.805 225.004 318.798C226.096 321.829 227.769 325.055 230.77 326.052C234.242 327.205 238.085 324.653 239.624 321.264C241.163 317.875 240.929 313.94 240.391 310.243C240.337 309.872 240.24 309.444 239.908 309.287C238.557 308.648 238.352 306.405 239.564 305.52C240.775 304.637 242.779 305.568 242.928 307.084C242.978 307.598 242.85 308.11 242.754 308.617C242.091 312.138 242.968 315.829 242.241 319.336C241.786 321.533 240.694 323.586 239.14 325.17C237.493 326.85 235.268 328.008 232.943 328.048C229.813 328.103 226.886 326.115 225.117 323.47C223.348 320.826 222.589 317.604 222.233 314.419Z" fill="#00160A"/>
<path fill-rule="evenodd" clip-rule="evenodd" d="M130.957 169.771C131.044 170.978 131.127 172.221 130.76 173.372C130.393 174.522 129.46 175.57 128.282 175.673C122.213 176.208 116.142 176.742 110.061 177.111C101.769 177.613 93.462 177.807 85.1575 178C84.861 178.007 84.544 178.009 84.297 177.841C83.926 177.59 83.8565 177.072 83.822 176.618C83.7325 175.429 83.6425 174.24 83.5525 173.052C83.5255 172.69 83.5045 172.3 83.695 171.994C83.9735 171.546 84.57 171.469 85.088 171.437C100.362 170.51 115.658 169.955 130.957 169.771ZM128.402 173.941C129.378 173.875 129.575 172.302 128.86 171.619C128.144 170.937 127.058 170.921 126.08 170.947C113.51 171.267 100.935 171.587 88.3896 172.46C87.4861 172.523 86.546 172.6 85.765 173.069C84.984 173.539 84.4205 174.525 84.7185 175.401C85.1425 176.645 86.781 176.781 88.065 176.694C101.511 175.776 114.956 174.859 128.402 173.941Z" fill="#00160A"/>
<path fill-rule="evenodd" clip-rule="evenodd" d="M115.35 199.81C115.362 200.138 115.374 200.464 115.386 200.791C115.411 201.472 115.436 202.157 115.34 202.831C114.507 202.74 114.248 201.642 114.2 200.786C114.177 200.378 114.169 199.923 114.435 199.619C114.702 199.316 115.335 199.402 115.35 199.81Z" fill="#00160A"/>
<path fill-rule="evenodd" clip-rule="evenodd" d="M175.367 202.597C176.185 201.824 177.428 201.848 178.541 201.881C182.06 201.983 185.59 201.704 189.053 201.051C189.461 200.974 189.681 201.625 189.426 201.96C189.172 202.296 188.712 202.366 188.3 202.409C184.397 202.816 180.478 203.057 176.556 203.131C176.089 203.14 175.496 203.058 175.367 202.597Z" fill="#00160A"/>
<path fill-rule="evenodd" clip-rule="evenodd" d="M306.754 216.109C306.368 217.445 305.086 218.272 303.863 218.884C297.743 221.95 290.549 222.7 283.951 220.961C281.735 220.377 279.21 219.027 279.116 216.685C279.046 214.964 280.387 213.522 281.808 212.599C283.987 211.185 286.528 210.47 289.061 209.966C293.948 208.994 299.246 208.793 303.669 211.131C305.522 212.111 307.345 214.061 306.754 216.109ZM280.626 216.425C280.63 218.316 282.69 219.423 284.476 219.903C290.679 221.569 297.463 220.85 303.201 217.919C304.122 217.448 305.094 216.828 305.386 215.818C305.779 214.461 304.753 213.094 303.613 212.293C300.185 209.88 295.65 210.21 291.513 210.664C288.184 211.029 284.637 211.505 282.1 213.741C281.316 214.432 280.624 215.366 280.626 216.425Z" fill="#00160A"/>
<path fill-rule="evenodd" clip-rule="evenodd" d="M126.687 105.357C126.478 104.141 127.297 102.933 128.352 102.336C129.406 101.739 130.65 101.624 131.853 101.551C142.58 100.905 153.29 102.67 164.021 103.249C165.402 103.324 166.858 103.402 168.02 104.17C169.182 104.939 169.864 106.663 169.06 107.816C168.671 108.373 168.029 108.682 167.391 108.889C165.551 109.484 163.577 109.405 161.65 109.32C151.618 108.879 141.586 108.437 131.554 107.995C129.563 107.908 127.032 107.367 126.687 105.357ZM128.064 103.595C127.497 104.413 127.971 105.634 128.79 106.184C129.609 106.734 130.641 106.796 131.619 106.841C142.251 107.331 152.883 107.821 163.515 108.311C164.551 108.359 165.698 108.369 166.483 107.675C167.268 106.981 167.164 105.326 166.14 105.159C154.318 103.235 142.321 102.436 130.354 102.775C129.514 102.799 128.55 102.893 128.064 103.595Z" fill="#00160A"/>
<path fill-rule="evenodd" clip-rule="evenodd" d="M244.317 94.8074C245.949 91.3258 248.595 87.7367 252.356 87.4397C254.861 87.2421 257.518 87.6906 259.501 89.2706C263.096 92.1373 263.347 97.6951 262.062 102.172C260.547 107.449 257.168 112.336 252.319 114.702C251.163 115.267 249.905 115.689 248.625 115.637C245.224 115.5 242.747 112.079 242.014 108.674C241.011 104.009 242.299 99.1144 244.317 94.8074ZM248.547 114.363C251.062 114.713 253.431 113.074 255.205 111.215C258.529 107.733 260.761 103.172 261.496 98.3612C261.708 96.9747 261.796 95.536 261.428 94.1838C260.703 91.525 258.242 89.6034 255.601 89.0505C253.061 88.519 250.269 89.1534 248.311 90.8932C247.37 91.7298 246.64 92.786 246.001 93.8817C243.92 97.4565 242.737 101.616 242.882 105.775C242.947 107.654 243.295 109.564 244.224 111.186C245.153 112.807 246.728 114.109 248.547 114.363Z" fill="#FFB61D"/>
<path fill-rule="evenodd" clip-rule="evenodd" d="M161.863 242.579C162.198 242.561 162.556 242.549 162.839 242.732C163.189 242.959 163.317 243.409 163.418 243.82C163.638 244.72 163.86 245.656 163.683 246.566C163.505 247.475 162.804 248.349 161.899 248.39C159.59 248.493 157.282 248.596 154.973 248.699C154.068 248.74 153.007 248.872 152.557 249.678C152.252 250.224 152.343 250.901 152.443 251.522C152.726 253.281 153.526 255.504 155.266 255.439C156.423 255.396 157.454 256.296 157.952 257.366C158.45 258.437 158.525 259.655 158.591 260.838C158.653 261.952 158.375 263.475 157.286 263.503C156.407 263.525 156.165 264.741 156.193 265.641C156.387 271.898 156.581 278.155 156.775 284.411C156.806 285.419 155.545 285.843 154.565 285.945C146.352 286.794 138.054 286.771 129.845 285.878C129.551 285.846 129.175 285.728 129.169 285.425C129.017 278.355 128.865 271.286 128.713 264.216C128.704 263.804 128.507 263.234 128.118 263.343C126.895 263.685 125.665 262.523 125.412 261.25C125.159 259.978 125.593 258.679 126.021 257.457C126.219 256.892 126.441 256.293 126.915 255.938C127.926 255.183 129.794 255.721 130.247 254.526C130.322 254.328 130.337 254.112 130.329 253.9C130.266 252.053 128.587 250.597 126.819 250.232C125.05 249.867 123.227 250.347 121.505 250.897C121.11 249.372 121.009 247.767 121.209 246.203C121.256 245.834 121.329 245.446 121.572 245.169C121.917 244.772 122.493 244.717 123.01 244.689C135.961 243.986 148.912 243.283 161.863 242.579ZM127.333 256.903C127.084 257.199 127.029 257.612 126.984 258C126.867 259.012 126.75 260.023 126.634 261.034C126.609 261.247 126.586 261.472 126.67 261.668C126.849 262.089 127.391 262.161 127.839 262.173C130.217 262.233 132.594 262.293 134.972 262.354C135.373 262.364 135.793 262.37 136.149 262.181C136.722 261.877 136.957 261.051 136.634 260.48C136.925 260.449 137.216 260.419 137.507 260.388C137.379 261.27 138.256 262.009 139.118 262.139C139.98 262.268 140.846 261.999 141.714 261.928C143.534 261.781 145.352 262.513 147.165 262.293C147.356 262.27 147.56 262.229 147.693 262.088C147.868 261.903 147.865 261.613 147.85 261.356C147.782 260.124 147.713 258.891 147.644 257.658C147.623 257.27 147.59 256.852 147.347 256.554C146.999 256.128 146.375 256.115 145.834 256.137C143.216 256.241 140.599 256.344 137.981 256.448C137.799 256.455 137.596 256.471 137.47 256.606C137.328 256.757 137.338 256.995 137.357 257.204C137.445 258.163 137.533 259.123 137.621 260.082C137.273 260.116 136.933 260.22 136.624 260.386C136.546 259.631 136.469 258.875 136.392 258.119C136.321 257.429 136.058 256.547 135.381 256.538C133.221 256.508 131.061 256.479 128.9 256.449C128.339 256.441 127.7 256.467 127.333 256.903ZM139.78 264.339C139.744 263.83 139.528 263.157 139.033 263.211C135.952 263.55 132.834 263.531 129.758 263.154C129.834 270.017 129.959 276.881 130.133 283.743C130.155 284.626 131.244 284.98 132.102 285.07C134.652 285.338 137.219 285.429 139.78 285.343C139.99 285.336 140.218 285.321 140.378 285.182C140.588 284.999 140.602 284.677 140.599 284.394C140.525 277.703 140.252 271.014 139.78 264.339ZM155.185 263.961C155.101 263.813 154.909 263.782 154.742 263.768C152.092 263.538 149.428 263.474 146.771 263.575C146.53 263.584 146.272 263.601 146.081 263.752C145.792 263.981 145.774 264.414 145.782 264.789C145.928 271.64 146.075 278.491 146.221 285.342C149.147 285.631 152.126 285.348 154.95 284.512C155.126 284.46 155.312 284.399 155.426 284.252C155.548 284.093 155.556 283.875 155.559 283.674C155.614 279.266 155.503 274.858 155.392 270.452C155.34 268.375 155.287 266.299 155.235 264.224C155.233 264.134 155.229 264.039 155.185 263.961ZM122.326 246.594C121.818 247.412 122.364 248.567 123.199 249.024C124.034 249.481 125.035 249.437 125.98 249.381C131.699 249.041 137.417 248.702 143.136 248.363C148.59 248.039 154.044 247.715 159.488 247.262C160.286 247.195 161.124 247.112 161.783 246.647C162.442 246.182 162.824 245.2 162.382 244.517C161.939 243.832 160.986 243.8 160.184 243.842C148.302 244.47 136.419 245.098 124.536 245.725C123.716 245.769 122.767 245.884 122.326 246.594ZM145.183 285.182C144.781 278.494 144.702 271.786 144.945 265.091C144.959 264.706 144.971 264.306 144.821 263.953C144.384 262.923 142.976 262.926 141.891 263.097C141.395 263.176 140.762 263.419 140.799 263.931C141.264 270.336 141.729 276.751 141.625 283.172C141.611 284.022 142.087 284.862 142.814 285.273C143.541 285.684 144.488 285.647 145.183 285.182ZM157.456 260.493C157.314 259.61 157.167 258.706 156.746 257.921C156.325 257.137 155.571 256.479 154.698 256.435C153.039 256.35 151.379 256.265 149.72 256.181C149.288 256.159 148.691 256.292 148.712 256.734C148.775 258.079 148.839 259.424 148.902 260.768C148.929 261.355 149.036 262.064 149.567 262.286C149.739 262.358 149.928 262.364 150.113 262.368C152.277 262.418 154.44 262.469 156.604 262.52C157.017 262.529 157.363 262.158 157.475 261.751C157.588 261.344 157.522 260.911 157.456 260.493ZM146.981 253.867C146.764 252.934 146.538 251.978 146.02 251.178C145.502 250.379 144.622 249.754 143.688 249.825C142.247 249.933 140.807 250.041 139.366 250.15C138.469 250.217 137.452 250.35 136.926 251.097C136.29 252.001 136.726 253.263 136.555 254.364C136.494 254.75 136.789 255.12 137.142 255.27C137.495 255.421 137.892 255.403 138.274 255.383C140.853 255.247 143.431 255.111 146.01 254.975C146.388 254.955 146.843 254.885 146.994 254.528C147.081 254.323 147.032 254.086 146.981 253.867ZM151.5 252.176C151.009 251.488 151.021 250.468 151.528 249.792C150.624 249.217 149.358 249.324 148.558 250.042C147.758 250.76 147.488 252.031 147.926 253.024C148.08 253.374 147.991 253.789 148.1 254.156C148.254 254.678 148.788 255.007 149.317 255.074C149.845 255.141 150.376 254.998 150.891 254.858C151.566 254.673 152.388 254.303 152.381 253.587C152.376 253.017 151.828 252.637 151.5 252.176ZM135.385 254.626C135.685 253.623 135.282 252.479 134.513 251.786C133.744 251.093 132.667 250.823 131.647 250.917C131.237 250.955 130.809 251.059 130.513 251.351C130.216 251.643 130.11 252.169 130.377 252.489C130.575 252.726 130.913 252.795 131.12 253.024C131.435 253.372 131.329 253.929 131.473 254.38C131.8 255.4 133.152 255.497 134.196 255.399C134.553 255.366 134.947 255.314 135.183 255.036C135.281 254.92 135.341 254.774 135.385 254.626ZM135.554 251.252C135.796 251.012 135.84 250.591 135.653 250.304C135.236 250.177 134.77 250.431 134.551 250.815C134.714 251.197 135.172 251.418 135.563 251.303M147.446 250.187C147.507 250.019 147.471 249.819 147.357 249.684C146.961 249.556 146.5 249.671 146.207 249.971C146.509 250.322 147.059 250.417 147.457 250.186L147.446 250.187Z" fill="#00160A"/>
<path fill-rule="evenodd" clip-rule="evenodd" d="M306.868 221.758C294.191 226.834 281.512 231.911 268.835 236.987C263.381 239.171 257.072 242.448 256.487 248.415C263.896 242.578 273.047 239.095 282.379 238.56C275.932 246.878 267.791 253.813 258.63 258.791C250.403 263.261 239.988 268.029 239.282 277.538C248.118 266.765 261.702 260.242 275.44 260.177C266.651 273.36 252.557 282.711 237.215 285.537C237.742 289.588 238.268 293.639 238.795 297.69C244.007 297.501 249.252 298.265 254.206 299.934C257.735 315.457 261.263 330.978 264.792 346.501C265.66 350.321 266.424 354.71 264.14 357.858C261.874 360.98 257.595 361.518 253.805 361.794C238.868 362.881 223.931 363.969 208.994 365.056C207.206 356.759 205.418 348.463 203.629 340.166C178.434 342.561 153.239 344.957 128.044 347.353C122.738 347.857 117.126 348.31 112.325 345.943C94.911 337.357 73.795 353.975 55.4015 347.895C71.562 347.583 87.6725 344.697 102.976 339.372C108.526 337.44 115.172 332.15 112.272 326.934C98.08 337.074 79.87 341.122 62.849 337.921C63.848 320.994 63.2055 303.967 60.933 287.17C73.044 285.395 84.98 282.367 96.499 278.147C99.703 276.973 102.999 275.622 105.281 273.036C107.563 270.451 108.485 266.274 106.48 263.458C88.96 273.018 68.731 277.297 48.9456 275.627C49.978 298.551 51.0105 321.476 52.043 344.4C49.1183 321.492 47.5674 298.401 47.4016 275.298C57.5865 274.374 67.771 273.449 77.9555 272.524C76.318 265.08 74.67 257.465 75.5115 249.883C76.3525 242.301 80.1635 234.623 86.862 231.279C81.7945 220.211 74.1355 210.398 64.71 202.897C53.6605 194.103 39.4547 187.472 34.4089 174.106C31.0726 165.269 32.7091 154.989 37.3286 146.779C41.9482 138.57 49.2683 132.246 57.2245 127.408C46.2708 124.525 37.9739 113.344 38.1959 101.765C38.4179 90.1863 47.1369 79.3472 58.1925 76.9071C52.98 70.546 44.7723 67.6306 38.7771 62.0396C31.793 55.5264 28.2835 45.0202 30.8275 35.7046C33.3715 26.389 42.3286 19.0597 51.7665 19.4727C59.5185 19.8119 66.3405 24.8327 71.752 30.5272C80.144 39.3586 86.3855 50.3172 89.76 62.1456C92.009 70.0294 100.252 74.0399 107.213 78.12C114.175 82.2001 121.404 89.3072 119.442 97.2708C116.849 86.3729 108.142 77.2383 97.566 74.3194C92.055 72.7988 90.0465 66.0834 88.2735 60.5277C84.824 49.7165 78.935 39.73 71.198 31.5701C65.383 25.4378 57.781 20.0867 49.4459 20.5474C40.8656 21.0216 33.3018 28.1688 31.3402 36.7354C29.3785 45.3021 32.6675 54.6888 38.9283 60.7156C45.3052 66.8544 54.428 69.8614 59.5695 77.1144C48.4189 79.4348 39.6034 90.4233 39.5448 102.074C39.4862 113.726 48.1908 124.807 59.3175 127.244C51.4765 131.944 44.1392 137.915 39.3015 145.79C34.4638 153.666 32.39 163.661 35.2846 172.48C41.9797 192.878 69.8855 197.746 79.7335 216.756C82.4005 207.786 78.491 198.354 76.4815 189.205C74.472 180.057 75.6075 168.308 83.9375 164.412C81.503 152.397 79.0685 140.383 76.634 128.368C74.82 119.415 73.91 108.072 81.4315 103.143C76.132 101.461 71.4285 97.8755 68.333 93.1605C71.676 98.3998 78.114 101.372 84.162 100.469C76.5195 83.5047 68.0455 66.9323 58.7825 50.8366C68.7635 66.2472 77.5965 82.4372 85.1805 99.219C120.257 98.2472 155.388 99.3536 190.341 102.532C194.981 102.954 199.976 103.567 203.406 106.796C208.336 111.434 215.737 113.126 222.125 111.075C224.158 116.234 225.653 122.03 223.925 127.304C222.198 132.579 216.078 136.605 211.186 134.185C212.463 140.912 213.74 147.64 215.017 154.367C227.525 154.521 240.031 154.783 252.535 155.152C259.162 155.347 266.089 155.656 271.849 159.018C277.608 162.38 281.673 169.827 279.107 176.088C280.744 170.914 282.38 165.741 284.016 160.567C289.784 169.942 292.617 181.179 292.001 192.241C293.999 189.128 295.997 186.015 297.995 182.902C290.896 171.462 289.993 156.256 295.684 144.019C301.266 153.485 304.41 164.443 304.716 175.496C306.797 155.575 320.58 137.415 338.917 130.431C335.736 137.937 332.554 145.444 329.373 152.951C326.649 159.378 323.189 166.507 316.644 168.548C312.327 169.895 306.075 169.814 305.292 174.365C317.693 171.035 330.891 170.87 343.367 173.89C333.754 185.725 315.228 188.64 302.587 180.304C296.624 187.115 291.458 194.655 287.233 202.715C294.409 193.582 305.577 187.871 317.017 187.483C310.871 194.922 303.938 201.679 296.379 207.598C300.391 207.993 304.729 208.534 307.639 211.389C310.549 214.245 310.622 220.255 306.868 221.758ZM139.522 146.791C142.847 146.752 146.571 146.873 148.893 149.312C150.663 151.172 151.138 153.915 151.524 156.483C153.289 168.224 154.942 179.982 156.482 191.756C156.868 194.71 154.45 197.435 151.688 198.371C148.925 199.308 145.922 198.897 143.041 198.476C145.443 196.353 149.498 197.875 152.083 195.991C154.402 194.302 154.388 190.833 154.111 187.933C153.07 177.061 151.653 166.226 149.862 155.457C149.546 153.553 149.158 151.527 147.841 150.146C146.088 148.305 143.285 148.182 140.774 148.179C130.466 148.166 120.157 148.153 109.849 148.14C108.072 148.138 106.203 148.159 104.66 149.062C100.222 151.66 101.858 158.521 104.064 163.244C110.315 161.946 116.702 161.337 123.079 161.433C128.729 161.517 135.774 163.395 136.727 169.098C138.82 181.627 140.912 194.156 143.005 206.684C144.103 213.254 144.708 221.235 139.581 225.34C137.019 227.392 133.619 227.881 130.393 228.299C122.46 229.326 114.526 230.353 106.593 231.38C109.897 261.005 113.201 290.63 116.506 320.255C116.874 323.559 117.549 327.358 120.386 328.976C122.065 329.934 124.101 329.855 126.019 329.749C151.297 328.337 176.55 326.468 201.763 324.142C200.754 321.788 200.734 319.011 201.709 316.643C204.263 331.952 206.816 347.261 209.37 362.571C213.841 359.415 213.154 352.564 211.967 347.138C208.961 333.4 205.956 319.661 202.951 305.923C201.734 308.208 200.517 310.494 199.301 312.779C198.703 309.926 200.375 306.973 202.695 305.277C205.014 303.58 207.872 302.884 210.659 302.273C219.227 300.391 227.888 298.955 236.598 297.97C234.067 279.686 231.536 261.403 229.004 243.12C213.443 247.496 196.964 246.119 180.886 244.707C176.124 244.29 170.072 242.648 169.617 237.776C168.476 225.528 167.334 213.28 166.193 201.032C166.044 199.435 165.14 197.284 163.653 197.787C159.998 199.023 157.824 193.691 157.525 189.761C156.586 177.435 155.648 165.109 154.709 152.783C154.586 151.167 154.554 149.301 155.731 148.217C156.556 147.458 157.743 147.318 158.847 147.215C166.723 146.478 174.599 145.74 182.475 145.003C186.973 144.582 192.081 144.364 195.354 147.551C197.664 149.8 198.439 153.211 198.927 156.437C199.825 162.382 200.123 168.422 199.813 174.43C199.189 168.558 198.565 162.685 197.941 156.813C197.66 154.171 197.317 151.369 195.687 149.301C192.905 145.771 187.729 145.83 183.314 146.202C175.427 146.867 167.54 147.531 159.653 148.196C158.591 148.285 157.44 148.414 156.668 149.166C155.664 150.145 155.692 151.765 155.793 153.181C156.638 165.093 157.483 177.005 158.328 188.917C158.487 191.165 158.704 193.568 160.092 195.318C161.48 197.068 164.492 197.617 165.789 195.795C164.012 191.796 166.47 186.898 170.108 184.567C173.746 182.236 178.21 181.826 182.488 181.476C189.866 180.873 197.243 180.271 204.621 179.668C204.116 164.031 202.469 148.433 199.699 133.047C197.147 132.317 194.824 130.772 193.133 128.683C191.868 132.02 188.099 134.141 184.67 133.446C181.24 132.751 178.545 129.319 178.617 125.74C178.21 129.859 174.706 133.432 170.682 133.83C166.658 134.229 162.55 131.41 161.38 127.447C159.453 129.648 156.952 131.544 154.077 131.812C151.203 132.08 148.023 130.221 147.555 127.304C143.78 132.32 135.005 131.811 131.807 126.391C128.517 131.95 119.152 131.813 116.018 126.16C114.611 131.387 106.756 131.805 102.986 127.999C99.216 124.193 98.482 118.331 97.9575 112.936C91.734 119.077 90.611 128.941 91.7925 137.708C92.9735 146.475 96.0515 154.919 96.7985 163.736C98.5035 164.175 100.373 163.898 101.887 162.982C100.252 157.923 99.177 151.126 103.615 148.343C105.395 147.227 107.598 147.17 109.685 147.145C119.631 147.027 129.576 146.91 139.522 146.791ZM238.048 231.93C251.095 231.266 264.553 233.008 276.952 228.797C278.87 228.146 280.836 227.287 282.072 225.649C278.905 224.159 275.541 221.589 275.619 218.02C275.67 215.677 277.256 213.651 279.042 212.186C280.918 210.648 283.101 209.505 285.418 208.85C285.605 208.263 284.597 208.136 284.098 208.483C283.599 208.83 282.841 209.259 282.509 208.743C282.419 208.605 282.401 208.432 282.385 208.267C281.141 195.299 279.297 182.392 276.861 169.603C276.13 165.757 275.041 161.474 271.731 159.509C269.944 158.448 267.802 158.269 265.741 158.124C250.227 157.024 234.684 156.352 219.135 156.105C215.46 156.047 211.349 156.187 208.773 158.871C206.819 160.907 206.259 163.931 206.052 166.778C205.411 175.594 207.255 184.369 208.454 193.123C209.891 203.611 210.408 214.203 211.356 224.749C211.482 226.152 211.635 227.614 212.376 228.802C213.647 230.837 216.227 231.475 218.563 231.811C222.015 232.306 225.505 232.516 228.99 232.437C232.013 232.368 235.028 232.083 238.048 231.93ZM130.977 163.906C126.56 161.917 121.502 162.45 116.709 163.02C109.46 163.882 102.211 164.743 94.9625 165.605C91.4785 166.019 87.991 166.434 84.544 167.099C83.713 167.26 82.8795 167.437 82.0955 167.761C79.023 169.033 77.1915 172.425 76.7655 175.79C76.339 179.155 77.0695 182.547 77.77 185.864C79.946 196.172 81.876 206.576 82.3995 217.108C82.503 219.193 82.555 221.305 83.115 223.313C83.6745 225.32 84.817 227.252 86.604 228.257C87.978 229.031 89.593 229.191 91.158 229.297C105.502 230.262 119.838 227.893 134.027 225.532C136.046 225.197 138.17 224.813 139.744 223.476C142.174 221.41 142.538 217.775 142.52 214.54C142.488 208.567 141.782 202.597 140.42 196.788C138.827 189.995 136.326 183.311 136.26 176.325C136.231 173.243 136.626 169.923 135.056 167.294C134.128 165.741 132.605 164.638 130.977 163.906ZM62.72 293.275C64.648 307.462 65.296 321.831 64.6525 336.14C64.6185 336.895 65.5135 337.279 66.238 337.421C75.5135 339.236 85.0665 336.91 94.0675 333.983C99.184 332.32 104.304 330.424 108.73 327.311C110.754 325.888 112.802 323.742 112.424 321.258C109.992 305.294 108.654 289.157 108.424 273.003C100.234 279.556 89.8415 282.336 79.769 284.96C74.9945 286.204 70.156 287.456 65.23 287.414C64.039 287.404 63.0505 288.475 62.7175 289.646C62.385 290.817 62.556 292.067 62.72 293.275ZM250.973 300.446C235.631 298.916 219.982 300.713 205.352 305.683C206.23 312.526 207.431 319.325 208.947 326.049C209.554 328.742 210.212 331.422 210.87 334.103C212.151 339.322 213.432 344.542 214.713 349.762C214.892 350.488 215.115 351.282 215.727 351.693C216.272 352.06 216.979 352.018 217.63 351.963C232.778 350.669 247.918 349.267 263.047 347.758C259.74 332.661 256.432 317.564 253.125 302.467C252.998 301.887 252.845 301.261 252.394 300.887C252.004 300.562 251.473 300.496 250.973 300.446ZM228.358 234.173C225.02 234.347 221.632 234.517 218.372 233.759C215.113 233 211.941 231.181 210.267 228.218C209.306 229.351 207.396 229.436 206.343 228.393C205.29 227.35 205.309 225.393 206.382 224.371C202.142 224.411 197.901 224.45 193.66 224.489C195.598 225.658 195.439 229.105 193.436 230.152C191.432 231.199 188.659 229.43 188.613 227.127C188.592 226.094 189.211 224.933 190.217 224.841C189.8 224.109 188.717 224.542 187.894 224.462C186.653 224.342 185.975 222.958 185.539 221.762C183.774 216.911 182.167 212.001 180.561 207.093C181.686 208.978 184.219 209.826 186.214 208.986C186.918 208.689 186.94 207.651 186.64 206.934C186.116 205.681 184.922 204.716 183.595 204.609C182.269 204.503 180.888 205.333 180.44 206.615C179.775 206.106 180.058 204.929 180.756 204.468C181.453 204.007 182.347 204.047 183.175 204.099C190.997 204.582 198.847 204.575 206.668 204.076C207.024 204.053 207.416 204.012 207.659 203.745C207.933 203.442 207.907 202.975 207.863 202.565C207.564 199.748 207.265 196.931 206.966 194.114C206.933 193.801 206.886 193.46 206.658 193.249C206.407 193.017 206.029 193.028 205.692 193.053C195.888 193.768 186.11 194.849 176.384 196.292C175.348 196.445 174.385 195.555 174.058 194.537C173.732 193.52 173.883 192.414 174.037 191.354C174.091 190.983 174.16 190.58 174.429 190.324C174.677 190.089 175.036 190.033 175.371 189.989C185.491 188.667 195.676 187.873 205.875 187.613C205.627 188.644 204.313 188.867 203.276 188.886C193.811 189.058 184.356 189.835 174.985 191.211C174.237 192.521 175.263 194.286 176.644 194.837C178.025 195.387 179.572 195.093 181.029 194.812C189.058 193.265 197.203 192.353 205.369 192.088C206.535 192.05 206.674 190.332 206.429 189.164C205.86 186.452 205.291 183.74 204.722 181.028C199.067 182.125 193.291 182.562 187.54 182.33C184.137 182.192 180.753 182.801 177.399 183.408C174.549 183.923 171.511 184.534 169.452 186.616C167.044 189.05 166.613 192.856 166.759 196.317C166.999 201.995 168.406 207.549 169.1 213.188C169.949 220.078 169.731 227.061 170.382 233.973C170.558 235.835 170.808 237.732 171.624 239.407C172.439 241.081 173.921 242.518 175.728 242.794C190.577 245.061 205.717 245.319 220.631 243.558C222.009 243.395 223.399 243.212 224.699 242.719C226.752 241.942 228.512 240.382 229.559 238.415C229.979 237.625 230.293 236.722 230.14 235.836C229.987 234.95 229.235 234.127 228.358 234.173ZM109.648 273.016C111.202 290.523 112.756 308.03 114.31 325.537C114.589 328.684 114.858 331.934 113.898 334.937C112.937 337.939 110.411 340.654 107.327 340.757C109.137 343.469 112.262 345.019 115.422 345.587C118.581 346.155 121.821 345.854 125.015 345.552C151.336 343.062 177.657 340.572 203.977 338.082C203.412 334.713 202.847 331.345 202.282 327.978C202.156 327.222 201.793 326.263 201.046 326.32C182.949 327.701 164.852 329.082 146.755 330.463C139.324 331.03 131.856 331.597 124.429 330.975C120.671 330.66 116.029 329.131 115.659 325.288C112.692 294.544 109.257 263.847 105.356 233.213C105.296 232.742 105.222 232.238 104.907 231.888C104.487 231.422 103.792 231.387 103.172 231.384C99.472 231.364 95.7715 231.345 92.071 231.325C93.1515 237.603 94.5545 243.823 96.272 249.951C96.5895 251.083 97.1175 252.405 98.2505 252.609C102.319 253.341 105.531 256.768 107.205 260.636C108.879 264.503 109.274 268.804 109.648 273.016ZM95.4305 164.044C92.254 147.547 89.567 130.952 87.373 114.289C87.249 113.346 87.129 112.369 87.4 111.459C87.958 109.584 89.9605 108.602 91.823 108.15C95.464 107.266 99.2665 107.56 102.998 107.842C137.118 110.418 171.35 111.449 205.559 110.931C204.198 108.105 201.462 106.178 198.552 105.156C195.641 104.134 192.531 103.906 189.462 103.689C159.349 101.558 129.19 99.5615 99.0075 99.9337C95.315 99.9793 91.579 100.066 88.0135 101.051C84.448 102.035 81.017 104.018 78.96 107.159C75.7185 112.108 76.5025 118.646 77.506 124.515C79.8555 138.262 82.714 151.917 86.073 165.441C89.1925 164.975 92.3115 164.51 95.4305 164.044ZM168.897 131.802C170.528 131.819 172.222 131.725 173.665 130.948C176.206 129.578 177.334 126.422 177.502 123.487C177.67 120.551 177.104 117.609 177.286 114.674C177.328 114.006 177.693 113.119 178.327 113.287C178.786 116.665 179.244 120.044 179.703 123.422C179.957 125.287 180.22 127.187 181.018 128.884C181.816 130.58 183.251 132.071 185.057 132.427C186.094 132.631 187.177 132.448 188.166 132.067C190.533 131.156 192.516 128.837 192.426 126.249C192.302 122.676 192.178 119.103 192.054 115.53C192.005 114.117 191.491 112.234 190.112 112.308C180.916 112.801 171.692 112.757 162.501 112.177C161.831 112.135 161.654 113.107 161.725 113.791C162.093 117.335 162.461 120.879 162.829 124.422C163.107 127.098 163.7 130.243 166.097 131.344C166.966 131.743 167.945 131.791 168.897 131.802ZM216.063 354.173C215.622 354.489 215.331 354.976 215.063 355.453C213.668 357.94 212.548 360.587 211.729 363.329C227.826 362.177 243.911 360.839 259.979 359.314C260.583 359.257 261.238 359.176 261.671 358.742C261.952 358.459 262.097 358.068 262.233 357.689C262.834 356.016 263.435 354.343 264.037 352.67C264.33 351.856 264.59 350.843 264.017 350.203C263.542 349.672 262.734 349.689 262.032 349.746C247.341 350.951 232.657 352.249 217.982 353.64C217.314 353.703 216.612 353.779 216.063 354.173ZM244.439 252.616C244.004 247.415 243.117 241.578 238.973 238.54C237.355 243.1 235.723 247.73 235.353 252.567C234.983 257.404 236.027 262.56 239.195 266.167C239.641 266.674 240.136 267.166 240.372 267.804C240.608 268.441 240.488 269.283 239.91 269.621C235.603 265.783 233.82 259.629 233.921 253.783C234.022 247.938 235.771 242.27 237.505 236.7C237.886 235.477 236.796 234.189 235.573 233.904C234.35 233.618 233.087 234.037 231.9 234.45C231.669 234.531 231.567 234.801 231.494 235.04C230.672 237.719 229.844 240.56 230.48 243.292C233.22 255.062 232.866 267.415 235.656 279.173C235.759 279.607 235.87 280.051 236.117 280.419C237.967 276.715 239.817 273.011 241.667 269.306C242.537 267.566 243.411 265.813 243.954 263.939C245.009 260.294 244.756 256.403 244.439 252.616ZM309.884 167.18C310.242 167.482 310.721 167.578 311.181 167.63C316.413 168.229 321.35 164.583 324.247 160.082C327.144 155.581 328.512 150.264 330.412 145.237C332.194 140.518 334.474 135.997 337.199 131.777C331.743 137.018 325.027 140.689 319.333 145.657C313.639 150.626 308.793 157.594 309.194 165.243C309.232 165.95 309.35 166.73 309.884 167.18ZM100.358 116.489C101.101 119.827 100.794 123.536 102.6 126.418C104.351 129.211 108.044 130.542 111.118 129.488C114.191 128.434 116.356 125.092 116.11 121.783C116.054 121.031 115.889 120.292 115.723 119.557C115.076 116.677 114.428 113.797 113.781 110.917C113.716 110.63 113.644 110.329 113.446 110.116C113.161 109.812 112.706 109.776 112.294 109.76C108.338 109.605 104.382 109.45 100.426 109.295C100.045 109.28 99.628 109.277 99.332 109.522C98.9575 109.834 98.936 110.405 98.985 110.896C99.1745 112.811 99.94 114.612 100.358 116.489ZM207.448 119.602C207.543 124.213 210.476 128.223 213.57 131.574C213.872 131.901 214.182 132.23 214.56 132.462C215.17 132.835 215.913 132.923 216.622 132.861C219.012 132.651 221.056 130.8 222.065 128.571C223.074 126.343 223.188 123.793 222.97 121.347C222.753 118.901 222.224 116.491 222.011 114.045C221.968 113.554 221.792 112.913 221.311 112.915C217.082 112.932 212.852 112.948 208.623 112.965C208.082 112.967 207.508 112.978 207.051 113.275C206.594 113.571 206.339 114.264 206.678 114.696C207.714 116.015 207.413 117.91 207.448 119.602ZM271.766 262.233C260.178 262.024 249.555 269.058 241.45 277.541C240.084 278.971 238.75 280.471 237.841 282.242C237.68 282.555 237.553 282.991 237.817 283.22C237.957 283.342 238.158 283.349 238.342 283.349C245.083 283.324 251.567 280.408 257.044 276.383C262.522 272.358 267.137 267.251 271.766 262.233ZM128.38 128.651C130.036 127.675 131.101 125.732 131.053 123.777C131.028 122.785 130.742 121.823 130.512 120.859C129.92 118.38 129.69 115.81 129.831 113.262C129.862 112.719 129.907 112.161 129.748 111.643C129.588 111.124 129.166 110.647 128.635 110.618C124.257 110.373 119.878 110.128 115.499 109.883C115.341 109.874 115.169 109.87 115.042 109.965C114.845 110.113 114.856 110.413 114.893 110.661C115.431 114.31 117.156 117.747 117.266 121.436C117.307 122.792 117.13 124.184 117.501 125.487C117.976 127.157 119.334 128.475 120.91 129.124C122.485 129.774 124.252 129.81 125.924 129.502C126.779 129.344 127.627 129.094 128.38 128.651ZM303.598 178.606C306.77 179.522 309.573 181.437 312.65 182.646C319.47 185.325 327.589 184.206 333.475 179.777C336.004 177.875 338.531 175.973 341.059 174.071C337.978 174.818 334.79 175.104 331.629 174.917C326.347 174.605 321.132 172.985 315.856 173.391C311.368 173.736 307.003 175.593 303.598 178.606ZM213.036 153.615C212.413 150.08 211.79 146.544 211.166 143.008C210.331 138.269 209.495 133.53 208.66 128.791C208.601 128.455 208.529 128.094 208.286 127.86C208.042 127.626 207.568 127.626 207.435 127.939C206.601 129.911 204.892 131.474 202.885 132.103C201.667 132.484 201.563 134.185 201.705 135.481C202.703 144.624 203.886 153.746 205.25 162.84C205.647 159.12 208.76 155.891 212.386 155.435C213.092 155.346 213.163 154.332 213.036 153.615ZM146.409 124.856C146.021 121.044 145.533 117.243 144.943 113.458C144.822 112.678 144.497 111.705 143.726 111.67C139.741 111.491 135.755 111.312 131.769 111.133C131.627 111.127 131.477 111.122 131.351 111.191C131.03 111.365 131.082 111.845 131.177 112.205C132.096 115.7 132.584 119.313 132.625 122.932C132.635 123.823 132.625 124.747 132.989 125.556C133.525 126.747 134.745 127.43 135.904 127.986C137.923 128.954 140.132 129.806 142.336 129.455C144.54 129.103 146.64 127.128 146.409 124.856ZM148.132 124.877C148.534 126.872 149.271 129.191 151.179 129.765C152.79 130.249 154.531 130.382 156.146 129.916C157.761 129.45 159.234 128.339 159.957 126.788C160.472 125.684 160.588 124.434 160.655 123.213C160.838 119.868 160.712 116.504 160.278 113.183C160.255 113.005 160.229 112.822 160.141 112.667C159.909 112.255 159.361 112.197 158.896 112.186C154.837 112.096 150.779 112.005 146.72 111.915C146.389 111.907 145.926 112.26 146.206 112.441C146.66 116.614 147.303 120.765 148.132 124.877ZM284.505 166.152C281.334 173.492 280.401 181.825 281.865 189.709C282.451 192.859 283.601 196.202 286.263 197.889C287.047 198.385 288.353 198.532 288.643 197.636C292.011 187.231 290.439 175.275 284.505 166.152ZM79.0085 258.306C80.3535 259.251 81.8695 259.94 83.456 260.327C85.4615 260.816 87.5435 260.822 89.604 260.873C94.4195 260.992 99.2285 261.369 104.005 262.004C104.671 262.092 105.222 261.354 105.204 260.666C105.187 259.978 104.778 259.371 104.354 258.837C101.807 255.623 98.087 253.408 94.0995 252.731C91.2745 252.251 88.3865 252.52 85.524 252.436C82.662 252.352 79.6745 251.855 77.392 250.085C77.271 251.768 77.2615 253.46 77.363 255.145C77.404 255.827 77.4715 256.535 77.811 257.123C78.0955 257.616 78.5475 257.982 79.0085 258.306ZM194.854 127.531C195.303 128.366 196.025 129.009 196.764 129.589C197.564 130.217 198.429 130.805 199.413 131.036C201.834 131.603 204.31 129.766 205.33 127.448C206.351 125.128 206.247 122.47 206.011 119.938C205.832 118.024 205.589 116.115 205.282 114.218C205.231 113.902 205.171 113.571 204.977 113.319C204.636 112.878 204.013 112.827 203.463 112.812C200.512 112.732 197.56 112.651 194.608 112.571C193.954 112.554 193.026 112.874 193.22 113.512C194.089 116.375 194.468 119.392 194.334 122.385C194.256 124.133 194.03 125.999 194.854 127.531ZM299.319 180.669C302.453 175.49 303.391 168.969 301.849 163.085C300.485 157.883 297.315 153.274 296.31 147.986C293.968 155.264 291.61 163.098 293.728 170.447C294.814 174.213 297.008 177.535 299.319 180.669ZM247.399 262.147C256.72 259.688 265.324 254.447 271.882 247.233C273.844 245.074 275.853 242.96 277.906 240.892C272.876 241.598 267.966 243.191 263.457 245.579C256.577 249.223 250.541 254.897 247.399 262.147ZM304.188 198.793C307.616 195.494 311.044 192.195 314.473 188.896C302.879 190.409 292.052 197.269 285.555 207.217C287.23 208.538 289.633 207.76 291.586 206.933C294.303 205.783 297.043 204.619 299.461 202.908C301.164 201.703 302.679 200.245 304.188 198.793ZM78.7125 270.897C78.741 271.202 78.7765 271.524 78.9565 271.769C79.3515 272.304 80.156 272.172 80.784 271.984C87.978 269.832 95.0715 267.325 102.03 264.476C102.532 264.271 103.117 263.946 103.127 263.393C97.789 263.013 92.45 262.635 87.111 262.255C85.805 262.162 84.494 262.069 83.214 261.789C81.288 261.368 79.452 260.523 77.8665 259.327C77.9825 263.194 78.3475 267.047 78.7125 270.897ZM247.366 233.907C246.935 234.225 246.761 234.787 246.613 235.31C246.105 237.103 245.594 239.006 246.066 240.809C246.307 241.729 246.789 242.558 247.266 243.375C248.586 245.634 249.906 247.893 251.225 250.151C251.348 250.361 251.481 250.582 251.693 250.696C252.323 251.035 252.945 250.239 253.238 249.574C255.137 245.261 257.079 240.699 256.649 235.989C256.582 235.264 256.39 234.442 255.758 234.11C255.468 233.957 255.131 233.938 254.805 233.921C252.848 233.822 250.892 233.722 248.936 233.623C248.394 233.595 247.805 233.581 247.366 233.907ZM277.268 217.937C277.218 220.973 279.805 223.512 282.642 224.395C285.479 225.279 288.523 224.899 291.472 224.574C296.656 224.005 302.139 223.535 306.401 220.459C307.346 219.776 308.241 218.934 308.663 217.831C309.322 216.11 308.659 214.078 307.421 212.734C306.181 211.389 304.465 210.621 302.746 210.057C296.603 208.044 289.782 208.276 283.784 210.702C280.619 211.982 277.326 214.453 277.268 217.937ZM78.224 248.95C78.7825 249.484 79.9145 249.62 80.132 248.87C80.878 246.302 82.5555 244.1 84.531 242.343C86.507 240.586 88.7845 239.229 91.0475 237.883C91.658 237.52 91.6195 236.619 91.5015 235.907C91.273 234.526 91.0445 233.146 90.816 231.766C90.758 231.416 90.644 230.999 90.3095 230.905C90.036 230.829 89.766 231.018 89.5425 231.197C87.919 232.495 86.296 233.793 84.6725 235.091C81.42 237.692 77.9345 240.676 77.229 244.839C76.9835 246.29 77.173 247.946 78.224 248.95ZM90.8865 239.659C87.241 241.99 83.382 244.571 81.7255 248.632C81.622 248.885 81.527 249.15 81.535 249.424C81.551 249.965 81.9765 250.42 82.464 250.628C82.951 250.835 83.494 250.845 84.022 250.851C87.143 250.889 90.264 250.926 93.3845 250.964C93.5365 250.966 93.701 250.963 93.821 250.868C94.01 250.717 93.991 250.423 93.9535 250.18C93.4555 246.959 92.9575 243.737 92.46 240.515C92.389 240.057 92.2445 239.508 91.808 239.384C91.49 239.293 91.1665 239.479 90.8865 239.659ZM245.939 234.104C243.641 233.498 241.163 233.63 238.939 234.478C239.37 235.926 240.133 237.267 241.149 238.365C244.575 242.063 245.588 247.433 245.977 252.515C246.185 255.229 246.258 257.955 246.196 260.677C247.701 258.3 249.206 255.923 250.711 253.545C250.86 253.309 251.015 253.059 251.031 252.778C251.047 252.496 250.923 252.229 250.796 251.978C249.311 249.042 247.129 246.51 245.751 243.52C244.374 240.529 243.951 236.71 245.939 234.104ZM91.991 109.672C90.7235 109.878 89.278 110.208 88.676 111.368C88.26 112.171 88.383 113.141 88.5165 114.039C89.0675 117.738 89.618 121.437 90.169 125.136C92.988 119.945 95.6275 114.655 98.266 109.367C97.7775 108.801 96.912 108.873 96.184 108.991C94.7865 109.218 93.3885 109.445 91.991 109.672ZM265.49 235.262C265.881 235.792 266.899 235.205 266.66 234.588C270.424 235.695 274.528 234.907 278.084 233.226C281.64 231.544 284.745 229.024 287.801 226.515C286.518 226.331 285.234 226.148 283.951 225.964C283.689 225.927 283.35 225.932 283.249 226.182C282.559 227.914 281.071 229.212 279.428 230.031C277.785 230.85 275.978 231.247 274.191 231.637C272.951 231.907 271.71 232.178 270.47 232.449C268.549 232.867 266.383 233.471 265.49 235.262ZM197.383 208.44C197.624 208.378 197.883 208.304 198.037 208.103C198.276 207.794 198.156 207.348 198.094 206.958C198.031 206.567 198.127 206.048 198.508 205.981C198.854 206.051 199.014 206.473 199.023 206.834C199.031 207.196 198.953 207.574 199.081 207.911C199.366 208.663 200.379 208.692 201.159 208.59C201.621 208.53 202.083 208.47 202.545 208.41C202.69 208.391 202.844 208.367 202.952 208.266C203.294 207.946 202.818 207.422 202.712 206.961C202.631 206.603 202.794 206.217 202.687 205.868C202.505 205.272 201.731 205.18 201.121 205.201C196.458 205.359 191.796 205.518 187.133 205.676C187.213 206.58 187.454 207.468 187.842 208.284C187.925 208.46 188.023 208.641 188.189 208.738C188.357 208.837 188.563 208.83 188.756 208.821C189.915 208.766 191.074 208.711 192.233 208.656C192.332 208.651 192.436 208.645 192.518 208.589C192.73 208.446 192.656 208.116 192.559 207.876C192.392 207.463 192.224 207.05 192.057 206.638C191.911 206.278 192.546 206.066 192.814 206.342C193.081 206.618 193.091 207.051 193.217 207.418C193.478 208.179 194.269 208.644 195.051 208.741C195.833 208.839 196.619 208.639 197.383 208.44ZM265.099 233.716C265.353 233.439 264.793 233.149 264.425 233.196C262.325 233.459 260.225 233.723 258.126 233.987C257.845 234.022 257.474 234.18 257.541 234.461C258.231 237.354 257.972 240.475 256.816 243.207C256.596 243.728 256.451 244.523 256.978 244.697C259.168 240.673 261.91 236.964 265.099 233.716ZM193.56 210.622C193.494 210.389 193.42 210.143 193.247 209.978C193.049 209.789 192.764 209.742 192.496 209.712C191.121 209.558 189.719 209.654 188.375 209.996C188.796 211.392 189.216 212.787 189.636 214.182C189.716 214.447 189.823 214.744 190.073 214.847C190.202 214.9 190.345 214.891 190.483 214.881C191.841 214.784 193.2 214.686 194.558 214.588C194.263 213.257 193.93 211.934 193.56 210.622ZM184.717 215.502C184.868 215.586 185.053 215.561 185.222 215.532C186.452 215.327 187.682 215.122 188.911 214.917C188.468 213.461 188.024 212.004 187.58 210.548C187.515 210.335 187.434 210.1 187.242 209.994C187.09 209.91 186.905 209.928 186.733 209.948C185.637 210.079 184.541 210.209 183.444 210.34C183.238 210.364 182.994 210.417 182.918 210.615C182.866 210.749 182.915 210.899 182.964 211.035C183.447 212.369 183.93 213.704 184.413 215.039C184.477 215.217 184.554 215.411 184.717 215.502ZM198.533 209.685C198.273 209.454 197.888 209.469 197.545 209.499C196.462 209.59 195.379 209.681 194.296 209.772C194.62 211.193 195.027 212.594 195.516 213.965C195.58 214.145 195.652 214.334 195.801 214.449C195.987 214.593 196.242 214.585 196.475 214.571C197.214 214.525 197.954 214.479 198.693 214.434C199.033 214.413 199.447 214.338 199.562 214.009C199.616 213.851 199.581 213.677 199.545 213.513C199.32 212.487 199.095 211.462 198.871 210.437C198.81 210.163 198.74 209.869 198.533 209.685ZM192.072 219.894C191.965 219.911 191.851 219.932 191.773 220.009C191.621 220.159 191.691 220.417 191.771 220.617C192.055 221.33 192.34 222.043 192.624 222.756C192.73 223.021 192.849 223.302 193.084 223.455C193.302 223.596 193.576 223.599 193.834 223.598C194.817 223.591 195.799 223.585 196.782 223.58C196.926 223.579 197.082 223.574 197.193 223.479C197.394 223.309 197.319 222.983 197.226 222.733C196.848 221.713 196.47 220.693 196.092 219.672C195.971 219.344 195.526 219.34 195.188 219.394C194.149 219.56 193.111 219.727 192.072 219.894ZM200.34 209.483C200.133 209.484 199.901 209.496 199.762 209.652C199.594 209.841 199.647 210.136 199.711 210.382C199.99 211.464 200.27 212.546 200.549 213.627C200.598 213.817 200.655 214.02 200.804 214.145C201.002 214.31 201.288 214.279 201.541 214.239C202.472 214.094 203.404 213.948 204.335 213.803C204.235 212.695 204.064 211.595 203.822 210.511C203.746 210.172 203.642 209.803 203.355 209.616C203.141 209.477 202.871 209.474 202.617 209.475C201.858 209.478 201.099 209.48 200.34 209.483ZM202.236 223.452C201.934 222.33 201.632 221.207 201.33 220.084C201.215 219.656 201.052 219.17 200.647 219.008C200.447 218.929 200.225 218.946 200.012 218.965C199.018 219.054 198.024 219.142 197.03 219.231C197.292 220.236 197.602 221.229 197.959 222.203C198.139 222.693 198.412 223.249 198.917 223.333C200.013 223.515 201.131 223.555 202.236 223.452ZM203.966 223.374C204.867 223.45 205.856 223.501 206.585 222.952C206.269 221.695 205.953 220.438 205.637 219.18C205.566 218.897 205.471 218.582 205.218 218.447C205.032 218.348 204.808 218.375 204.601 218.404C203.708 218.532 202.815 218.659 201.922 218.786C202.135 220.118 202.495 221.424 202.994 222.672C203.07 222.864 203.157 223.063 203.317 223.189C203.498 223.331 203.739 223.355 203.966 223.374ZM284.26 205.473C284.948 204.026 285.637 202.58 286.325 201.134C286.398 200.982 286.471 200.817 286.445 200.65C286.419 200.488 286.304 200.358 286.194 200.238C285.214 199.178 284.234 198.117 283.254 197.056C282.847 197.625 282.894 198.4 282.959 199.102C283.172 201.408 283.386 203.714 283.599 206.02C283.899 206.088 284.126 205.755 284.26 205.473ZM204.956 209.316C204.828 209.307 204.681 209.304 204.591 209.399C204.491 209.505 204.513 209.677 204.542 209.822C204.736 210.779 204.93 211.737 205.124 212.694C205.196 213.049 205.281 213.428 205.542 213.672C206.388 214.462 208.018 213.104 208.805 213.956C208.943 212.596 208.844 211.212 208.513 209.888C208.489 209.795 208.462 209.696 208.392 209.632C208.312 209.558 208.195 209.547 208.087 209.539C207.043 209.465 206 209.391 204.956 209.316ZM185.49 216.417C185.377 216.433 185.26 216.45 185.167 216.518C184.961 216.667 184.969 216.977 184.999 217.234C185.077 217.918 185.164 218.628 185.514 219.217C185.864 219.806 186.555 220.242 187.205 220.064C188.137 219.808 189.069 219.552 190.001 219.296C189.96 218.384 189.78 217.479 189.468 216.623C189.391 216.41 189.293 216.185 189.101 216.069C188.902 215.949 188.654 215.977 188.425 216.009C187.447 216.145 186.468 216.281 185.49 216.417ZM207.224 208.415C207.505 208.371 207.804 208.319 208.012 208.122C208.633 207.535 207.923 206.341 208.426 205.646C208.623 205.374 208.142 205.132 207.812 205.146C206.34 205.21 204.868 205.274 203.396 205.337C203.453 205.961 203.559 206.58 203.712 207.186C203.883 207.862 204.527 208.324 205.193 208.474C205.858 208.624 206.55 208.52 207.224 208.415ZM195.327 216.534C195.138 215.601 193.919 215.383 193.004 215.558C192.09 215.732 191.069 216.07 190.292 215.547C190.341 216.531 190.566 217.506 190.951 218.41C191.032 218.599 191.13 218.797 191.306 218.899C191.505 219.014 191.75 218.977 191.975 218.937C192.876 218.778 193.778 218.619 194.679 218.459C195.126 218.38 195.715 218.018 195.48 217.621C195.292 217.305 195.401 216.896 195.327 216.534ZM189.759 220.361C189.023 220.489 188.286 220.617 187.55 220.744C187.151 220.813 186.66 220.977 186.617 221.389C186.51 222.43 187.523 223.269 188.525 223.477C189.527 223.684 190.567 223.481 191.584 223.584C191.542 222.7 191.361 221.821 191.051 220.995C190.977 220.798 190.889 220.595 190.726 220.466C190.461 220.257 190.088 220.304 189.759 220.361ZM209.167 218.341C208.19 218.235 207.196 218.289 206.235 218.498C206.766 219.793 207.143 221.155 207.356 222.543C207.453 223.179 208.34 223.192 208.95 223.033C209.177 222.973 209.425 222.899 209.555 222.7C209.667 222.527 209.662 222.304 209.652 222.097C209.6 220.955 209.548 219.811 209.495 218.669C209.492 218.596 209.487 218.52 209.447 218.461C209.387 218.373 209.271 218.353 209.167 218.341ZM193.209 228.582C194.131 227.64 193.658 225.739 192.409 225.362C191.16 224.986 189.758 226.322 190.034 227.625C190.32 228.972 192.256 229.555 193.209 228.582ZM200.452 217.541C201.038 216.758 200.161 215.601 199.211 215.431C198.262 215.26 197.3 215.633 196.336 215.619C195.981 215.613 195.966 216.16 196.081 216.504C196.231 216.949 196.38 217.394 196.529 217.839C196.59 218.021 196.701 218.239 196.888 218.227C197.576 218.183 198.263 218.139 198.95 218.095C199.499 218.06 200.118 217.988 200.452 217.541ZM209.952 225.105C209.881 224.909 209.776 224.717 209.61 224.593C209.462 224.482 209.276 224.435 209.094 224.413C207.651 224.235 206.251 225.708 206.464 227.18C207.078 227.927 208.234 228.133 209.059 227.643C209.883 227.152 210.281 226.022 209.952 225.105ZM201.048 216.208C201.016 216.856 201.572 217.408 202.181 217.583C202.791 217.757 203.439 217.645 204.062 217.531C204.381 217.473 204.739 217.389 204.906 217.104C205.262 216.498 204.555 215.386 205.207 215.154C204.769 215.092 204.332 215.03 203.894 214.969C203.315 214.887 202.717 214.808 202.156 214.971C201.595 215.135 201.077 215.611 201.048 216.208ZM206.282 217.037C206.946 217.627 208.056 217.546 208.673 216.904C209.289 216.262 209.37 215.175 208.905 214.41C207.743 214.631 206.582 214.852 205.421 215.072C205.567 215.788 205.743 216.557 206.282 217.037ZM296.009 205.671C295.104 206.014 294.201 206.358 293.296 206.701C292.847 206.871 292.392 207.045 292.003 207.331C293.482 207.922 295.347 207.15 296.009 205.671ZM211.963 132.185C211.94 131.776 211.517 131.441 211.125 131.521C211.15 131.937 211.555 132.287 211.96 132.242L211.963 132.185Z" fill="#00160A"/>
</svg>
